%TF.GenerationSoftware,KiCad,Pcbnew,10.0.3*%
%TF.CreationDate,2026-07-10T00:07:53+01:00*%
%TF.ProjectId,MANTA,4d414e54-412e-46b6-9963-61645f706362,rev?*%
%TF.SameCoordinates,Original*%
%TF.FileFunction,Copper,L1,Top*%
%TF.FilePolarity,Positive*%
%FSLAX46Y46*%
G04 Gerber Fmt 4.6, Leading zero omitted, Abs format (unit mm)*
G04 Created by KiCad (PCBNEW 10.0.3) date 2026-07-10 00:07:53*
%MOMM*%
%LPD*%
G01*
G04 APERTURE LIST*
%TA.AperFunction,ComponentPad*%
%ADD10C,1.600000*%
%TD*%
%TA.AperFunction,ComponentPad*%
%ADD11R,1.700000X1.700000*%
%TD*%
%TA.AperFunction,ComponentPad*%
%ADD12C,1.700000*%
%TD*%
%TA.AperFunction,Conductor*%
%ADD13C,0.200000*%
%TD*%
G04 APERTURE END LIST*
D10*
X49022000Y-35306000D03*
X49022000Y-25146000D03*
X39624000Y-35306000D03*
X39624000Y-25146000D03*
D11*
X58000000Y-61000000D03*
D12*
X58000000Y-63540000D03*
X58000000Y-66080000D03*
X58000000Y-68620000D03*
X58000000Y-71160000D03*
X58000000Y-73700000D03*
X58000000Y-76240000D03*
X58000000Y-78780000D03*
D10*
X36576000Y-35306000D03*
X36576000Y-25146000D03*
D11*
X59000000Y-97000000D03*
D12*
X59000000Y-94460000D03*
X59000000Y-91920000D03*
X59000000Y-89380000D03*
X59000000Y-86840000D03*
X59000000Y-84300000D03*
D10*
X8128000Y-65024000D03*
X8128000Y-75184000D03*
D11*
X27686000Y-2540000D03*
D12*
X30226000Y-2540000D03*
X32766000Y-2540000D03*
D11*
X28067000Y-20180400D03*
D12*
X28067000Y-22720400D03*
X28067000Y-25260400D03*
X28067000Y-27800400D03*
X28067000Y-30340400D03*
X28067000Y-32880400D03*
X28067000Y-35420400D03*
X28067000Y-37960400D03*
X28067000Y-40500400D03*
X28067000Y-43040400D03*
X28067000Y-45580400D03*
X28067000Y-48120400D03*
X28067000Y-50660400D03*
X28067000Y-53200400D03*
X28067000Y-55740400D03*
D11*
X6146800Y-34798000D03*
D12*
X8686800Y-34798000D03*
X11226800Y-34798000D03*
X13766800Y-34798000D03*
X16306800Y-34798000D03*
X18846800Y-34798000D03*
X21386800Y-34798000D03*
X23926800Y-34798000D03*
D10*
X36576000Y-49022000D03*
X36576000Y-38862000D03*
D11*
X2000000Y-66000000D03*
D12*
X2000000Y-68540000D03*
X2000000Y-71080000D03*
X2000000Y-73620000D03*
D11*
X2000000Y-3000000D03*
D12*
X2000000Y-5540000D03*
X2000000Y-8080000D03*
X2000000Y-10620000D03*
X2000000Y-13160000D03*
X2000000Y-15700000D03*
D10*
X48768000Y-49022000D03*
X48768000Y-38862000D03*
X54610000Y-92456000D03*
X44450000Y-92456000D03*
D11*
X15200000Y-98000000D03*
D12*
X17740000Y-98000000D03*
X20280000Y-98000000D03*
X22820000Y-98000000D03*
D11*
X11938000Y-2286000D03*
D12*
X14478000Y-2286000D03*
X17018000Y-2286000D03*
X19558000Y-2286000D03*
D10*
X42672000Y-49022000D03*
X42672000Y-38862000D03*
X39624000Y-49022000D03*
X39624000Y-38862000D03*
X33528000Y-35306000D03*
X33528000Y-25146000D03*
D11*
X6146800Y-9398000D03*
D12*
X8686800Y-9398000D03*
X11226800Y-9398000D03*
X13766800Y-9398000D03*
X16306800Y-9398000D03*
X18846800Y-9398000D03*
X21386800Y-9398000D03*
X23926800Y-9398000D03*
D11*
X53780000Y-98000000D03*
D12*
X51240000Y-98000000D03*
X48700000Y-98000000D03*
X46160000Y-98000000D03*
X43620000Y-98000000D03*
X41080000Y-98000000D03*
X38540000Y-98000000D03*
X36000000Y-98000000D03*
D10*
X33528000Y-49022000D03*
X33528000Y-38862000D03*
D11*
X53467000Y-55753000D03*
D12*
X53467000Y-53213000D03*
X53467000Y-50673000D03*
X53467000Y-48133000D03*
X53467000Y-45593000D03*
X53467000Y-43053000D03*
X53467000Y-40513000D03*
X53467000Y-37973000D03*
X53467000Y-35433000D03*
X53467000Y-32893000D03*
X53467000Y-30353000D03*
X53467000Y-27813000D03*
X53467000Y-25273000D03*
X53467000Y-22733000D03*
X53467000Y-20193000D03*
D11*
X2000000Y-97000000D03*
D12*
X2000000Y-94460000D03*
X2000000Y-91920000D03*
X2000000Y-89380000D03*
X2000000Y-86840000D03*
X2000000Y-84300000D03*
D10*
X45720000Y-35306000D03*
X45720000Y-25146000D03*
X42672000Y-35306000D03*
X42672000Y-25146000D03*
X45720000Y-49022000D03*
X45720000Y-38862000D03*
D11*
X59000000Y-3000000D03*
D12*
X59000000Y-5540000D03*
X59000000Y-8080000D03*
X59000000Y-10620000D03*
X59000000Y-13160000D03*
X59000000Y-15700000D03*
D11*
X20802600Y-43484800D03*
D12*
X18262600Y-43484800D03*
X15722600Y-43484800D03*
X13182600Y-43484800D03*
X10642600Y-43484800D03*
X8102600Y-43484800D03*
X5562600Y-43484800D03*
D11*
X38582600Y-2000000D03*
D12*
X41122600Y-2000000D03*
X43662600Y-2000000D03*
X46202600Y-2000000D03*
X48742600Y-2000000D03*
X51282600Y-2000000D03*
D13*
X49269000Y-39363000D02*
X55517400Y-39363000D01*
X49022000Y-35306000D02*
X49022000Y-38608000D01*
X49022000Y-38608000D02*
X48768000Y-38862000D01*
X58000000Y-41845600D02*
X58000000Y-61000000D01*
X48768000Y-38862000D02*
X49269000Y-39363000D01*
X55517400Y-39363000D02*
X58000000Y-41845600D01*
X49142600Y-25025400D02*
X49022000Y-25146000D01*
X49142600Y-4140000D02*
X49142600Y-25025400D01*
X51282600Y-2000000D02*
X49142600Y-4140000D01*
X39624000Y-38862000D02*
X46355000Y-45593000D01*
X39624000Y-35306000D02*
X39624000Y-38862000D01*
X46355000Y-45593000D02*
X53467000Y-45593000D01*
X43662600Y-21107400D02*
X39624000Y-25146000D01*
X43662600Y-2000000D02*
X43662600Y-21107400D01*
X55041800Y-54787800D02*
X55041800Y-62992000D01*
X53467000Y-53213000D02*
X55041800Y-54787800D01*
X55589800Y-63540000D02*
X58000000Y-63540000D01*
X55041800Y-62992000D02*
X55589800Y-63540000D01*
X58000000Y-66080000D02*
X59150000Y-64930000D01*
X59150000Y-64930000D02*
X59150000Y-42429914D01*
X59150000Y-42429914D02*
X54693086Y-37973000D01*
X54693086Y-37973000D02*
X53467000Y-37973000D01*
X53467000Y-25273000D02*
X59550000Y-31356000D01*
X59550000Y-67070000D02*
X58000000Y-68620000D01*
X59550000Y-31356000D02*
X59550000Y-67070000D01*
X51460400Y-25095200D02*
X52432600Y-24123000D01*
X59950000Y-69210000D02*
X58000000Y-71160000D01*
X59950000Y-31190315D02*
X59950000Y-69210000D01*
X54374400Y-24123000D02*
X55829200Y-25577800D01*
X55829200Y-25577800D02*
X55829200Y-27069514D01*
X55829200Y-27069514D02*
X59950000Y-31190315D01*
X51460400Y-30886400D02*
X51460400Y-25095200D01*
X53467000Y-32893000D02*
X51460400Y-30886400D01*
X52432600Y-24123000D02*
X54374400Y-24123000D01*
X52990654Y-21583000D02*
X53943346Y-21583000D01*
X51060400Y-33026400D02*
X51060400Y-23513254D01*
X53467000Y-35433000D02*
X51060400Y-33026400D01*
X53943346Y-21583000D02*
X56229200Y-23868854D01*
X56229200Y-23868854D02*
X56229200Y-26903828D01*
X60350000Y-31024630D02*
X60350000Y-71350000D01*
X51060400Y-23513254D02*
X52990654Y-21583000D01*
X60350000Y-71350000D02*
X58000000Y-73700000D01*
X56229200Y-26903828D02*
X60350000Y-31024630D01*
X44620000Y-34850365D02*
X44620000Y-39317635D01*
X54483000Y-36823000D02*
X52990654Y-36823000D01*
X54617000Y-42336654D02*
X54617000Y-51389346D01*
X52317000Y-52736654D02*
X52317000Y-56903000D01*
X55194200Y-36111800D02*
X55194200Y-32080200D01*
X50373654Y-34206000D02*
X45264365Y-34206000D01*
X54483000Y-36823000D02*
X55194200Y-36111800D01*
X52990654Y-52063000D02*
X52317000Y-52736654D01*
X53943346Y-52063000D02*
X52990654Y-52063000D01*
X46965365Y-41663000D02*
X53943346Y-41663000D01*
X54610000Y-59196000D02*
X54610000Y-63125886D01*
X45264365Y-34206000D02*
X44620000Y-34850365D01*
X53943346Y-41663000D02*
X54617000Y-42336654D01*
X54610000Y-63125886D02*
X55424114Y-63940000D01*
X55424114Y-63940000D02*
X55803800Y-63940000D01*
X55803800Y-74043800D02*
X58000000Y-76240000D01*
X52990654Y-36823000D02*
X50373654Y-34206000D01*
X55194200Y-32080200D02*
X53467000Y-30353000D01*
X54617000Y-51389346D02*
X53943346Y-52063000D01*
X52317000Y-56903000D02*
X54610000Y-59196000D01*
X55803800Y-63940000D02*
X55803800Y-74043800D01*
X44620000Y-39317635D02*
X46965365Y-41663000D01*
X36576000Y-38862000D02*
X44653200Y-46939200D01*
X44653200Y-46939200D02*
X52273200Y-46939200D01*
X36576000Y-35306000D02*
X36576000Y-38862000D01*
X52273200Y-46939200D02*
X53467000Y-48133000D01*
X36576000Y-23799800D02*
X36576000Y-25146000D01*
X41122600Y-19253200D02*
X36576000Y-23799800D01*
X41122600Y-2000000D02*
X41122600Y-19253200D01*
X11811000Y-93980000D02*
X31953200Y-93980000D01*
X1676400Y-17678400D02*
X5537200Y-17678400D01*
X850000Y-71556346D02*
X850000Y-63144400D01*
X28543346Y-54590400D02*
X27830654Y-54590400D01*
X29217000Y-55264054D02*
X28543346Y-54590400D01*
X5537200Y-17678400D02*
X12496800Y-10718800D01*
X3564000Y-75184000D02*
X8128000Y-75184000D01*
X14572600Y-43961146D02*
X27501854Y-56890400D01*
X30530800Y-10947400D02*
X30530800Y-43116600D01*
X12496800Y-10718800D02*
X12496800Y-8991600D01*
X8102600Y-43484800D02*
X9252600Y-42334800D01*
X14572600Y-43248454D02*
X14572600Y-43961146D01*
X34798000Y-4572000D02*
X34798000Y-6680200D01*
X850000Y-18504800D02*
X1676400Y-17678400D01*
X27830654Y-54590400D02*
X26917000Y-53676746D01*
X9252600Y-42334800D02*
X13658946Y-42334800D01*
X31953200Y-93980000D02*
X34188400Y-96215200D01*
X8128000Y-75184000D02*
X4477654Y-75184000D01*
X850000Y-63144400D02*
X850000Y-18504800D01*
X19558000Y-2286000D02*
X20454000Y-1390000D01*
X27501854Y-56890400D02*
X28543346Y-56890400D01*
X29217000Y-56216746D02*
X29217000Y-55264054D01*
X26917000Y-53676746D02*
X26917000Y-46730400D01*
X15646400Y-5842000D02*
X15646400Y-2031254D01*
X34188400Y-96215200D02*
X44375200Y-96215200D01*
X13658946Y-42334800D02*
X14572600Y-43248454D01*
X34798000Y-6680200D02*
X30530800Y-10947400D01*
X26917000Y-46730400D02*
X28067000Y-45580400D01*
X2000000Y-73620000D02*
X3564000Y-75184000D01*
X8128000Y-75184000D02*
X9398000Y-76454000D01*
X44375200Y-96215200D02*
X46160000Y-98000000D01*
X30530800Y-43116600D02*
X28067000Y-45580400D01*
X9398000Y-76454000D02*
X9398000Y-91567000D01*
X32766000Y-2540000D02*
X34798000Y-4572000D01*
X18408000Y-1136000D02*
X19558000Y-2286000D01*
X4477654Y-75184000D02*
X850000Y-71556346D01*
X15646400Y-2031254D02*
X16541654Y-1136000D01*
X16541654Y-1136000D02*
X18408000Y-1136000D01*
X9398000Y-91567000D02*
X11811000Y-93980000D01*
X31616000Y-1390000D02*
X32766000Y-2540000D01*
X12496800Y-8991600D02*
X15646400Y-5842000D01*
X20454000Y-1390000D02*
X31616000Y-1390000D01*
X28543346Y-56890400D02*
X29217000Y-56216746D01*
X3937000Y-64008000D02*
X1250000Y-61321000D01*
X2000000Y-71080000D02*
X3937000Y-69143000D01*
X1854200Y-18084800D02*
X1250000Y-18689000D01*
X17018000Y-2286000D02*
X18422000Y-3690000D01*
X14916800Y-9874346D02*
X14033873Y-10757273D01*
X6277243Y-45875843D02*
X10791557Y-45875843D01*
X17018000Y-2286000D02*
X17018000Y-5892800D01*
X33401000Y-54711600D02*
X29578200Y-54711600D01*
X1250000Y-61321000D02*
X1250000Y-50903086D01*
X48006000Y-92405200D02*
X52451000Y-87960200D01*
X44450000Y-92456000D02*
X47955200Y-92456000D01*
X2130157Y-45875843D02*
X6277243Y-45875843D01*
X14916800Y-9874346D02*
X14916800Y-8153400D01*
X17018000Y-5892800D02*
X14916800Y-7994000D01*
X29076000Y-3690000D02*
X30226000Y-2540000D01*
X14916800Y-7994000D02*
X14916800Y-9874346D01*
X45110400Y-54711600D02*
X34442400Y-54711600D01*
X1250000Y-47345600D02*
X1250000Y-50903086D01*
X5696486Y-18084800D02*
X1854200Y-18084800D01*
X3937000Y-69143000D02*
X3937000Y-64008000D01*
X10791557Y-45875843D02*
X13182600Y-43484800D01*
X33401000Y-54711600D02*
X32689800Y-54711600D01*
X52451000Y-62052200D02*
X45110400Y-54711600D01*
X3937000Y-63855600D02*
X9753600Y-58039000D01*
X1250000Y-47345600D02*
X1250000Y-46756000D01*
X48700000Y-93099200D02*
X48006000Y-92405200D01*
X1250000Y-46756000D02*
X2130157Y-45875843D01*
X13024013Y-10757273D02*
X5696486Y-18084800D01*
X1250000Y-18689000D02*
X1250000Y-47345600D01*
X52451000Y-87960200D02*
X52451000Y-62052200D01*
X3937000Y-64008000D02*
X3937000Y-63855600D01*
X14033873Y-10757273D02*
X13024013Y-10757273D01*
X32689800Y-54711600D02*
X29362400Y-58039000D01*
X47955200Y-92456000D02*
X48006000Y-92405200D01*
X29578200Y-54711600D02*
X28067000Y-53200400D01*
X48700000Y-98000000D02*
X48700000Y-93099200D01*
X18422000Y-3690000D02*
X29076000Y-3690000D01*
X34442400Y-54711600D02*
X33401000Y-54711600D01*
X9753600Y-58039000D02*
X29362400Y-58039000D01*
X25831800Y-28105200D02*
X25831800Y-13868400D01*
X25831800Y-13868400D02*
X23685500Y-11722100D01*
X23685500Y-11722100D02*
X18630900Y-11722100D01*
X28067000Y-30340400D02*
X25831800Y-28105200D01*
X18630900Y-11722100D02*
X16306800Y-9398000D01*
X21386800Y-34798000D02*
X24549200Y-37960400D01*
X24549200Y-37960400D02*
X28067000Y-37960400D01*
X13766800Y-34798000D02*
X19469200Y-40500400D01*
X19469200Y-40500400D02*
X28067000Y-40500400D01*
X29217000Y-41890400D02*
X28067000Y-43040400D01*
X20859200Y-39350400D02*
X28543346Y-39350400D01*
X16306800Y-34798000D02*
X20859200Y-39350400D01*
X29217000Y-40024054D02*
X29217000Y-41890400D01*
X28543346Y-39350400D02*
X29217000Y-40024054D01*
X13290454Y-33648000D02*
X17696800Y-33648000D01*
X27019200Y-54692600D02*
X26168400Y-54692600D01*
X17696800Y-33648000D02*
X18846800Y-34798000D01*
X18312654Y-40970200D02*
X12616800Y-35274346D01*
X23774400Y-41503600D02*
X23241000Y-40970200D01*
X23774400Y-52298600D02*
X23774400Y-41503600D01*
X28067000Y-55740400D02*
X27019200Y-54692600D01*
X12616800Y-35274346D02*
X12616800Y-34321654D01*
X12616800Y-34321654D02*
X13290454Y-33648000D01*
X23241000Y-40970200D02*
X18312654Y-40970200D01*
X26168400Y-54692600D02*
X23774400Y-52298600D01*
X42672000Y-38862000D02*
X46863000Y-43053000D01*
X46863000Y-43053000D02*
X53467000Y-43053000D01*
X42672000Y-35306000D02*
X42672000Y-38862000D01*
X42037000Y-47371000D02*
X50165000Y-47371000D01*
X50165000Y-47371000D02*
X53467000Y-50673000D01*
X33528000Y-38862000D02*
X42037000Y-47371000D01*
X33528000Y-35306000D02*
X33528000Y-38862000D01*
X38582600Y-20091400D02*
X33528000Y-25146000D01*
X38582600Y-2000000D02*
X38582600Y-20091400D01*
X45720000Y-38862000D02*
X47371000Y-40513000D01*
X45720000Y-35306000D02*
X45720000Y-38862000D01*
X47371000Y-40513000D02*
X53467000Y-40513000D01*
X48742600Y-2000000D02*
X48742600Y-22123400D01*
X48742600Y-22123400D02*
X45720000Y-25146000D01*
X46202600Y-2000000D02*
X46202600Y-21615400D01*
X46202600Y-21615400D02*
X42672000Y-25146000D01*
M02*
