M48
; DRILL file KiCad 10.0.3 date 2026-07-10T00:07:58
; FORMAT={-:-/ absolute / metric / decimal}
; #@! TF.CreationDate,2026-07-10T00:07:58+01:00
; #@! TF.GenerationSoftware,Kicad,Pcbnew,10.0.3
; #@! TF.FileFunction,Plated,1,2,PTH
FMAT,2
METRIC
; #@! TA.AperFunction,Plated,PTH,ComponentDrill
T1C0.800
; #@! TA.AperFunction,Plated,PTH,ComponentDrill
T2C1.000
%
G90
G05
T1
X8.128Y-65.024
X8.128Y-75.184
X33.528Y-25.146
X33.528Y-35.306
X33.528Y-38.862
X33.528Y-49.022
X36.576Y-25.146
X36.576Y-35.306
X36.576Y-38.862
X36.576Y-49.022
X39.624Y-25.146
X39.624Y-35.306
X39.624Y-38.862
X39.624Y-49.022
X42.672Y-25.146
X42.672Y-35.306
X42.672Y-38.862
X42.672Y-49.022
X44.45Y-92.456
X45.72Y-25.146
X45.72Y-35.306
X45.72Y-38.862
X45.72Y-49.022
X48.768Y-38.862
X48.768Y-49.022
X49.022Y-25.146
X49.022Y-35.306
X54.61Y-92.456
T2
X2.0Y-3.0
X2.0Y-5.54
X2.0Y-8.08
X2.0Y-10.62
X2.0Y-13.16
X2.0Y-15.7
X2.0Y-66.0
X2.0Y-68.54
X2.0Y-71.08
X2.0Y-73.62
X2.0Y-84.3
X2.0Y-86.84
X2.0Y-89.38
X2.0Y-91.92
X2.0Y-94.46
X2.0Y-97.0
X5.563Y-43.485
X6.147Y-9.398
X6.147Y-34.798
X8.103Y-43.485
X8.687Y-9.398
X8.687Y-34.798
X10.643Y-43.485
X11.227Y-9.398
X11.227Y-34.798
X11.938Y-2.286
X13.183Y-43.485
X13.767Y-9.398
X13.767Y-34.798
X14.478Y-2.286
X15.2Y-98.0
X15.723Y-43.485
X16.307Y-9.398
X16.307Y-34.798
X17.018Y-2.286
X17.74Y-98.0
X18.263Y-43.485
X18.847Y-9.398
X18.847Y-34.798
X19.558Y-2.286
X20.28Y-98.0
X20.803Y-43.485
X21.387Y-9.398
X21.387Y-34.798
X22.82Y-98.0
X23.927Y-9.398
X23.927Y-34.798
X27.686Y-2.54
X28.067Y-20.18
X28.067Y-22.72
X28.067Y-25.26
X28.067Y-27.8
X28.067Y-30.34
X28.067Y-32.88
X28.067Y-35.42
X28.067Y-37.96
X28.067Y-40.5
X28.067Y-43.04
X28.067Y-45.58
X28.067Y-48.12
X28.067Y-50.66
X28.067Y-53.2
X28.067Y-55.74
X30.226Y-2.54
X32.766Y-2.54
X36.0Y-98.0
X38.54Y-98.0
X38.583Y-2.0
X41.08Y-98.0
X41.123Y-2.0
X43.62Y-98.0
X43.663Y-2.0
X46.16Y-98.0
X46.203Y-2.0
X48.7Y-98.0
X48.743Y-2.0
X51.24Y-98.0
X51.283Y-2.0
X53.467Y-20.193
X53.467Y-22.733
X53.467Y-25.273
X53.467Y-27.813
X53.467Y-30.353
X53.467Y-32.893
X53.467Y-35.433
X53.467Y-37.973
X53.467Y-40.513
X53.467Y-43.053
X53.467Y-45.593
X53.467Y-48.133
X53.467Y-50.673
X53.467Y-53.213
X53.467Y-55.753
X53.78Y-98.0
X58.0Y-61.0
X58.0Y-63.54
X58.0Y-66.08
X58.0Y-68.62
X58.0Y-71.16
X58.0Y-73.7
X58.0Y-76.24
X58.0Y-78.78
X59.0Y-3.0
X59.0Y-5.54
X59.0Y-8.08
X59.0Y-10.62
X59.0Y-13.16
X59.0Y-15.7
X59.0Y-84.3
X59.0Y-86.84
X59.0Y-89.38
X59.0Y-91.92
X59.0Y-94.46
X59.0Y-97.0
M30
