%TF.GenerationSoftware,KiCad,Pcbnew,10.0.3*%
%TF.CreationDate,2026-07-10T00:07:53+01:00*%
%TF.ProjectId,MANTA,4d414e54-412e-46b6-9963-61645f706362,rev?*%
%TF.SameCoordinates,Original*%
%TF.FileFunction,Legend,Top*%
%TF.FilePolarity,Positive*%
%FSLAX46Y46*%
G04 Gerber Fmt 4.6, Leading zero omitted, Abs format (unit mm)*
G04 Created by KiCad (PCBNEW 10.0.3) date 2026-07-10 00:07:53*
%MOMM*%
%LPD*%
G01*
G04 APERTURE LIST*
%ADD10C,0.100000*%
%ADD11C,0.187500*%
%ADD12C,0.200000*%
%ADD13C,0.250000*%
%ADD14C,0.500000*%
%ADD15C,0.120000*%
G04 APERTURE END LIST*
D10*
X23090836Y-17181561D02*
X22900360Y-17181561D01*
X22900360Y-17181561D02*
X22900360Y-16038704D01*
X22900360Y-16038704D02*
X23090836Y-16038704D01*
X23357502Y-16686323D02*
X23738455Y-16686323D01*
X23281312Y-16914895D02*
X23547979Y-16114895D01*
X23547979Y-16114895D02*
X23814645Y-16914895D01*
X24005121Y-17181561D02*
X24195597Y-17181561D01*
X24195597Y-17181561D02*
X24195597Y-16038704D01*
X24195597Y-16038704D02*
X24005121Y-16038704D01*
X9469904Y-46415609D02*
X9612761Y-46463228D01*
X9612761Y-46463228D02*
X9660380Y-46510847D01*
X9660380Y-46510847D02*
X9707999Y-46606085D01*
X9707999Y-46606085D02*
X9707999Y-46748942D01*
X9707999Y-46748942D02*
X9660380Y-46844180D01*
X9660380Y-46844180D02*
X9612761Y-46891800D01*
X9612761Y-46891800D02*
X9517523Y-46939419D01*
X9517523Y-46939419D02*
X9136571Y-46939419D01*
X9136571Y-46939419D02*
X9136571Y-45939419D01*
X9136571Y-45939419D02*
X9469904Y-45939419D01*
X9469904Y-45939419D02*
X9565142Y-45987038D01*
X9565142Y-45987038D02*
X9612761Y-46034657D01*
X9612761Y-46034657D02*
X9660380Y-46129895D01*
X9660380Y-46129895D02*
X9660380Y-46225133D01*
X9660380Y-46225133D02*
X9612761Y-46320371D01*
X9612761Y-46320371D02*
X9565142Y-46367990D01*
X9565142Y-46367990D02*
X9469904Y-46415609D01*
X9469904Y-46415609D02*
X9136571Y-46415609D01*
X10088952Y-46653704D02*
X10565142Y-46653704D01*
X9993714Y-46939419D02*
X10327047Y-45939419D01*
X10327047Y-45939419D02*
X10660380Y-46939419D01*
X11565142Y-46939419D02*
X11231809Y-46463228D01*
X10993714Y-46939419D02*
X10993714Y-45939419D01*
X10993714Y-45939419D02*
X11374666Y-45939419D01*
X11374666Y-45939419D02*
X11469904Y-45987038D01*
X11469904Y-45987038D02*
X11517523Y-46034657D01*
X11517523Y-46034657D02*
X11565142Y-46129895D01*
X11565142Y-46129895D02*
X11565142Y-46272752D01*
X11565142Y-46272752D02*
X11517523Y-46367990D01*
X11517523Y-46367990D02*
X11469904Y-46415609D01*
X11469904Y-46415609D02*
X11374666Y-46463228D01*
X11374666Y-46463228D02*
X10993714Y-46463228D01*
X12184190Y-45939419D02*
X12374666Y-45939419D01*
X12374666Y-45939419D02*
X12469904Y-45987038D01*
X12469904Y-45987038D02*
X12565142Y-46082276D01*
X12565142Y-46082276D02*
X12612761Y-46272752D01*
X12612761Y-46272752D02*
X12612761Y-46606085D01*
X12612761Y-46606085D02*
X12565142Y-46796561D01*
X12565142Y-46796561D02*
X12469904Y-46891800D01*
X12469904Y-46891800D02*
X12374666Y-46939419D01*
X12374666Y-46939419D02*
X12184190Y-46939419D01*
X12184190Y-46939419D02*
X12088952Y-46891800D01*
X12088952Y-46891800D02*
X11993714Y-46796561D01*
X11993714Y-46796561D02*
X11946095Y-46606085D01*
X11946095Y-46606085D02*
X11946095Y-46272752D01*
X11946095Y-46272752D02*
X11993714Y-46082276D01*
X11993714Y-46082276D02*
X12088952Y-45987038D01*
X12088952Y-45987038D02*
X12184190Y-45939419D01*
X13041333Y-46939419D02*
X13041333Y-45939419D01*
X13041333Y-45939419D02*
X13374666Y-46653704D01*
X13374666Y-46653704D02*
X13707999Y-45939419D01*
X13707999Y-45939419D02*
X13707999Y-46939419D01*
X14184190Y-46415609D02*
X14517523Y-46415609D01*
X14660380Y-46939419D02*
X14184190Y-46939419D01*
X14184190Y-46939419D02*
X14184190Y-45939419D01*
X14184190Y-45939419D02*
X14660380Y-45939419D01*
X14946095Y-45939419D02*
X15517523Y-45939419D01*
X15231809Y-46939419D02*
X15231809Y-45939419D01*
X15850857Y-46415609D02*
X16184190Y-46415609D01*
X16327047Y-46939419D02*
X15850857Y-46939419D01*
X15850857Y-46939419D02*
X15850857Y-45939419D01*
X15850857Y-45939419D02*
X16327047Y-45939419D01*
X17327047Y-46939419D02*
X16993714Y-46463228D01*
X16755619Y-46939419D02*
X16755619Y-45939419D01*
X16755619Y-45939419D02*
X17136571Y-45939419D01*
X17136571Y-45939419D02*
X17231809Y-45987038D01*
X17231809Y-45987038D02*
X17279428Y-46034657D01*
X17279428Y-46034657D02*
X17327047Y-46129895D01*
X17327047Y-46129895D02*
X17327047Y-46272752D01*
X17327047Y-46272752D02*
X17279428Y-46367990D01*
X17279428Y-46367990D02*
X17231809Y-46415609D01*
X17231809Y-46415609D02*
X17136571Y-46463228D01*
X17136571Y-46463228D02*
X16755619Y-46463228D01*
X11898762Y-5537419D02*
X11898762Y-4537419D01*
X12327333Y-4632657D02*
X12374952Y-4585038D01*
X12374952Y-4585038D02*
X12470190Y-4537419D01*
X12470190Y-4537419D02*
X12708285Y-4537419D01*
X12708285Y-4537419D02*
X12803523Y-4585038D01*
X12803523Y-4585038D02*
X12851142Y-4632657D01*
X12851142Y-4632657D02*
X12898761Y-4727895D01*
X12898761Y-4727895D02*
X12898761Y-4823133D01*
X12898761Y-4823133D02*
X12851142Y-4965990D01*
X12851142Y-4965990D02*
X12279714Y-5537419D01*
X12279714Y-5537419D02*
X12898761Y-5537419D01*
X13898761Y-5442180D02*
X13851142Y-5489800D01*
X13851142Y-5489800D02*
X13708285Y-5537419D01*
X13708285Y-5537419D02*
X13613047Y-5537419D01*
X13613047Y-5537419D02*
X13470190Y-5489800D01*
X13470190Y-5489800D02*
X13374952Y-5394561D01*
X13374952Y-5394561D02*
X13327333Y-5299323D01*
X13327333Y-5299323D02*
X13279714Y-5108847D01*
X13279714Y-5108847D02*
X13279714Y-4965990D01*
X13279714Y-4965990D02*
X13327333Y-4775514D01*
X13327333Y-4775514D02*
X13374952Y-4680276D01*
X13374952Y-4680276D02*
X13470190Y-4585038D01*
X13470190Y-4585038D02*
X13613047Y-4537419D01*
X13613047Y-4537419D02*
X13708285Y-4537419D01*
X13708285Y-4537419D02*
X13851142Y-4585038D01*
X13851142Y-4585038D02*
X13898761Y-4632657D01*
X15089238Y-5013609D02*
X15422571Y-5013609D01*
X15565428Y-5537419D02*
X15089238Y-5537419D01*
X15089238Y-5537419D02*
X15089238Y-4537419D01*
X15089238Y-4537419D02*
X15565428Y-4537419D01*
X15898762Y-4537419D02*
X16565428Y-5537419D01*
X16565428Y-4537419D02*
X15898762Y-5537419D01*
X16803524Y-4537419D02*
X17374952Y-4537419D01*
X17089238Y-5537419D02*
X17089238Y-4537419D01*
X18279714Y-5537419D02*
X17946381Y-5061228D01*
X17708286Y-5537419D02*
X17708286Y-4537419D01*
X17708286Y-4537419D02*
X18089238Y-4537419D01*
X18089238Y-4537419D02*
X18184476Y-4585038D01*
X18184476Y-4585038D02*
X18232095Y-4632657D01*
X18232095Y-4632657D02*
X18279714Y-4727895D01*
X18279714Y-4727895D02*
X18279714Y-4870752D01*
X18279714Y-4870752D02*
X18232095Y-4965990D01*
X18232095Y-4965990D02*
X18184476Y-5013609D01*
X18184476Y-5013609D02*
X18089238Y-5061228D01*
X18089238Y-5061228D02*
X17708286Y-5061228D01*
X18660667Y-5251704D02*
X19136857Y-5251704D01*
X18565429Y-5537419D02*
X18898762Y-4537419D01*
X18898762Y-4537419D02*
X19232095Y-5537419D01*
X41989714Y-5537419D02*
X41656381Y-5061228D01*
X41418286Y-5537419D02*
X41418286Y-4537419D01*
X41418286Y-4537419D02*
X41799238Y-4537419D01*
X41799238Y-4537419D02*
X41894476Y-4585038D01*
X41894476Y-4585038D02*
X41942095Y-4632657D01*
X41942095Y-4632657D02*
X41989714Y-4727895D01*
X41989714Y-4727895D02*
X41989714Y-4870752D01*
X41989714Y-4870752D02*
X41942095Y-4965990D01*
X41942095Y-4965990D02*
X41894476Y-5013609D01*
X41894476Y-5013609D02*
X41799238Y-5061228D01*
X41799238Y-5061228D02*
X41418286Y-5061228D01*
X42418286Y-5013609D02*
X42751619Y-5013609D01*
X42894476Y-5537419D02*
X42418286Y-5537419D01*
X42418286Y-5537419D02*
X42418286Y-4537419D01*
X42418286Y-4537419D02*
X42894476Y-4537419D01*
X43894476Y-5442180D02*
X43846857Y-5489800D01*
X43846857Y-5489800D02*
X43704000Y-5537419D01*
X43704000Y-5537419D02*
X43608762Y-5537419D01*
X43608762Y-5537419D02*
X43465905Y-5489800D01*
X43465905Y-5489800D02*
X43370667Y-5394561D01*
X43370667Y-5394561D02*
X43323048Y-5299323D01*
X43323048Y-5299323D02*
X43275429Y-5108847D01*
X43275429Y-5108847D02*
X43275429Y-4965990D01*
X43275429Y-4965990D02*
X43323048Y-4775514D01*
X43323048Y-4775514D02*
X43370667Y-4680276D01*
X43370667Y-4680276D02*
X43465905Y-4585038D01*
X43465905Y-4585038D02*
X43608762Y-4537419D01*
X43608762Y-4537419D02*
X43704000Y-4537419D01*
X43704000Y-4537419D02*
X43846857Y-4585038D01*
X43846857Y-4585038D02*
X43894476Y-4632657D01*
X44323048Y-5013609D02*
X44656381Y-5013609D01*
X44799238Y-5537419D02*
X44323048Y-5537419D01*
X44323048Y-5537419D02*
X44323048Y-4537419D01*
X44323048Y-4537419D02*
X44799238Y-4537419D01*
X45227810Y-5537419D02*
X45227810Y-4537419D01*
X45561143Y-4537419D02*
X45894476Y-5537419D01*
X45894476Y-5537419D02*
X46227809Y-4537419D01*
X46561143Y-5013609D02*
X46894476Y-5013609D01*
X47037333Y-5537419D02*
X46561143Y-5537419D01*
X46561143Y-5537419D02*
X46561143Y-4537419D01*
X46561143Y-4537419D02*
X47037333Y-4537419D01*
X48037333Y-5537419D02*
X47704000Y-5061228D01*
X47465905Y-5537419D02*
X47465905Y-4537419D01*
X47465905Y-4537419D02*
X47846857Y-4537419D01*
X47846857Y-4537419D02*
X47942095Y-4585038D01*
X47942095Y-4585038D02*
X47989714Y-4632657D01*
X47989714Y-4632657D02*
X48037333Y-4727895D01*
X48037333Y-4727895D02*
X48037333Y-4870752D01*
X48037333Y-4870752D02*
X47989714Y-4965990D01*
X47989714Y-4965990D02*
X47942095Y-5013609D01*
X47942095Y-5013609D02*
X47846857Y-5061228D01*
X47846857Y-5061228D02*
X47465905Y-5061228D01*
X5537419Y-74048380D02*
X4537419Y-74048380D01*
X4632657Y-73619809D02*
X4585038Y-73572190D01*
X4585038Y-73572190D02*
X4537419Y-73476952D01*
X4537419Y-73476952D02*
X4537419Y-73238857D01*
X4537419Y-73238857D02*
X4585038Y-73143619D01*
X4585038Y-73143619D02*
X4632657Y-73096000D01*
X4632657Y-73096000D02*
X4727895Y-73048381D01*
X4727895Y-73048381D02*
X4823133Y-73048381D01*
X4823133Y-73048381D02*
X4965990Y-73096000D01*
X4965990Y-73096000D02*
X5537419Y-73667428D01*
X5537419Y-73667428D02*
X5537419Y-73048381D01*
X5442180Y-72048381D02*
X5489800Y-72096000D01*
X5489800Y-72096000D02*
X5537419Y-72238857D01*
X5537419Y-72238857D02*
X5537419Y-72334095D01*
X5537419Y-72334095D02*
X5489800Y-72476952D01*
X5489800Y-72476952D02*
X5394561Y-72572190D01*
X5394561Y-72572190D02*
X5299323Y-72619809D01*
X5299323Y-72619809D02*
X5108847Y-72667428D01*
X5108847Y-72667428D02*
X4965990Y-72667428D01*
X4965990Y-72667428D02*
X4775514Y-72619809D01*
X4775514Y-72619809D02*
X4680276Y-72572190D01*
X4680276Y-72572190D02*
X4585038Y-72476952D01*
X4585038Y-72476952D02*
X4537419Y-72334095D01*
X4537419Y-72334095D02*
X4537419Y-72238857D01*
X4537419Y-72238857D02*
X4585038Y-72096000D01*
X4585038Y-72096000D02*
X4632657Y-72048381D01*
X5013609Y-70857904D02*
X5013609Y-70524571D01*
X5537419Y-70381714D02*
X5537419Y-70857904D01*
X5537419Y-70857904D02*
X4537419Y-70857904D01*
X4537419Y-70857904D02*
X4537419Y-70381714D01*
X4537419Y-70048380D02*
X5537419Y-69381714D01*
X4537419Y-69381714D02*
X5537419Y-70048380D01*
X4537419Y-69143618D02*
X4537419Y-68572190D01*
X5537419Y-68857904D02*
X4537419Y-68857904D01*
X5537419Y-67667428D02*
X5061228Y-68000761D01*
X5537419Y-68238856D02*
X4537419Y-68238856D01*
X4537419Y-68238856D02*
X4537419Y-67857904D01*
X4537419Y-67857904D02*
X4585038Y-67762666D01*
X4585038Y-67762666D02*
X4632657Y-67715047D01*
X4632657Y-67715047D02*
X4727895Y-67667428D01*
X4727895Y-67667428D02*
X4870752Y-67667428D01*
X4870752Y-67667428D02*
X4965990Y-67715047D01*
X4965990Y-67715047D02*
X5013609Y-67762666D01*
X5013609Y-67762666D02*
X5061228Y-67857904D01*
X5061228Y-67857904D02*
X5061228Y-68238856D01*
X5251704Y-67286475D02*
X5251704Y-66810285D01*
X5537419Y-67381713D02*
X4537419Y-67048380D01*
X4537419Y-67048380D02*
X5537419Y-66715047D01*
X5537419Y-65095999D02*
X5537419Y-65667427D01*
X5537419Y-65381713D02*
X4537419Y-65381713D01*
X4537419Y-65381713D02*
X4680276Y-65476951D01*
X4680276Y-65476951D02*
X4775514Y-65572189D01*
X4775514Y-65572189D02*
X4823133Y-65667427D01*
D11*
X27218095Y-5278869D02*
X27218095Y-4278869D01*
X27646666Y-4374107D02*
X27694285Y-4326488D01*
X27694285Y-4326488D02*
X27789523Y-4278869D01*
X27789523Y-4278869D02*
X28027618Y-4278869D01*
X28027618Y-4278869D02*
X28122856Y-4326488D01*
X28122856Y-4326488D02*
X28170475Y-4374107D01*
X28170475Y-4374107D02*
X28218094Y-4469345D01*
X28218094Y-4469345D02*
X28218094Y-4564583D01*
X28218094Y-4564583D02*
X28170475Y-4707440D01*
X28170475Y-4707440D02*
X27599047Y-5278869D01*
X27599047Y-5278869D02*
X28218094Y-5278869D01*
X29218094Y-5183630D02*
X29170475Y-5231250D01*
X29170475Y-5231250D02*
X29027618Y-5278869D01*
X29027618Y-5278869D02*
X28932380Y-5278869D01*
X28932380Y-5278869D02*
X28789523Y-5231250D01*
X28789523Y-5231250D02*
X28694285Y-5136011D01*
X28694285Y-5136011D02*
X28646666Y-5040773D01*
X28646666Y-5040773D02*
X28599047Y-4850297D01*
X28599047Y-4850297D02*
X28599047Y-4707440D01*
X28599047Y-4707440D02*
X28646666Y-4516964D01*
X28646666Y-4516964D02*
X28694285Y-4421726D01*
X28694285Y-4421726D02*
X28789523Y-4326488D01*
X28789523Y-4326488D02*
X28932380Y-4278869D01*
X28932380Y-4278869D02*
X29027618Y-4278869D01*
X29027618Y-4278869D02*
X29170475Y-4326488D01*
X29170475Y-4326488D02*
X29218094Y-4374107D01*
X30979999Y-5278869D02*
X30646666Y-4802678D01*
X30408571Y-5278869D02*
X30408571Y-4278869D01*
X30408571Y-4278869D02*
X30789523Y-4278869D01*
X30789523Y-4278869D02*
X30884761Y-4326488D01*
X30884761Y-4326488D02*
X30932380Y-4374107D01*
X30932380Y-4374107D02*
X30979999Y-4469345D01*
X30979999Y-4469345D02*
X30979999Y-4612202D01*
X30979999Y-4612202D02*
X30932380Y-4707440D01*
X30932380Y-4707440D02*
X30884761Y-4755059D01*
X30884761Y-4755059D02*
X30789523Y-4802678D01*
X30789523Y-4802678D02*
X30408571Y-4802678D01*
X31360952Y-4993154D02*
X31837142Y-4993154D01*
X31265714Y-5278869D02*
X31599047Y-4278869D01*
X31599047Y-4278869D02*
X31932380Y-5278869D01*
X32218095Y-5231250D02*
X32360952Y-5278869D01*
X32360952Y-5278869D02*
X32599047Y-5278869D01*
X32599047Y-5278869D02*
X32694285Y-5231250D01*
X32694285Y-5231250D02*
X32741904Y-5183630D01*
X32741904Y-5183630D02*
X32789523Y-5088392D01*
X32789523Y-5088392D02*
X32789523Y-4993154D01*
X32789523Y-4993154D02*
X32741904Y-4897916D01*
X32741904Y-4897916D02*
X32694285Y-4850297D01*
X32694285Y-4850297D02*
X32599047Y-4802678D01*
X32599047Y-4802678D02*
X32408571Y-4755059D01*
X32408571Y-4755059D02*
X32313333Y-4707440D01*
X32313333Y-4707440D02*
X32265714Y-4659821D01*
X32265714Y-4659821D02*
X32218095Y-4564583D01*
X32218095Y-4564583D02*
X32218095Y-4469345D01*
X32218095Y-4469345D02*
X32265714Y-4374107D01*
X32265714Y-4374107D02*
X32313333Y-4326488D01*
X32313333Y-4326488D02*
X32408571Y-4278869D01*
X32408571Y-4278869D02*
X32646666Y-4278869D01*
X32646666Y-4278869D02*
X32789523Y-4326488D01*
X33218095Y-5278869D02*
X33218095Y-4278869D01*
X33218095Y-4278869D02*
X33599047Y-4278869D01*
X33599047Y-4278869D02*
X33694285Y-4326488D01*
X33694285Y-4326488D02*
X33741904Y-4374107D01*
X33741904Y-4374107D02*
X33789523Y-4469345D01*
X33789523Y-4469345D02*
X33789523Y-4612202D01*
X33789523Y-4612202D02*
X33741904Y-4707440D01*
X33741904Y-4707440D02*
X33694285Y-4755059D01*
X33694285Y-4755059D02*
X33599047Y-4802678D01*
X33599047Y-4802678D02*
X33218095Y-4802678D01*
D10*
X17724572Y-94256157D02*
X17581715Y-94184728D01*
X17581715Y-94184728D02*
X17367429Y-94184728D01*
X17367429Y-94184728D02*
X17153143Y-94256157D01*
X17153143Y-94256157D02*
X17010286Y-94399014D01*
X17010286Y-94399014D02*
X16938857Y-94541871D01*
X16938857Y-94541871D02*
X16867429Y-94827585D01*
X16867429Y-94827585D02*
X16867429Y-95041871D01*
X16867429Y-95041871D02*
X16938857Y-95327585D01*
X16938857Y-95327585D02*
X17010286Y-95470442D01*
X17010286Y-95470442D02*
X17153143Y-95613300D01*
X17153143Y-95613300D02*
X17367429Y-95684728D01*
X17367429Y-95684728D02*
X17510286Y-95684728D01*
X17510286Y-95684728D02*
X17724572Y-95613300D01*
X17724572Y-95613300D02*
X17796000Y-95541871D01*
X17796000Y-95541871D02*
X17796000Y-95041871D01*
X17796000Y-95041871D02*
X17510286Y-95041871D01*
X18438857Y-95684728D02*
X18438857Y-94184728D01*
X18438857Y-94184728D02*
X19010286Y-94184728D01*
X19010286Y-94184728D02*
X19153143Y-94256157D01*
X19153143Y-94256157D02*
X19224572Y-94327585D01*
X19224572Y-94327585D02*
X19296000Y-94470442D01*
X19296000Y-94470442D02*
X19296000Y-94684728D01*
X19296000Y-94684728D02*
X19224572Y-94827585D01*
X19224572Y-94827585D02*
X19153143Y-94899014D01*
X19153143Y-94899014D02*
X19010286Y-94970442D01*
X19010286Y-94970442D02*
X18438857Y-94970442D01*
X19867429Y-95613300D02*
X20081715Y-95684728D01*
X20081715Y-95684728D02*
X20438857Y-95684728D01*
X20438857Y-95684728D02*
X20581715Y-95613300D01*
X20581715Y-95613300D02*
X20653143Y-95541871D01*
X20653143Y-95541871D02*
X20724572Y-95399014D01*
X20724572Y-95399014D02*
X20724572Y-95256157D01*
X20724572Y-95256157D02*
X20653143Y-95113300D01*
X20653143Y-95113300D02*
X20581715Y-95041871D01*
X20581715Y-95041871D02*
X20438857Y-94970442D01*
X20438857Y-94970442D02*
X20153143Y-94899014D01*
X20153143Y-94899014D02*
X20010286Y-94827585D01*
X20010286Y-94827585D02*
X19938857Y-94756157D01*
X19938857Y-94756157D02*
X19867429Y-94613300D01*
X19867429Y-94613300D02*
X19867429Y-94470442D01*
X19867429Y-94470442D02*
X19938857Y-94327585D01*
X19938857Y-94327585D02*
X20010286Y-94256157D01*
X20010286Y-94256157D02*
X20153143Y-94184728D01*
X20153143Y-94184728D02*
X20510286Y-94184728D01*
X20510286Y-94184728D02*
X20724572Y-94256157D01*
X38759914Y-21661128D02*
X38402771Y-21661128D01*
X38402771Y-21661128D02*
X38402771Y-19518271D01*
X38402771Y-19518271D02*
X38759914Y-19518271D01*
X39331342Y-19661128D02*
X39331342Y-20875414D01*
X39331342Y-20875414D02*
X39402771Y-21018271D01*
X39402771Y-21018271D02*
X39474200Y-21089700D01*
X39474200Y-21089700D02*
X39617057Y-21161128D01*
X39617057Y-21161128D02*
X39902771Y-21161128D01*
X39902771Y-21161128D02*
X40045628Y-21089700D01*
X40045628Y-21089700D02*
X40117057Y-21018271D01*
X40117057Y-21018271D02*
X40188485Y-20875414D01*
X40188485Y-20875414D02*
X40188485Y-19661128D01*
X40831343Y-21089700D02*
X41045629Y-21161128D01*
X41045629Y-21161128D02*
X41402771Y-21161128D01*
X41402771Y-21161128D02*
X41545629Y-21089700D01*
X41545629Y-21089700D02*
X41617057Y-21018271D01*
X41617057Y-21018271D02*
X41688486Y-20875414D01*
X41688486Y-20875414D02*
X41688486Y-20732557D01*
X41688486Y-20732557D02*
X41617057Y-20589700D01*
X41617057Y-20589700D02*
X41545629Y-20518271D01*
X41545629Y-20518271D02*
X41402771Y-20446842D01*
X41402771Y-20446842D02*
X41117057Y-20375414D01*
X41117057Y-20375414D02*
X40974200Y-20303985D01*
X40974200Y-20303985D02*
X40902771Y-20232557D01*
X40902771Y-20232557D02*
X40831343Y-20089700D01*
X40831343Y-20089700D02*
X40831343Y-19946842D01*
X40831343Y-19946842D02*
X40902771Y-19803985D01*
X40902771Y-19803985D02*
X40974200Y-19732557D01*
X40974200Y-19732557D02*
X41117057Y-19661128D01*
X41117057Y-19661128D02*
X41474200Y-19661128D01*
X41474200Y-19661128D02*
X41688486Y-19732557D01*
X42831342Y-20375414D02*
X43045628Y-20446842D01*
X43045628Y-20446842D02*
X43117057Y-20518271D01*
X43117057Y-20518271D02*
X43188485Y-20661128D01*
X43188485Y-20661128D02*
X43188485Y-20875414D01*
X43188485Y-20875414D02*
X43117057Y-21018271D01*
X43117057Y-21018271D02*
X43045628Y-21089700D01*
X43045628Y-21089700D02*
X42902771Y-21161128D01*
X42902771Y-21161128D02*
X42331342Y-21161128D01*
X42331342Y-21161128D02*
X42331342Y-19661128D01*
X42331342Y-19661128D02*
X42831342Y-19661128D01*
X42831342Y-19661128D02*
X42974200Y-19732557D01*
X42974200Y-19732557D02*
X43045628Y-19803985D01*
X43045628Y-19803985D02*
X43117057Y-19946842D01*
X43117057Y-19946842D02*
X43117057Y-20089700D01*
X43117057Y-20089700D02*
X43045628Y-20232557D01*
X43045628Y-20232557D02*
X42974200Y-20303985D01*
X42974200Y-20303985D02*
X42831342Y-20375414D01*
X42831342Y-20375414D02*
X42331342Y-20375414D01*
X43688485Y-21661128D02*
X44045628Y-21661128D01*
X44045628Y-21661128D02*
X44045628Y-19518271D01*
X44045628Y-19518271D02*
X43688485Y-19518271D01*
X43315142Y-95684728D02*
X43315142Y-94184728D01*
X44029428Y-95684728D02*
X44029428Y-94184728D01*
X44029428Y-94184728D02*
X44529428Y-95256157D01*
X44529428Y-95256157D02*
X45029428Y-94184728D01*
X45029428Y-94184728D02*
X45029428Y-95684728D01*
X45743714Y-94184728D02*
X45743714Y-95399014D01*
X45743714Y-95399014D02*
X45815143Y-95541871D01*
X45815143Y-95541871D02*
X45886572Y-95613300D01*
X45886572Y-95613300D02*
X46029429Y-95684728D01*
X46029429Y-95684728D02*
X46315143Y-95684728D01*
X46315143Y-95684728D02*
X46458000Y-95613300D01*
X46458000Y-95613300D02*
X46529429Y-95541871D01*
X46529429Y-95541871D02*
X46600857Y-95399014D01*
X46600857Y-95399014D02*
X46600857Y-94184728D01*
X55298728Y-76199142D02*
X53798728Y-76199142D01*
X53798728Y-76199142D02*
X53798728Y-75841999D01*
X53798728Y-75841999D02*
X53870157Y-75627713D01*
X53870157Y-75627713D02*
X54013014Y-75484856D01*
X54013014Y-75484856D02*
X54155871Y-75413427D01*
X54155871Y-75413427D02*
X54441585Y-75341999D01*
X54441585Y-75341999D02*
X54655871Y-75341999D01*
X54655871Y-75341999D02*
X54941585Y-75413427D01*
X54941585Y-75413427D02*
X55084442Y-75484856D01*
X55084442Y-75484856D02*
X55227300Y-75627713D01*
X55227300Y-75627713D02*
X55298728Y-75841999D01*
X55298728Y-75841999D02*
X55298728Y-76199142D01*
X54870157Y-74770570D02*
X54870157Y-74056285D01*
X55298728Y-74913427D02*
X53798728Y-74413427D01*
X53798728Y-74413427D02*
X55298728Y-73913427D01*
X53798728Y-73627713D02*
X53798728Y-72770571D01*
X55298728Y-73199142D02*
X53798728Y-73199142D01*
X54870157Y-72341999D02*
X54870157Y-71627714D01*
X55298728Y-72484856D02*
X53798728Y-71984856D01*
X53798728Y-71984856D02*
X55298728Y-71484856D01*
X54513014Y-69342000D02*
X54584442Y-69127714D01*
X54584442Y-69127714D02*
X54655871Y-69056285D01*
X54655871Y-69056285D02*
X54798728Y-68984857D01*
X54798728Y-68984857D02*
X55013014Y-68984857D01*
X55013014Y-68984857D02*
X55155871Y-69056285D01*
X55155871Y-69056285D02*
X55227300Y-69127714D01*
X55227300Y-69127714D02*
X55298728Y-69270571D01*
X55298728Y-69270571D02*
X55298728Y-69842000D01*
X55298728Y-69842000D02*
X53798728Y-69842000D01*
X53798728Y-69842000D02*
X53798728Y-69342000D01*
X53798728Y-69342000D02*
X53870157Y-69199143D01*
X53870157Y-69199143D02*
X53941585Y-69127714D01*
X53941585Y-69127714D02*
X54084442Y-69056285D01*
X54084442Y-69056285D02*
X54227300Y-69056285D01*
X54227300Y-69056285D02*
X54370157Y-69127714D01*
X54370157Y-69127714D02*
X54441585Y-69199143D01*
X54441585Y-69199143D02*
X54513014Y-69342000D01*
X54513014Y-69342000D02*
X54513014Y-69842000D01*
X55298728Y-67484857D02*
X54584442Y-67984857D01*
X55298728Y-68342000D02*
X53798728Y-68342000D01*
X53798728Y-68342000D02*
X53798728Y-67770571D01*
X53798728Y-67770571D02*
X53870157Y-67627714D01*
X53870157Y-67627714D02*
X53941585Y-67556285D01*
X53941585Y-67556285D02*
X54084442Y-67484857D01*
X54084442Y-67484857D02*
X54298728Y-67484857D01*
X54298728Y-67484857D02*
X54441585Y-67556285D01*
X54441585Y-67556285D02*
X54513014Y-67627714D01*
X54513014Y-67627714D02*
X54584442Y-67770571D01*
X54584442Y-67770571D02*
X54584442Y-68342000D01*
X55298728Y-66842000D02*
X53798728Y-66842000D01*
X55298728Y-66127714D02*
X53798728Y-66127714D01*
X53798728Y-66127714D02*
X53798728Y-65770571D01*
X53798728Y-65770571D02*
X53870157Y-65556285D01*
X53870157Y-65556285D02*
X54013014Y-65413428D01*
X54013014Y-65413428D02*
X54155871Y-65341999D01*
X54155871Y-65341999D02*
X54441585Y-65270571D01*
X54441585Y-65270571D02*
X54655871Y-65270571D01*
X54655871Y-65270571D02*
X54941585Y-65341999D01*
X54941585Y-65341999D02*
X55084442Y-65413428D01*
X55084442Y-65413428D02*
X55227300Y-65556285D01*
X55227300Y-65556285D02*
X55298728Y-65770571D01*
X55298728Y-65770571D02*
X55298728Y-66127714D01*
X53870157Y-63841999D02*
X53798728Y-63984857D01*
X53798728Y-63984857D02*
X53798728Y-64199142D01*
X53798728Y-64199142D02*
X53870157Y-64413428D01*
X53870157Y-64413428D02*
X54013014Y-64556285D01*
X54013014Y-64556285D02*
X54155871Y-64627714D01*
X54155871Y-64627714D02*
X54441585Y-64699142D01*
X54441585Y-64699142D02*
X54655871Y-64699142D01*
X54655871Y-64699142D02*
X54941585Y-64627714D01*
X54941585Y-64627714D02*
X55084442Y-64556285D01*
X55084442Y-64556285D02*
X55227300Y-64413428D01*
X55227300Y-64413428D02*
X55298728Y-64199142D01*
X55298728Y-64199142D02*
X55298728Y-64056285D01*
X55298728Y-64056285D02*
X55227300Y-63841999D01*
X55227300Y-63841999D02*
X55155871Y-63770571D01*
X55155871Y-63770571D02*
X54655871Y-63770571D01*
X54655871Y-63770571D02*
X54655871Y-64056285D01*
X54513014Y-63127714D02*
X54513014Y-62627714D01*
X55298728Y-62413428D02*
X55298728Y-63127714D01*
X55298728Y-63127714D02*
X53798728Y-63127714D01*
X53798728Y-63127714D02*
X53798728Y-62413428D01*
X37116285Y-52872419D02*
X37782952Y-52872419D01*
X38068666Y-53920038D02*
X37116285Y-53920038D01*
X37116285Y-53920038D02*
X37116285Y-51920038D01*
X37116285Y-51920038D02*
X38068666Y-51920038D01*
X38830571Y-53824800D02*
X39116285Y-53920038D01*
X39116285Y-53920038D02*
X39592476Y-53920038D01*
X39592476Y-53920038D02*
X39782952Y-53824800D01*
X39782952Y-53824800D02*
X39878190Y-53729561D01*
X39878190Y-53729561D02*
X39973428Y-53539085D01*
X39973428Y-53539085D02*
X39973428Y-53348609D01*
X39973428Y-53348609D02*
X39878190Y-53158133D01*
X39878190Y-53158133D02*
X39782952Y-53062895D01*
X39782952Y-53062895D02*
X39592476Y-52967657D01*
X39592476Y-52967657D02*
X39211523Y-52872419D01*
X39211523Y-52872419D02*
X39021047Y-52777180D01*
X39021047Y-52777180D02*
X38925809Y-52681942D01*
X38925809Y-52681942D02*
X38830571Y-52491466D01*
X38830571Y-52491466D02*
X38830571Y-52300990D01*
X38830571Y-52300990D02*
X38925809Y-52110514D01*
X38925809Y-52110514D02*
X39021047Y-52015276D01*
X39021047Y-52015276D02*
X39211523Y-51920038D01*
X39211523Y-51920038D02*
X39687714Y-51920038D01*
X39687714Y-51920038D02*
X39973428Y-52015276D01*
X40830571Y-53920038D02*
X40830571Y-51920038D01*
X40830571Y-51920038D02*
X41592476Y-51920038D01*
X41592476Y-51920038D02*
X41782952Y-52015276D01*
X41782952Y-52015276D02*
X41878190Y-52110514D01*
X41878190Y-52110514D02*
X41973428Y-52300990D01*
X41973428Y-52300990D02*
X41973428Y-52586704D01*
X41973428Y-52586704D02*
X41878190Y-52777180D01*
X41878190Y-52777180D02*
X41782952Y-52872419D01*
X41782952Y-52872419D02*
X41592476Y-52967657D01*
X41592476Y-52967657D02*
X40830571Y-52967657D01*
X42640095Y-51920038D02*
X43878190Y-51920038D01*
X43878190Y-51920038D02*
X43211523Y-52681942D01*
X43211523Y-52681942D02*
X43497238Y-52681942D01*
X43497238Y-52681942D02*
X43687714Y-52777180D01*
X43687714Y-52777180D02*
X43782952Y-52872419D01*
X43782952Y-52872419D02*
X43878190Y-53062895D01*
X43878190Y-53062895D02*
X43878190Y-53539085D01*
X43878190Y-53539085D02*
X43782952Y-53729561D01*
X43782952Y-53729561D02*
X43687714Y-53824800D01*
X43687714Y-53824800D02*
X43497238Y-53920038D01*
X43497238Y-53920038D02*
X42925809Y-53920038D01*
X42925809Y-53920038D02*
X42735333Y-53824800D01*
X42735333Y-53824800D02*
X42640095Y-53729561D01*
X44640095Y-52110514D02*
X44735333Y-52015276D01*
X44735333Y-52015276D02*
X44925809Y-51920038D01*
X44925809Y-51920038D02*
X45402000Y-51920038D01*
X45402000Y-51920038D02*
X45592476Y-52015276D01*
X45592476Y-52015276D02*
X45687714Y-52110514D01*
X45687714Y-52110514D02*
X45782952Y-52300990D01*
X45782952Y-52300990D02*
X45782952Y-52491466D01*
X45782952Y-52491466D02*
X45687714Y-52777180D01*
X45687714Y-52777180D02*
X44544857Y-53920038D01*
X44544857Y-53920038D02*
X45782952Y-53920038D01*
D12*
X21833332Y-76843409D02*
X22785713Y-76843409D01*
X21642856Y-77414838D02*
X22309522Y-75414838D01*
X22309522Y-75414838D02*
X22976189Y-77414838D01*
X23357142Y-76081504D02*
X24119046Y-76081504D01*
X23642856Y-77414838D02*
X23642856Y-75700552D01*
X23642856Y-75700552D02*
X23738094Y-75510076D01*
X23738094Y-75510076D02*
X23928570Y-75414838D01*
X23928570Y-75414838D02*
X24119046Y-75414838D01*
X25071427Y-77414838D02*
X24880951Y-77319600D01*
X24880951Y-77319600D02*
X24785713Y-77224361D01*
X24785713Y-77224361D02*
X24690475Y-77033885D01*
X24690475Y-77033885D02*
X24690475Y-76462457D01*
X24690475Y-76462457D02*
X24785713Y-76271980D01*
X24785713Y-76271980D02*
X24880951Y-76176742D01*
X24880951Y-76176742D02*
X25071427Y-76081504D01*
X25071427Y-76081504D02*
X25357142Y-76081504D01*
X25357142Y-76081504D02*
X25547618Y-76176742D01*
X25547618Y-76176742D02*
X25642856Y-76271980D01*
X25642856Y-76271980D02*
X25738094Y-76462457D01*
X25738094Y-76462457D02*
X25738094Y-77033885D01*
X25738094Y-77033885D02*
X25642856Y-77224361D01*
X25642856Y-77224361D02*
X25547618Y-77319600D01*
X25547618Y-77319600D02*
X25357142Y-77414838D01*
X25357142Y-77414838D02*
X25071427Y-77414838D01*
X26595237Y-76081504D02*
X26595237Y-77414838D01*
X26595237Y-76271980D02*
X26690475Y-76176742D01*
X26690475Y-76176742D02*
X26880951Y-76081504D01*
X26880951Y-76081504D02*
X27166666Y-76081504D01*
X27166666Y-76081504D02*
X27357142Y-76176742D01*
X27357142Y-76176742D02*
X27452380Y-76367219D01*
X27452380Y-76367219D02*
X27452380Y-77414838D01*
X28309523Y-77319600D02*
X28499999Y-77414838D01*
X28499999Y-77414838D02*
X28880951Y-77414838D01*
X28880951Y-77414838D02*
X29071428Y-77319600D01*
X29071428Y-77319600D02*
X29166666Y-77129123D01*
X29166666Y-77129123D02*
X29166666Y-77033885D01*
X29166666Y-77033885D02*
X29071428Y-76843409D01*
X29071428Y-76843409D02*
X28880951Y-76748171D01*
X28880951Y-76748171D02*
X28595237Y-76748171D01*
X28595237Y-76748171D02*
X28404761Y-76652933D01*
X28404761Y-76652933D02*
X28309523Y-76462457D01*
X28309523Y-76462457D02*
X28309523Y-76367219D01*
X28309523Y-76367219D02*
X28404761Y-76176742D01*
X28404761Y-76176742D02*
X28595237Y-76081504D01*
X28595237Y-76081504D02*
X28880951Y-76081504D01*
X28880951Y-76081504D02*
X29071428Y-76176742D01*
X30309523Y-77414838D02*
X30119047Y-77319600D01*
X30119047Y-77319600D02*
X30023809Y-77224361D01*
X30023809Y-77224361D02*
X29928571Y-77033885D01*
X29928571Y-77033885D02*
X29928571Y-76462457D01*
X29928571Y-76462457D02*
X30023809Y-76271980D01*
X30023809Y-76271980D02*
X30119047Y-76176742D01*
X30119047Y-76176742D02*
X30309523Y-76081504D01*
X30309523Y-76081504D02*
X30595238Y-76081504D01*
X30595238Y-76081504D02*
X30785714Y-76176742D01*
X30785714Y-76176742D02*
X30880952Y-76271980D01*
X30880952Y-76271980D02*
X30976190Y-76462457D01*
X30976190Y-76462457D02*
X30976190Y-77033885D01*
X30976190Y-77033885D02*
X30880952Y-77224361D01*
X30880952Y-77224361D02*
X30785714Y-77319600D01*
X30785714Y-77319600D02*
X30595238Y-77414838D01*
X30595238Y-77414838D02*
X30309523Y-77414838D01*
X33357143Y-77414838D02*
X33357143Y-75414838D01*
X33357143Y-75414838D02*
X34500000Y-77414838D01*
X34500000Y-77414838D02*
X34500000Y-75414838D01*
X35738095Y-77414838D02*
X35547619Y-77319600D01*
X35547619Y-77319600D02*
X35452381Y-77224361D01*
X35452381Y-77224361D02*
X35357143Y-77033885D01*
X35357143Y-77033885D02*
X35357143Y-76462457D01*
X35357143Y-76462457D02*
X35452381Y-76271980D01*
X35452381Y-76271980D02*
X35547619Y-76176742D01*
X35547619Y-76176742D02*
X35738095Y-76081504D01*
X35738095Y-76081504D02*
X36023810Y-76081504D01*
X36023810Y-76081504D02*
X36214286Y-76176742D01*
X36214286Y-76176742D02*
X36309524Y-76271980D01*
X36309524Y-76271980D02*
X36404762Y-76462457D01*
X36404762Y-76462457D02*
X36404762Y-77033885D01*
X36404762Y-77033885D02*
X36309524Y-77224361D01*
X36309524Y-77224361D02*
X36214286Y-77319600D01*
X36214286Y-77319600D02*
X36023810Y-77414838D01*
X36023810Y-77414838D02*
X35738095Y-77414838D01*
X36119048Y-75319600D02*
X35833333Y-75605314D01*
X37261905Y-77414838D02*
X37261905Y-76081504D01*
X37261905Y-75414838D02*
X37166667Y-75510076D01*
X37166667Y-75510076D02*
X37261905Y-75605314D01*
X37261905Y-75605314D02*
X37357143Y-75510076D01*
X37357143Y-75510076D02*
X37261905Y-75414838D01*
X37261905Y-75414838D02*
X37261905Y-75605314D01*
X39071429Y-77414838D02*
X39071429Y-76367219D01*
X39071429Y-76367219D02*
X38976191Y-76176742D01*
X38976191Y-76176742D02*
X38785715Y-76081504D01*
X38785715Y-76081504D02*
X38404762Y-76081504D01*
X38404762Y-76081504D02*
X38214286Y-76176742D01*
X39071429Y-77319600D02*
X38880953Y-77414838D01*
X38880953Y-77414838D02*
X38404762Y-77414838D01*
X38404762Y-77414838D02*
X38214286Y-77319600D01*
X38214286Y-77319600D02*
X38119048Y-77129123D01*
X38119048Y-77129123D02*
X38119048Y-76938647D01*
X38119048Y-76938647D02*
X38214286Y-76748171D01*
X38214286Y-76748171D02*
X38404762Y-76652933D01*
X38404762Y-76652933D02*
X38880953Y-76652933D01*
X38880953Y-76652933D02*
X39071429Y-76557695D01*
D13*
X12033523Y-23518238D02*
X11081142Y-23518238D01*
X11081142Y-23518238D02*
X11081142Y-21518238D01*
X12985904Y-23518238D02*
X12795428Y-23423000D01*
X12795428Y-23423000D02*
X12700190Y-23327761D01*
X12700190Y-23327761D02*
X12604952Y-23137285D01*
X12604952Y-23137285D02*
X12604952Y-22565857D01*
X12604952Y-22565857D02*
X12700190Y-22375380D01*
X12700190Y-22375380D02*
X12795428Y-22280142D01*
X12795428Y-22280142D02*
X12985904Y-22184904D01*
X12985904Y-22184904D02*
X13271619Y-22184904D01*
X13271619Y-22184904D02*
X13462095Y-22280142D01*
X13462095Y-22280142D02*
X13557333Y-22375380D01*
X13557333Y-22375380D02*
X13652571Y-22565857D01*
X13652571Y-22565857D02*
X13652571Y-23137285D01*
X13652571Y-23137285D02*
X13557333Y-23327761D01*
X13557333Y-23327761D02*
X13462095Y-23423000D01*
X13462095Y-23423000D02*
X13271619Y-23518238D01*
X13271619Y-23518238D02*
X12985904Y-23518238D01*
X15652571Y-23518238D02*
X14985904Y-22565857D01*
X14509714Y-23518238D02*
X14509714Y-21518238D01*
X14509714Y-21518238D02*
X15271619Y-21518238D01*
X15271619Y-21518238D02*
X15462095Y-21613476D01*
X15462095Y-21613476D02*
X15557333Y-21708714D01*
X15557333Y-21708714D02*
X15652571Y-21899190D01*
X15652571Y-21899190D02*
X15652571Y-22184904D01*
X15652571Y-22184904D02*
X15557333Y-22375380D01*
X15557333Y-22375380D02*
X15462095Y-22470619D01*
X15462095Y-22470619D02*
X15271619Y-22565857D01*
X15271619Y-22565857D02*
X14509714Y-22565857D01*
X17366857Y-23518238D02*
X17366857Y-22470619D01*
X17366857Y-22470619D02*
X17271619Y-22280142D01*
X17271619Y-22280142D02*
X17081143Y-22184904D01*
X17081143Y-22184904D02*
X16700190Y-22184904D01*
X16700190Y-22184904D02*
X16509714Y-22280142D01*
X17366857Y-23423000D02*
X17176381Y-23518238D01*
X17176381Y-23518238D02*
X16700190Y-23518238D01*
X16700190Y-23518238D02*
X16509714Y-23423000D01*
X16509714Y-23423000D02*
X16414476Y-23232523D01*
X16414476Y-23232523D02*
X16414476Y-23042047D01*
X16414476Y-23042047D02*
X16509714Y-22851571D01*
X16509714Y-22851571D02*
X16700190Y-22756333D01*
X16700190Y-22756333D02*
X17176381Y-22756333D01*
X17176381Y-22756333D02*
X17366857Y-22661095D01*
D14*
X15833333Y-73212334D02*
X15833333Y-66212334D01*
X15833333Y-66212334D02*
X18166667Y-71212334D01*
X18166667Y-71212334D02*
X20500000Y-66212334D01*
X20500000Y-66212334D02*
X20500000Y-73212334D01*
X23500000Y-71212334D02*
X26833333Y-71212334D01*
X22833333Y-73212334D02*
X25166667Y-66212334D01*
X25166667Y-66212334D02*
X27500000Y-73212334D01*
X29833333Y-73212334D02*
X29833333Y-66212334D01*
X29833333Y-66212334D02*
X33833333Y-73212334D01*
X33833333Y-73212334D02*
X33833333Y-66212334D01*
X36166666Y-66212334D02*
X40166666Y-66212334D01*
X38166666Y-73212334D02*
X38166666Y-66212334D01*
X42166666Y-71212334D02*
X45499999Y-71212334D01*
X41499999Y-73212334D02*
X43833333Y-66212334D01*
X43833333Y-66212334D02*
X46166666Y-73212334D01*
D15*
X49022000Y-26186000D02*
X49022000Y-26956000D01*
X49022000Y-34266000D02*
X49022000Y-33496000D01*
X47652000Y-26956000D02*
X50392000Y-26956000D01*
X50392000Y-33496000D01*
X47652000Y-33496000D01*
X47652000Y-26956000D01*
X39624000Y-26186000D02*
X39624000Y-26956000D01*
X39624000Y-34266000D02*
X39624000Y-33496000D01*
X38254000Y-26956000D02*
X40994000Y-26956000D01*
X40994000Y-33496000D01*
X38254000Y-33496000D01*
X38254000Y-26956000D01*
X56620000Y-59620000D02*
X58000000Y-59620000D01*
X56620000Y-61000000D02*
X56620000Y-59620000D01*
X56620000Y-62270000D02*
X56620000Y-80160000D01*
X56620000Y-62270000D02*
X59380000Y-62270000D01*
X56620000Y-80160000D02*
X59380000Y-80160000D01*
X59380000Y-62270000D02*
X59380000Y-80160000D01*
X36576000Y-26186000D02*
X36576000Y-26956000D01*
X36576000Y-34266000D02*
X36576000Y-33496000D01*
X35206000Y-26956000D02*
X37946000Y-26956000D01*
X37946000Y-33496000D01*
X35206000Y-33496000D01*
X35206000Y-26956000D01*
X57620000Y-95730000D02*
X57620000Y-82920000D01*
X60380000Y-82920000D02*
X57620000Y-82920000D01*
X60380000Y-95730000D02*
X57620000Y-95730000D01*
X60380000Y-95730000D02*
X60380000Y-82920000D01*
X60380000Y-97000000D02*
X60380000Y-98380000D01*
X60380000Y-98380000D02*
X59000000Y-98380000D01*
X8128000Y-66064000D02*
X8128000Y-66834000D01*
X8128000Y-74144000D02*
X8128000Y-73374000D01*
X6758000Y-66834000D02*
X9498000Y-66834000D01*
X9498000Y-73374000D01*
X6758000Y-73374000D01*
X6758000Y-66834000D01*
X26306000Y-3920000D02*
X26306000Y-2540000D01*
X27686000Y-3920000D02*
X26306000Y-3920000D01*
X28956000Y-1160000D02*
X34146000Y-1160000D01*
X28956000Y-3920000D02*
X28956000Y-1160000D01*
X28956000Y-3920000D02*
X34146000Y-3920000D01*
X34146000Y-3920000D02*
X34146000Y-1160000D01*
X26687000Y-18800400D02*
X28067000Y-18800400D01*
X26687000Y-20180400D02*
X26687000Y-18800400D01*
X26687000Y-21450400D02*
X26687000Y-57120400D01*
X26687000Y-21450400D02*
X29447000Y-21450400D01*
X26687000Y-57120400D02*
X29447000Y-57120400D01*
X29447000Y-21450400D02*
X29447000Y-57120400D01*
X4766800Y-36178000D02*
X4766800Y-34798000D01*
X6146800Y-36178000D02*
X4766800Y-36178000D01*
X7416800Y-33418000D02*
X25306800Y-33418000D01*
X7416800Y-36178000D02*
X7416800Y-33418000D01*
X7416800Y-36178000D02*
X25306800Y-36178000D01*
X25306800Y-36178000D02*
X25306800Y-33418000D01*
X36576000Y-39902000D02*
X36576000Y-40672000D01*
X36576000Y-47982000D02*
X36576000Y-47212000D01*
X35206000Y-40672000D02*
X37946000Y-40672000D01*
X37946000Y-47212000D01*
X35206000Y-47212000D01*
X35206000Y-40672000D01*
X620000Y-64620000D02*
X2000000Y-64620000D01*
X620000Y-66000000D02*
X620000Y-64620000D01*
X620000Y-67270000D02*
X620000Y-75000000D01*
X620000Y-67270000D02*
X3380000Y-67270000D01*
X620000Y-75000000D02*
X3380000Y-75000000D01*
X3380000Y-67270000D02*
X3380000Y-75000000D01*
X620000Y-1620000D02*
X2000000Y-1620000D01*
X620000Y-3000000D02*
X620000Y-1620000D01*
X620000Y-4270000D02*
X620000Y-17080000D01*
X620000Y-4270000D02*
X3380000Y-4270000D01*
X620000Y-17080000D02*
X3380000Y-17080000D01*
X3380000Y-4270000D02*
X3380000Y-17080000D01*
X48768000Y-39902000D02*
X48768000Y-40672000D01*
X48768000Y-47982000D02*
X48768000Y-47212000D01*
X47398000Y-40672000D02*
X50138000Y-40672000D01*
X50138000Y-47212000D01*
X47398000Y-47212000D01*
X47398000Y-40672000D01*
X45490000Y-92456000D02*
X46260000Y-92456000D01*
X53570000Y-92456000D02*
X52800000Y-92456000D01*
X46260000Y-91086000D02*
X52800000Y-91086000D01*
X52800000Y-93826000D01*
X46260000Y-93826000D01*
X46260000Y-91086000D01*
X13820000Y-99380000D02*
X13820000Y-98000000D01*
X15200000Y-99380000D02*
X13820000Y-99380000D01*
X16470000Y-96620000D02*
X24200000Y-96620000D01*
X16470000Y-99380000D02*
X16470000Y-96620000D01*
X16470000Y-99380000D02*
X24200000Y-99380000D01*
X24200000Y-99380000D02*
X24200000Y-96620000D01*
X10558000Y-3666000D02*
X10558000Y-2286000D01*
X11938000Y-3666000D02*
X10558000Y-3666000D01*
X13208000Y-906000D02*
X20938000Y-906000D01*
X13208000Y-3666000D02*
X13208000Y-906000D01*
X13208000Y-3666000D02*
X20938000Y-3666000D01*
X20938000Y-3666000D02*
X20938000Y-906000D01*
X42672000Y-39902000D02*
X42672000Y-40672000D01*
X42672000Y-47982000D02*
X42672000Y-47212000D01*
X41302000Y-40672000D02*
X44042000Y-40672000D01*
X44042000Y-47212000D01*
X41302000Y-47212000D01*
X41302000Y-40672000D01*
X39624000Y-39902000D02*
X39624000Y-40672000D01*
X39624000Y-47982000D02*
X39624000Y-47212000D01*
X38254000Y-40672000D02*
X40994000Y-40672000D01*
X40994000Y-47212000D01*
X38254000Y-47212000D01*
X38254000Y-40672000D01*
X33528000Y-26186000D02*
X33528000Y-26956000D01*
X33528000Y-34266000D02*
X33528000Y-33496000D01*
X32158000Y-26956000D02*
X34898000Y-26956000D01*
X34898000Y-33496000D01*
X32158000Y-33496000D01*
X32158000Y-26956000D01*
X4766800Y-10778000D02*
X4766800Y-9398000D01*
X6146800Y-10778000D02*
X4766800Y-10778000D01*
X7416800Y-8018000D02*
X25306800Y-8018000D01*
X7416800Y-10778000D02*
X7416800Y-8018000D01*
X7416800Y-10778000D02*
X25306800Y-10778000D01*
X25306800Y-10778000D02*
X25306800Y-8018000D01*
X34620000Y-96620000D02*
X34620000Y-99380000D01*
X52510000Y-96620000D02*
X34620000Y-96620000D01*
X52510000Y-96620000D02*
X52510000Y-99380000D01*
X52510000Y-99380000D02*
X34620000Y-99380000D01*
X53780000Y-96620000D02*
X55160000Y-96620000D01*
X55160000Y-96620000D02*
X55160000Y-98000000D01*
X33528000Y-39902000D02*
X33528000Y-40672000D01*
X33528000Y-47982000D02*
X33528000Y-47212000D01*
X32158000Y-40672000D02*
X34898000Y-40672000D01*
X34898000Y-47212000D01*
X32158000Y-47212000D01*
X32158000Y-40672000D01*
X52087000Y-54483000D02*
X52087000Y-18813000D01*
X54847000Y-18813000D02*
X52087000Y-18813000D01*
X54847000Y-54483000D02*
X52087000Y-54483000D01*
X54847000Y-54483000D02*
X54847000Y-18813000D01*
X54847000Y-55753000D02*
X54847000Y-57133000D01*
X54847000Y-57133000D02*
X53467000Y-57133000D01*
X620000Y-95730000D02*
X620000Y-82920000D01*
X3380000Y-82920000D02*
X620000Y-82920000D01*
X3380000Y-95730000D02*
X620000Y-95730000D01*
X3380000Y-95730000D02*
X3380000Y-82920000D01*
X3380000Y-97000000D02*
X3380000Y-98380000D01*
X3380000Y-98380000D02*
X2000000Y-98380000D01*
X45720000Y-26186000D02*
X45720000Y-26956000D01*
X45720000Y-34266000D02*
X45720000Y-33496000D01*
X44350000Y-26956000D02*
X47090000Y-26956000D01*
X47090000Y-33496000D01*
X44350000Y-33496000D01*
X44350000Y-26956000D01*
X42672000Y-26186000D02*
X42672000Y-26956000D01*
X42672000Y-34266000D02*
X42672000Y-33496000D01*
X41302000Y-26956000D02*
X44042000Y-26956000D01*
X44042000Y-33496000D01*
X41302000Y-33496000D01*
X41302000Y-26956000D01*
X45720000Y-39902000D02*
X45720000Y-40672000D01*
X45720000Y-47982000D02*
X45720000Y-47212000D01*
X44350000Y-40672000D02*
X47090000Y-40672000D01*
X47090000Y-47212000D01*
X44350000Y-47212000D01*
X44350000Y-40672000D01*
X57620000Y-1620000D02*
X59000000Y-1620000D01*
X57620000Y-3000000D02*
X57620000Y-1620000D01*
X57620000Y-4270000D02*
X57620000Y-17080000D01*
X57620000Y-4270000D02*
X60380000Y-4270000D01*
X57620000Y-17080000D02*
X60380000Y-17080000D01*
X60380000Y-4270000D02*
X60380000Y-17080000D01*
X4182600Y-42104800D02*
X4182600Y-44864800D01*
X19532600Y-42104800D02*
X4182600Y-42104800D01*
X19532600Y-42104800D02*
X19532600Y-44864800D01*
X19532600Y-44864800D02*
X4182600Y-44864800D01*
X20802600Y-42104800D02*
X22182600Y-42104800D01*
X22182600Y-42104800D02*
X22182600Y-43484800D01*
X37202600Y-3380000D02*
X37202600Y-2000000D01*
X38582600Y-3380000D02*
X37202600Y-3380000D01*
X39852600Y-620000D02*
X52662600Y-620000D01*
X39852600Y-3380000D02*
X39852600Y-620000D01*
X39852600Y-3380000D02*
X52662600Y-3380000D01*
X52662600Y-3380000D02*
X52662600Y-620000D01*
M02*
