%TF.GenerationSoftware,KiCad,Pcbnew,10.0.3*%
%TF.CreationDate,2026-07-10T00:07:53+01:00*%
%TF.ProjectId,MANTA,4d414e54-412e-46b6-9963-61645f706362,rev?*%
%TF.SameCoordinates,Original*%
%TF.FileFunction,Soldermask,Bot*%
%TF.FilePolarity,Negative*%
%FSLAX46Y46*%
G04 Gerber Fmt 4.6, Leading zero omitted, Abs format (unit mm)*
G04 Created by KiCad (PCBNEW 10.0.3) date 2026-07-10 00:07:53*
%MOMM*%
%LPD*%
G01*
G04 APERTURE LIST*
%ADD10C,1.600000*%
%ADD11R,1.700000X1.700000*%
%ADD12C,1.700000*%
G04 APERTURE END LIST*
D10*
X49022000Y-35306000D03*
X49022000Y-25146000D03*
X39624000Y-35306000D03*
X39624000Y-25146000D03*
D11*
X58000000Y-61000000D03*
D12*
X58000000Y-63540000D03*
X58000000Y-66080000D03*
X58000000Y-68620000D03*
X58000000Y-71160000D03*
X58000000Y-73700000D03*
X58000000Y-76240000D03*
X58000000Y-78780000D03*
D10*
X36576000Y-35306000D03*
X36576000Y-25146000D03*
D11*
X59000000Y-97000000D03*
D12*
X59000000Y-94460000D03*
X59000000Y-91920000D03*
X59000000Y-89380000D03*
X59000000Y-86840000D03*
X59000000Y-84300000D03*
D10*
X8128000Y-65024000D03*
X8128000Y-75184000D03*
D11*
X27686000Y-2540000D03*
D12*
X30226000Y-2540000D03*
X32766000Y-2540000D03*
D11*
X28067000Y-20180400D03*
D12*
X28067000Y-22720400D03*
X28067000Y-25260400D03*
X28067000Y-27800400D03*
X28067000Y-30340400D03*
X28067000Y-32880400D03*
X28067000Y-35420400D03*
X28067000Y-37960400D03*
X28067000Y-40500400D03*
X28067000Y-43040400D03*
X28067000Y-45580400D03*
X28067000Y-48120400D03*
X28067000Y-50660400D03*
X28067000Y-53200400D03*
X28067000Y-55740400D03*
D11*
X6146800Y-34798000D03*
D12*
X8686800Y-34798000D03*
X11226800Y-34798000D03*
X13766800Y-34798000D03*
X16306800Y-34798000D03*
X18846800Y-34798000D03*
X21386800Y-34798000D03*
X23926800Y-34798000D03*
D10*
X36576000Y-49022000D03*
X36576000Y-38862000D03*
D11*
X2000000Y-66000000D03*
D12*
X2000000Y-68540000D03*
X2000000Y-71080000D03*
X2000000Y-73620000D03*
D11*
X2000000Y-3000000D03*
D12*
X2000000Y-5540000D03*
X2000000Y-8080000D03*
X2000000Y-10620000D03*
X2000000Y-13160000D03*
X2000000Y-15700000D03*
D10*
X48768000Y-49022000D03*
X48768000Y-38862000D03*
X54610000Y-92456000D03*
X44450000Y-92456000D03*
D11*
X15200000Y-98000000D03*
D12*
X17740000Y-98000000D03*
X20280000Y-98000000D03*
X22820000Y-98000000D03*
D11*
X11938000Y-2286000D03*
D12*
X14478000Y-2286000D03*
X17018000Y-2286000D03*
X19558000Y-2286000D03*
D10*
X42672000Y-49022000D03*
X42672000Y-38862000D03*
X39624000Y-49022000D03*
X39624000Y-38862000D03*
X33528000Y-35306000D03*
X33528000Y-25146000D03*
D11*
X6146800Y-9398000D03*
D12*
X8686800Y-9398000D03*
X11226800Y-9398000D03*
X13766800Y-9398000D03*
X16306800Y-9398000D03*
X18846800Y-9398000D03*
X21386800Y-9398000D03*
X23926800Y-9398000D03*
D11*
X53780000Y-98000000D03*
D12*
X51240000Y-98000000D03*
X48700000Y-98000000D03*
X46160000Y-98000000D03*
X43620000Y-98000000D03*
X41080000Y-98000000D03*
X38540000Y-98000000D03*
X36000000Y-98000000D03*
D10*
X33528000Y-49022000D03*
X33528000Y-38862000D03*
D11*
X53467000Y-55753000D03*
D12*
X53467000Y-53213000D03*
X53467000Y-50673000D03*
X53467000Y-48133000D03*
X53467000Y-45593000D03*
X53467000Y-43053000D03*
X53467000Y-40513000D03*
X53467000Y-37973000D03*
X53467000Y-35433000D03*
X53467000Y-32893000D03*
X53467000Y-30353000D03*
X53467000Y-27813000D03*
X53467000Y-25273000D03*
X53467000Y-22733000D03*
X53467000Y-20193000D03*
D11*
X2000000Y-97000000D03*
D12*
X2000000Y-94460000D03*
X2000000Y-91920000D03*
X2000000Y-89380000D03*
X2000000Y-86840000D03*
X2000000Y-84300000D03*
D10*
X45720000Y-35306000D03*
X45720000Y-25146000D03*
X42672000Y-35306000D03*
X42672000Y-25146000D03*
X45720000Y-49022000D03*
X45720000Y-38862000D03*
D11*
X59000000Y-3000000D03*
D12*
X59000000Y-5540000D03*
X59000000Y-8080000D03*
X59000000Y-10620000D03*
X59000000Y-13160000D03*
X59000000Y-15700000D03*
D11*
X20802600Y-43484800D03*
D12*
X18262600Y-43484800D03*
X15722600Y-43484800D03*
X13182600Y-43484800D03*
X10642600Y-43484800D03*
X8102600Y-43484800D03*
X5562600Y-43484800D03*
D11*
X38582600Y-2000000D03*
D12*
X41122600Y-2000000D03*
X43662600Y-2000000D03*
X46202600Y-2000000D03*
X48742600Y-2000000D03*
X51282600Y-2000000D03*
M02*
