%TF.GenerationSoftware,KiCad,Pcbnew,10.0.3*%
%TF.CreationDate,2026-07-10T00:07:53+01:00*%
%TF.ProjectId,MANTA,4d414e54-412e-46b6-9963-61645f706362,rev?*%
%TF.SameCoordinates,Original*%
%TF.FileFunction,Copper,L2,Bot*%
%TF.FilePolarity,Positive*%
%FSLAX46Y46*%
G04 Gerber Fmt 4.6, Leading zero omitted, Abs format (unit mm)*
G04 Created by KiCad (PCBNEW 10.0.3) date 2026-07-10 00:07:53*
%MOMM*%
%LPD*%
G01*
G04 APERTURE LIST*
%TA.AperFunction,ComponentPad*%
%ADD10C,1.600000*%
%TD*%
%TA.AperFunction,ComponentPad*%
%ADD11R,1.700000X1.700000*%
%TD*%
%TA.AperFunction,ComponentPad*%
%ADD12C,1.700000*%
%TD*%
%TA.AperFunction,Conductor*%
%ADD13C,0.200000*%
%TD*%
G04 APERTURE END LIST*
D10*
X49022000Y-35306000D03*
X49022000Y-25146000D03*
X39624000Y-35306000D03*
X39624000Y-25146000D03*
D11*
X58000000Y-61000000D03*
D12*
X58000000Y-63540000D03*
X58000000Y-66080000D03*
X58000000Y-68620000D03*
X58000000Y-71160000D03*
X58000000Y-73700000D03*
X58000000Y-76240000D03*
X58000000Y-78780000D03*
D10*
X36576000Y-35306000D03*
X36576000Y-25146000D03*
D11*
X59000000Y-97000000D03*
D12*
X59000000Y-94460000D03*
X59000000Y-91920000D03*
X59000000Y-89380000D03*
X59000000Y-86840000D03*
X59000000Y-84300000D03*
D10*
X8128000Y-65024000D03*
X8128000Y-75184000D03*
D11*
X27686000Y-2540000D03*
D12*
X30226000Y-2540000D03*
X32766000Y-2540000D03*
D11*
X28067000Y-20180400D03*
D12*
X28067000Y-22720400D03*
X28067000Y-25260400D03*
X28067000Y-27800400D03*
X28067000Y-30340400D03*
X28067000Y-32880400D03*
X28067000Y-35420400D03*
X28067000Y-37960400D03*
X28067000Y-40500400D03*
X28067000Y-43040400D03*
X28067000Y-45580400D03*
X28067000Y-48120400D03*
X28067000Y-50660400D03*
X28067000Y-53200400D03*
X28067000Y-55740400D03*
D11*
X6146800Y-34798000D03*
D12*
X8686800Y-34798000D03*
X11226800Y-34798000D03*
X13766800Y-34798000D03*
X16306800Y-34798000D03*
X18846800Y-34798000D03*
X21386800Y-34798000D03*
X23926800Y-34798000D03*
D10*
X36576000Y-49022000D03*
X36576000Y-38862000D03*
D11*
X2000000Y-66000000D03*
D12*
X2000000Y-68540000D03*
X2000000Y-71080000D03*
X2000000Y-73620000D03*
D11*
X2000000Y-3000000D03*
D12*
X2000000Y-5540000D03*
X2000000Y-8080000D03*
X2000000Y-10620000D03*
X2000000Y-13160000D03*
X2000000Y-15700000D03*
D10*
X48768000Y-49022000D03*
X48768000Y-38862000D03*
X54610000Y-92456000D03*
X44450000Y-92456000D03*
D11*
X15200000Y-98000000D03*
D12*
X17740000Y-98000000D03*
X20280000Y-98000000D03*
X22820000Y-98000000D03*
D11*
X11938000Y-2286000D03*
D12*
X14478000Y-2286000D03*
X17018000Y-2286000D03*
X19558000Y-2286000D03*
D10*
X42672000Y-49022000D03*
X42672000Y-38862000D03*
X39624000Y-49022000D03*
X39624000Y-38862000D03*
X33528000Y-35306000D03*
X33528000Y-25146000D03*
D11*
X6146800Y-9398000D03*
D12*
X8686800Y-9398000D03*
X11226800Y-9398000D03*
X13766800Y-9398000D03*
X16306800Y-9398000D03*
X18846800Y-9398000D03*
X21386800Y-9398000D03*
X23926800Y-9398000D03*
D11*
X53780000Y-98000000D03*
D12*
X51240000Y-98000000D03*
X48700000Y-98000000D03*
X46160000Y-98000000D03*
X43620000Y-98000000D03*
X41080000Y-98000000D03*
X38540000Y-98000000D03*
X36000000Y-98000000D03*
D10*
X33528000Y-49022000D03*
X33528000Y-38862000D03*
D11*
X53467000Y-55753000D03*
D12*
X53467000Y-53213000D03*
X53467000Y-50673000D03*
X53467000Y-48133000D03*
X53467000Y-45593000D03*
X53467000Y-43053000D03*
X53467000Y-40513000D03*
X53467000Y-37973000D03*
X53467000Y-35433000D03*
X53467000Y-32893000D03*
X53467000Y-30353000D03*
X53467000Y-27813000D03*
X53467000Y-25273000D03*
X53467000Y-22733000D03*
X53467000Y-20193000D03*
D11*
X2000000Y-97000000D03*
D12*
X2000000Y-94460000D03*
X2000000Y-91920000D03*
X2000000Y-89380000D03*
X2000000Y-86840000D03*
X2000000Y-84300000D03*
D10*
X45720000Y-35306000D03*
X45720000Y-25146000D03*
X42672000Y-35306000D03*
X42672000Y-25146000D03*
X45720000Y-49022000D03*
X45720000Y-38862000D03*
D11*
X59000000Y-3000000D03*
D12*
X59000000Y-5540000D03*
X59000000Y-8080000D03*
X59000000Y-10620000D03*
X59000000Y-13160000D03*
X59000000Y-15700000D03*
D11*
X20802600Y-43484800D03*
D12*
X18262600Y-43484800D03*
X15722600Y-43484800D03*
X13182600Y-43484800D03*
X10642600Y-43484800D03*
X8102600Y-43484800D03*
X5562600Y-43484800D03*
D11*
X38582600Y-2000000D03*
D12*
X41122600Y-2000000D03*
X43662600Y-2000000D03*
X46202600Y-2000000D03*
X48742600Y-2000000D03*
X51282600Y-2000000D03*
D13*
X29032200Y-685800D02*
X29118000Y-600000D01*
X32664400Y-635000D02*
X32029400Y-635000D01*
X2000000Y-98050000D02*
X3350000Y-99400000D01*
X59000000Y-3000000D02*
X56635000Y-635000D01*
X59000000Y-15700000D02*
X60400000Y-17100000D01*
X11379200Y-600000D02*
X600000Y-600000D01*
X3200400Y-18669000D02*
X600000Y-18669000D01*
X60400000Y-98959600D02*
X59959600Y-99400000D01*
X59000000Y-3000000D02*
X59000000Y-15700000D01*
X13800000Y-99400000D02*
X15200000Y-98000000D01*
X18427700Y-41109900D02*
X612700Y-41109900D01*
X600000Y-64600000D02*
X2000000Y-66000000D01*
X612700Y-41109900D02*
X600000Y-41122600D01*
X28600400Y-635000D02*
X28635400Y-600000D01*
X15200000Y-98000000D02*
X16350000Y-99150000D01*
X600000Y-64262000D02*
X600000Y-82900000D01*
X600000Y-82900000D02*
X2000000Y-84300000D01*
X11938000Y-1158800D02*
X11379200Y-600000D01*
X18427700Y-41109900D02*
X20802600Y-43484800D01*
X56635000Y-635000D02*
X32664400Y-635000D01*
X2000000Y-66000000D02*
X7152000Y-66000000D01*
X600000Y-18669000D02*
X600000Y-40055800D01*
X27863800Y-18364200D02*
X28067000Y-18567400D01*
X600000Y-64262000D02*
X600000Y-64600000D01*
X59959600Y-99400000D02*
X55180000Y-99400000D01*
X600000Y-41122600D02*
X600000Y-64262000D01*
X26822400Y-635000D02*
X13589000Y-635000D01*
X11938000Y-2286000D02*
X11938000Y-1158800D01*
X53780000Y-98000000D02*
X53780000Y-97908800D01*
X28600400Y-635000D02*
X26822400Y-635000D01*
X60400000Y-98679000D02*
X60400000Y-98959600D01*
X7152000Y-66000000D02*
X8128000Y-65024000D01*
X28635400Y-600000D02*
X32629400Y-600000D01*
X31994400Y-600000D02*
X32029400Y-635000D01*
X3350000Y-99400000D02*
X13800000Y-99400000D01*
X52630000Y-99150000D02*
X53780000Y-98000000D01*
X53780000Y-97908800D02*
X54610000Y-97078800D01*
X27863800Y-5765800D02*
X29032200Y-4597400D01*
X29118000Y-600000D02*
X31994400Y-600000D01*
X55180000Y-99400000D02*
X53780000Y-98000000D01*
X29032200Y-4597400D02*
X29032200Y-685800D01*
X600000Y-600000D02*
X600000Y-18669000D01*
X600000Y-40055800D02*
X600000Y-41122600D01*
X27863800Y-5765800D02*
X27863800Y-18364200D01*
X13589000Y-635000D02*
X11938000Y-2286000D01*
X2000000Y-97000000D02*
X2000000Y-98050000D01*
X54610000Y-97078800D02*
X54610000Y-92456000D01*
X28067000Y-18567400D02*
X28067000Y-20180400D01*
X11226800Y-10642600D02*
X3200400Y-18669000D01*
X32029400Y-635000D02*
X28600400Y-635000D01*
X32629400Y-600000D02*
X32664400Y-635000D01*
X11226800Y-9398000D02*
X11226800Y-10642600D01*
X60400000Y-17100000D02*
X60400000Y-98679000D01*
X16350000Y-99150000D02*
X52630000Y-99150000D01*
X2000000Y-97000000D02*
X2000000Y-84300000D01*
X20320000Y-97960000D02*
X20320000Y-95985686D01*
X25785740Y-93973600D02*
X32226200Y-87533139D01*
X20280000Y-98000000D02*
X20320000Y-97960000D01*
X20320000Y-95985686D02*
X22332086Y-93973600D01*
X32226200Y-87533139D02*
X32226200Y-51155599D01*
X30549800Y-35363200D02*
X28067000Y-32880400D01*
X22332086Y-93973600D02*
X25785740Y-93973600D01*
X32226200Y-51155599D02*
X30549800Y-49479200D01*
X30549800Y-49479200D02*
X30549800Y-35363200D01*
X30149800Y-37503200D02*
X28067000Y-35420400D01*
X31826200Y-87367454D02*
X31826200Y-51321285D01*
X25620054Y-93573600D02*
X31826200Y-87367454D01*
X17740000Y-98000000D02*
X22166400Y-93573600D01*
X31826200Y-51321285D02*
X30149800Y-49644885D01*
X30149800Y-49644885D02*
X30149800Y-37503200D01*
X22166400Y-93573600D02*
X25620054Y-93573600D01*
%TA.AperFunction,Conductor*%
G36*
X10484647Y-1204910D02*
G01*
X10500294Y-1204352D01*
X10517487Y-1214553D01*
X10536666Y-1220185D01*
X10546916Y-1232014D01*
X10560383Y-1240005D01*
X10569331Y-1257883D01*
X10582421Y-1272989D01*
X10585067Y-1289319D01*
X10591657Y-1302485D01*
X10592916Y-1337756D01*
X10587500Y-1388119D01*
X10587500Y-3183870D01*
X10587501Y-3183876D01*
X10593908Y-3243483D01*
X10644202Y-3378328D01*
X10644206Y-3378335D01*
X10730452Y-3493544D01*
X10730455Y-3493547D01*
X10845664Y-3579793D01*
X10845671Y-3579797D01*
X10980517Y-3630091D01*
X10980516Y-3630091D01*
X10987444Y-3630835D01*
X11040127Y-3636500D01*
X12835872Y-3636499D01*
X12895483Y-3630091D01*
X13030331Y-3579796D01*
X13145546Y-3493546D01*
X13231796Y-3378331D01*
X13282091Y-3243483D01*
X13288500Y-3183873D01*
X13288499Y-3159979D01*
X13291330Y-3146963D01*
X13301940Y-3127525D01*
X13308179Y-3106275D01*
X13324803Y-3085643D01*
X13324808Y-3085636D01*
X13324811Y-3085634D01*
X13324818Y-3085626D01*
X13995036Y-2415407D01*
X14012075Y-2478993D01*
X14077901Y-2593007D01*
X14170993Y-2686099D01*
X14285007Y-2751925D01*
X14348590Y-2768962D01*
X13716282Y-3401269D01*
X13716282Y-3401270D01*
X13770449Y-3440624D01*
X13959782Y-3537095D01*
X14161870Y-3602757D01*
X14371754Y-3636000D01*
X14584246Y-3636000D01*
X14794127Y-3602757D01*
X14794130Y-3602757D01*
X14996217Y-3537095D01*
X15185554Y-3440622D01*
X15239716Y-3401270D01*
X15239717Y-3401270D01*
X14607408Y-2768962D01*
X14670993Y-2751925D01*
X14785007Y-2686099D01*
X14878099Y-2593007D01*
X14943925Y-2478993D01*
X14960962Y-2415409D01*
X15593270Y-3047717D01*
X15593270Y-3047716D01*
X15632622Y-2993555D01*
X15637232Y-2984507D01*
X15685205Y-2933709D01*
X15753025Y-2916912D01*
X15819161Y-2939447D01*
X15858204Y-2984504D01*
X15862949Y-2993817D01*
X15987890Y-3165786D01*
X16138213Y-3316109D01*
X16310179Y-3441048D01*
X16310181Y-3441049D01*
X16310184Y-3441051D01*
X16499588Y-3537557D01*
X16701757Y-3603246D01*
X16911713Y-3636500D01*
X16911714Y-3636500D01*
X17124286Y-3636500D01*
X17124287Y-3636500D01*
X17334243Y-3603246D01*
X17536412Y-3537557D01*
X17725816Y-3441051D01*
X17812138Y-3378335D01*
X17897786Y-3316109D01*
X17897788Y-3316106D01*
X17897792Y-3316104D01*
X18048104Y-3165792D01*
X18048106Y-3165788D01*
X18048109Y-3165786D01*
X18173048Y-2993820D01*
X18173050Y-2993817D01*
X18173051Y-2993816D01*
X18177514Y-2985054D01*
X18225488Y-2934259D01*
X18293308Y-2917463D01*
X18359444Y-2939999D01*
X18398486Y-2985056D01*
X18402951Y-2993820D01*
X18527890Y-3165786D01*
X18678213Y-3316109D01*
X18850179Y-3441048D01*
X18850181Y-3441049D01*
X18850184Y-3441051D01*
X19039588Y-3537557D01*
X19241757Y-3603246D01*
X19451713Y-3636500D01*
X19451714Y-3636500D01*
X19664286Y-3636500D01*
X19664287Y-3636500D01*
X19874243Y-3603246D01*
X20076412Y-3537557D01*
X20265816Y-3441051D01*
X20352138Y-3378335D01*
X20437786Y-3316109D01*
X20437788Y-3316106D01*
X20437792Y-3316104D01*
X20588104Y-3165792D01*
X20588106Y-3165788D01*
X20588109Y-3165786D01*
X20713048Y-2993820D01*
X20713050Y-2993817D01*
X20713051Y-2993816D01*
X20809557Y-2804412D01*
X20875246Y-2602243D01*
X20908500Y-2392287D01*
X20908500Y-2179713D01*
X20875246Y-1969757D01*
X20809557Y-1767588D01*
X20713051Y-1578184D01*
X20684109Y-1538349D01*
X20607123Y-1432385D01*
X20583644Y-1366578D01*
X20599470Y-1298524D01*
X20649576Y-1249830D01*
X20707442Y-1235500D01*
X26303935Y-1235500D01*
X26370974Y-1255185D01*
X26416729Y-1307989D01*
X26426673Y-1377147D01*
X26403202Y-1433810D01*
X26392649Y-1447906D01*
X26392645Y-1447913D01*
X26342403Y-1582620D01*
X26342401Y-1582627D01*
X26336000Y-1642155D01*
X26336000Y-2290000D01*
X27252988Y-2290000D01*
X27220075Y-2347007D01*
X27186000Y-2474174D01*
X27186000Y-2605826D01*
X27220075Y-2732993D01*
X27252988Y-2790000D01*
X26336000Y-2790000D01*
X26336000Y-3437844D01*
X26342401Y-3497372D01*
X26342403Y-3497379D01*
X26392645Y-3632086D01*
X26392649Y-3632093D01*
X26478809Y-3747187D01*
X26478812Y-3747190D01*
X26593906Y-3833350D01*
X26593913Y-3833354D01*
X26728620Y-3883596D01*
X26728627Y-3883598D01*
X26788155Y-3889999D01*
X26788172Y-3890000D01*
X27436000Y-3890000D01*
X27436000Y-2973012D01*
X27493007Y-3005925D01*
X27620174Y-3040000D01*
X27751826Y-3040000D01*
X27878993Y-3005925D01*
X27936000Y-2973012D01*
X27936000Y-3890000D01*
X28307700Y-3890000D01*
X28374739Y-3909685D01*
X28420494Y-3962489D01*
X28431700Y-4014000D01*
X28431700Y-4297302D01*
X28412015Y-4364341D01*
X28395381Y-4384983D01*
X27383281Y-5397082D01*
X27383280Y-5397084D01*
X27338773Y-5474174D01*
X27333161Y-5483894D01*
X27333159Y-5483896D01*
X27304225Y-5534009D01*
X27304224Y-5534010D01*
X27302619Y-5540000D01*
X27263299Y-5686743D01*
X27263299Y-5686745D01*
X27263299Y-5854846D01*
X27263300Y-5854859D01*
X27263300Y-18277530D01*
X27263299Y-18277548D01*
X27263299Y-18443254D01*
X27263298Y-18443254D01*
X27263299Y-18443257D01*
X27304223Y-18595985D01*
X27331887Y-18643899D01*
X27348361Y-18711798D01*
X27325510Y-18777825D01*
X27270589Y-18821017D01*
X27224503Y-18829900D01*
X27169130Y-18829900D01*
X27169123Y-18829901D01*
X27109516Y-18836308D01*
X26974671Y-18886602D01*
X26974664Y-18886606D01*
X26859455Y-18972852D01*
X26859452Y-18972855D01*
X26773206Y-19088064D01*
X26773202Y-19088071D01*
X26722908Y-19222917D01*
X26717900Y-19269501D01*
X26716501Y-19282523D01*
X26716500Y-19282535D01*
X26716500Y-21078270D01*
X26716501Y-21078276D01*
X26722908Y-21137883D01*
X26773202Y-21272728D01*
X26773206Y-21272735D01*
X26859452Y-21387944D01*
X26859455Y-21387947D01*
X26974664Y-21474193D01*
X26974671Y-21474197D01*
X27019618Y-21490961D01*
X27109517Y-21524491D01*
X27169127Y-21530900D01*
X27179685Y-21530899D01*
X27246723Y-21550579D01*
X27267372Y-21567218D01*
X27937591Y-22237437D01*
X27874007Y-22254475D01*
X27759993Y-22320301D01*
X27666901Y-22413393D01*
X27601075Y-22527407D01*
X27584037Y-22590991D01*
X26951728Y-21958682D01*
X26951727Y-21958682D01*
X26912380Y-22012839D01*
X26815904Y-22202182D01*
X26750242Y-22404269D01*
X26750242Y-22404272D01*
X26717000Y-22614153D01*
X26717000Y-22826646D01*
X26750242Y-23036527D01*
X26750242Y-23036530D01*
X26815904Y-23238617D01*
X26912375Y-23427950D01*
X26951728Y-23482116D01*
X27584037Y-22849808D01*
X27601075Y-22913393D01*
X27666901Y-23027407D01*
X27759993Y-23120499D01*
X27874007Y-23186325D01*
X27937590Y-23203362D01*
X27305282Y-23835669D01*
X27305282Y-23835670D01*
X27359452Y-23875026D01*
X27359451Y-23875026D01*
X27368495Y-23879634D01*
X27419292Y-23927608D01*
X27436087Y-23995429D01*
X27413550Y-24061564D01*
X27368499Y-24100602D01*
X27359182Y-24105349D01*
X27187213Y-24230290D01*
X27036890Y-24380613D01*
X26911951Y-24552579D01*
X26815444Y-24741985D01*
X26749753Y-24944160D01*
X26716500Y-25154112D01*
X26716500Y-25154113D01*
X26716500Y-25366687D01*
X26718496Y-25379287D01*
X26749753Y-25576639D01*
X26815444Y-25778814D01*
X26911951Y-25968220D01*
X27036890Y-26140186D01*
X27187213Y-26290509D01*
X27359182Y-26415450D01*
X27367946Y-26419916D01*
X27418742Y-26467891D01*
X27435536Y-26535712D01*
X27412998Y-26601847D01*
X27367946Y-26640884D01*
X27359182Y-26645349D01*
X27187213Y-26770290D01*
X27036890Y-26920613D01*
X26911951Y-27092579D01*
X26815444Y-27281985D01*
X26749753Y-27484160D01*
X26716500Y-27694113D01*
X26716500Y-27906687D01*
X26718496Y-27919287D01*
X26749753Y-28116639D01*
X26815444Y-28318814D01*
X26911951Y-28508220D01*
X27036890Y-28680186D01*
X27187213Y-28830509D01*
X27359182Y-28955450D01*
X27367946Y-28959916D01*
X27418742Y-29007891D01*
X27435536Y-29075712D01*
X27412998Y-29141847D01*
X27367946Y-29180884D01*
X27359182Y-29185349D01*
X27187213Y-29310290D01*
X27036890Y-29460613D01*
X26911951Y-29632579D01*
X26815444Y-29821985D01*
X26749753Y-30024160D01*
X26716500Y-30234113D01*
X26716500Y-30446687D01*
X26718496Y-30459287D01*
X26749753Y-30656639D01*
X26815444Y-30858814D01*
X26911951Y-31048220D01*
X27036890Y-31220186D01*
X27187213Y-31370509D01*
X27359182Y-31495450D01*
X27367946Y-31499916D01*
X27418742Y-31547891D01*
X27435536Y-31615712D01*
X27412998Y-31681847D01*
X27367946Y-31720884D01*
X27359182Y-31725349D01*
X27187213Y-31850290D01*
X27036890Y-32000613D01*
X26911951Y-32172579D01*
X26815444Y-32361985D01*
X26749753Y-32564160D01*
X26716500Y-32774113D01*
X26716500Y-32986687D01*
X26718496Y-32999287D01*
X26749753Y-33196639D01*
X26749753Y-33196641D01*
X26749754Y-33196643D01*
X26804431Y-33364922D01*
X26815444Y-33398814D01*
X26911951Y-33588220D01*
X27036890Y-33760186D01*
X27187213Y-33910509D01*
X27359182Y-34035450D01*
X27367946Y-34039916D01*
X27418742Y-34087891D01*
X27435536Y-34155712D01*
X27412998Y-34221847D01*
X27367946Y-34260884D01*
X27359182Y-34265349D01*
X27187213Y-34390290D01*
X27036890Y-34540613D01*
X26911951Y-34712579D01*
X26815444Y-34901985D01*
X26749753Y-35104160D01*
X26719052Y-35298000D01*
X26716500Y-35314113D01*
X26716500Y-35526687D01*
X26724250Y-35575616D01*
X26749753Y-35736639D01*
X26749753Y-35736641D01*
X26749754Y-35736643D01*
X26804431Y-35904922D01*
X26815444Y-35938814D01*
X26911951Y-36128220D01*
X27036890Y-36300186D01*
X27187213Y-36450509D01*
X27359182Y-36575450D01*
X27367946Y-36579916D01*
X27418742Y-36627891D01*
X27435536Y-36695712D01*
X27412998Y-36761847D01*
X27367946Y-36800884D01*
X27359182Y-36805349D01*
X27187213Y-36930290D01*
X27036890Y-37080613D01*
X26911951Y-37252579D01*
X26815444Y-37441985D01*
X26749753Y-37644160D01*
X26716500Y-37854113D01*
X26716500Y-38066687D01*
X26749754Y-38276643D01*
X26803190Y-38441102D01*
X26815444Y-38478814D01*
X26911951Y-38668220D01*
X27036890Y-38840186D01*
X27187213Y-38990509D01*
X27359182Y-39115450D01*
X27367946Y-39119916D01*
X27418742Y-39167891D01*
X27435536Y-39235712D01*
X27412998Y-39301847D01*
X27367946Y-39340884D01*
X27359182Y-39345349D01*
X27187213Y-39470290D01*
X27036890Y-39620613D01*
X26911951Y-39792579D01*
X26815444Y-39981985D01*
X26749753Y-40184160D01*
X26717880Y-40385400D01*
X26716500Y-40394113D01*
X26716500Y-40606687D01*
X26749754Y-40816643D01*
X26803190Y-40981102D01*
X26815444Y-41018814D01*
X26911951Y-41208220D01*
X27036890Y-41380186D01*
X27187213Y-41530509D01*
X27359182Y-41655450D01*
X27367946Y-41659916D01*
X27418742Y-41707891D01*
X27435536Y-41775712D01*
X27412998Y-41841847D01*
X27367946Y-41880884D01*
X27359182Y-41885349D01*
X27187213Y-42010290D01*
X27036890Y-42160613D01*
X26911951Y-42332579D01*
X26815444Y-42521985D01*
X26815443Y-42521987D01*
X26815443Y-42521988D01*
X26811350Y-42534585D01*
X26749753Y-42724160D01*
X26716500Y-42934113D01*
X26716500Y-43146687D01*
X26749754Y-43356643D01*
X26812783Y-43550626D01*
X26815444Y-43558814D01*
X26911951Y-43748220D01*
X27036890Y-43920186D01*
X27187213Y-44070509D01*
X27359182Y-44195450D01*
X27367946Y-44199916D01*
X27418742Y-44247891D01*
X27435536Y-44315712D01*
X27412998Y-44381847D01*
X27367946Y-44420884D01*
X27359182Y-44425349D01*
X27187213Y-44550290D01*
X27036890Y-44700613D01*
X26911951Y-44872579D01*
X26815444Y-45061985D01*
X26749753Y-45264160D01*
X26716500Y-45474113D01*
X26716500Y-45686687D01*
X26749754Y-45896643D01*
X26803190Y-46061102D01*
X26815444Y-46098814D01*
X26911951Y-46288220D01*
X27036890Y-46460186D01*
X27187213Y-46610509D01*
X27359182Y-46735450D01*
X27367946Y-46739916D01*
X27418742Y-46787891D01*
X27435536Y-46855712D01*
X27412998Y-46921847D01*
X27367946Y-46960884D01*
X27359182Y-46965349D01*
X27187213Y-47090290D01*
X27036890Y-47240613D01*
X26911951Y-47412579D01*
X26815444Y-47601985D01*
X26749753Y-47804160D01*
X26716500Y-48014113D01*
X26716500Y-48226687D01*
X26749754Y-48436643D01*
X26809980Y-48622000D01*
X26815444Y-48638814D01*
X26911951Y-48828220D01*
X27036890Y-49000186D01*
X27187213Y-49150509D01*
X27359182Y-49275450D01*
X27367946Y-49279916D01*
X27418742Y-49327891D01*
X27435536Y-49395712D01*
X27412998Y-49461847D01*
X27367946Y-49500884D01*
X27359182Y-49505349D01*
X27187213Y-49630290D01*
X27036890Y-49780613D01*
X26911951Y-49952579D01*
X26815444Y-50141985D01*
X26749753Y-50344160D01*
X26716500Y-50554113D01*
X26716500Y-50766687D01*
X26718496Y-50779287D01*
X26741386Y-50923814D01*
X26749754Y-50976643D01*
X26782213Y-51076542D01*
X26815444Y-51178814D01*
X26911951Y-51368220D01*
X27036890Y-51540186D01*
X27187213Y-51690509D01*
X27359182Y-51815450D01*
X27367946Y-51819916D01*
X27418742Y-51867891D01*
X27435536Y-51935712D01*
X27412998Y-52001847D01*
X27367946Y-52040884D01*
X27359182Y-52045349D01*
X27187213Y-52170290D01*
X27036890Y-52320613D01*
X26911951Y-52492579D01*
X26815444Y-52681985D01*
X26749753Y-52884160D01*
X26716500Y-53094113D01*
X26716500Y-53306687D01*
X26718496Y-53319287D01*
X26749753Y-53516639D01*
X26815444Y-53718814D01*
X26911951Y-53908220D01*
X27036890Y-54080186D01*
X27187213Y-54230509D01*
X27359182Y-54355450D01*
X27367946Y-54359916D01*
X27418742Y-54407891D01*
X27435536Y-54475712D01*
X27412998Y-54541847D01*
X27367946Y-54580884D01*
X27359182Y-54585349D01*
X27187213Y-54710290D01*
X27036890Y-54860613D01*
X26911951Y-55032579D01*
X26815444Y-55221985D01*
X26749753Y-55424160D01*
X26716500Y-55634113D01*
X26716500Y-55846686D01*
X26749753Y-56056639D01*
X26815444Y-56258814D01*
X26911951Y-56448220D01*
X27036890Y-56620186D01*
X27187213Y-56770509D01*
X27359179Y-56895448D01*
X27359181Y-56895449D01*
X27359184Y-56895451D01*
X27548588Y-56991957D01*
X27750757Y-57057646D01*
X27960713Y-57090900D01*
X27960714Y-57090900D01*
X28173286Y-57090900D01*
X28173287Y-57090900D01*
X28383243Y-57057646D01*
X28585412Y-56991957D01*
X28774816Y-56895451D01*
X28796789Y-56879486D01*
X28946786Y-56770509D01*
X28946788Y-56770506D01*
X28946792Y-56770504D01*
X29097104Y-56620192D01*
X29097106Y-56620188D01*
X29097109Y-56620186D01*
X29222048Y-56448220D01*
X29222047Y-56448220D01*
X29222051Y-56448216D01*
X29318557Y-56258812D01*
X29384246Y-56056643D01*
X29417500Y-55846687D01*
X29417500Y-55634113D01*
X29384246Y-55424157D01*
X29318557Y-55221988D01*
X29222051Y-55032584D01*
X29222049Y-55032581D01*
X29222048Y-55032579D01*
X29097109Y-54860613D01*
X28946786Y-54710290D01*
X28774820Y-54585351D01*
X28774115Y-54584991D01*
X28766054Y-54580885D01*
X28715259Y-54532912D01*
X28698463Y-54465092D01*
X28720999Y-54398956D01*
X28766054Y-54359915D01*
X28774816Y-54355451D01*
X28799742Y-54337341D01*
X28946786Y-54230509D01*
X28946788Y-54230506D01*
X28946792Y-54230504D01*
X29097104Y-54080192D01*
X29097106Y-54080188D01*
X29097109Y-54080186D01*
X29222048Y-53908220D01*
X29222047Y-53908220D01*
X29222051Y-53908216D01*
X29318557Y-53718812D01*
X29384246Y-53516643D01*
X29417500Y-53306687D01*
X29417500Y-53094113D01*
X29384246Y-52884157D01*
X29318557Y-52681988D01*
X29222051Y-52492584D01*
X29222049Y-52492581D01*
X29222048Y-52492579D01*
X29097109Y-52320613D01*
X28946786Y-52170290D01*
X28774820Y-52045351D01*
X28774115Y-52044991D01*
X28766054Y-52040885D01*
X28715259Y-51992912D01*
X28698463Y-51925092D01*
X28720999Y-51858956D01*
X28766054Y-51819915D01*
X28774816Y-51815451D01*
X28929443Y-51703109D01*
X28946786Y-51690509D01*
X28946788Y-51690506D01*
X28946792Y-51690504D01*
X29097104Y-51540192D01*
X29097106Y-51540188D01*
X29097109Y-51540186D01*
X29222048Y-51368220D01*
X29222047Y-51368220D01*
X29222051Y-51368216D01*
X29318557Y-51178812D01*
X29384246Y-50976643D01*
X29417500Y-50766687D01*
X29417500Y-50554113D01*
X29384246Y-50344157D01*
X29318557Y-50141988D01*
X29222051Y-49952584D01*
X29222049Y-49952581D01*
X29222048Y-49952579D01*
X29097109Y-49780613D01*
X28946786Y-49630290D01*
X28774820Y-49505351D01*
X28774115Y-49504991D01*
X28766054Y-49500885D01*
X28715259Y-49452912D01*
X28698463Y-49385092D01*
X28720999Y-49318956D01*
X28766054Y-49279915D01*
X28774816Y-49275451D01*
X28871151Y-49205460D01*
X28946786Y-49150509D01*
X28946788Y-49150506D01*
X28946792Y-49150504D01*
X29097104Y-49000192D01*
X29097106Y-49000188D01*
X29097109Y-49000186D01*
X29222048Y-48828220D01*
X29222047Y-48828220D01*
X29222051Y-48828216D01*
X29314815Y-48646155D01*
X29362790Y-48595360D01*
X29430610Y-48578565D01*
X29496745Y-48601102D01*
X29540197Y-48655817D01*
X29549300Y-48702451D01*
X29549300Y-49558215D01*
X29549299Y-49558233D01*
X29549299Y-49723939D01*
X29549298Y-49723939D01*
X29561456Y-49769312D01*
X29567860Y-49793213D01*
X29590224Y-49876672D01*
X29601302Y-49895859D01*
X29601303Y-49895861D01*
X29669277Y-50013597D01*
X29669281Y-50013602D01*
X29788149Y-50132470D01*
X29788155Y-50132475D01*
X31189381Y-51533701D01*
X31222866Y-51595024D01*
X31225700Y-51621382D01*
X31225700Y-87067357D01*
X31206015Y-87134396D01*
X31189381Y-87155038D01*
X25407638Y-92936781D01*
X25346315Y-92970266D01*
X25319957Y-92973100D01*
X22253069Y-92973100D01*
X22253053Y-92973099D01*
X22245457Y-92973099D01*
X22087343Y-92973099D01*
X22007410Y-92994517D01*
X21934616Y-93014022D01*
X21906880Y-93030036D01*
X21906879Y-93030035D01*
X21797687Y-93093077D01*
X21797682Y-93093081D01*
X21685878Y-93204886D01*
X18224522Y-96666241D01*
X18163199Y-96699726D01*
X18098523Y-96696491D01*
X18056245Y-96682754D01*
X17916272Y-96660584D01*
X17846287Y-96649500D01*
X17633713Y-96649500D01*
X17585042Y-96657208D01*
X17423760Y-96682753D01*
X17221585Y-96748444D01*
X17032179Y-96844951D01*
X16860215Y-96969889D01*
X16746673Y-97083431D01*
X16685350Y-97116915D01*
X16615658Y-97111931D01*
X16559725Y-97070059D01*
X16542810Y-97039082D01*
X16493797Y-96907671D01*
X16493793Y-96907664D01*
X16407547Y-96792455D01*
X16407544Y-96792452D01*
X16292335Y-96706206D01*
X16292328Y-96706202D01*
X16157482Y-96655908D01*
X16157483Y-96655908D01*
X16097883Y-96649501D01*
X16097881Y-96649500D01*
X16097873Y-96649500D01*
X16097864Y-96649500D01*
X14302129Y-96649500D01*
X14302123Y-96649501D01*
X14242516Y-96655908D01*
X14107671Y-96706202D01*
X14107664Y-96706206D01*
X13992455Y-96792452D01*
X13992452Y-96792455D01*
X13906206Y-96907664D01*
X13906202Y-96907671D01*
X13855908Y-97042517D01*
X13849501Y-97102116D01*
X13849500Y-97102135D01*
X13849500Y-98449902D01*
X13829815Y-98516941D01*
X13813181Y-98537583D01*
X13587584Y-98763181D01*
X13526261Y-98796666D01*
X13499903Y-98799500D01*
X3650097Y-98799500D01*
X3583058Y-98779815D01*
X3562416Y-98763181D01*
X3193919Y-98394684D01*
X3160434Y-98333361D01*
X3165418Y-98263669D01*
X3202114Y-98214649D01*
X3201278Y-98213813D01*
X3207095Y-98207996D01*
X3207287Y-98207739D01*
X3207546Y-98207546D01*
X3293796Y-98092331D01*
X3344091Y-97957483D01*
X3350500Y-97897873D01*
X3350499Y-96102128D01*
X3344091Y-96042517D01*
X3302521Y-95931063D01*
X3293797Y-95907671D01*
X3293793Y-95907664D01*
X3207547Y-95792455D01*
X3207544Y-95792452D01*
X3092335Y-95706206D01*
X3092328Y-95706202D01*
X2960917Y-95657189D01*
X2904983Y-95615318D01*
X2880566Y-95549853D01*
X2895418Y-95481580D01*
X2916563Y-95453332D01*
X3030104Y-95339792D01*
X3155051Y-95167816D01*
X3251557Y-94978412D01*
X3317246Y-94776243D01*
X3350500Y-94566287D01*
X3350500Y-94353713D01*
X3317246Y-94143757D01*
X3251557Y-93941588D01*
X3155051Y-93752184D01*
X3155049Y-93752181D01*
X3155048Y-93752179D01*
X3030109Y-93580213D01*
X2879786Y-93429890D01*
X2707820Y-93304951D01*
X2707205Y-93304637D01*
X2699054Y-93300484D01*
X2648259Y-93252512D01*
X2631463Y-93184692D01*
X2653999Y-93118556D01*
X2699054Y-93079515D01*
X2707816Y-93075051D01*
X2762572Y-93035269D01*
X2879786Y-92950109D01*
X2879788Y-92950106D01*
X2879792Y-92950104D01*
X3030104Y-92799792D01*
X3030106Y-92799788D01*
X3030109Y-92799786D01*
X3155048Y-92627820D01*
X3155047Y-92627820D01*
X3155051Y-92627816D01*
X3251557Y-92438412D01*
X3317246Y-92236243D01*
X3350500Y-92026287D01*
X3350500Y-91813713D01*
X3317246Y-91603757D01*
X3251557Y-91401588D01*
X3155051Y-91212184D01*
X3155049Y-91212181D01*
X3155048Y-91212179D01*
X3030109Y-91040213D01*
X2879786Y-90889890D01*
X2707820Y-90764951D01*
X2707205Y-90764637D01*
X2699054Y-90760484D01*
X2648259Y-90712512D01*
X2631463Y-90644692D01*
X2653999Y-90578556D01*
X2699054Y-90539515D01*
X2707816Y-90535051D01*
X2762572Y-90495269D01*
X2879786Y-90410109D01*
X2879788Y-90410106D01*
X2879792Y-90410104D01*
X3030104Y-90259792D01*
X3030106Y-90259788D01*
X3030109Y-90259786D01*
X3155048Y-90087820D01*
X3155047Y-90087820D01*
X3155051Y-90087816D01*
X3251557Y-89898412D01*
X3317246Y-89696243D01*
X3350500Y-89486287D01*
X3350500Y-89273713D01*
X3317246Y-89063757D01*
X3251557Y-88861588D01*
X3155051Y-88672184D01*
X3155049Y-88672181D01*
X3155048Y-88672179D01*
X3030109Y-88500213D01*
X2879786Y-88349890D01*
X2707820Y-88224951D01*
X2707205Y-88224637D01*
X2699054Y-88220484D01*
X2648259Y-88172512D01*
X2631463Y-88104692D01*
X2653999Y-88038556D01*
X2699054Y-87999515D01*
X2707816Y-87995051D01*
X2836089Y-87901856D01*
X2879786Y-87870109D01*
X2879788Y-87870106D01*
X2879792Y-87870104D01*
X3030104Y-87719792D01*
X3030106Y-87719788D01*
X3030109Y-87719786D01*
X3155048Y-87547820D01*
X3155047Y-87547820D01*
X3155051Y-87547816D01*
X3251557Y-87358412D01*
X3317246Y-87156243D01*
X3350500Y-86946287D01*
X3350500Y-86733713D01*
X3317246Y-86523757D01*
X3251557Y-86321588D01*
X3155051Y-86132184D01*
X3155049Y-86132181D01*
X3155048Y-86132179D01*
X3030109Y-85960213D01*
X2879786Y-85809890D01*
X2707820Y-85684951D01*
X2707205Y-85684637D01*
X2699054Y-85680484D01*
X2648259Y-85632512D01*
X2631463Y-85564692D01*
X2653999Y-85498556D01*
X2699054Y-85459515D01*
X2707816Y-85455051D01*
X2762572Y-85415269D01*
X2879786Y-85330109D01*
X2879788Y-85330106D01*
X2879792Y-85330104D01*
X3030104Y-85179792D01*
X3030106Y-85179788D01*
X3030109Y-85179786D01*
X3155048Y-85007820D01*
X3155047Y-85007820D01*
X3155051Y-85007816D01*
X3251557Y-84818412D01*
X3317246Y-84616243D01*
X3350500Y-84406287D01*
X3350500Y-84193713D01*
X3317246Y-83983757D01*
X3251557Y-83781588D01*
X3155051Y-83592184D01*
X3155049Y-83592181D01*
X3155048Y-83592179D01*
X3030109Y-83420213D01*
X2879786Y-83269890D01*
X2707820Y-83144951D01*
X2518414Y-83048444D01*
X2518413Y-83048443D01*
X2518412Y-83048443D01*
X2316243Y-82982754D01*
X2316241Y-82982753D01*
X2316240Y-82982753D01*
X2154957Y-82957208D01*
X2106287Y-82949500D01*
X1893713Y-82949500D01*
X1865006Y-82954046D01*
X1683757Y-82982753D01*
X1641473Y-82996492D01*
X1571632Y-82998486D01*
X1515476Y-82966241D01*
X1236819Y-82687584D01*
X1203334Y-82626261D01*
X1200500Y-82599903D01*
X1200500Y-75081648D01*
X6827500Y-75081648D01*
X6827500Y-75286351D01*
X6859522Y-75488534D01*
X6922781Y-75683223D01*
X7015715Y-75865613D01*
X7136028Y-76031213D01*
X7280786Y-76175971D01*
X7435749Y-76288556D01*
X7446390Y-76296287D01*
X7562607Y-76355503D01*
X7628776Y-76389218D01*
X7628778Y-76389218D01*
X7628781Y-76389220D01*
X7733137Y-76423127D01*
X7823465Y-76452477D01*
X7924557Y-76468488D01*
X8025648Y-76484500D01*
X8025649Y-76484500D01*
X8230351Y-76484500D01*
X8230352Y-76484500D01*
X8432534Y-76452477D01*
X8627219Y-76389220D01*
X8809610Y-76296287D01*
X8902590Y-76228732D01*
X8975213Y-76175971D01*
X8975215Y-76175968D01*
X8975219Y-76175966D01*
X9119966Y-76031219D01*
X9119968Y-76031215D01*
X9119971Y-76031213D01*
X9198041Y-75923757D01*
X9240287Y-75865610D01*
X9333220Y-75683219D01*
X9396477Y-75488534D01*
X9428500Y-75286352D01*
X9428500Y-75081648D01*
X9422133Y-75041447D01*
X9396477Y-74879465D01*
X9367127Y-74789137D01*
X9333220Y-74684781D01*
X9333218Y-74684778D01*
X9333218Y-74684776D01*
X9279722Y-74579786D01*
X9240287Y-74502390D01*
X9232556Y-74491749D01*
X9119971Y-74336786D01*
X8975213Y-74192028D01*
X8809613Y-74071715D01*
X8809612Y-74071714D01*
X8809610Y-74071713D01*
X8752653Y-74042691D01*
X8627223Y-73978781D01*
X8432534Y-73915522D01*
X8257995Y-73887878D01*
X8230352Y-73883500D01*
X8025648Y-73883500D01*
X8001329Y-73887351D01*
X7823465Y-73915522D01*
X7628776Y-73978781D01*
X7446386Y-74071715D01*
X7280786Y-74192028D01*
X7136028Y-74336786D01*
X7015715Y-74502386D01*
X6922781Y-74684776D01*
X6859522Y-74879465D01*
X6827500Y-75081648D01*
X1200500Y-75081648D01*
X1200500Y-74930685D01*
X1220185Y-74863646D01*
X1272989Y-74817891D01*
X1342147Y-74807947D01*
X1380792Y-74820199D01*
X1481588Y-74871557D01*
X1683757Y-74937246D01*
X1893713Y-74970500D01*
X1893714Y-74970500D01*
X2106286Y-74970500D01*
X2106287Y-74970500D01*
X2316243Y-74937246D01*
X2518412Y-74871557D01*
X2707816Y-74775051D01*
X2769681Y-74730104D01*
X2879786Y-74650109D01*
X2879788Y-74650106D01*
X2879792Y-74650104D01*
X3030104Y-74499792D01*
X3030106Y-74499788D01*
X3030109Y-74499786D01*
X3155048Y-74327820D01*
X3155047Y-74327820D01*
X3155051Y-74327816D01*
X3251557Y-74138412D01*
X3317246Y-73936243D01*
X3350500Y-73726287D01*
X3350500Y-73513713D01*
X3317246Y-73303757D01*
X3251557Y-73101588D01*
X3155051Y-72912184D01*
X3155049Y-72912181D01*
X3155048Y-72912179D01*
X3030109Y-72740213D01*
X2879786Y-72589890D01*
X2707820Y-72464951D01*
X2707115Y-72464591D01*
X2699054Y-72460485D01*
X2648259Y-72412512D01*
X2631463Y-72344692D01*
X2653999Y-72278556D01*
X2699054Y-72239515D01*
X2707816Y-72235051D01*
X2769681Y-72190104D01*
X2879786Y-72110109D01*
X2879788Y-72110106D01*
X2879792Y-72110104D01*
X3030104Y-71959792D01*
X3030106Y-71959788D01*
X3030109Y-71959786D01*
X3155048Y-71787820D01*
X3155047Y-71787820D01*
X3155051Y-71787816D01*
X3251557Y-71598412D01*
X3317246Y-71396243D01*
X3350500Y-71186287D01*
X3350500Y-70973713D01*
X3317246Y-70763757D01*
X3251557Y-70561588D01*
X3155051Y-70372184D01*
X3155049Y-70372181D01*
X3155048Y-70372179D01*
X3030109Y-70200213D01*
X2879786Y-70049890D01*
X2707817Y-69924949D01*
X2698504Y-69920204D01*
X2647707Y-69872230D01*
X2630912Y-69804409D01*
X2653449Y-69738274D01*
X2698507Y-69699232D01*
X2707555Y-69694622D01*
X2761716Y-69655270D01*
X2761717Y-69655270D01*
X2129409Y-69022962D01*
X2192993Y-69005925D01*
X2307007Y-68940099D01*
X2400099Y-68847007D01*
X2465925Y-68732993D01*
X2482962Y-68669408D01*
X3115270Y-69301717D01*
X3115270Y-69301716D01*
X3154622Y-69247554D01*
X3251095Y-69058217D01*
X3316757Y-68856130D01*
X3316757Y-68856127D01*
X3350000Y-68646246D01*
X3350000Y-68433753D01*
X3316757Y-68223872D01*
X3316757Y-68223869D01*
X3251095Y-68021782D01*
X3154624Y-67832449D01*
X3115270Y-67778282D01*
X3115269Y-67778282D01*
X2482962Y-68410590D01*
X2465925Y-68347007D01*
X2400099Y-68232993D01*
X2307007Y-68139901D01*
X2192993Y-68074075D01*
X2129407Y-68057036D01*
X2799627Y-67386818D01*
X2860950Y-67353333D01*
X2887308Y-67350499D01*
X2897871Y-67350499D01*
X2897872Y-67350499D01*
X2957483Y-67344091D01*
X3092331Y-67293796D01*
X3207546Y-67207546D01*
X3293796Y-67092331D01*
X3344091Y-66957483D01*
X3350500Y-66897873D01*
X3350500Y-66724500D01*
X3370185Y-66657461D01*
X3422989Y-66611706D01*
X3474500Y-66600500D01*
X7065331Y-66600500D01*
X7065347Y-66600501D01*
X7072943Y-66600501D01*
X7231054Y-66600501D01*
X7231057Y-66600501D01*
X7383785Y-66559577D01*
X7433904Y-66530639D01*
X7520716Y-66480520D01*
X7632520Y-66368716D01*
X7632520Y-66368714D01*
X7642728Y-66358507D01*
X7642730Y-66358504D01*
X7683158Y-66318075D01*
X7744479Y-66284592D01*
X7809151Y-66287825D01*
X7823466Y-66292477D01*
X8025648Y-66324500D01*
X8025649Y-66324500D01*
X8230351Y-66324500D01*
X8230352Y-66324500D01*
X8432534Y-66292477D01*
X8627219Y-66229220D01*
X8809610Y-66136287D01*
X8902590Y-66068732D01*
X8975213Y-66015971D01*
X8975215Y-66015968D01*
X8975219Y-66015966D01*
X9119966Y-65871219D01*
X9119968Y-65871215D01*
X9119971Y-65871213D01*
X9198041Y-65763757D01*
X9240287Y-65705610D01*
X9333220Y-65523219D01*
X9396477Y-65328534D01*
X9428500Y-65126352D01*
X9428500Y-64921648D01*
X9422133Y-64881447D01*
X9396477Y-64719465D01*
X9333218Y-64524776D01*
X9279722Y-64419786D01*
X9240287Y-64342390D01*
X9209419Y-64299903D01*
X9119971Y-64176786D01*
X8975213Y-64032028D01*
X8809613Y-63911715D01*
X8809612Y-63911714D01*
X8809610Y-63911713D01*
X8752653Y-63882691D01*
X8627223Y-63818781D01*
X8432534Y-63755522D01*
X8257995Y-63727878D01*
X8230352Y-63723500D01*
X8025648Y-63723500D01*
X8001329Y-63727351D01*
X7823465Y-63755522D01*
X7628776Y-63818781D01*
X7446386Y-63911715D01*
X7280786Y-64032028D01*
X7136028Y-64176786D01*
X7015715Y-64342386D01*
X6922781Y-64524776D01*
X6859522Y-64719465D01*
X6827500Y-64921648D01*
X6827500Y-65126350D01*
X6848051Y-65256102D01*
X6839097Y-65325395D01*
X6794101Y-65378847D01*
X6727349Y-65399487D01*
X6725578Y-65399500D01*
X3474499Y-65399500D01*
X3407460Y-65379815D01*
X3361705Y-65327011D01*
X3350499Y-65275500D01*
X3350499Y-65102129D01*
X3350498Y-65102123D01*
X3344091Y-65042516D01*
X3293797Y-64907671D01*
X3293793Y-64907664D01*
X3207547Y-64792455D01*
X3207544Y-64792452D01*
X3092335Y-64706206D01*
X3092328Y-64706202D01*
X2957482Y-64655908D01*
X2957483Y-64655908D01*
X2897883Y-64649501D01*
X2897881Y-64649500D01*
X2897873Y-64649500D01*
X2897865Y-64649500D01*
X1550097Y-64649500D01*
X1483058Y-64629815D01*
X1462416Y-64613181D01*
X1236819Y-64387584D01*
X1203334Y-64326261D01*
X1200500Y-64299903D01*
X1200500Y-41834400D01*
X1220185Y-41767361D01*
X1272989Y-41721606D01*
X1324500Y-41710400D01*
X18127603Y-41710400D01*
X18157043Y-41719044D01*
X18187030Y-41725568D01*
X18192045Y-41729322D01*
X18194642Y-41730085D01*
X18215284Y-41746719D01*
X18391184Y-41922619D01*
X18424669Y-41983942D01*
X18419685Y-42053634D01*
X18377813Y-42109567D01*
X18312349Y-42133984D01*
X18303503Y-42134300D01*
X18156313Y-42134300D01*
X18107642Y-42142008D01*
X17946360Y-42167553D01*
X17744185Y-42233244D01*
X17554779Y-42329751D01*
X17382813Y-42454690D01*
X17232490Y-42605013D01*
X17107549Y-42776982D01*
X17102802Y-42786299D01*
X17054827Y-42837093D01*
X16987005Y-42853887D01*
X16920871Y-42831348D01*
X16881834Y-42786295D01*
X16877226Y-42777252D01*
X16837870Y-42723082D01*
X16837869Y-42723082D01*
X16205562Y-43355390D01*
X16188525Y-43291807D01*
X16122699Y-43177793D01*
X16029607Y-43084701D01*
X15915593Y-43018875D01*
X15852009Y-43001837D01*
X16484316Y-42369528D01*
X16430150Y-42330175D01*
X16240817Y-42233704D01*
X16038729Y-42168042D01*
X15828846Y-42134800D01*
X15616354Y-42134800D01*
X15406472Y-42168042D01*
X15406469Y-42168042D01*
X15204382Y-42233704D01*
X15015039Y-42330180D01*
X14960882Y-42369527D01*
X14960882Y-42369528D01*
X15593191Y-43001837D01*
X15529607Y-43018875D01*
X15415593Y-43084701D01*
X15322501Y-43177793D01*
X15256675Y-43291807D01*
X15239637Y-43355391D01*
X14607328Y-42723082D01*
X14607327Y-42723082D01*
X14567980Y-42777240D01*
X14567976Y-42777246D01*
X14563360Y-42786305D01*
X14515381Y-42837097D01*
X14447559Y-42853887D01*
X14381426Y-42831343D01*
X14342394Y-42786293D01*
X14337651Y-42776984D01*
X14337649Y-42776981D01*
X14337648Y-42776979D01*
X14212709Y-42605013D01*
X14062386Y-42454690D01*
X13890420Y-42329751D01*
X13701014Y-42233244D01*
X13701013Y-42233243D01*
X13701012Y-42233243D01*
X13498843Y-42167554D01*
X13498841Y-42167553D01*
X13498840Y-42167553D01*
X13337557Y-42142008D01*
X13288887Y-42134300D01*
X13076313Y-42134300D01*
X13027642Y-42142008D01*
X12866360Y-42167553D01*
X12664185Y-42233244D01*
X12474779Y-42329751D01*
X12302813Y-42454690D01*
X12152490Y-42605013D01*
X12027549Y-42776982D01*
X12023084Y-42785746D01*
X11975109Y-42836542D01*
X11907288Y-42853336D01*
X11841153Y-42830798D01*
X11802116Y-42785746D01*
X11797650Y-42776982D01*
X11672709Y-42605013D01*
X11522386Y-42454690D01*
X11350420Y-42329751D01*
X11161014Y-42233244D01*
X11161013Y-42233243D01*
X11161012Y-42233243D01*
X10958843Y-42167554D01*
X10958841Y-42167553D01*
X10958840Y-42167553D01*
X10797557Y-42142008D01*
X10748887Y-42134300D01*
X10536313Y-42134300D01*
X10487642Y-42142008D01*
X10326360Y-42167553D01*
X10124185Y-42233244D01*
X9934779Y-42329751D01*
X9762813Y-42454690D01*
X9612490Y-42605013D01*
X9487549Y-42776982D01*
X9483084Y-42785746D01*
X9435109Y-42836542D01*
X9367288Y-42853336D01*
X9301153Y-42830798D01*
X9262116Y-42785746D01*
X9257650Y-42776982D01*
X9132709Y-42605013D01*
X8982386Y-42454690D01*
X8810420Y-42329751D01*
X8621014Y-42233244D01*
X8621013Y-42233243D01*
X8621012Y-42233243D01*
X8418843Y-42167554D01*
X8418841Y-42167553D01*
X8418840Y-42167553D01*
X8257557Y-42142008D01*
X8208887Y-42134300D01*
X7996313Y-42134300D01*
X7947642Y-42142008D01*
X7786360Y-42167553D01*
X7584185Y-42233244D01*
X7394779Y-42329751D01*
X7222813Y-42454690D01*
X7072490Y-42605013D01*
X6947549Y-42776982D01*
X6943084Y-42785746D01*
X6895109Y-42836542D01*
X6827288Y-42853336D01*
X6761153Y-42830798D01*
X6722116Y-42785746D01*
X6717650Y-42776982D01*
X6592709Y-42605013D01*
X6442386Y-42454690D01*
X6270420Y-42329751D01*
X6081014Y-42233244D01*
X6081013Y-42233243D01*
X6081012Y-42233243D01*
X5878843Y-42167554D01*
X5878841Y-42167553D01*
X5878840Y-42167553D01*
X5717557Y-42142008D01*
X5668887Y-42134300D01*
X5456313Y-42134300D01*
X5407642Y-42142008D01*
X5246360Y-42167553D01*
X5044185Y-42233244D01*
X4854779Y-42329751D01*
X4682813Y-42454690D01*
X4532490Y-42605013D01*
X4407551Y-42776979D01*
X4311044Y-42966385D01*
X4245353Y-43168560D01*
X4212100Y-43378513D01*
X4212100Y-43591086D01*
X4245353Y-43801039D01*
X4311044Y-44003214D01*
X4407551Y-44192620D01*
X4532490Y-44364586D01*
X4682813Y-44514909D01*
X4854779Y-44639848D01*
X4854781Y-44639849D01*
X4854784Y-44639851D01*
X5044188Y-44736357D01*
X5246357Y-44802046D01*
X5456313Y-44835300D01*
X5456314Y-44835300D01*
X5668886Y-44835300D01*
X5668887Y-44835300D01*
X5878843Y-44802046D01*
X6081012Y-44736357D01*
X6270416Y-44639851D01*
X6356738Y-44577135D01*
X6442386Y-44514909D01*
X6442388Y-44514906D01*
X6442392Y-44514904D01*
X6592704Y-44364592D01*
X6592706Y-44364588D01*
X6592709Y-44364586D01*
X6717648Y-44192620D01*
X6717647Y-44192620D01*
X6717651Y-44192616D01*
X6722114Y-44183854D01*
X6770088Y-44133059D01*
X6837908Y-44116263D01*
X6904044Y-44138799D01*
X6943086Y-44183856D01*
X6947551Y-44192620D01*
X7072490Y-44364586D01*
X7222813Y-44514909D01*
X7394779Y-44639848D01*
X7394781Y-44639849D01*
X7394784Y-44639851D01*
X7584188Y-44736357D01*
X7786357Y-44802046D01*
X7996313Y-44835300D01*
X7996314Y-44835300D01*
X8208886Y-44835300D01*
X8208887Y-44835300D01*
X8418843Y-44802046D01*
X8621012Y-44736357D01*
X8810416Y-44639851D01*
X8896738Y-44577135D01*
X8982386Y-44514909D01*
X8982388Y-44514906D01*
X8982392Y-44514904D01*
X9132704Y-44364592D01*
X9132706Y-44364588D01*
X9132709Y-44364586D01*
X9257648Y-44192620D01*
X9257647Y-44192620D01*
X9257651Y-44192616D01*
X9262114Y-44183854D01*
X9310088Y-44133059D01*
X9377908Y-44116263D01*
X9444044Y-44138799D01*
X9483086Y-44183856D01*
X9487551Y-44192620D01*
X9612490Y-44364586D01*
X9762813Y-44514909D01*
X9934779Y-44639848D01*
X9934781Y-44639849D01*
X9934784Y-44639851D01*
X10124188Y-44736357D01*
X10326357Y-44802046D01*
X10536313Y-44835300D01*
X10536314Y-44835300D01*
X10748886Y-44835300D01*
X10748887Y-44835300D01*
X10958843Y-44802046D01*
X11161012Y-44736357D01*
X11350416Y-44639851D01*
X11436738Y-44577135D01*
X11522386Y-44514909D01*
X11522388Y-44514906D01*
X11522392Y-44514904D01*
X11672704Y-44364592D01*
X11672706Y-44364588D01*
X11672709Y-44364586D01*
X11797648Y-44192620D01*
X11797647Y-44192620D01*
X11797651Y-44192616D01*
X11802114Y-44183854D01*
X11850088Y-44133059D01*
X11917908Y-44116263D01*
X11984044Y-44138799D01*
X12023086Y-44183856D01*
X12027551Y-44192620D01*
X12152490Y-44364586D01*
X12302813Y-44514909D01*
X12474779Y-44639848D01*
X12474781Y-44639849D01*
X12474784Y-44639851D01*
X12664188Y-44736357D01*
X12866357Y-44802046D01*
X13076313Y-44835300D01*
X13076314Y-44835300D01*
X13288886Y-44835300D01*
X13288887Y-44835300D01*
X13498843Y-44802046D01*
X13701012Y-44736357D01*
X13890416Y-44639851D01*
X13976738Y-44577135D01*
X14062386Y-44514909D01*
X14062388Y-44514906D01*
X14062392Y-44514904D01*
X14212704Y-44364592D01*
X14212706Y-44364588D01*
X14212709Y-44364586D01*
X14294829Y-44251556D01*
X14337651Y-44192616D01*
X14342393Y-44183308D01*
X14390363Y-44132511D01*
X14458183Y-44115711D01*
X14524319Y-44138245D01*
X14563363Y-44183300D01*
X14567973Y-44192347D01*
X14607328Y-44246516D01*
X15239637Y-43614208D01*
X15256675Y-43677793D01*
X15322501Y-43791807D01*
X15415593Y-43884899D01*
X15529607Y-43950725D01*
X15593190Y-43967762D01*
X14960882Y-44600069D01*
X14960882Y-44600070D01*
X15015049Y-44639424D01*
X15204382Y-44735895D01*
X15406470Y-44801557D01*
X15616354Y-44834800D01*
X15828846Y-44834800D01*
X16038727Y-44801557D01*
X16038730Y-44801557D01*
X16240817Y-44735895D01*
X16430154Y-44639422D01*
X16484316Y-44600070D01*
X16484317Y-44600070D01*
X15852008Y-43967762D01*
X15915593Y-43950725D01*
X16029607Y-43884899D01*
X16122699Y-43791807D01*
X16188525Y-43677793D01*
X16205562Y-43614208D01*
X16837870Y-44246517D01*
X16837870Y-44246516D01*
X16877222Y-44192355D01*
X16881832Y-44183307D01*
X16929805Y-44132509D01*
X16997625Y-44115712D01*
X17063761Y-44138247D01*
X17102804Y-44183304D01*
X17107549Y-44192617D01*
X17232490Y-44364586D01*
X17382813Y-44514909D01*
X17554779Y-44639848D01*
X17554781Y-44639849D01*
X17554784Y-44639851D01*
X17744188Y-44736357D01*
X17946357Y-44802046D01*
X18156313Y-44835300D01*
X18156314Y-44835300D01*
X18368886Y-44835300D01*
X18368887Y-44835300D01*
X18578843Y-44802046D01*
X18781012Y-44736357D01*
X18970416Y-44639851D01*
X19076336Y-44562896D01*
X19142384Y-44514910D01*
X19142384Y-44514909D01*
X19142392Y-44514904D01*
X19255929Y-44401366D01*
X19317248Y-44367884D01*
X19386940Y-44372868D01*
X19442874Y-44414739D01*
X19459789Y-44445717D01*
X19508802Y-44577128D01*
X19508806Y-44577135D01*
X19595052Y-44692344D01*
X19595055Y-44692347D01*
X19710264Y-44778593D01*
X19710271Y-44778597D01*
X19845117Y-44828891D01*
X19845116Y-44828891D01*
X19852044Y-44829635D01*
X19904727Y-44835300D01*
X21700472Y-44835299D01*
X21760083Y-44828891D01*
X21894931Y-44778596D01*
X22010146Y-44692346D01*
X22096396Y-44577131D01*
X22146691Y-44442283D01*
X22153100Y-44382673D01*
X22153099Y-42586928D01*
X22146691Y-42527317D01*
X22145971Y-42525387D01*
X22096397Y-42392471D01*
X22096393Y-42392464D01*
X22010147Y-42277255D01*
X22010144Y-42277252D01*
X21894935Y-42191006D01*
X21894928Y-42191002D01*
X21760082Y-42140708D01*
X21760083Y-42140708D01*
X21700483Y-42134301D01*
X21700481Y-42134300D01*
X21700473Y-42134300D01*
X21700465Y-42134300D01*
X20352698Y-42134300D01*
X20285659Y-42114615D01*
X20265017Y-42097981D01*
X18915290Y-40748255D01*
X18915288Y-40748252D01*
X18796417Y-40629381D01*
X18796416Y-40629380D01*
X18709604Y-40579260D01*
X18709604Y-40579259D01*
X18709600Y-40579258D01*
X18659485Y-40550323D01*
X18506757Y-40509399D01*
X18348643Y-40509399D01*
X18341047Y-40509399D01*
X18341031Y-40509400D01*
X1324500Y-40509400D01*
X1257461Y-40489715D01*
X1211706Y-40436911D01*
X1200500Y-40385400D01*
X1200500Y-33900155D01*
X4796800Y-33900155D01*
X4796800Y-34548000D01*
X5713788Y-34548000D01*
X5680875Y-34605007D01*
X5646800Y-34732174D01*
X5646800Y-34863826D01*
X5680875Y-34990993D01*
X5713788Y-35048000D01*
X4796800Y-35048000D01*
X4796800Y-35695844D01*
X4803201Y-35755372D01*
X4803203Y-35755379D01*
X4853445Y-35890086D01*
X4853449Y-35890093D01*
X4939609Y-36005187D01*
X4939612Y-36005190D01*
X5054706Y-36091350D01*
X5054713Y-36091354D01*
X5189420Y-36141596D01*
X5189427Y-36141598D01*
X5248955Y-36147999D01*
X5248972Y-36148000D01*
X5896800Y-36148000D01*
X5896800Y-35231012D01*
X5953807Y-35263925D01*
X6080974Y-35298000D01*
X6212626Y-35298000D01*
X6339793Y-35263925D01*
X6396800Y-35231012D01*
X6396800Y-36148000D01*
X7044628Y-36148000D01*
X7044644Y-36147999D01*
X7104172Y-36141598D01*
X7104179Y-36141596D01*
X7238886Y-36091354D01*
X7238893Y-36091350D01*
X7353987Y-36005190D01*
X7353990Y-36005187D01*
X7440150Y-35890093D01*
X7440154Y-35890086D01*
X7489222Y-35758529D01*
X7531093Y-35702595D01*
X7596557Y-35678178D01*
X7664830Y-35693030D01*
X7693085Y-35714181D01*
X7807013Y-35828109D01*
X7978979Y-35953048D01*
X7978981Y-35953049D01*
X7978984Y-35953051D01*
X8168388Y-36049557D01*
X8370557Y-36115246D01*
X8580513Y-36148500D01*
X8580514Y-36148500D01*
X8793086Y-36148500D01*
X8793087Y-36148500D01*
X9003043Y-36115246D01*
X9205212Y-36049557D01*
X9394616Y-35953051D01*
X9449372Y-35913269D01*
X9566586Y-35828109D01*
X9566588Y-35828106D01*
X9566592Y-35828104D01*
X9716904Y-35677792D01*
X9716906Y-35677788D01*
X9716909Y-35677786D01*
X9841848Y-35505820D01*
X9841847Y-35505820D01*
X9841851Y-35505816D01*
X9846314Y-35497054D01*
X9894288Y-35446259D01*
X9962108Y-35429463D01*
X10028244Y-35451999D01*
X10067286Y-35497056D01*
X10071751Y-35505820D01*
X10196690Y-35677786D01*
X10347013Y-35828109D01*
X10518979Y-35953048D01*
X10518981Y-35953049D01*
X10518984Y-35953051D01*
X10708388Y-36049557D01*
X10910557Y-36115246D01*
X11120513Y-36148500D01*
X11120514Y-36148500D01*
X11333086Y-36148500D01*
X11333087Y-36148500D01*
X11543043Y-36115246D01*
X11745212Y-36049557D01*
X11934616Y-35953051D01*
X11989372Y-35913269D01*
X12106586Y-35828109D01*
X12106588Y-35828106D01*
X12106592Y-35828104D01*
X12256904Y-35677792D01*
X12256906Y-35677788D01*
X12256909Y-35677786D01*
X12381848Y-35505820D01*
X12381847Y-35505820D01*
X12381851Y-35505816D01*
X12386314Y-35497054D01*
X12434288Y-35446259D01*
X12502108Y-35429463D01*
X12568244Y-35451999D01*
X12607286Y-35497056D01*
X12611751Y-35505820D01*
X12736690Y-35677786D01*
X12887013Y-35828109D01*
X13058979Y-35953048D01*
X13058981Y-35953049D01*
X13058984Y-35953051D01*
X13248388Y-36049557D01*
X13450557Y-36115246D01*
X13660513Y-36148500D01*
X13660514Y-36148500D01*
X13873086Y-36148500D01*
X13873087Y-36148500D01*
X14083043Y-36115246D01*
X14285212Y-36049557D01*
X14474616Y-35953051D01*
X14529372Y-35913269D01*
X14646586Y-35828109D01*
X14646588Y-35828106D01*
X14646592Y-35828104D01*
X14796904Y-35677792D01*
X14796906Y-35677788D01*
X14796909Y-35677786D01*
X14921848Y-35505820D01*
X14921847Y-35505820D01*
X14921851Y-35505816D01*
X14926314Y-35497054D01*
X14974288Y-35446259D01*
X15042108Y-35429463D01*
X15108244Y-35451999D01*
X15147286Y-35497056D01*
X15151751Y-35505820D01*
X15276690Y-35677786D01*
X15427013Y-35828109D01*
X15598979Y-35953048D01*
X15598981Y-35953049D01*
X15598984Y-35953051D01*
X15788388Y-36049557D01*
X15990557Y-36115246D01*
X16200513Y-36148500D01*
X16200514Y-36148500D01*
X16413086Y-36148500D01*
X16413087Y-36148500D01*
X16623043Y-36115246D01*
X16825212Y-36049557D01*
X17014616Y-35953051D01*
X17069372Y-35913269D01*
X17186586Y-35828109D01*
X17186588Y-35828106D01*
X17186592Y-35828104D01*
X17336904Y-35677792D01*
X17336906Y-35677788D01*
X17336909Y-35677786D01*
X17461848Y-35505820D01*
X17461847Y-35505820D01*
X17461851Y-35505816D01*
X17466314Y-35497054D01*
X17514288Y-35446259D01*
X17582108Y-35429463D01*
X17648244Y-35451999D01*
X17687286Y-35497056D01*
X17691751Y-35505820D01*
X17816690Y-35677786D01*
X17967013Y-35828109D01*
X18138979Y-35953048D01*
X18138981Y-35953049D01*
X18138984Y-35953051D01*
X18328388Y-36049557D01*
X18530557Y-36115246D01*
X18740513Y-36148500D01*
X18740514Y-36148500D01*
X18953086Y-36148500D01*
X18953087Y-36148500D01*
X19163043Y-36115246D01*
X19365212Y-36049557D01*
X19554616Y-35953051D01*
X19609372Y-35913269D01*
X19726586Y-35828109D01*
X19726588Y-35828106D01*
X19726592Y-35828104D01*
X19876904Y-35677792D01*
X19876906Y-35677788D01*
X19876909Y-35677786D01*
X20001848Y-35505820D01*
X20001847Y-35505820D01*
X20001851Y-35505816D01*
X20006314Y-35497054D01*
X20054288Y-35446259D01*
X20122108Y-35429463D01*
X20188244Y-35451999D01*
X20227286Y-35497056D01*
X20231751Y-35505820D01*
X20356690Y-35677786D01*
X20507013Y-35828109D01*
X20678979Y-35953048D01*
X20678981Y-35953049D01*
X20678984Y-35953051D01*
X20868388Y-36049557D01*
X21070557Y-36115246D01*
X21280513Y-36148500D01*
X21280514Y-36148500D01*
X21493086Y-36148500D01*
X21493087Y-36148500D01*
X21703043Y-36115246D01*
X21905212Y-36049557D01*
X22094616Y-35953051D01*
X22149372Y-35913269D01*
X22266586Y-35828109D01*
X22266588Y-35828106D01*
X22266592Y-35828104D01*
X22416904Y-35677792D01*
X22416906Y-35677788D01*
X22416909Y-35677786D01*
X22502690Y-35559717D01*
X22541851Y-35505816D01*
X22546593Y-35496508D01*
X22594563Y-35445711D01*
X22662383Y-35428911D01*
X22728519Y-35451445D01*
X22767563Y-35496500D01*
X22772173Y-35505547D01*
X22811528Y-35559716D01*
X23443837Y-34927408D01*
X23460875Y-34990993D01*
X23526701Y-35105007D01*
X23619793Y-35198099D01*
X23733807Y-35263925D01*
X23797390Y-35280962D01*
X23165082Y-35913269D01*
X23165082Y-35913270D01*
X23219249Y-35952624D01*
X23408582Y-36049095D01*
X23610670Y-36114757D01*
X23820554Y-36148000D01*
X24033046Y-36148000D01*
X24242927Y-36114757D01*
X24242930Y-36114757D01*
X24445017Y-36049095D01*
X24634354Y-35952622D01*
X24688516Y-35913270D01*
X24688517Y-35913270D01*
X24056208Y-35280962D01*
X24119793Y-35263925D01*
X24233807Y-35198099D01*
X24326899Y-35105007D01*
X24392725Y-34990993D01*
X24409762Y-34927408D01*
X25042070Y-35559717D01*
X25042070Y-35559716D01*
X25081422Y-35505554D01*
X25177895Y-35316217D01*
X25243557Y-35114130D01*
X25243557Y-35114127D01*
X25276800Y-34904246D01*
X25276800Y-34691753D01*
X25243557Y-34481872D01*
X25243557Y-34481869D01*
X25177895Y-34279782D01*
X25081424Y-34090449D01*
X25042070Y-34036282D01*
X25042069Y-34036282D01*
X24409762Y-34668590D01*
X24392725Y-34605007D01*
X24326899Y-34490993D01*
X24233807Y-34397901D01*
X24119793Y-34332075D01*
X24056209Y-34315037D01*
X24688516Y-33682728D01*
X24634350Y-33643375D01*
X24445017Y-33546904D01*
X24242929Y-33481242D01*
X24033046Y-33448000D01*
X23820554Y-33448000D01*
X23610672Y-33481242D01*
X23610669Y-33481242D01*
X23408582Y-33546904D01*
X23219239Y-33643380D01*
X23165082Y-33682727D01*
X23165082Y-33682728D01*
X23797391Y-34315037D01*
X23733807Y-34332075D01*
X23619793Y-34397901D01*
X23526701Y-34490993D01*
X23460875Y-34605007D01*
X23443837Y-34668591D01*
X22811528Y-34036282D01*
X22811527Y-34036282D01*
X22772180Y-34090440D01*
X22772176Y-34090446D01*
X22767560Y-34099505D01*
X22719581Y-34150297D01*
X22651759Y-34167087D01*
X22585626Y-34144543D01*
X22546594Y-34099493D01*
X22541851Y-34090184D01*
X22541849Y-34090181D01*
X22541848Y-34090179D01*
X22416909Y-33918213D01*
X22266586Y-33767890D01*
X22094620Y-33642951D01*
X21905214Y-33546444D01*
X21905213Y-33546443D01*
X21905212Y-33546443D01*
X21703043Y-33480754D01*
X21703041Y-33480753D01*
X21703040Y-33480753D01*
X21541757Y-33455208D01*
X21493087Y-33447500D01*
X21280513Y-33447500D01*
X21231842Y-33455208D01*
X21070560Y-33480753D01*
X20868385Y-33546444D01*
X20678979Y-33642951D01*
X20507013Y-33767890D01*
X20356690Y-33918213D01*
X20231749Y-34090182D01*
X20227284Y-34098946D01*
X20179309Y-34149742D01*
X20111488Y-34166536D01*
X20045353Y-34143998D01*
X20006316Y-34098946D01*
X20001850Y-34090182D01*
X19876909Y-33918213D01*
X19726586Y-33767890D01*
X19554620Y-33642951D01*
X19365214Y-33546444D01*
X19365213Y-33546443D01*
X19365212Y-33546443D01*
X19163043Y-33480754D01*
X19163041Y-33480753D01*
X19163040Y-33480753D01*
X19001757Y-33455208D01*
X18953087Y-33447500D01*
X18740513Y-33447500D01*
X18691842Y-33455208D01*
X18530560Y-33480753D01*
X18328385Y-33546444D01*
X18138979Y-33642951D01*
X17967013Y-33767890D01*
X17816690Y-33918213D01*
X17691749Y-34090182D01*
X17687284Y-34098946D01*
X17639309Y-34149742D01*
X17571488Y-34166536D01*
X17505353Y-34143998D01*
X17466316Y-34098946D01*
X17461850Y-34090182D01*
X17336909Y-33918213D01*
X17186586Y-33767890D01*
X17014620Y-33642951D01*
X16825214Y-33546444D01*
X16825213Y-33546443D01*
X16825212Y-33546443D01*
X16623043Y-33480754D01*
X16623041Y-33480753D01*
X16623040Y-33480753D01*
X16461757Y-33455208D01*
X16413087Y-33447500D01*
X16200513Y-33447500D01*
X16151842Y-33455208D01*
X15990560Y-33480753D01*
X15788385Y-33546444D01*
X15598979Y-33642951D01*
X15427013Y-33767890D01*
X15276690Y-33918213D01*
X15151749Y-34090182D01*
X15147284Y-34098946D01*
X15099309Y-34149742D01*
X15031488Y-34166536D01*
X14965353Y-34143998D01*
X14926316Y-34098946D01*
X14921850Y-34090182D01*
X14796909Y-33918213D01*
X14646586Y-33767890D01*
X14474620Y-33642951D01*
X14285214Y-33546444D01*
X14285213Y-33546443D01*
X14285212Y-33546443D01*
X14083043Y-33480754D01*
X14083041Y-33480753D01*
X14083040Y-33480753D01*
X13921757Y-33455208D01*
X13873087Y-33447500D01*
X13660513Y-33447500D01*
X13611842Y-33455208D01*
X13450560Y-33480753D01*
X13248385Y-33546444D01*
X13058979Y-33642951D01*
X12887013Y-33767890D01*
X12736690Y-33918213D01*
X12611749Y-34090182D01*
X12607284Y-34098946D01*
X12559309Y-34149742D01*
X12491488Y-34166536D01*
X12425353Y-34143998D01*
X12386316Y-34098946D01*
X12381850Y-34090182D01*
X12256909Y-33918213D01*
X12106586Y-33767890D01*
X11934620Y-33642951D01*
X11745214Y-33546444D01*
X11745213Y-33546443D01*
X11745212Y-33546443D01*
X11543043Y-33480754D01*
X11543041Y-33480753D01*
X11543040Y-33480753D01*
X11381757Y-33455208D01*
X11333087Y-33447500D01*
X11120513Y-33447500D01*
X11071842Y-33455208D01*
X10910560Y-33480753D01*
X10708385Y-33546444D01*
X10518979Y-33642951D01*
X10347013Y-33767890D01*
X10196690Y-33918213D01*
X10071749Y-34090182D01*
X10067284Y-34098946D01*
X10019309Y-34149742D01*
X9951488Y-34166536D01*
X9885353Y-34143998D01*
X9846316Y-34098946D01*
X9841850Y-34090182D01*
X9716909Y-33918213D01*
X9566586Y-33767890D01*
X9394620Y-33642951D01*
X9205214Y-33546444D01*
X9205213Y-33546443D01*
X9205212Y-33546443D01*
X9003043Y-33480754D01*
X9003041Y-33480753D01*
X9003040Y-33480753D01*
X8841757Y-33455208D01*
X8793087Y-33447500D01*
X8580513Y-33447500D01*
X8531842Y-33455208D01*
X8370560Y-33480753D01*
X8168385Y-33546444D01*
X7978979Y-33642951D01*
X7807015Y-33767889D01*
X7693085Y-33881819D01*
X7631762Y-33915303D01*
X7562070Y-33910319D01*
X7506137Y-33868447D01*
X7489222Y-33837470D01*
X7440154Y-33705913D01*
X7440150Y-33705906D01*
X7353990Y-33590812D01*
X7353987Y-33590809D01*
X7238893Y-33504649D01*
X7238886Y-33504645D01*
X7104179Y-33454403D01*
X7104172Y-33454401D01*
X7044644Y-33448000D01*
X6396800Y-33448000D01*
X6396800Y-34364988D01*
X6339793Y-34332075D01*
X6212626Y-34298000D01*
X6080974Y-34298000D01*
X5953807Y-34332075D01*
X5896800Y-34364988D01*
X5896800Y-33448000D01*
X5248955Y-33448000D01*
X5189427Y-33454401D01*
X5189420Y-33454403D01*
X5054713Y-33504645D01*
X5054706Y-33504649D01*
X4939612Y-33590809D01*
X4939609Y-33590812D01*
X4853449Y-33705906D01*
X4853445Y-33705913D01*
X4803203Y-33840620D01*
X4803201Y-33840627D01*
X4796800Y-33900155D01*
X1200500Y-33900155D01*
X1200500Y-19393500D01*
X1220185Y-19326461D01*
X1272989Y-19280706D01*
X1324500Y-19269500D01*
X3113731Y-19269500D01*
X3113747Y-19269501D01*
X3121343Y-19269501D01*
X3279454Y-19269501D01*
X3279457Y-19269501D01*
X3432185Y-19228577D01*
X3494672Y-19192500D01*
X3569116Y-19149520D01*
X3680920Y-19037716D01*
X3680920Y-19037714D01*
X3691124Y-19027511D01*
X3691127Y-19027506D01*
X11707320Y-11011316D01*
X11786377Y-10874384D01*
X11827301Y-10721657D01*
X11827301Y-10683717D01*
X11846986Y-10616678D01*
X11895005Y-10573233D01*
X11934616Y-10553051D01*
X12106592Y-10428104D01*
X12256904Y-10277792D01*
X12256906Y-10277788D01*
X12256909Y-10277786D01*
X12381848Y-10105820D01*
X12381850Y-10105817D01*
X12381851Y-10105816D01*
X12386314Y-10097054D01*
X12434288Y-10046259D01*
X12502108Y-10029463D01*
X12568244Y-10051999D01*
X12607286Y-10097056D01*
X12611751Y-10105820D01*
X12736690Y-10277786D01*
X12887013Y-10428109D01*
X13058979Y-10553048D01*
X13058981Y-10553049D01*
X13058984Y-10553051D01*
X13248388Y-10649557D01*
X13450557Y-10715246D01*
X13660513Y-10748500D01*
X13660514Y-10748500D01*
X13873086Y-10748500D01*
X13873087Y-10748500D01*
X14083043Y-10715246D01*
X14285212Y-10649557D01*
X14474616Y-10553051D01*
X14505100Y-10530903D01*
X14646586Y-10428109D01*
X14646588Y-10428106D01*
X14646592Y-10428104D01*
X14796904Y-10277792D01*
X14796906Y-10277788D01*
X14796909Y-10277786D01*
X14921848Y-10105820D01*
X14921850Y-10105817D01*
X14921851Y-10105816D01*
X14926314Y-10097054D01*
X14974288Y-10046259D01*
X15042108Y-10029463D01*
X15108244Y-10051999D01*
X15147286Y-10097056D01*
X15151751Y-10105820D01*
X15276690Y-10277786D01*
X15427013Y-10428109D01*
X15598979Y-10553048D01*
X15598981Y-10553049D01*
X15598984Y-10553051D01*
X15788388Y-10649557D01*
X15990557Y-10715246D01*
X16200513Y-10748500D01*
X16200514Y-10748500D01*
X16413086Y-10748500D01*
X16413087Y-10748500D01*
X16623043Y-10715246D01*
X16825212Y-10649557D01*
X17014616Y-10553051D01*
X17045100Y-10530903D01*
X17186586Y-10428109D01*
X17186588Y-10428106D01*
X17186592Y-10428104D01*
X17336904Y-10277792D01*
X17336906Y-10277788D01*
X17336909Y-10277786D01*
X17461848Y-10105820D01*
X17461850Y-10105817D01*
X17461851Y-10105816D01*
X17466314Y-10097054D01*
X17514288Y-10046259D01*
X17582108Y-10029463D01*
X17648244Y-10051999D01*
X17687286Y-10097056D01*
X17691751Y-10105820D01*
X17816690Y-10277786D01*
X17967013Y-10428109D01*
X18138979Y-10553048D01*
X18138981Y-10553049D01*
X18138984Y-10553051D01*
X18328388Y-10649557D01*
X18530557Y-10715246D01*
X18740513Y-10748500D01*
X18740514Y-10748500D01*
X18953086Y-10748500D01*
X18953087Y-10748500D01*
X19163043Y-10715246D01*
X19365212Y-10649557D01*
X19554616Y-10553051D01*
X19585100Y-10530903D01*
X19726586Y-10428109D01*
X19726588Y-10428106D01*
X19726592Y-10428104D01*
X19876904Y-10277792D01*
X19876906Y-10277788D01*
X19876909Y-10277786D01*
X20001848Y-10105820D01*
X20001850Y-10105817D01*
X20001851Y-10105816D01*
X20006314Y-10097054D01*
X20054288Y-10046259D01*
X20122108Y-10029463D01*
X20188244Y-10051999D01*
X20227286Y-10097056D01*
X20231751Y-10105820D01*
X20356690Y-10277786D01*
X20507013Y-10428109D01*
X20678979Y-10553048D01*
X20678981Y-10553049D01*
X20678984Y-10553051D01*
X20868388Y-10649557D01*
X21070557Y-10715246D01*
X21280513Y-10748500D01*
X21280514Y-10748500D01*
X21493086Y-10748500D01*
X21493087Y-10748500D01*
X21703043Y-10715246D01*
X21905212Y-10649557D01*
X22094616Y-10553051D01*
X22125100Y-10530903D01*
X22266586Y-10428109D01*
X22266588Y-10428106D01*
X22266592Y-10428104D01*
X22416904Y-10277792D01*
X22416906Y-10277788D01*
X22416909Y-10277786D01*
X22541848Y-10105820D01*
X22541850Y-10105817D01*
X22541851Y-10105816D01*
X22546314Y-10097054D01*
X22594288Y-10046259D01*
X22662108Y-10029463D01*
X22728244Y-10051999D01*
X22767286Y-10097056D01*
X22771751Y-10105820D01*
X22896690Y-10277786D01*
X23047013Y-10428109D01*
X23218979Y-10553048D01*
X23218981Y-10553049D01*
X23218984Y-10553051D01*
X23408388Y-10649557D01*
X23610557Y-10715246D01*
X23820513Y-10748500D01*
X23820514Y-10748500D01*
X24033086Y-10748500D01*
X24033087Y-10748500D01*
X24243043Y-10715246D01*
X24445212Y-10649557D01*
X24634616Y-10553051D01*
X24665100Y-10530903D01*
X24806586Y-10428109D01*
X24806588Y-10428106D01*
X24806592Y-10428104D01*
X24956904Y-10277792D01*
X24956906Y-10277788D01*
X24956909Y-10277786D01*
X25081848Y-10105820D01*
X25081850Y-10105817D01*
X25081851Y-10105816D01*
X25178357Y-9916412D01*
X25244046Y-9714243D01*
X25277300Y-9504287D01*
X25277300Y-9291713D01*
X25244046Y-9081757D01*
X25178357Y-8879588D01*
X25081851Y-8690184D01*
X25081849Y-8690181D01*
X25081848Y-8690179D01*
X24956909Y-8518213D01*
X24806586Y-8367890D01*
X24634620Y-8242951D01*
X24445214Y-8146444D01*
X24445213Y-8146443D01*
X24445212Y-8146443D01*
X24243043Y-8080754D01*
X24243041Y-8080753D01*
X24243040Y-8080753D01*
X24081757Y-8055208D01*
X24033087Y-8047500D01*
X23820513Y-8047500D01*
X23771842Y-8055208D01*
X23610560Y-8080753D01*
X23408385Y-8146444D01*
X23218979Y-8242951D01*
X23047013Y-8367890D01*
X22896690Y-8518213D01*
X22771749Y-8690182D01*
X22767284Y-8698946D01*
X22719309Y-8749742D01*
X22651488Y-8766536D01*
X22585353Y-8743998D01*
X22546316Y-8698946D01*
X22541850Y-8690182D01*
X22416909Y-8518213D01*
X22266586Y-8367890D01*
X22094620Y-8242951D01*
X21905214Y-8146444D01*
X21905213Y-8146443D01*
X21905212Y-8146443D01*
X21703043Y-8080754D01*
X21703041Y-8080753D01*
X21703040Y-8080753D01*
X21541757Y-8055208D01*
X21493087Y-8047500D01*
X21280513Y-8047500D01*
X21231842Y-8055208D01*
X21070560Y-8080753D01*
X20868385Y-8146444D01*
X20678979Y-8242951D01*
X20507013Y-8367890D01*
X20356690Y-8518213D01*
X20231749Y-8690182D01*
X20227284Y-8698946D01*
X20179309Y-8749742D01*
X20111488Y-8766536D01*
X20045353Y-8743998D01*
X20006316Y-8698946D01*
X20001850Y-8690182D01*
X19876909Y-8518213D01*
X19726586Y-8367890D01*
X19554620Y-8242951D01*
X19365214Y-8146444D01*
X19365213Y-8146443D01*
X19365212Y-8146443D01*
X19163043Y-8080754D01*
X19163041Y-8080753D01*
X19163040Y-8080753D01*
X19001757Y-8055208D01*
X18953087Y-8047500D01*
X18740513Y-8047500D01*
X18691842Y-8055208D01*
X18530560Y-8080753D01*
X18328385Y-8146444D01*
X18138979Y-8242951D01*
X17967013Y-8367890D01*
X17816690Y-8518213D01*
X17691749Y-8690182D01*
X17687284Y-8698946D01*
X17639309Y-8749742D01*
X17571488Y-8766536D01*
X17505353Y-8743998D01*
X17466316Y-8698946D01*
X17461850Y-8690182D01*
X17336909Y-8518213D01*
X17186586Y-8367890D01*
X17014620Y-8242951D01*
X16825214Y-8146444D01*
X16825213Y-8146443D01*
X16825212Y-8146443D01*
X16623043Y-8080754D01*
X16623041Y-8080753D01*
X16623040Y-8080753D01*
X16461757Y-8055208D01*
X16413087Y-8047500D01*
X16200513Y-8047500D01*
X16151842Y-8055208D01*
X15990560Y-8080753D01*
X15788385Y-8146444D01*
X15598979Y-8242951D01*
X15427013Y-8367890D01*
X15276690Y-8518213D01*
X15151749Y-8690182D01*
X15147284Y-8698946D01*
X15099309Y-8749742D01*
X15031488Y-8766536D01*
X14965353Y-8743998D01*
X14926316Y-8698946D01*
X14921850Y-8690182D01*
X14796909Y-8518213D01*
X14646586Y-8367890D01*
X14474620Y-8242951D01*
X14285214Y-8146444D01*
X14285213Y-8146443D01*
X14285212Y-8146443D01*
X14083043Y-8080754D01*
X14083041Y-8080753D01*
X14083040Y-8080753D01*
X13921757Y-8055208D01*
X13873087Y-8047500D01*
X13660513Y-8047500D01*
X13611842Y-8055208D01*
X13450560Y-8080753D01*
X13248385Y-8146444D01*
X13058979Y-8242951D01*
X12887013Y-8367890D01*
X12736690Y-8518213D01*
X12611749Y-8690182D01*
X12607284Y-8698946D01*
X12559309Y-8749742D01*
X12491488Y-8766536D01*
X12425353Y-8743998D01*
X12386316Y-8698946D01*
X12381850Y-8690182D01*
X12256909Y-8518213D01*
X12106586Y-8367890D01*
X11934620Y-8242951D01*
X11745214Y-8146444D01*
X11745213Y-8146443D01*
X11745212Y-8146443D01*
X11543043Y-8080754D01*
X11543041Y-8080753D01*
X11543040Y-8080753D01*
X11381757Y-8055208D01*
X11333087Y-8047500D01*
X11120513Y-8047500D01*
X11071842Y-8055208D01*
X10910560Y-8080753D01*
X10708385Y-8146444D01*
X10518979Y-8242951D01*
X10347013Y-8367890D01*
X10196690Y-8518213D01*
X10071749Y-8690182D01*
X10067002Y-8699499D01*
X10019027Y-8750293D01*
X9951205Y-8767087D01*
X9885071Y-8744548D01*
X9846034Y-8699495D01*
X9841426Y-8690452D01*
X9802070Y-8636282D01*
X9802069Y-8636282D01*
X9169762Y-9268590D01*
X9152725Y-9205007D01*
X9086899Y-9090993D01*
X8993807Y-8997901D01*
X8879793Y-8932075D01*
X8816209Y-8915037D01*
X9448516Y-8282728D01*
X9394350Y-8243375D01*
X9205017Y-8146904D01*
X9002929Y-8081242D01*
X8793046Y-8048000D01*
X8580554Y-8048000D01*
X8370672Y-8081242D01*
X8370669Y-8081242D01*
X8168582Y-8146904D01*
X7979239Y-8243380D01*
X7925082Y-8282727D01*
X7925082Y-8282728D01*
X8557391Y-8915037D01*
X8493807Y-8932075D01*
X8379793Y-8997901D01*
X8286701Y-9090993D01*
X8220875Y-9205007D01*
X8203837Y-9268591D01*
X7534442Y-8599196D01*
X7501119Y-8538609D01*
X7462327Y-8365364D01*
X7440154Y-8305913D01*
X7440150Y-8305906D01*
X7353990Y-8190812D01*
X7353987Y-8190809D01*
X7238893Y-8104649D01*
X7238886Y-8104645D01*
X7104179Y-8054403D01*
X7104172Y-8054401D01*
X7044644Y-8048000D01*
X6396800Y-8048000D01*
X6396800Y-8964988D01*
X6339793Y-8932075D01*
X6212626Y-8898000D01*
X6080974Y-8898000D01*
X5953807Y-8932075D01*
X5896800Y-8964988D01*
X5896800Y-8048000D01*
X5248955Y-8048000D01*
X5189427Y-8054401D01*
X5189420Y-8054403D01*
X5054713Y-8104645D01*
X5054706Y-8104649D01*
X4939612Y-8190809D01*
X4939609Y-8190812D01*
X4853449Y-8305906D01*
X4853445Y-8305913D01*
X4803203Y-8440620D01*
X4803201Y-8440627D01*
X4796800Y-8500155D01*
X4796800Y-9148000D01*
X5713788Y-9148000D01*
X5680875Y-9205007D01*
X5646800Y-9332174D01*
X5646800Y-9463826D01*
X5680875Y-9590993D01*
X5713788Y-9648000D01*
X4796800Y-9648000D01*
X4796800Y-10295844D01*
X4803201Y-10355372D01*
X4803203Y-10355379D01*
X4853445Y-10490086D01*
X4853449Y-10490093D01*
X4939609Y-10605187D01*
X4939612Y-10605190D01*
X5054706Y-10691350D01*
X5054713Y-10691354D01*
X5189420Y-10741596D01*
X5189427Y-10741598D01*
X5248955Y-10747999D01*
X5248972Y-10748000D01*
X5896800Y-10748000D01*
X5896800Y-9831012D01*
X5953807Y-9863925D01*
X6080974Y-9898000D01*
X6212626Y-9898000D01*
X6339793Y-9863925D01*
X6396800Y-9831012D01*
X6396800Y-10748000D01*
X7044628Y-10748000D01*
X7044644Y-10747999D01*
X7104172Y-10741598D01*
X7104179Y-10741596D01*
X7238886Y-10691354D01*
X7238893Y-10691350D01*
X7353987Y-10605190D01*
X7353990Y-10605187D01*
X7440150Y-10490093D01*
X7440154Y-10490086D01*
X7462329Y-10430632D01*
X7501119Y-10257390D01*
X7501482Y-10256734D01*
X7501442Y-10255984D01*
X7534442Y-10196802D01*
X8203837Y-9527408D01*
X8220875Y-9590993D01*
X8286701Y-9705007D01*
X8379793Y-9798099D01*
X8493807Y-9863925D01*
X8557390Y-9880962D01*
X7925082Y-10513269D01*
X7925082Y-10513270D01*
X7979249Y-10552624D01*
X8168582Y-10649095D01*
X8370670Y-10714757D01*
X8580554Y-10748000D01*
X8793046Y-10748000D01*
X9002927Y-10714757D01*
X9002930Y-10714757D01*
X9205017Y-10649095D01*
X9394354Y-10552622D01*
X9448516Y-10513270D01*
X9448517Y-10513270D01*
X8816208Y-9880962D01*
X8879793Y-9863925D01*
X8993807Y-9798099D01*
X9086899Y-9705007D01*
X9152725Y-9590993D01*
X9169762Y-9527408D01*
X9802070Y-10159717D01*
X9802070Y-10159716D01*
X9841422Y-10105555D01*
X9846032Y-10096507D01*
X9894005Y-10045709D01*
X9961825Y-10028912D01*
X10027961Y-10051447D01*
X10067004Y-10096504D01*
X10071749Y-10105817D01*
X10196690Y-10277786D01*
X10347009Y-10428105D01*
X10371482Y-10445886D01*
X10414147Y-10501217D01*
X10420126Y-10570830D01*
X10387520Y-10632625D01*
X10386277Y-10633885D01*
X2987984Y-18032181D01*
X2926661Y-18065666D01*
X2900303Y-18068500D01*
X1324500Y-18068500D01*
X1257461Y-18048815D01*
X1211706Y-17996011D01*
X1200500Y-17944500D01*
X1200500Y-17010124D01*
X1220185Y-16943085D01*
X1272989Y-16897330D01*
X1342147Y-16887386D01*
X1380795Y-16899639D01*
X1481782Y-16951095D01*
X1683870Y-17016757D01*
X1893754Y-17050000D01*
X2106246Y-17050000D01*
X2316127Y-17016757D01*
X2316130Y-17016757D01*
X2518217Y-16951095D01*
X2707554Y-16854622D01*
X2761716Y-16815270D01*
X2761717Y-16815270D01*
X2129409Y-16182962D01*
X2192993Y-16165925D01*
X2307007Y-16100099D01*
X2400099Y-16007007D01*
X2465925Y-15892993D01*
X2482962Y-15829408D01*
X3115270Y-16461717D01*
X3115270Y-16461716D01*
X3154622Y-16407554D01*
X3251095Y-16218217D01*
X3316757Y-16016130D01*
X3316757Y-16016127D01*
X3350000Y-15806246D01*
X3350000Y-15593753D01*
X3316757Y-15383872D01*
X3316757Y-15383869D01*
X3251095Y-15181782D01*
X3154624Y-14992449D01*
X3115270Y-14938282D01*
X3115269Y-14938282D01*
X2482962Y-15570590D01*
X2465925Y-15507007D01*
X2400099Y-15392993D01*
X2307007Y-15299901D01*
X2192993Y-15234075D01*
X2129407Y-15217036D01*
X2761716Y-14584728D01*
X2707550Y-14545375D01*
X2697954Y-14540486D01*
X2647157Y-14492512D01*
X2630361Y-14424692D01*
X2652897Y-14358556D01*
X2697954Y-14319514D01*
X2707554Y-14314622D01*
X2761716Y-14275270D01*
X2761717Y-14275270D01*
X2129409Y-13642962D01*
X2192993Y-13625925D01*
X2307007Y-13560099D01*
X2400099Y-13467007D01*
X2465925Y-13352993D01*
X2482962Y-13289408D01*
X3115270Y-13921717D01*
X3115270Y-13921716D01*
X3154622Y-13867554D01*
X3251095Y-13678217D01*
X3316757Y-13476130D01*
X3316757Y-13476127D01*
X3350000Y-13266246D01*
X3350000Y-13053753D01*
X3316757Y-12843872D01*
X3316757Y-12843869D01*
X3251095Y-12641782D01*
X3154624Y-12452449D01*
X3115270Y-12398282D01*
X3115269Y-12398282D01*
X2482962Y-13030590D01*
X2465925Y-12967007D01*
X2400099Y-12852993D01*
X2307007Y-12759901D01*
X2192993Y-12694075D01*
X2129407Y-12677036D01*
X2761716Y-12044728D01*
X2707550Y-12005375D01*
X2697954Y-12000486D01*
X2647157Y-11952512D01*
X2630361Y-11884692D01*
X2652897Y-11818556D01*
X2697954Y-11779514D01*
X2707554Y-11774622D01*
X2761716Y-11735270D01*
X2761717Y-11735270D01*
X2129409Y-11102962D01*
X2192993Y-11085925D01*
X2307007Y-11020099D01*
X2400099Y-10927007D01*
X2465925Y-10812993D01*
X2482962Y-10749408D01*
X3115270Y-11381717D01*
X3115270Y-11381716D01*
X3154622Y-11327554D01*
X3251095Y-11138217D01*
X3316757Y-10936130D01*
X3316757Y-10936127D01*
X3350000Y-10726246D01*
X3350000Y-10513753D01*
X3316757Y-10303872D01*
X3316757Y-10303869D01*
X3251095Y-10101782D01*
X3154624Y-9912449D01*
X3115270Y-9858282D01*
X3115269Y-9858282D01*
X2482962Y-10490590D01*
X2465925Y-10427007D01*
X2400099Y-10312993D01*
X2307007Y-10219901D01*
X2192993Y-10154075D01*
X2129407Y-10137036D01*
X2757488Y-9508957D01*
X2761716Y-9504728D01*
X2707550Y-9465375D01*
X2697954Y-9460486D01*
X2647157Y-9412512D01*
X2630361Y-9344692D01*
X2652897Y-9278556D01*
X2697954Y-9239514D01*
X2707554Y-9234622D01*
X2761716Y-9195270D01*
X2761717Y-9195270D01*
X2129409Y-8562962D01*
X2192993Y-8545925D01*
X2307007Y-8480099D01*
X2400099Y-8387007D01*
X2465925Y-8272993D01*
X2482962Y-8209408D01*
X3115270Y-8841717D01*
X3115270Y-8841716D01*
X3154622Y-8787554D01*
X3251095Y-8598217D01*
X3296481Y-8458533D01*
X3296481Y-8458532D01*
X3316758Y-8396126D01*
X3350000Y-8186246D01*
X3350000Y-7973753D01*
X3316757Y-7763872D01*
X3316757Y-7763869D01*
X3251095Y-7561782D01*
X3154624Y-7372449D01*
X3115270Y-7318282D01*
X3115269Y-7318282D01*
X2482962Y-7950590D01*
X2465925Y-7887007D01*
X2400099Y-7772993D01*
X2307007Y-7679901D01*
X2192993Y-7614075D01*
X2129407Y-7597036D01*
X2761716Y-6964728D01*
X2707550Y-6925375D01*
X2697954Y-6920486D01*
X2647157Y-6872512D01*
X2630361Y-6804692D01*
X2652897Y-6738556D01*
X2697954Y-6699514D01*
X2707554Y-6694622D01*
X2761716Y-6655270D01*
X2761717Y-6655270D01*
X2129409Y-6022962D01*
X2192993Y-6005925D01*
X2307007Y-5940099D01*
X2400099Y-5847007D01*
X2465925Y-5732993D01*
X2482962Y-5669408D01*
X3115270Y-6301717D01*
X3115270Y-6301716D01*
X3154622Y-6247554D01*
X3251095Y-6058217D01*
X3316757Y-5856130D01*
X3316757Y-5856127D01*
X3350000Y-5646246D01*
X3350000Y-5433753D01*
X3316757Y-5223872D01*
X3316757Y-5223869D01*
X3251095Y-5021782D01*
X3154624Y-4832449D01*
X3115270Y-4778282D01*
X3115269Y-4778282D01*
X2482962Y-5410590D01*
X2465925Y-5347007D01*
X2400099Y-5232993D01*
X2307007Y-5139901D01*
X2192993Y-5074075D01*
X2129407Y-5057036D01*
X2798802Y-4387642D01*
X2860125Y-4354157D01*
X2874833Y-4355078D01*
X2874556Y-4352501D01*
X2957375Y-4343598D01*
X3092086Y-4293354D01*
X3092093Y-4293350D01*
X3207187Y-4207190D01*
X3207190Y-4207187D01*
X3293350Y-4092093D01*
X3293354Y-4092086D01*
X3343596Y-3957379D01*
X3343598Y-3957372D01*
X3349999Y-3897844D01*
X3350000Y-3897827D01*
X3350000Y-3250000D01*
X2433012Y-3250000D01*
X2465925Y-3192993D01*
X2500000Y-3065826D01*
X2500000Y-2934174D01*
X2465925Y-2807007D01*
X2433012Y-2750000D01*
X3350000Y-2750000D01*
X3350000Y-2102172D01*
X3349999Y-2102155D01*
X3343598Y-2042627D01*
X3343596Y-2042620D01*
X3293354Y-1907913D01*
X3293350Y-1907906D01*
X3207190Y-1792812D01*
X3207187Y-1792809D01*
X3092093Y-1706649D01*
X3092086Y-1706645D01*
X2957379Y-1656403D01*
X2957372Y-1656401D01*
X2897844Y-1650000D01*
X2250000Y-1650000D01*
X2250000Y-2566988D01*
X2192993Y-2534075D01*
X2065826Y-2500000D01*
X1934174Y-2500000D01*
X1807007Y-2534075D01*
X1750000Y-2566988D01*
X1750000Y-1650000D01*
X1324500Y-1650000D01*
X1257461Y-1630315D01*
X1211706Y-1577511D01*
X1200500Y-1526000D01*
X1200500Y-1324500D01*
X1220185Y-1257461D01*
X1272989Y-1211706D01*
X1324500Y-1200500D01*
X10469627Y-1200500D01*
X10484647Y-1204910D01*
G37*
%TD.AperFunction*%
%TA.AperFunction,Conductor*%
G36*
X37175139Y-1255185D02*
G01*
X37220894Y-1307989D01*
X37232100Y-1359500D01*
X37232100Y-2897870D01*
X37232101Y-2897876D01*
X37238508Y-2957483D01*
X37288802Y-3092328D01*
X37288806Y-3092335D01*
X37375052Y-3207544D01*
X37375055Y-3207547D01*
X37490264Y-3293793D01*
X37490271Y-3293797D01*
X37625117Y-3344091D01*
X37625116Y-3344091D01*
X37632044Y-3344835D01*
X37684727Y-3350500D01*
X39480472Y-3350499D01*
X39540083Y-3344091D01*
X39674931Y-3293796D01*
X39790146Y-3207546D01*
X39876396Y-3092331D01*
X39925410Y-2960916D01*
X39967281Y-2904984D01*
X40032745Y-2880566D01*
X40101018Y-2895417D01*
X40129273Y-2916569D01*
X40242813Y-3030109D01*
X40414779Y-3155048D01*
X40414781Y-3155049D01*
X40414784Y-3155051D01*
X40604188Y-3251557D01*
X40806357Y-3317246D01*
X41016313Y-3350500D01*
X41016314Y-3350500D01*
X41228886Y-3350500D01*
X41228887Y-3350500D01*
X41438843Y-3317246D01*
X41641012Y-3251557D01*
X41830416Y-3155051D01*
X41916738Y-3092335D01*
X42002386Y-3030109D01*
X42002388Y-3030106D01*
X42002392Y-3030104D01*
X42152704Y-2879792D01*
X42152706Y-2879788D01*
X42152709Y-2879786D01*
X42277648Y-2707820D01*
X42277647Y-2707820D01*
X42277651Y-2707816D01*
X42282114Y-2699054D01*
X42330088Y-2648259D01*
X42397908Y-2631463D01*
X42464044Y-2653999D01*
X42503086Y-2699056D01*
X42507551Y-2707820D01*
X42632490Y-2879786D01*
X42782813Y-3030109D01*
X42954779Y-3155048D01*
X42954781Y-3155049D01*
X42954784Y-3155051D01*
X43144188Y-3251557D01*
X43346357Y-3317246D01*
X43556313Y-3350500D01*
X43556314Y-3350500D01*
X43768886Y-3350500D01*
X43768887Y-3350500D01*
X43978843Y-3317246D01*
X44181012Y-3251557D01*
X44370416Y-3155051D01*
X44456738Y-3092335D01*
X44542386Y-3030109D01*
X44542388Y-3030106D01*
X44542392Y-3030104D01*
X44692704Y-2879792D01*
X44692706Y-2879788D01*
X44692709Y-2879786D01*
X44817648Y-2707820D01*
X44817647Y-2707820D01*
X44817651Y-2707816D01*
X44822114Y-2699054D01*
X44870088Y-2648259D01*
X44937908Y-2631463D01*
X45004044Y-2653999D01*
X45043086Y-2699056D01*
X45047551Y-2707820D01*
X45172490Y-2879786D01*
X45322813Y-3030109D01*
X45494779Y-3155048D01*
X45494781Y-3155049D01*
X45494784Y-3155051D01*
X45684188Y-3251557D01*
X45886357Y-3317246D01*
X46096313Y-3350500D01*
X46096314Y-3350500D01*
X46308886Y-3350500D01*
X46308887Y-3350500D01*
X46518843Y-3317246D01*
X46721012Y-3251557D01*
X46910416Y-3155051D01*
X46996738Y-3092335D01*
X47082386Y-3030109D01*
X47082388Y-3030106D01*
X47082392Y-3030104D01*
X47232704Y-2879792D01*
X47232706Y-2879788D01*
X47232709Y-2879786D01*
X47357648Y-2707820D01*
X47357647Y-2707820D01*
X47357651Y-2707816D01*
X47362114Y-2699054D01*
X47410088Y-2648259D01*
X47477908Y-2631463D01*
X47544044Y-2653999D01*
X47583086Y-2699056D01*
X47587551Y-2707820D01*
X47712490Y-2879786D01*
X47862813Y-3030109D01*
X48034779Y-3155048D01*
X48034781Y-3155049D01*
X48034784Y-3155051D01*
X48224188Y-3251557D01*
X48426357Y-3317246D01*
X48636313Y-3350500D01*
X48636314Y-3350500D01*
X48848886Y-3350500D01*
X48848887Y-3350500D01*
X49058843Y-3317246D01*
X49261012Y-3251557D01*
X49450416Y-3155051D01*
X49536738Y-3092335D01*
X49622386Y-3030109D01*
X49622388Y-3030106D01*
X49622392Y-3030104D01*
X49772704Y-2879792D01*
X49772706Y-2879788D01*
X49772709Y-2879786D01*
X49897648Y-2707820D01*
X49897647Y-2707820D01*
X49897651Y-2707816D01*
X49902114Y-2699054D01*
X49950088Y-2648259D01*
X50017908Y-2631463D01*
X50084044Y-2653999D01*
X50123086Y-2699056D01*
X50127551Y-2707820D01*
X50252490Y-2879786D01*
X50402813Y-3030109D01*
X50574779Y-3155048D01*
X50574781Y-3155049D01*
X50574784Y-3155051D01*
X50764188Y-3251557D01*
X50966357Y-3317246D01*
X51176313Y-3350500D01*
X51176314Y-3350500D01*
X51388886Y-3350500D01*
X51388887Y-3350500D01*
X51598843Y-3317246D01*
X51801012Y-3251557D01*
X51990416Y-3155051D01*
X52076738Y-3092335D01*
X52162386Y-3030109D01*
X52162388Y-3030106D01*
X52162392Y-3030104D01*
X52312704Y-2879792D01*
X52312706Y-2879788D01*
X52312709Y-2879786D01*
X52437648Y-2707820D01*
X52437647Y-2707820D01*
X52437651Y-2707816D01*
X52534157Y-2518412D01*
X52599846Y-2316243D01*
X52633100Y-2106287D01*
X52633100Y-1893713D01*
X52599846Y-1683757D01*
X52534157Y-1481588D01*
X52500634Y-1415795D01*
X52487738Y-1347126D01*
X52514014Y-1282385D01*
X52571121Y-1242128D01*
X52611119Y-1235500D01*
X56334903Y-1235500D01*
X56401942Y-1255185D01*
X56422584Y-1271819D01*
X57613181Y-2462416D01*
X57646666Y-2523739D01*
X57649500Y-2550097D01*
X57649500Y-3897870D01*
X57649501Y-3897876D01*
X57655908Y-3957483D01*
X57706202Y-4092328D01*
X57706206Y-4092335D01*
X57792452Y-4207544D01*
X57792455Y-4207547D01*
X57907664Y-4293793D01*
X57907671Y-4293797D01*
X58039082Y-4342810D01*
X58095016Y-4384681D01*
X58119433Y-4450145D01*
X58104582Y-4518418D01*
X58083431Y-4546673D01*
X57969889Y-4660215D01*
X57844951Y-4832179D01*
X57748444Y-5021585D01*
X57682753Y-5223760D01*
X57649500Y-5433713D01*
X57649500Y-5646286D01*
X57682735Y-5856127D01*
X57682754Y-5856243D01*
X57734186Y-6014535D01*
X57748444Y-6058414D01*
X57844951Y-6247820D01*
X57969890Y-6419786D01*
X58120213Y-6570109D01*
X58292182Y-6695050D01*
X58300946Y-6699516D01*
X58351742Y-6747491D01*
X58368536Y-6815312D01*
X58345998Y-6881447D01*
X58300946Y-6920484D01*
X58292182Y-6924949D01*
X58120213Y-7049890D01*
X57969890Y-7200213D01*
X57844951Y-7372179D01*
X57748444Y-7561585D01*
X57682753Y-7763760D01*
X57681291Y-7772993D01*
X57649500Y-7973713D01*
X57649500Y-8186287D01*
X57682754Y-8396243D01*
X57734075Y-8554193D01*
X57748444Y-8598414D01*
X57844951Y-8787820D01*
X57969890Y-8959786D01*
X58120213Y-9110109D01*
X58292182Y-9235050D01*
X58300946Y-9239516D01*
X58351742Y-9287491D01*
X58368536Y-9355312D01*
X58345998Y-9421447D01*
X58300946Y-9460484D01*
X58292182Y-9464949D01*
X58120213Y-9589890D01*
X57969890Y-9740213D01*
X57844951Y-9912179D01*
X57748444Y-10101585D01*
X57682753Y-10303760D01*
X57649500Y-10513713D01*
X57649500Y-10726286D01*
X57682735Y-10936127D01*
X57682754Y-10936243D01*
X57734075Y-11094193D01*
X57748444Y-11138414D01*
X57844951Y-11327820D01*
X57969890Y-11499786D01*
X58120213Y-11650109D01*
X58292182Y-11775050D01*
X58300946Y-11779516D01*
X58351742Y-11827491D01*
X58368536Y-11895312D01*
X58345998Y-11961447D01*
X58300946Y-12000484D01*
X58292182Y-12004949D01*
X58120213Y-12129890D01*
X57969890Y-12280213D01*
X57844951Y-12452179D01*
X57748444Y-12641585D01*
X57682753Y-12843760D01*
X57649500Y-13053713D01*
X57649500Y-13266286D01*
X57682735Y-13476127D01*
X57682754Y-13476243D01*
X57734075Y-13634193D01*
X57748444Y-13678414D01*
X57844951Y-13867820D01*
X57969890Y-14039786D01*
X58120213Y-14190109D01*
X58292182Y-14315050D01*
X58300946Y-14319516D01*
X58351742Y-14367491D01*
X58368536Y-14435312D01*
X58345998Y-14501447D01*
X58300946Y-14540484D01*
X58292182Y-14544949D01*
X58120213Y-14669890D01*
X57969890Y-14820213D01*
X57844951Y-14992179D01*
X57748444Y-15181585D01*
X57682753Y-15383760D01*
X57649500Y-15593713D01*
X57649500Y-15806286D01*
X57682753Y-16016239D01*
X57748444Y-16218414D01*
X57844951Y-16407820D01*
X57969890Y-16579786D01*
X58120213Y-16730109D01*
X58292179Y-16855048D01*
X58292181Y-16855049D01*
X58292184Y-16855051D01*
X58481588Y-16951557D01*
X58683757Y-17017246D01*
X58893713Y-17050500D01*
X58893714Y-17050500D01*
X59106286Y-17050500D01*
X59106287Y-17050500D01*
X59316243Y-17017246D01*
X59358523Y-17003507D01*
X59428362Y-17001511D01*
X59484522Y-17033757D01*
X59763181Y-17312416D01*
X59796666Y-17373739D01*
X59799500Y-17400097D01*
X59799500Y-82989875D01*
X59779815Y-83056914D01*
X59727011Y-83102669D01*
X59657853Y-83112613D01*
X59619205Y-83100360D01*
X59518217Y-83048904D01*
X59316129Y-82983242D01*
X59106246Y-82950000D01*
X58893754Y-82950000D01*
X58683872Y-82983242D01*
X58683869Y-82983242D01*
X58481782Y-83048904D01*
X58292439Y-83145380D01*
X58238282Y-83184727D01*
X58238282Y-83184728D01*
X58870591Y-83817037D01*
X58807007Y-83834075D01*
X58692993Y-83899901D01*
X58599901Y-83992993D01*
X58534075Y-84107007D01*
X58517037Y-84170591D01*
X57884728Y-83538282D01*
X57884727Y-83538282D01*
X57845380Y-83592439D01*
X57748904Y-83781782D01*
X57683242Y-83983869D01*
X57683242Y-83983872D01*
X57650000Y-84193753D01*
X57650000Y-84406246D01*
X57683242Y-84616127D01*
X57683242Y-84616130D01*
X57748904Y-84818217D01*
X57845375Y-85007550D01*
X57884728Y-85061716D01*
X58517037Y-84429408D01*
X58534075Y-84492993D01*
X58599901Y-84607007D01*
X58692993Y-84700099D01*
X58807007Y-84765925D01*
X58870589Y-84782962D01*
X58238282Y-85415269D01*
X58238282Y-85415270D01*
X58292452Y-85454626D01*
X58302048Y-85459516D01*
X58352844Y-85507491D01*
X58369638Y-85575312D01*
X58347100Y-85641447D01*
X58302051Y-85680483D01*
X58292440Y-85685380D01*
X58238282Y-85724727D01*
X58238282Y-85724728D01*
X58870591Y-86357037D01*
X58807007Y-86374075D01*
X58692993Y-86439901D01*
X58599901Y-86532993D01*
X58534075Y-86647007D01*
X58517037Y-86710591D01*
X57884728Y-86078282D01*
X57884727Y-86078282D01*
X57845380Y-86132439D01*
X57748904Y-86321782D01*
X57683242Y-86523869D01*
X57683242Y-86523872D01*
X57650000Y-86733753D01*
X57650000Y-86946246D01*
X57683242Y-87156127D01*
X57683242Y-87156130D01*
X57748904Y-87358217D01*
X57845375Y-87547550D01*
X57884728Y-87601716D01*
X58517037Y-86969408D01*
X58534075Y-87032993D01*
X58599901Y-87147007D01*
X58692993Y-87240099D01*
X58807007Y-87305925D01*
X58870589Y-87322962D01*
X58238282Y-87955269D01*
X58238282Y-87955270D01*
X58292452Y-87994626D01*
X58302048Y-87999516D01*
X58352844Y-88047491D01*
X58369638Y-88115312D01*
X58347100Y-88181447D01*
X58302051Y-88220483D01*
X58292440Y-88225380D01*
X58238282Y-88264727D01*
X58238282Y-88264728D01*
X58870591Y-88897037D01*
X58807007Y-88914075D01*
X58692993Y-88979901D01*
X58599901Y-89072993D01*
X58534075Y-89187007D01*
X58517037Y-89250591D01*
X57884728Y-88618282D01*
X57884727Y-88618282D01*
X57845380Y-88672439D01*
X57748904Y-88861782D01*
X57683242Y-89063869D01*
X57683242Y-89063872D01*
X57650000Y-89273753D01*
X57650000Y-89486246D01*
X57683242Y-89696127D01*
X57683242Y-89696130D01*
X57748904Y-89898217D01*
X57845375Y-90087550D01*
X57884728Y-90141716D01*
X58517037Y-89509408D01*
X58534075Y-89572993D01*
X58599901Y-89687007D01*
X58692993Y-89780099D01*
X58807007Y-89845925D01*
X58870589Y-89862962D01*
X58238282Y-90495269D01*
X58238282Y-90495270D01*
X58292452Y-90534626D01*
X58302048Y-90539516D01*
X58352844Y-90587491D01*
X58369638Y-90655312D01*
X58347100Y-90721447D01*
X58302051Y-90760483D01*
X58292440Y-90765380D01*
X58238282Y-90804727D01*
X58238282Y-90804728D01*
X58870591Y-91437037D01*
X58807007Y-91454075D01*
X58692993Y-91519901D01*
X58599901Y-91612993D01*
X58534075Y-91727007D01*
X58517037Y-91790591D01*
X57884728Y-91158282D01*
X57884727Y-91158282D01*
X57845380Y-91212439D01*
X57748904Y-91401782D01*
X57683242Y-91603869D01*
X57683242Y-91603872D01*
X57650000Y-91813753D01*
X57650000Y-92026246D01*
X57683242Y-92236127D01*
X57683242Y-92236130D01*
X57748904Y-92438217D01*
X57845375Y-92627550D01*
X57884728Y-92681716D01*
X58517037Y-92049408D01*
X58534075Y-92112993D01*
X58599901Y-92227007D01*
X58692993Y-92320099D01*
X58807007Y-92385925D01*
X58870589Y-92402962D01*
X58238282Y-93035269D01*
X58238282Y-93035270D01*
X58292452Y-93074626D01*
X58302048Y-93079516D01*
X58352844Y-93127491D01*
X58369638Y-93195312D01*
X58347100Y-93261447D01*
X58302051Y-93300483D01*
X58292440Y-93305380D01*
X58238282Y-93344727D01*
X58238282Y-93344728D01*
X58870591Y-93977037D01*
X58807007Y-93994075D01*
X58692993Y-94059901D01*
X58599901Y-94152993D01*
X58534075Y-94267007D01*
X58517037Y-94330591D01*
X57884728Y-93698282D01*
X57884727Y-93698282D01*
X57845380Y-93752439D01*
X57748904Y-93941782D01*
X57683242Y-94143869D01*
X57683242Y-94143872D01*
X57650000Y-94353753D01*
X57650000Y-94566246D01*
X57683242Y-94776127D01*
X57683242Y-94776130D01*
X57748904Y-94978217D01*
X57845375Y-95167550D01*
X57884728Y-95221716D01*
X58517037Y-94589408D01*
X58534075Y-94652993D01*
X58599901Y-94767007D01*
X58692993Y-94860099D01*
X58807007Y-94925925D01*
X58870589Y-94942962D01*
X58201195Y-95612356D01*
X58139872Y-95645841D01*
X58125167Y-95644924D01*
X58125444Y-95647497D01*
X58042626Y-95656401D01*
X58042619Y-95656403D01*
X57907913Y-95706645D01*
X57907906Y-95706649D01*
X57792812Y-95792809D01*
X57792809Y-95792812D01*
X57706649Y-95907906D01*
X57706645Y-95907913D01*
X57656403Y-96042620D01*
X57656401Y-96042627D01*
X57650000Y-96102155D01*
X57650000Y-96750000D01*
X58566988Y-96750000D01*
X58534075Y-96807007D01*
X58500000Y-96934174D01*
X58500000Y-97065826D01*
X58534075Y-97192993D01*
X58566988Y-97250000D01*
X57650000Y-97250000D01*
X57650000Y-97897844D01*
X57656401Y-97957372D01*
X57656403Y-97957379D01*
X57706645Y-98092086D01*
X57706649Y-98092093D01*
X57792809Y-98207187D01*
X57792812Y-98207190D01*
X57907906Y-98293350D01*
X57907913Y-98293354D01*
X58042620Y-98343596D01*
X58042627Y-98343598D01*
X58102155Y-98349999D01*
X58102172Y-98350000D01*
X58750000Y-98350000D01*
X58750000Y-97433012D01*
X58807007Y-97465925D01*
X58934174Y-97500000D01*
X59065826Y-97500000D01*
X59192993Y-97465925D01*
X59250000Y-97433012D01*
X59250000Y-98350000D01*
X59675500Y-98350000D01*
X59684185Y-98352550D01*
X59693147Y-98351262D01*
X59717187Y-98362240D01*
X59742539Y-98369685D01*
X59748466Y-98376525D01*
X59756703Y-98380287D01*
X59770992Y-98402521D01*
X59788294Y-98422489D01*
X59790581Y-98433003D01*
X59794477Y-98439065D01*
X59799500Y-98474000D01*
X59799500Y-98659501D01*
X59779815Y-98726540D01*
X59763184Y-98747180D01*
X59747186Y-98763179D01*
X59685864Y-98796665D01*
X59659502Y-98799500D01*
X55480097Y-98799500D01*
X55413058Y-98779815D01*
X55392416Y-98763181D01*
X55166818Y-98537583D01*
X55133333Y-98476260D01*
X55130499Y-98449902D01*
X55130499Y-97411495D01*
X55137281Y-97371048D01*
X55141162Y-97359800D01*
X55147269Y-97349223D01*
X55169577Y-97310585D01*
X55210500Y-97157858D01*
X55210500Y-96999743D01*
X55210500Y-93685601D01*
X55230185Y-93618562D01*
X55278206Y-93575116D01*
X55291610Y-93568287D01*
X55457219Y-93447966D01*
X55601966Y-93303219D01*
X55601968Y-93303215D01*
X55601971Y-93303213D01*
X55654732Y-93230590D01*
X55722287Y-93137610D01*
X55815220Y-92955219D01*
X55878477Y-92760534D01*
X55910500Y-92558352D01*
X55910500Y-92353648D01*
X55878477Y-92151466D01*
X55865976Y-92112993D01*
X55837804Y-92026287D01*
X55815220Y-91956781D01*
X55815218Y-91956778D01*
X55815218Y-91956776D01*
X55768545Y-91865176D01*
X55728486Y-91786557D01*
X55722287Y-91774390D01*
X55680493Y-91716865D01*
X55601971Y-91608786D01*
X55457213Y-91464028D01*
X55291613Y-91343715D01*
X55291612Y-91343714D01*
X55291610Y-91343713D01*
X55234653Y-91314691D01*
X55109223Y-91250781D01*
X54914534Y-91187522D01*
X54739995Y-91159878D01*
X54712352Y-91155500D01*
X54507648Y-91155500D01*
X54483329Y-91159351D01*
X54305465Y-91187522D01*
X54110776Y-91250781D01*
X53928386Y-91343715D01*
X53762786Y-91464028D01*
X53618028Y-91608786D01*
X53497715Y-91774386D01*
X53404781Y-91956776D01*
X53341522Y-92151465D01*
X53309500Y-92353648D01*
X53309500Y-92558351D01*
X53341522Y-92760534D01*
X53404781Y-92955223D01*
X53445568Y-93035270D01*
X53493698Y-93129731D01*
X53497715Y-93137613D01*
X53618028Y-93303213D01*
X53618034Y-93303219D01*
X53762781Y-93447966D01*
X53928390Y-93568287D01*
X53941793Y-93575116D01*
X53992589Y-93623088D01*
X54009500Y-93685601D01*
X54009500Y-96525500D01*
X53989815Y-96592539D01*
X53937011Y-96638294D01*
X53885500Y-96649500D01*
X52882129Y-96649500D01*
X52882123Y-96649501D01*
X52822516Y-96655908D01*
X52687671Y-96706202D01*
X52687664Y-96706206D01*
X52572455Y-96792452D01*
X52572452Y-96792455D01*
X52486206Y-96907664D01*
X52486202Y-96907671D01*
X52435908Y-97042517D01*
X52429501Y-97102116D01*
X52429500Y-97102135D01*
X52429500Y-97112690D01*
X52409815Y-97179729D01*
X52393181Y-97200371D01*
X51722962Y-97870589D01*
X51705925Y-97807007D01*
X51640099Y-97692993D01*
X51547007Y-97599901D01*
X51432993Y-97534075D01*
X51369409Y-97517037D01*
X52001716Y-96884728D01*
X51947550Y-96845375D01*
X51758217Y-96748904D01*
X51556129Y-96683242D01*
X51346246Y-96650000D01*
X51133754Y-96650000D01*
X50923872Y-96683242D01*
X50923869Y-96683242D01*
X50721782Y-96748904D01*
X50532439Y-96845380D01*
X50478282Y-96884727D01*
X50478282Y-96884728D01*
X51110591Y-97517037D01*
X51047007Y-97534075D01*
X50932993Y-97599901D01*
X50839901Y-97692993D01*
X50774075Y-97807007D01*
X50757037Y-97870591D01*
X50124728Y-97238282D01*
X50124727Y-97238282D01*
X50085380Y-97292440D01*
X50085376Y-97292446D01*
X50080760Y-97301505D01*
X50032781Y-97352297D01*
X49964959Y-97369087D01*
X49898826Y-97346543D01*
X49859794Y-97301493D01*
X49855051Y-97292184D01*
X49855049Y-97292181D01*
X49855048Y-97292179D01*
X49730109Y-97120213D01*
X49579786Y-96969890D01*
X49407820Y-96844951D01*
X49218414Y-96748444D01*
X49218413Y-96748443D01*
X49218412Y-96748443D01*
X49016243Y-96682754D01*
X49016241Y-96682753D01*
X49016240Y-96682753D01*
X48854957Y-96657208D01*
X48806287Y-96649500D01*
X48593713Y-96649500D01*
X48545042Y-96657208D01*
X48383760Y-96682753D01*
X48181585Y-96748444D01*
X47992179Y-96844951D01*
X47820213Y-96969890D01*
X47669890Y-97120213D01*
X47544949Y-97292182D01*
X47540484Y-97300946D01*
X47492509Y-97351742D01*
X47424688Y-97368536D01*
X47358553Y-97345998D01*
X47319516Y-97300946D01*
X47315050Y-97292182D01*
X47190109Y-97120213D01*
X47039786Y-96969890D01*
X46867820Y-96844951D01*
X46678414Y-96748444D01*
X46678413Y-96748443D01*
X46678412Y-96748443D01*
X46476243Y-96682754D01*
X46476241Y-96682753D01*
X46476240Y-96682753D01*
X46314957Y-96657208D01*
X46266287Y-96649500D01*
X46053713Y-96649500D01*
X46005042Y-96657208D01*
X45843760Y-96682753D01*
X45641585Y-96748444D01*
X45452179Y-96844951D01*
X45280213Y-96969890D01*
X45129890Y-97120213D01*
X45004949Y-97292182D01*
X45000484Y-97300946D01*
X44952509Y-97351742D01*
X44884688Y-97368536D01*
X44818553Y-97345998D01*
X44779516Y-97300946D01*
X44775050Y-97292182D01*
X44650109Y-97120213D01*
X44499786Y-96969890D01*
X44327820Y-96844951D01*
X44138414Y-96748444D01*
X44138413Y-96748443D01*
X44138412Y-96748443D01*
X43936243Y-96682754D01*
X43936241Y-96682753D01*
X43936240Y-96682753D01*
X43774957Y-96657208D01*
X43726287Y-96649500D01*
X43513713Y-96649500D01*
X43465042Y-96657208D01*
X43303760Y-96682753D01*
X43101585Y-96748444D01*
X42912179Y-96844951D01*
X42740213Y-96969890D01*
X42589890Y-97120213D01*
X42464949Y-97292182D01*
X42460484Y-97300946D01*
X42412509Y-97351742D01*
X42344688Y-97368536D01*
X42278553Y-97345998D01*
X42239516Y-97300946D01*
X42235050Y-97292182D01*
X42110109Y-97120213D01*
X41959786Y-96969890D01*
X41787820Y-96844951D01*
X41598414Y-96748444D01*
X41598413Y-96748443D01*
X41598412Y-96748443D01*
X41396243Y-96682754D01*
X41396241Y-96682753D01*
X41396240Y-96682753D01*
X41234957Y-96657208D01*
X41186287Y-96649500D01*
X40973713Y-96649500D01*
X40925042Y-96657208D01*
X40763760Y-96682753D01*
X40561585Y-96748444D01*
X40372179Y-96844951D01*
X40200213Y-96969890D01*
X40049890Y-97120213D01*
X39924949Y-97292182D01*
X39920202Y-97301499D01*
X39872227Y-97352293D01*
X39804405Y-97369087D01*
X39738271Y-97346548D01*
X39699234Y-97301495D01*
X39694626Y-97292452D01*
X39655270Y-97238282D01*
X39655269Y-97238282D01*
X39022962Y-97870589D01*
X39005925Y-97807007D01*
X38940099Y-97692993D01*
X38847007Y-97599901D01*
X38732993Y-97534075D01*
X38669409Y-97517037D01*
X39301716Y-96884728D01*
X39247550Y-96845375D01*
X39058217Y-96748904D01*
X38856129Y-96683242D01*
X38646246Y-96650000D01*
X38433754Y-96650000D01*
X38223872Y-96683242D01*
X38223869Y-96683242D01*
X38021782Y-96748904D01*
X37832439Y-96845380D01*
X37778282Y-96884727D01*
X37778282Y-96884728D01*
X38410591Y-97517037D01*
X38347007Y-97534075D01*
X38232993Y-97599901D01*
X38139901Y-97692993D01*
X38074075Y-97807007D01*
X38057037Y-97870591D01*
X37424728Y-97238282D01*
X37424727Y-97238282D01*
X37385380Y-97292440D01*
X37385376Y-97292446D01*
X37380760Y-97301505D01*
X37332781Y-97352297D01*
X37264959Y-97369087D01*
X37198826Y-97346543D01*
X37159794Y-97301493D01*
X37155051Y-97292184D01*
X37155049Y-97292181D01*
X37155048Y-97292179D01*
X37030109Y-97120213D01*
X36879786Y-96969890D01*
X36707820Y-96844951D01*
X36518414Y-96748444D01*
X36518413Y-96748443D01*
X36518412Y-96748443D01*
X36316243Y-96682754D01*
X36316241Y-96682753D01*
X36316240Y-96682753D01*
X36154957Y-96657208D01*
X36106287Y-96649500D01*
X35893713Y-96649500D01*
X35845042Y-96657208D01*
X35683760Y-96682753D01*
X35481585Y-96748444D01*
X35292179Y-96844951D01*
X35120213Y-96969890D01*
X34969890Y-97120213D01*
X34844951Y-97292179D01*
X34748444Y-97481585D01*
X34682753Y-97683760D01*
X34649500Y-97893713D01*
X34649500Y-98106286D01*
X34682735Y-98316127D01*
X34682754Y-98316243D01*
X34703563Y-98380287D01*
X34705804Y-98387182D01*
X34707799Y-98457023D01*
X34671719Y-98516856D01*
X34609018Y-98547684D01*
X34587873Y-98549500D01*
X24231602Y-98549500D01*
X24164563Y-98529815D01*
X24118808Y-98477011D01*
X24108864Y-98407853D01*
X24113671Y-98387182D01*
X24136757Y-98316130D01*
X24136757Y-98316127D01*
X24170000Y-98106246D01*
X24170000Y-97893753D01*
X24136757Y-97683872D01*
X24136757Y-97683869D01*
X24071095Y-97481782D01*
X23974624Y-97292449D01*
X23935270Y-97238282D01*
X23935269Y-97238282D01*
X23302962Y-97870589D01*
X23285925Y-97807007D01*
X23220099Y-97692993D01*
X23127007Y-97599901D01*
X23012993Y-97534075D01*
X22949409Y-97517037D01*
X23581716Y-96884728D01*
X23527550Y-96845375D01*
X23338217Y-96748904D01*
X23136129Y-96683242D01*
X22926246Y-96650000D01*
X22713754Y-96650000D01*
X22503872Y-96683242D01*
X22503869Y-96683242D01*
X22301782Y-96748904D01*
X22112439Y-96845380D01*
X22058282Y-96884727D01*
X22058282Y-96884728D01*
X22690591Y-97517037D01*
X22627007Y-97534075D01*
X22512993Y-97599901D01*
X22419901Y-97692993D01*
X22354075Y-97807007D01*
X22337037Y-97870591D01*
X21704728Y-97238282D01*
X21704727Y-97238282D01*
X21665380Y-97292440D01*
X21665376Y-97292446D01*
X21660760Y-97301505D01*
X21612781Y-97352297D01*
X21544959Y-97369087D01*
X21478826Y-97346543D01*
X21439794Y-97301493D01*
X21435051Y-97292184D01*
X21435049Y-97292181D01*
X21435048Y-97292179D01*
X21310109Y-97120213D01*
X21159786Y-96969890D01*
X20987815Y-96844948D01*
X20983664Y-96842404D01*
X20984262Y-96841426D01*
X20937405Y-96797165D01*
X20920500Y-96734662D01*
X20920500Y-96285783D01*
X20940185Y-96218744D01*
X20956819Y-96198102D01*
X22544502Y-94610419D01*
X22605825Y-94576934D01*
X22632183Y-94574100D01*
X25699071Y-94574100D01*
X25699087Y-94574101D01*
X25706683Y-94574101D01*
X25864794Y-94574101D01*
X25864797Y-94574101D01*
X26017525Y-94533177D01*
X26067644Y-94504239D01*
X26154456Y-94454120D01*
X26266260Y-94342316D01*
X26266260Y-94342314D01*
X26276468Y-94332107D01*
X26276469Y-94332104D01*
X28254926Y-92353648D01*
X43149500Y-92353648D01*
X43149500Y-92558351D01*
X43181522Y-92760534D01*
X43244781Y-92955223D01*
X43285568Y-93035270D01*
X43333698Y-93129731D01*
X43337715Y-93137613D01*
X43458028Y-93303213D01*
X43602786Y-93447971D01*
X43757749Y-93560556D01*
X43768390Y-93568287D01*
X43849499Y-93609614D01*
X43950776Y-93661218D01*
X43950778Y-93661218D01*
X43950781Y-93661220D01*
X44025818Y-93685601D01*
X44145465Y-93724477D01*
X44246557Y-93740488D01*
X44347648Y-93756500D01*
X44347649Y-93756500D01*
X44552351Y-93756500D01*
X44552352Y-93756500D01*
X44754534Y-93724477D01*
X44949219Y-93661220D01*
X45131610Y-93568287D01*
X45224590Y-93500732D01*
X45297213Y-93447971D01*
X45297215Y-93447968D01*
X45297219Y-93447966D01*
X45441966Y-93303219D01*
X45441968Y-93303215D01*
X45441971Y-93303213D01*
X45494732Y-93230590D01*
X45562287Y-93137610D01*
X45655220Y-92955219D01*
X45718477Y-92760534D01*
X45750500Y-92558352D01*
X45750500Y-92353648D01*
X45718477Y-92151466D01*
X45705976Y-92112993D01*
X45677804Y-92026287D01*
X45655220Y-91956781D01*
X45655218Y-91956778D01*
X45655218Y-91956776D01*
X45582343Y-91813753D01*
X45562287Y-91774390D01*
X45520493Y-91716865D01*
X45441971Y-91608786D01*
X45297213Y-91464028D01*
X45131613Y-91343715D01*
X45131612Y-91343714D01*
X45131610Y-91343713D01*
X45074653Y-91314691D01*
X44949223Y-91250781D01*
X44754534Y-91187522D01*
X44579995Y-91159878D01*
X44552352Y-91155500D01*
X44347648Y-91155500D01*
X44323329Y-91159351D01*
X44145465Y-91187522D01*
X43950776Y-91250781D01*
X43768386Y-91343715D01*
X43602786Y-91464028D01*
X43458028Y-91608786D01*
X43337715Y-91774386D01*
X43244781Y-91956776D01*
X43181522Y-92151465D01*
X43149500Y-92353648D01*
X28254926Y-92353648D01*
X32706720Y-87901855D01*
X32785777Y-87764923D01*
X32826701Y-87612196D01*
X32826701Y-87454081D01*
X32826701Y-87446486D01*
X32826700Y-87446468D01*
X32826700Y-60102135D01*
X56649500Y-60102135D01*
X56649500Y-61897870D01*
X56649501Y-61897876D01*
X56655908Y-61957483D01*
X56706202Y-62092328D01*
X56706206Y-62092335D01*
X56792452Y-62207544D01*
X56792455Y-62207547D01*
X56907664Y-62293793D01*
X56907671Y-62293797D01*
X57039082Y-62342810D01*
X57095016Y-62384681D01*
X57119433Y-62450145D01*
X57104582Y-62518418D01*
X57083431Y-62546673D01*
X56969889Y-62660215D01*
X56844951Y-62832179D01*
X56748444Y-63021585D01*
X56682753Y-63223760D01*
X56649500Y-63433713D01*
X56649500Y-63646286D01*
X56676820Y-63818781D01*
X56682754Y-63856243D01*
X56739872Y-64032034D01*
X56748444Y-64058414D01*
X56844951Y-64247820D01*
X56969890Y-64419786D01*
X57120213Y-64570109D01*
X57292182Y-64695050D01*
X57300946Y-64699516D01*
X57351742Y-64747491D01*
X57368536Y-64815312D01*
X57345998Y-64881447D01*
X57300946Y-64920484D01*
X57292182Y-64924949D01*
X57120213Y-65049890D01*
X56969890Y-65200213D01*
X56844951Y-65372179D01*
X56748444Y-65561585D01*
X56682753Y-65763760D01*
X56649500Y-65973713D01*
X56649500Y-66186286D01*
X56678393Y-66368713D01*
X56682754Y-66396243D01*
X56735824Y-66559576D01*
X56748444Y-66598414D01*
X56844951Y-66787820D01*
X56969890Y-66959786D01*
X57120213Y-67110109D01*
X57292182Y-67235050D01*
X57300946Y-67239516D01*
X57351742Y-67287491D01*
X57368536Y-67355312D01*
X57345998Y-67421447D01*
X57300946Y-67460484D01*
X57292182Y-67464949D01*
X57120213Y-67589890D01*
X56969890Y-67740213D01*
X56844951Y-67912179D01*
X56748444Y-68101585D01*
X56682753Y-68303760D01*
X56649500Y-68513713D01*
X56649500Y-68726286D01*
X56682753Y-68936239D01*
X56748444Y-69138414D01*
X56844951Y-69327820D01*
X56969890Y-69499786D01*
X57120213Y-69650109D01*
X57292182Y-69775050D01*
X57300946Y-69779516D01*
X57351742Y-69827491D01*
X57368536Y-69895312D01*
X57345998Y-69961447D01*
X57300946Y-70000484D01*
X57292182Y-70004949D01*
X57120213Y-70129890D01*
X56969890Y-70280213D01*
X56844951Y-70452179D01*
X56748444Y-70641585D01*
X56682753Y-70843760D01*
X56649500Y-71053713D01*
X56649500Y-71266286D01*
X56670082Y-71396239D01*
X56682754Y-71476243D01*
X56722449Y-71598412D01*
X56748444Y-71678414D01*
X56844951Y-71867820D01*
X56969890Y-72039786D01*
X57120213Y-72190109D01*
X57292182Y-72315050D01*
X57300946Y-72319516D01*
X57351742Y-72367491D01*
X57368536Y-72435312D01*
X57345998Y-72501447D01*
X57300946Y-72540484D01*
X57292182Y-72544949D01*
X57120213Y-72669890D01*
X56969890Y-72820213D01*
X56844951Y-72992179D01*
X56748444Y-73181585D01*
X56682753Y-73383760D01*
X56649500Y-73593713D01*
X56649500Y-73806286D01*
X56676820Y-73978781D01*
X56682754Y-74016243D01*
X56739872Y-74192034D01*
X56748444Y-74218414D01*
X56844951Y-74407820D01*
X56969890Y-74579786D01*
X57120213Y-74730109D01*
X57292182Y-74855050D01*
X57300946Y-74859516D01*
X57351742Y-74907491D01*
X57368536Y-74975312D01*
X57345998Y-75041447D01*
X57300946Y-75080484D01*
X57292182Y-75084949D01*
X57120213Y-75209890D01*
X56969890Y-75360213D01*
X56844951Y-75532179D01*
X56748444Y-75721585D01*
X56682753Y-75923760D01*
X56649500Y-76133713D01*
X56649500Y-76346286D01*
X56682753Y-76556239D01*
X56748444Y-76758414D01*
X56844951Y-76947820D01*
X56969890Y-77119786D01*
X57120213Y-77270109D01*
X57292179Y-77395048D01*
X57292181Y-77395049D01*
X57292184Y-77395051D01*
X57301493Y-77399794D01*
X57352290Y-77447766D01*
X57369087Y-77515587D01*
X57346552Y-77581722D01*
X57301505Y-77620760D01*
X57292446Y-77625376D01*
X57292440Y-77625380D01*
X57238282Y-77664727D01*
X57238282Y-77664728D01*
X57870591Y-78297037D01*
X57807007Y-78314075D01*
X57692993Y-78379901D01*
X57599901Y-78472993D01*
X57534075Y-78587007D01*
X57517037Y-78650591D01*
X56884728Y-78018282D01*
X56884727Y-78018282D01*
X56845380Y-78072439D01*
X56748904Y-78261782D01*
X56683242Y-78463869D01*
X56683242Y-78463872D01*
X56650000Y-78673753D01*
X56650000Y-78886246D01*
X56683242Y-79096127D01*
X56683242Y-79096130D01*
X56748904Y-79298217D01*
X56845375Y-79487550D01*
X56884728Y-79541716D01*
X57517037Y-78909408D01*
X57534075Y-78972993D01*
X57599901Y-79087007D01*
X57692993Y-79180099D01*
X57807007Y-79245925D01*
X57870590Y-79262962D01*
X57238282Y-79895269D01*
X57238282Y-79895270D01*
X57292449Y-79934624D01*
X57481782Y-80031095D01*
X57683870Y-80096757D01*
X57893754Y-80130000D01*
X58106246Y-80130000D01*
X58316127Y-80096757D01*
X58316130Y-80096757D01*
X58518217Y-80031095D01*
X58707554Y-79934622D01*
X58761716Y-79895270D01*
X58761717Y-79895270D01*
X58129408Y-79262962D01*
X58192993Y-79245925D01*
X58307007Y-79180099D01*
X58400099Y-79087007D01*
X58465925Y-78972993D01*
X58482962Y-78909409D01*
X59115270Y-79541717D01*
X59115270Y-79541716D01*
X59154622Y-79487554D01*
X59251095Y-79298217D01*
X59316757Y-79096130D01*
X59316757Y-79096127D01*
X59350000Y-78886246D01*
X59350000Y-78673753D01*
X59316757Y-78463872D01*
X59316757Y-78463869D01*
X59251095Y-78261782D01*
X59154624Y-78072449D01*
X59115270Y-78018282D01*
X59115269Y-78018282D01*
X58482962Y-78650590D01*
X58465925Y-78587007D01*
X58400099Y-78472993D01*
X58307007Y-78379901D01*
X58192993Y-78314075D01*
X58129409Y-78297037D01*
X58761716Y-77664728D01*
X58707547Y-77625373D01*
X58707547Y-77625372D01*
X58698500Y-77620763D01*
X58647706Y-77572788D01*
X58630912Y-77504966D01*
X58653451Y-77438832D01*
X58698508Y-77399793D01*
X58707816Y-77395051D01*
X58787007Y-77337515D01*
X58879786Y-77270109D01*
X58879788Y-77270106D01*
X58879792Y-77270104D01*
X59030104Y-77119792D01*
X59030106Y-77119788D01*
X59030109Y-77119786D01*
X59155048Y-76947820D01*
X59155047Y-76947820D01*
X59155051Y-76947816D01*
X59251557Y-76758412D01*
X59317246Y-76556243D01*
X59350500Y-76346287D01*
X59350500Y-76133713D01*
X59317246Y-75923757D01*
X59251557Y-75721588D01*
X59155051Y-75532184D01*
X59155049Y-75532181D01*
X59155048Y-75532179D01*
X59030109Y-75360213D01*
X58879786Y-75209890D01*
X58707820Y-75084951D01*
X58701337Y-75081648D01*
X58699054Y-75080485D01*
X58648259Y-75032512D01*
X58631463Y-74964692D01*
X58653999Y-74898556D01*
X58699054Y-74859515D01*
X58707816Y-74855051D01*
X58772650Y-74807947D01*
X58879786Y-74730109D01*
X58879788Y-74730106D01*
X58879792Y-74730104D01*
X59030104Y-74579792D01*
X59030106Y-74579788D01*
X59030109Y-74579786D01*
X59155048Y-74407820D01*
X59155047Y-74407820D01*
X59155051Y-74407816D01*
X59251557Y-74218412D01*
X59317246Y-74016243D01*
X59350500Y-73806287D01*
X59350500Y-73593713D01*
X59317246Y-73383757D01*
X59251557Y-73181588D01*
X59155051Y-72992184D01*
X59155049Y-72992181D01*
X59155048Y-72992179D01*
X59030109Y-72820213D01*
X58879786Y-72669890D01*
X58707820Y-72544951D01*
X58707115Y-72544591D01*
X58699054Y-72540485D01*
X58648259Y-72492512D01*
X58631463Y-72424692D01*
X58653999Y-72358556D01*
X58699054Y-72319515D01*
X58707816Y-72315051D01*
X58729789Y-72299086D01*
X58879786Y-72190109D01*
X58879788Y-72190106D01*
X58879792Y-72190104D01*
X59030104Y-72039792D01*
X59030106Y-72039788D01*
X59030109Y-72039786D01*
X59155048Y-71867820D01*
X59155047Y-71867820D01*
X59155051Y-71867816D01*
X59251557Y-71678412D01*
X59317246Y-71476243D01*
X59350500Y-71266287D01*
X59350500Y-71053713D01*
X59317246Y-70843757D01*
X59251557Y-70641588D01*
X59155051Y-70452184D01*
X59155049Y-70452181D01*
X59155048Y-70452179D01*
X59030109Y-70280213D01*
X58879786Y-70129890D01*
X58707820Y-70004951D01*
X58707115Y-70004591D01*
X58699054Y-70000485D01*
X58648259Y-69952512D01*
X58631463Y-69884692D01*
X58653999Y-69818556D01*
X58699054Y-69779515D01*
X58707816Y-69775051D01*
X58872682Y-69655270D01*
X58879786Y-69650109D01*
X58879788Y-69650106D01*
X58879792Y-69650104D01*
X59030104Y-69499792D01*
X59030106Y-69499788D01*
X59030109Y-69499786D01*
X59155048Y-69327820D01*
X59155047Y-69327820D01*
X59155051Y-69327816D01*
X59251557Y-69138412D01*
X59317246Y-68936243D01*
X59350500Y-68726287D01*
X59350500Y-68513713D01*
X59317246Y-68303757D01*
X59251557Y-68101588D01*
X59155051Y-67912184D01*
X59155049Y-67912181D01*
X59155048Y-67912179D01*
X59030109Y-67740213D01*
X58879786Y-67589890D01*
X58707820Y-67464951D01*
X58707115Y-67464591D01*
X58699054Y-67460485D01*
X58648259Y-67412512D01*
X58631463Y-67344692D01*
X58653999Y-67278556D01*
X58699054Y-67239515D01*
X58707816Y-67235051D01*
X58745676Y-67207544D01*
X58879786Y-67110109D01*
X58879788Y-67110106D01*
X58879792Y-67110104D01*
X59030104Y-66959792D01*
X59030106Y-66959788D01*
X59030109Y-66959786D01*
X59155048Y-66787820D01*
X59155047Y-66787820D01*
X59155051Y-66787816D01*
X59251557Y-66598412D01*
X59317246Y-66396243D01*
X59350500Y-66186287D01*
X59350500Y-65973713D01*
X59317246Y-65763757D01*
X59251557Y-65561588D01*
X59155051Y-65372184D01*
X59155049Y-65372181D01*
X59155048Y-65372179D01*
X59030109Y-65200213D01*
X58879786Y-65049890D01*
X58707820Y-64924951D01*
X58701337Y-64921648D01*
X58699054Y-64920485D01*
X58648259Y-64872512D01*
X58631463Y-64804692D01*
X58653999Y-64738556D01*
X58699054Y-64699515D01*
X58707816Y-64695051D01*
X58770512Y-64649500D01*
X58879786Y-64570109D01*
X58879788Y-64570106D01*
X58879792Y-64570104D01*
X59030104Y-64419792D01*
X59030106Y-64419788D01*
X59030109Y-64419786D01*
X59155048Y-64247820D01*
X59155047Y-64247820D01*
X59155051Y-64247816D01*
X59251557Y-64058412D01*
X59317246Y-63856243D01*
X59350500Y-63646287D01*
X59350500Y-63433713D01*
X59317246Y-63223757D01*
X59251557Y-63021588D01*
X59155051Y-62832184D01*
X59155049Y-62832181D01*
X59155048Y-62832179D01*
X59030109Y-62660213D01*
X58916569Y-62546673D01*
X58883084Y-62485350D01*
X58888068Y-62415658D01*
X58929940Y-62359725D01*
X58960915Y-62342810D01*
X59092331Y-62293796D01*
X59207546Y-62207546D01*
X59293796Y-62092331D01*
X59344091Y-61957483D01*
X59350500Y-61897873D01*
X59350499Y-60102128D01*
X59344091Y-60042517D01*
X59293796Y-59907669D01*
X59293795Y-59907668D01*
X59293793Y-59907664D01*
X59207547Y-59792455D01*
X59207544Y-59792452D01*
X59092335Y-59706206D01*
X59092328Y-59706202D01*
X58957482Y-59655908D01*
X58957483Y-59655908D01*
X58897883Y-59649501D01*
X58897881Y-59649500D01*
X58897873Y-59649500D01*
X58897864Y-59649500D01*
X57102129Y-59649500D01*
X57102123Y-59649501D01*
X57042516Y-59655908D01*
X56907671Y-59706202D01*
X56907664Y-59706206D01*
X56792455Y-59792452D01*
X56792452Y-59792455D01*
X56706206Y-59907664D01*
X56706202Y-59907671D01*
X56655908Y-60042517D01*
X56649501Y-60102116D01*
X56649501Y-60102123D01*
X56649500Y-60102135D01*
X32826700Y-60102135D01*
X32826700Y-51244658D01*
X32826701Y-51244645D01*
X32826701Y-51076544D01*
X32826701Y-51076542D01*
X32785777Y-50923814D01*
X32756839Y-50873694D01*
X32706720Y-50786883D01*
X32594916Y-50675079D01*
X32594915Y-50675078D01*
X32590585Y-50670748D01*
X32590574Y-50670738D01*
X31186619Y-49266783D01*
X31153134Y-49205460D01*
X31150300Y-49179102D01*
X31150300Y-48919682D01*
X32228000Y-48919682D01*
X32228000Y-49124317D01*
X32260009Y-49326417D01*
X32323244Y-49521031D01*
X32416141Y-49703350D01*
X32416147Y-49703359D01*
X32448523Y-49747921D01*
X32448524Y-49747922D01*
X33128000Y-49068446D01*
X33128000Y-49074661D01*
X33155259Y-49176394D01*
X33207920Y-49267606D01*
X33282394Y-49342080D01*
X33373606Y-49394741D01*
X33475339Y-49422000D01*
X33481553Y-49422000D01*
X32802076Y-50101474D01*
X32846650Y-50133859D01*
X33028968Y-50226755D01*
X33223582Y-50289990D01*
X33425683Y-50322000D01*
X33630317Y-50322000D01*
X33832417Y-50289990D01*
X34027031Y-50226755D01*
X34209349Y-50133859D01*
X34253921Y-50101474D01*
X33574447Y-49422000D01*
X33580661Y-49422000D01*
X33682394Y-49394741D01*
X33773606Y-49342080D01*
X33848080Y-49267606D01*
X33900741Y-49176394D01*
X33928000Y-49074661D01*
X33928000Y-49068447D01*
X34607474Y-49747921D01*
X34639859Y-49703349D01*
X34732755Y-49521031D01*
X34795990Y-49326417D01*
X34828000Y-49124317D01*
X34828000Y-48919682D01*
X35276000Y-48919682D01*
X35276000Y-49124317D01*
X35308009Y-49326417D01*
X35371244Y-49521031D01*
X35464141Y-49703350D01*
X35464147Y-49703359D01*
X35496523Y-49747921D01*
X35496524Y-49747922D01*
X36176000Y-49068446D01*
X36176000Y-49074661D01*
X36203259Y-49176394D01*
X36255920Y-49267606D01*
X36330394Y-49342080D01*
X36421606Y-49394741D01*
X36523339Y-49422000D01*
X36529553Y-49422000D01*
X35850076Y-50101474D01*
X35894650Y-50133859D01*
X36076968Y-50226755D01*
X36271582Y-50289990D01*
X36473683Y-50322000D01*
X36678317Y-50322000D01*
X36880417Y-50289990D01*
X37075031Y-50226755D01*
X37257349Y-50133859D01*
X37301921Y-50101474D01*
X36622447Y-49422000D01*
X36628661Y-49422000D01*
X36730394Y-49394741D01*
X36821606Y-49342080D01*
X36896080Y-49267606D01*
X36948741Y-49176394D01*
X36976000Y-49074661D01*
X36976000Y-49068447D01*
X37655474Y-49747921D01*
X37687859Y-49703349D01*
X37780755Y-49521031D01*
X37843990Y-49326417D01*
X37876000Y-49124317D01*
X37876000Y-48919682D01*
X38324000Y-48919682D01*
X38324000Y-49124317D01*
X38356009Y-49326417D01*
X38419244Y-49521031D01*
X38512141Y-49703350D01*
X38512147Y-49703359D01*
X38544523Y-49747921D01*
X38544524Y-49747922D01*
X39224000Y-49068446D01*
X39224000Y-49074661D01*
X39251259Y-49176394D01*
X39303920Y-49267606D01*
X39378394Y-49342080D01*
X39469606Y-49394741D01*
X39571339Y-49422000D01*
X39577553Y-49422000D01*
X38898076Y-50101474D01*
X38942650Y-50133859D01*
X39124968Y-50226755D01*
X39319582Y-50289990D01*
X39521683Y-50322000D01*
X39726317Y-50322000D01*
X39928417Y-50289990D01*
X40123031Y-50226755D01*
X40305349Y-50133859D01*
X40349921Y-50101474D01*
X39670447Y-49422000D01*
X39676661Y-49422000D01*
X39778394Y-49394741D01*
X39869606Y-49342080D01*
X39944080Y-49267606D01*
X39996741Y-49176394D01*
X40024000Y-49074661D01*
X40024000Y-49068447D01*
X40703474Y-49747921D01*
X40735859Y-49703349D01*
X40828755Y-49521031D01*
X40891990Y-49326417D01*
X40924000Y-49124317D01*
X40924000Y-48919682D01*
X41372000Y-48919682D01*
X41372000Y-49124317D01*
X41404009Y-49326417D01*
X41467244Y-49521031D01*
X41560141Y-49703350D01*
X41560147Y-49703359D01*
X41592523Y-49747921D01*
X41592524Y-49747922D01*
X42272000Y-49068446D01*
X42272000Y-49074661D01*
X42299259Y-49176394D01*
X42351920Y-49267606D01*
X42426394Y-49342080D01*
X42517606Y-49394741D01*
X42619339Y-49422000D01*
X42625553Y-49422000D01*
X41946076Y-50101474D01*
X41990650Y-50133859D01*
X42172968Y-50226755D01*
X42367582Y-50289990D01*
X42569683Y-50322000D01*
X42774317Y-50322000D01*
X42976417Y-50289990D01*
X43171031Y-50226755D01*
X43353349Y-50133859D01*
X43397921Y-50101474D01*
X42718447Y-49422000D01*
X42724661Y-49422000D01*
X42826394Y-49394741D01*
X42917606Y-49342080D01*
X42992080Y-49267606D01*
X43044741Y-49176394D01*
X43072000Y-49074661D01*
X43072000Y-49068447D01*
X43751474Y-49747921D01*
X43783859Y-49703349D01*
X43876755Y-49521031D01*
X43939990Y-49326417D01*
X43972000Y-49124317D01*
X43972000Y-48919682D01*
X44420000Y-48919682D01*
X44420000Y-49124317D01*
X44452009Y-49326417D01*
X44515244Y-49521031D01*
X44608141Y-49703350D01*
X44608147Y-49703359D01*
X44640523Y-49747921D01*
X44640524Y-49747922D01*
X45320000Y-49068446D01*
X45320000Y-49074661D01*
X45347259Y-49176394D01*
X45399920Y-49267606D01*
X45474394Y-49342080D01*
X45565606Y-49394741D01*
X45667339Y-49422000D01*
X45673553Y-49422000D01*
X44994076Y-50101474D01*
X45038650Y-50133859D01*
X45220968Y-50226755D01*
X45415582Y-50289990D01*
X45617683Y-50322000D01*
X45822317Y-50322000D01*
X46024417Y-50289990D01*
X46219031Y-50226755D01*
X46401349Y-50133859D01*
X46445921Y-50101474D01*
X45766447Y-49422000D01*
X45772661Y-49422000D01*
X45874394Y-49394741D01*
X45965606Y-49342080D01*
X46040080Y-49267606D01*
X46092741Y-49176394D01*
X46120000Y-49074661D01*
X46120000Y-49068448D01*
X46799474Y-49747922D01*
X46799474Y-49747921D01*
X46831859Y-49703349D01*
X46924755Y-49521031D01*
X46987990Y-49326417D01*
X47020000Y-49124317D01*
X47020000Y-48919682D01*
X47468000Y-48919682D01*
X47468000Y-49124317D01*
X47500009Y-49326417D01*
X47563244Y-49521031D01*
X47656141Y-49703350D01*
X47656147Y-49703359D01*
X47688523Y-49747921D01*
X47688524Y-49747922D01*
X48368000Y-49068446D01*
X48368000Y-49074661D01*
X48395259Y-49176394D01*
X48447920Y-49267606D01*
X48522394Y-49342080D01*
X48613606Y-49394741D01*
X48715339Y-49422000D01*
X48721553Y-49422000D01*
X48042076Y-50101474D01*
X48086650Y-50133859D01*
X48268968Y-50226755D01*
X48463582Y-50289990D01*
X48665683Y-50322000D01*
X48870317Y-50322000D01*
X49072417Y-50289990D01*
X49267031Y-50226755D01*
X49449349Y-50133859D01*
X49493922Y-50101474D01*
X48814447Y-49422000D01*
X48820661Y-49422000D01*
X48922394Y-49394741D01*
X49013606Y-49342080D01*
X49088080Y-49267606D01*
X49140741Y-49176394D01*
X49168000Y-49074661D01*
X49168000Y-49068447D01*
X49847474Y-49747921D01*
X49879859Y-49703349D01*
X49972755Y-49521031D01*
X50035990Y-49326417D01*
X50068000Y-49124317D01*
X50068000Y-48919682D01*
X50035990Y-48717582D01*
X49972755Y-48522968D01*
X49879859Y-48340650D01*
X49847474Y-48296077D01*
X49847474Y-48296076D01*
X49168000Y-48975551D01*
X49168000Y-48969339D01*
X49140741Y-48867606D01*
X49088080Y-48776394D01*
X49013606Y-48701920D01*
X48922394Y-48649259D01*
X48820661Y-48622000D01*
X48814446Y-48622000D01*
X49493922Y-47942524D01*
X49493921Y-47942523D01*
X49449359Y-47910147D01*
X49449350Y-47910141D01*
X49267031Y-47817244D01*
X49072417Y-47754009D01*
X48870317Y-47722000D01*
X48665683Y-47722000D01*
X48463582Y-47754009D01*
X48268968Y-47817244D01*
X48086644Y-47910143D01*
X48042077Y-47942523D01*
X48042077Y-47942524D01*
X48721554Y-48622000D01*
X48715339Y-48622000D01*
X48613606Y-48649259D01*
X48522394Y-48701920D01*
X48447920Y-48776394D01*
X48395259Y-48867606D01*
X48368000Y-48969339D01*
X48368000Y-48975553D01*
X47688524Y-48296077D01*
X47688523Y-48296077D01*
X47656143Y-48340644D01*
X47563244Y-48522968D01*
X47500009Y-48717582D01*
X47468000Y-48919682D01*
X47020000Y-48919682D01*
X46987990Y-48717582D01*
X46924755Y-48522968D01*
X46831859Y-48340650D01*
X46799474Y-48296077D01*
X46799474Y-48296076D01*
X46120000Y-48975551D01*
X46120000Y-48969339D01*
X46092741Y-48867606D01*
X46040080Y-48776394D01*
X45965606Y-48701920D01*
X45874394Y-48649259D01*
X45772661Y-48622000D01*
X45766446Y-48622000D01*
X46445922Y-47942524D01*
X46445921Y-47942523D01*
X46401359Y-47910147D01*
X46401350Y-47910141D01*
X46219031Y-47817244D01*
X46024417Y-47754009D01*
X45822317Y-47722000D01*
X45617683Y-47722000D01*
X45415582Y-47754009D01*
X45220968Y-47817244D01*
X45038644Y-47910143D01*
X44994077Y-47942523D01*
X44994077Y-47942524D01*
X45673554Y-48622000D01*
X45667339Y-48622000D01*
X45565606Y-48649259D01*
X45474394Y-48701920D01*
X45399920Y-48776394D01*
X45347259Y-48867606D01*
X45320000Y-48969339D01*
X45320000Y-48975553D01*
X44640524Y-48296077D01*
X44640523Y-48296077D01*
X44608143Y-48340644D01*
X44515244Y-48522968D01*
X44452009Y-48717582D01*
X44420000Y-48919682D01*
X43972000Y-48919682D01*
X43939990Y-48717582D01*
X43876755Y-48522968D01*
X43783859Y-48340650D01*
X43751474Y-48296077D01*
X43751474Y-48296076D01*
X43072000Y-48975551D01*
X43072000Y-48969339D01*
X43044741Y-48867606D01*
X42992080Y-48776394D01*
X42917606Y-48701920D01*
X42826394Y-48649259D01*
X42724661Y-48622000D01*
X42718446Y-48622000D01*
X43397922Y-47942524D01*
X43397921Y-47942523D01*
X43353359Y-47910147D01*
X43353350Y-47910141D01*
X43171031Y-47817244D01*
X42976417Y-47754009D01*
X42774317Y-47722000D01*
X42569683Y-47722000D01*
X42367582Y-47754009D01*
X42172968Y-47817244D01*
X41990644Y-47910143D01*
X41946077Y-47942523D01*
X41946077Y-47942524D01*
X42625554Y-48622000D01*
X42619339Y-48622000D01*
X42517606Y-48649259D01*
X42426394Y-48701920D01*
X42351920Y-48776394D01*
X42299259Y-48867606D01*
X42272000Y-48969339D01*
X42272000Y-48975553D01*
X41592524Y-48296077D01*
X41592523Y-48296077D01*
X41560143Y-48340644D01*
X41467244Y-48522968D01*
X41404009Y-48717582D01*
X41372000Y-48919682D01*
X40924000Y-48919682D01*
X40891990Y-48717582D01*
X40828755Y-48522968D01*
X40735859Y-48340650D01*
X40703474Y-48296077D01*
X40703474Y-48296076D01*
X40024000Y-48975551D01*
X40024000Y-48969339D01*
X39996741Y-48867606D01*
X39944080Y-48776394D01*
X39869606Y-48701920D01*
X39778394Y-48649259D01*
X39676661Y-48622000D01*
X39670446Y-48622000D01*
X40349922Y-47942524D01*
X40349921Y-47942523D01*
X40305359Y-47910147D01*
X40305350Y-47910141D01*
X40123031Y-47817244D01*
X39928417Y-47754009D01*
X39726317Y-47722000D01*
X39521683Y-47722000D01*
X39319582Y-47754009D01*
X39124968Y-47817244D01*
X38942644Y-47910143D01*
X38898077Y-47942523D01*
X38898077Y-47942524D01*
X39577554Y-48622000D01*
X39571339Y-48622000D01*
X39469606Y-48649259D01*
X39378394Y-48701920D01*
X39303920Y-48776394D01*
X39251259Y-48867606D01*
X39224000Y-48969339D01*
X39224000Y-48975553D01*
X38544524Y-48296077D01*
X38544523Y-48296077D01*
X38512143Y-48340644D01*
X38419244Y-48522968D01*
X38356009Y-48717582D01*
X38324000Y-48919682D01*
X37876000Y-48919682D01*
X37843990Y-48717582D01*
X37780755Y-48522968D01*
X37687859Y-48340650D01*
X37655474Y-48296077D01*
X37655474Y-48296076D01*
X36976000Y-48975551D01*
X36976000Y-48969339D01*
X36948741Y-48867606D01*
X36896080Y-48776394D01*
X36821606Y-48701920D01*
X36730394Y-48649259D01*
X36628661Y-48622000D01*
X36622446Y-48622000D01*
X37301922Y-47942524D01*
X37301921Y-47942523D01*
X37257359Y-47910147D01*
X37257350Y-47910141D01*
X37075031Y-47817244D01*
X36880417Y-47754009D01*
X36678317Y-47722000D01*
X36473683Y-47722000D01*
X36271582Y-47754009D01*
X36076968Y-47817244D01*
X35894644Y-47910143D01*
X35850077Y-47942523D01*
X35850077Y-47942524D01*
X36529554Y-48622000D01*
X36523339Y-48622000D01*
X36421606Y-48649259D01*
X36330394Y-48701920D01*
X36255920Y-48776394D01*
X36203259Y-48867606D01*
X36176000Y-48969339D01*
X36176000Y-48975553D01*
X35496524Y-48296077D01*
X35496523Y-48296077D01*
X35464143Y-48340644D01*
X35371244Y-48522968D01*
X35308009Y-48717582D01*
X35276000Y-48919682D01*
X34828000Y-48919682D01*
X34795990Y-48717582D01*
X34732755Y-48522968D01*
X34639859Y-48340650D01*
X34607474Y-48296077D01*
X34607474Y-48296076D01*
X33928000Y-48975551D01*
X33928000Y-48969339D01*
X33900741Y-48867606D01*
X33848080Y-48776394D01*
X33773606Y-48701920D01*
X33682394Y-48649259D01*
X33580661Y-48622000D01*
X33574446Y-48622000D01*
X34253922Y-47942524D01*
X34253921Y-47942523D01*
X34209359Y-47910147D01*
X34209350Y-47910141D01*
X34027031Y-47817244D01*
X33832417Y-47754009D01*
X33630317Y-47722000D01*
X33425683Y-47722000D01*
X33223582Y-47754009D01*
X33028968Y-47817244D01*
X32846644Y-47910143D01*
X32802077Y-47942523D01*
X32802077Y-47942524D01*
X33481554Y-48622000D01*
X33475339Y-48622000D01*
X33373606Y-48649259D01*
X33282394Y-48701920D01*
X33207920Y-48776394D01*
X33155259Y-48867606D01*
X33128000Y-48969339D01*
X33128000Y-48975553D01*
X32448524Y-48296077D01*
X32448523Y-48296077D01*
X32416143Y-48340644D01*
X32323244Y-48522968D01*
X32260009Y-48717582D01*
X32228000Y-48919682D01*
X31150300Y-48919682D01*
X31150300Y-38759648D01*
X32227500Y-38759648D01*
X32227500Y-38964351D01*
X32259522Y-39166534D01*
X32322781Y-39361223D01*
X32415715Y-39543613D01*
X32536028Y-39709213D01*
X32680786Y-39853971D01*
X32835749Y-39966556D01*
X32846390Y-39974287D01*
X32920526Y-40012061D01*
X33028776Y-40067218D01*
X33028778Y-40067218D01*
X33028781Y-40067220D01*
X33133137Y-40101127D01*
X33223465Y-40130477D01*
X33324557Y-40146488D01*
X33425648Y-40162500D01*
X33425649Y-40162500D01*
X33630351Y-40162500D01*
X33630352Y-40162500D01*
X33832534Y-40130477D01*
X34027219Y-40067220D01*
X34209610Y-39974287D01*
X34302590Y-39906732D01*
X34375213Y-39853971D01*
X34375215Y-39853968D01*
X34375219Y-39853966D01*
X34519966Y-39709219D01*
X34519968Y-39709215D01*
X34519971Y-39709213D01*
X34575191Y-39633208D01*
X34640287Y-39543610D01*
X34733220Y-39361219D01*
X34796477Y-39166534D01*
X34828500Y-38964352D01*
X34828500Y-38759648D01*
X35275500Y-38759648D01*
X35275500Y-38964351D01*
X35307522Y-39166534D01*
X35370781Y-39361223D01*
X35463715Y-39543613D01*
X35584028Y-39709213D01*
X35728786Y-39853971D01*
X35883749Y-39966556D01*
X35894390Y-39974287D01*
X35968526Y-40012061D01*
X36076776Y-40067218D01*
X36076778Y-40067218D01*
X36076781Y-40067220D01*
X36181137Y-40101127D01*
X36271465Y-40130477D01*
X36372557Y-40146488D01*
X36473648Y-40162500D01*
X36473649Y-40162500D01*
X36678351Y-40162500D01*
X36678352Y-40162500D01*
X36880534Y-40130477D01*
X37075219Y-40067220D01*
X37257610Y-39974287D01*
X37350590Y-39906732D01*
X37423213Y-39853971D01*
X37423215Y-39853968D01*
X37423219Y-39853966D01*
X37567966Y-39709219D01*
X37567968Y-39709215D01*
X37567971Y-39709213D01*
X37623191Y-39633208D01*
X37688287Y-39543610D01*
X37781220Y-39361219D01*
X37844477Y-39166534D01*
X37876500Y-38964352D01*
X37876500Y-38759648D01*
X38323500Y-38759648D01*
X38323500Y-38964351D01*
X38355522Y-39166534D01*
X38418781Y-39361223D01*
X38511715Y-39543613D01*
X38632028Y-39709213D01*
X38776786Y-39853971D01*
X38931749Y-39966556D01*
X38942390Y-39974287D01*
X39016526Y-40012061D01*
X39124776Y-40067218D01*
X39124778Y-40067218D01*
X39124781Y-40067220D01*
X39229137Y-40101127D01*
X39319465Y-40130477D01*
X39420557Y-40146488D01*
X39521648Y-40162500D01*
X39521649Y-40162500D01*
X39726351Y-40162500D01*
X39726352Y-40162500D01*
X39928534Y-40130477D01*
X40123219Y-40067220D01*
X40305610Y-39974287D01*
X40398590Y-39906732D01*
X40471213Y-39853971D01*
X40471215Y-39853968D01*
X40471219Y-39853966D01*
X40615966Y-39709219D01*
X40615968Y-39709215D01*
X40615971Y-39709213D01*
X40671191Y-39633208D01*
X40736287Y-39543610D01*
X40829220Y-39361219D01*
X40892477Y-39166534D01*
X40924500Y-38964352D01*
X40924500Y-38759648D01*
X41371500Y-38759648D01*
X41371500Y-38964351D01*
X41403522Y-39166534D01*
X41466781Y-39361223D01*
X41559715Y-39543613D01*
X41680028Y-39709213D01*
X41824786Y-39853971D01*
X41979749Y-39966556D01*
X41990390Y-39974287D01*
X42064526Y-40012061D01*
X42172776Y-40067218D01*
X42172778Y-40067218D01*
X42172781Y-40067220D01*
X42277137Y-40101127D01*
X42367465Y-40130477D01*
X42468557Y-40146488D01*
X42569648Y-40162500D01*
X42569649Y-40162500D01*
X42774351Y-40162500D01*
X42774352Y-40162500D01*
X42976534Y-40130477D01*
X43171219Y-40067220D01*
X43353610Y-39974287D01*
X43446590Y-39906732D01*
X43519213Y-39853971D01*
X43519215Y-39853968D01*
X43519219Y-39853966D01*
X43663966Y-39709219D01*
X43663968Y-39709215D01*
X43663971Y-39709213D01*
X43719191Y-39633208D01*
X43784287Y-39543610D01*
X43877220Y-39361219D01*
X43940477Y-39166534D01*
X43972500Y-38964352D01*
X43972500Y-38759648D01*
X44419500Y-38759648D01*
X44419500Y-38964351D01*
X44451522Y-39166534D01*
X44514781Y-39361223D01*
X44607715Y-39543613D01*
X44728028Y-39709213D01*
X44872786Y-39853971D01*
X45027749Y-39966556D01*
X45038390Y-39974287D01*
X45112526Y-40012061D01*
X45220776Y-40067218D01*
X45220778Y-40067218D01*
X45220781Y-40067220D01*
X45325137Y-40101127D01*
X45415465Y-40130477D01*
X45516557Y-40146488D01*
X45617648Y-40162500D01*
X45617649Y-40162500D01*
X45822351Y-40162500D01*
X45822352Y-40162500D01*
X46024534Y-40130477D01*
X46219219Y-40067220D01*
X46401610Y-39974287D01*
X46494590Y-39906732D01*
X46567213Y-39853971D01*
X46567215Y-39853968D01*
X46567219Y-39853966D01*
X46711966Y-39709219D01*
X46711968Y-39709215D01*
X46711971Y-39709213D01*
X46767191Y-39633208D01*
X46832287Y-39543610D01*
X46925220Y-39361219D01*
X46988477Y-39166534D01*
X47020500Y-38964352D01*
X47020500Y-38759648D01*
X47467500Y-38759648D01*
X47467500Y-38964351D01*
X47499522Y-39166534D01*
X47562781Y-39361223D01*
X47655715Y-39543613D01*
X47776028Y-39709213D01*
X47920786Y-39853971D01*
X48075749Y-39966556D01*
X48086390Y-39974287D01*
X48160526Y-40012061D01*
X48268776Y-40067218D01*
X48268778Y-40067218D01*
X48268781Y-40067220D01*
X48373137Y-40101127D01*
X48463465Y-40130477D01*
X48564557Y-40146488D01*
X48665648Y-40162500D01*
X48665649Y-40162500D01*
X48870351Y-40162500D01*
X48870352Y-40162500D01*
X49072534Y-40130477D01*
X49267219Y-40067220D01*
X49449610Y-39974287D01*
X49542590Y-39906732D01*
X49615213Y-39853971D01*
X49615215Y-39853968D01*
X49615219Y-39853966D01*
X49759966Y-39709219D01*
X49759968Y-39709215D01*
X49759971Y-39709213D01*
X49815191Y-39633208D01*
X49880287Y-39543610D01*
X49973220Y-39361219D01*
X50036477Y-39166534D01*
X50068500Y-38964352D01*
X50068500Y-38759648D01*
X50036477Y-38557466D01*
X50031598Y-38542451D01*
X49973218Y-38362776D01*
X49929328Y-38276639D01*
X49880287Y-38180390D01*
X49872556Y-38169749D01*
X49759971Y-38014786D01*
X49615213Y-37870028D01*
X49449613Y-37749715D01*
X49449612Y-37749714D01*
X49449610Y-37749713D01*
X49392653Y-37720691D01*
X49267223Y-37656781D01*
X49072534Y-37593522D01*
X48897995Y-37565878D01*
X48870352Y-37561500D01*
X48665648Y-37561500D01*
X48641329Y-37565351D01*
X48463465Y-37593522D01*
X48268776Y-37656781D01*
X48086386Y-37749715D01*
X47920786Y-37870028D01*
X47776028Y-38014786D01*
X47655715Y-38180386D01*
X47562781Y-38362776D01*
X47499522Y-38557465D01*
X47467500Y-38759648D01*
X47020500Y-38759648D01*
X46988477Y-38557466D01*
X46983598Y-38542451D01*
X46925218Y-38362776D01*
X46881328Y-38276639D01*
X46832287Y-38180390D01*
X46824556Y-38169749D01*
X46711971Y-38014786D01*
X46567213Y-37870028D01*
X46401613Y-37749715D01*
X46401612Y-37749714D01*
X46401610Y-37749713D01*
X46344653Y-37720691D01*
X46219223Y-37656781D01*
X46024534Y-37593522D01*
X45849995Y-37565878D01*
X45822352Y-37561500D01*
X45617648Y-37561500D01*
X45593329Y-37565351D01*
X45415465Y-37593522D01*
X45220776Y-37656781D01*
X45038386Y-37749715D01*
X44872786Y-37870028D01*
X44728028Y-38014786D01*
X44607715Y-38180386D01*
X44514781Y-38362776D01*
X44451522Y-38557465D01*
X44419500Y-38759648D01*
X43972500Y-38759648D01*
X43940477Y-38557466D01*
X43935598Y-38542451D01*
X43877218Y-38362776D01*
X43833328Y-38276639D01*
X43784287Y-38180390D01*
X43776556Y-38169749D01*
X43663971Y-38014786D01*
X43519213Y-37870028D01*
X43353613Y-37749715D01*
X43353612Y-37749714D01*
X43353610Y-37749713D01*
X43296653Y-37720691D01*
X43171223Y-37656781D01*
X42976534Y-37593522D01*
X42801995Y-37565878D01*
X42774352Y-37561500D01*
X42569648Y-37561500D01*
X42545329Y-37565351D01*
X42367465Y-37593522D01*
X42172776Y-37656781D01*
X41990386Y-37749715D01*
X41824786Y-37870028D01*
X41680028Y-38014786D01*
X41559715Y-38180386D01*
X41466781Y-38362776D01*
X41403522Y-38557465D01*
X41371500Y-38759648D01*
X40924500Y-38759648D01*
X40892477Y-38557466D01*
X40887598Y-38542451D01*
X40829218Y-38362776D01*
X40785328Y-38276639D01*
X40736287Y-38180390D01*
X40728556Y-38169749D01*
X40615971Y-38014786D01*
X40471213Y-37870028D01*
X40305613Y-37749715D01*
X40305612Y-37749714D01*
X40305610Y-37749713D01*
X40248653Y-37720691D01*
X40123223Y-37656781D01*
X39928534Y-37593522D01*
X39753995Y-37565878D01*
X39726352Y-37561500D01*
X39521648Y-37561500D01*
X39497329Y-37565351D01*
X39319465Y-37593522D01*
X39124776Y-37656781D01*
X38942386Y-37749715D01*
X38776786Y-37870028D01*
X38632028Y-38014786D01*
X38511715Y-38180386D01*
X38418781Y-38362776D01*
X38355522Y-38557465D01*
X38323500Y-38759648D01*
X37876500Y-38759648D01*
X37844477Y-38557466D01*
X37839598Y-38542451D01*
X37781218Y-38362776D01*
X37737328Y-38276639D01*
X37688287Y-38180390D01*
X37680556Y-38169749D01*
X37567971Y-38014786D01*
X37423213Y-37870028D01*
X37257613Y-37749715D01*
X37257612Y-37749714D01*
X37257610Y-37749713D01*
X37200653Y-37720691D01*
X37075223Y-37656781D01*
X36880534Y-37593522D01*
X36705995Y-37565878D01*
X36678352Y-37561500D01*
X36473648Y-37561500D01*
X36449329Y-37565351D01*
X36271465Y-37593522D01*
X36076776Y-37656781D01*
X35894386Y-37749715D01*
X35728786Y-37870028D01*
X35584028Y-38014786D01*
X35463715Y-38180386D01*
X35370781Y-38362776D01*
X35307522Y-38557465D01*
X35275500Y-38759648D01*
X34828500Y-38759648D01*
X34796477Y-38557466D01*
X34791598Y-38542451D01*
X34733218Y-38362776D01*
X34689328Y-38276639D01*
X34640287Y-38180390D01*
X34632556Y-38169749D01*
X34519971Y-38014786D01*
X34375213Y-37870028D01*
X34209613Y-37749715D01*
X34209612Y-37749714D01*
X34209610Y-37749713D01*
X34152653Y-37720691D01*
X34027223Y-37656781D01*
X33832534Y-37593522D01*
X33657995Y-37565878D01*
X33630352Y-37561500D01*
X33425648Y-37561500D01*
X33401329Y-37565351D01*
X33223465Y-37593522D01*
X33028776Y-37656781D01*
X32846386Y-37749715D01*
X32680786Y-37870028D01*
X32536028Y-38014786D01*
X32415715Y-38180386D01*
X32322781Y-38362776D01*
X32259522Y-38557465D01*
X32227500Y-38759648D01*
X31150300Y-38759648D01*
X31150300Y-35284145D01*
X31150300Y-35284143D01*
X31128731Y-35203648D01*
X32227500Y-35203648D01*
X32227500Y-35408351D01*
X32259522Y-35610534D01*
X32322781Y-35805223D01*
X32415715Y-35987613D01*
X32536028Y-36153213D01*
X32680786Y-36297971D01*
X32835749Y-36410556D01*
X32846390Y-36418287D01*
X32934358Y-36463109D01*
X33028776Y-36511218D01*
X33028778Y-36511218D01*
X33028781Y-36511220D01*
X33133137Y-36545127D01*
X33223465Y-36574477D01*
X33309161Y-36588050D01*
X33425648Y-36606500D01*
X33425649Y-36606500D01*
X33630351Y-36606500D01*
X33630352Y-36606500D01*
X33832534Y-36574477D01*
X34027219Y-36511220D01*
X34209610Y-36418287D01*
X34354821Y-36312786D01*
X34375213Y-36297971D01*
X34375215Y-36297968D01*
X34375219Y-36297966D01*
X34519966Y-36153219D01*
X34519968Y-36153215D01*
X34519971Y-36153213D01*
X34595280Y-36049557D01*
X34640287Y-35987610D01*
X34733220Y-35805219D01*
X34796477Y-35610534D01*
X34828500Y-35408352D01*
X34828500Y-35203648D01*
X35275500Y-35203648D01*
X35275500Y-35408351D01*
X35307522Y-35610534D01*
X35370781Y-35805223D01*
X35463715Y-35987613D01*
X35584028Y-36153213D01*
X35728786Y-36297971D01*
X35883749Y-36410556D01*
X35894390Y-36418287D01*
X35982358Y-36463109D01*
X36076776Y-36511218D01*
X36076778Y-36511218D01*
X36076781Y-36511220D01*
X36181137Y-36545127D01*
X36271465Y-36574477D01*
X36357161Y-36588050D01*
X36473648Y-36606500D01*
X36473649Y-36606500D01*
X36678351Y-36606500D01*
X36678352Y-36606500D01*
X36880534Y-36574477D01*
X37075219Y-36511220D01*
X37257610Y-36418287D01*
X37402821Y-36312786D01*
X37423213Y-36297971D01*
X37423215Y-36297968D01*
X37423219Y-36297966D01*
X37567966Y-36153219D01*
X37567968Y-36153215D01*
X37567971Y-36153213D01*
X37643280Y-36049557D01*
X37688287Y-35987610D01*
X37781220Y-35805219D01*
X37844477Y-35610534D01*
X37876500Y-35408352D01*
X37876500Y-35203648D01*
X38323500Y-35203648D01*
X38323500Y-35408351D01*
X38355522Y-35610534D01*
X38418781Y-35805223D01*
X38511715Y-35987613D01*
X38632028Y-36153213D01*
X38776786Y-36297971D01*
X38931749Y-36410556D01*
X38942390Y-36418287D01*
X39030358Y-36463109D01*
X39124776Y-36511218D01*
X39124778Y-36511218D01*
X39124781Y-36511220D01*
X39229137Y-36545127D01*
X39319465Y-36574477D01*
X39405161Y-36588050D01*
X39521648Y-36606500D01*
X39521649Y-36606500D01*
X39726351Y-36606500D01*
X39726352Y-36606500D01*
X39928534Y-36574477D01*
X40123219Y-36511220D01*
X40305610Y-36418287D01*
X40450821Y-36312786D01*
X40471213Y-36297971D01*
X40471215Y-36297968D01*
X40471219Y-36297966D01*
X40615966Y-36153219D01*
X40615968Y-36153215D01*
X40615971Y-36153213D01*
X40691280Y-36049557D01*
X40736287Y-35987610D01*
X40829220Y-35805219D01*
X40892477Y-35610534D01*
X40924500Y-35408352D01*
X40924500Y-35203648D01*
X41371500Y-35203648D01*
X41371500Y-35408351D01*
X41403522Y-35610534D01*
X41466781Y-35805223D01*
X41559715Y-35987613D01*
X41680028Y-36153213D01*
X41824786Y-36297971D01*
X41979749Y-36410556D01*
X41990390Y-36418287D01*
X42078358Y-36463109D01*
X42172776Y-36511218D01*
X42172778Y-36511218D01*
X42172781Y-36511220D01*
X42277137Y-36545127D01*
X42367465Y-36574477D01*
X42453161Y-36588050D01*
X42569648Y-36606500D01*
X42569649Y-36606500D01*
X42774351Y-36606500D01*
X42774352Y-36606500D01*
X42976534Y-36574477D01*
X43171219Y-36511220D01*
X43353610Y-36418287D01*
X43498821Y-36312786D01*
X43519213Y-36297971D01*
X43519215Y-36297968D01*
X43519219Y-36297966D01*
X43663966Y-36153219D01*
X43663968Y-36153215D01*
X43663971Y-36153213D01*
X43739280Y-36049557D01*
X43784287Y-35987610D01*
X43877220Y-35805219D01*
X43940477Y-35610534D01*
X43972500Y-35408352D01*
X43972500Y-35203648D01*
X44419500Y-35203648D01*
X44419500Y-35408351D01*
X44451522Y-35610534D01*
X44514781Y-35805223D01*
X44607715Y-35987613D01*
X44728028Y-36153213D01*
X44872786Y-36297971D01*
X45027749Y-36410556D01*
X45038390Y-36418287D01*
X45126358Y-36463109D01*
X45220776Y-36511218D01*
X45220778Y-36511218D01*
X45220781Y-36511220D01*
X45325137Y-36545127D01*
X45415465Y-36574477D01*
X45501161Y-36588050D01*
X45617648Y-36606500D01*
X45617649Y-36606500D01*
X45822351Y-36606500D01*
X45822352Y-36606500D01*
X46024534Y-36574477D01*
X46219219Y-36511220D01*
X46401610Y-36418287D01*
X46546821Y-36312786D01*
X46567213Y-36297971D01*
X46567215Y-36297968D01*
X46567219Y-36297966D01*
X46711966Y-36153219D01*
X46711968Y-36153215D01*
X46711971Y-36153213D01*
X46787280Y-36049557D01*
X46832287Y-35987610D01*
X46925220Y-35805219D01*
X46988477Y-35610534D01*
X47020500Y-35408352D01*
X47020500Y-35203648D01*
X47721500Y-35203648D01*
X47721500Y-35408351D01*
X47753522Y-35610534D01*
X47816781Y-35805223D01*
X47909715Y-35987613D01*
X48030028Y-36153213D01*
X48174786Y-36297971D01*
X48329749Y-36410556D01*
X48340390Y-36418287D01*
X48428358Y-36463109D01*
X48522776Y-36511218D01*
X48522778Y-36511218D01*
X48522781Y-36511220D01*
X48627137Y-36545127D01*
X48717465Y-36574477D01*
X48803161Y-36588050D01*
X48919648Y-36606500D01*
X48919649Y-36606500D01*
X49124351Y-36606500D01*
X49124352Y-36606500D01*
X49326534Y-36574477D01*
X49521219Y-36511220D01*
X49703610Y-36418287D01*
X49848821Y-36312786D01*
X49869213Y-36297971D01*
X49869215Y-36297968D01*
X49869219Y-36297966D01*
X50013966Y-36153219D01*
X50013968Y-36153215D01*
X50013971Y-36153213D01*
X50089280Y-36049557D01*
X50134287Y-35987610D01*
X50227220Y-35805219D01*
X50290477Y-35610534D01*
X50322500Y-35408352D01*
X50322500Y-35203648D01*
X50306742Y-35104157D01*
X50290477Y-35001465D01*
X50250474Y-34878349D01*
X50227220Y-34806781D01*
X50227218Y-34806778D01*
X50227218Y-34806776D01*
X50179224Y-34712584D01*
X50134287Y-34624390D01*
X50120205Y-34605007D01*
X50013971Y-34458786D01*
X49869213Y-34314028D01*
X49703613Y-34193715D01*
X49703612Y-34193714D01*
X49703610Y-34193713D01*
X49618604Y-34150400D01*
X49521223Y-34100781D01*
X49326534Y-34037522D01*
X49151995Y-34009878D01*
X49124352Y-34005500D01*
X48919648Y-34005500D01*
X48895329Y-34009351D01*
X48717465Y-34037522D01*
X48522776Y-34100781D01*
X48340386Y-34193715D01*
X48174786Y-34314028D01*
X48030028Y-34458786D01*
X47909715Y-34624386D01*
X47816781Y-34806776D01*
X47753522Y-35001465D01*
X47721500Y-35203648D01*
X47020500Y-35203648D01*
X47004742Y-35104157D01*
X46988477Y-35001465D01*
X46948474Y-34878349D01*
X46925220Y-34806781D01*
X46925218Y-34806778D01*
X46925218Y-34806776D01*
X46877224Y-34712584D01*
X46832287Y-34624390D01*
X46818205Y-34605007D01*
X46711971Y-34458786D01*
X46567213Y-34314028D01*
X46401613Y-34193715D01*
X46401612Y-34193714D01*
X46401610Y-34193713D01*
X46316604Y-34150400D01*
X46219223Y-34100781D01*
X46024534Y-34037522D01*
X45849995Y-34009878D01*
X45822352Y-34005500D01*
X45617648Y-34005500D01*
X45593329Y-34009351D01*
X45415465Y-34037522D01*
X45220776Y-34100781D01*
X45038386Y-34193715D01*
X44872786Y-34314028D01*
X44728028Y-34458786D01*
X44607715Y-34624386D01*
X44514781Y-34806776D01*
X44451522Y-35001465D01*
X44419500Y-35203648D01*
X43972500Y-35203648D01*
X43956742Y-35104157D01*
X43940477Y-35001465D01*
X43900474Y-34878349D01*
X43877220Y-34806781D01*
X43877218Y-34806778D01*
X43877218Y-34806776D01*
X43829224Y-34712584D01*
X43784287Y-34624390D01*
X43770205Y-34605007D01*
X43663971Y-34458786D01*
X43519213Y-34314028D01*
X43353613Y-34193715D01*
X43353612Y-34193714D01*
X43353610Y-34193713D01*
X43268604Y-34150400D01*
X43171223Y-34100781D01*
X42976534Y-34037522D01*
X42801995Y-34009878D01*
X42774352Y-34005500D01*
X42569648Y-34005500D01*
X42545329Y-34009351D01*
X42367465Y-34037522D01*
X42172776Y-34100781D01*
X41990386Y-34193715D01*
X41824786Y-34314028D01*
X41680028Y-34458786D01*
X41559715Y-34624386D01*
X41466781Y-34806776D01*
X41403522Y-35001465D01*
X41371500Y-35203648D01*
X40924500Y-35203648D01*
X40908742Y-35104157D01*
X40892477Y-35001465D01*
X40852474Y-34878349D01*
X40829220Y-34806781D01*
X40829218Y-34806778D01*
X40829218Y-34806776D01*
X40781224Y-34712584D01*
X40736287Y-34624390D01*
X40722205Y-34605007D01*
X40615971Y-34458786D01*
X40471213Y-34314028D01*
X40305613Y-34193715D01*
X40305612Y-34193714D01*
X40305610Y-34193713D01*
X40220604Y-34150400D01*
X40123223Y-34100781D01*
X39928534Y-34037522D01*
X39753995Y-34009878D01*
X39726352Y-34005500D01*
X39521648Y-34005500D01*
X39497329Y-34009351D01*
X39319465Y-34037522D01*
X39124776Y-34100781D01*
X38942386Y-34193715D01*
X38776786Y-34314028D01*
X38632028Y-34458786D01*
X38511715Y-34624386D01*
X38418781Y-34806776D01*
X38355522Y-35001465D01*
X38323500Y-35203648D01*
X37876500Y-35203648D01*
X37860742Y-35104157D01*
X37844477Y-35001465D01*
X37804474Y-34878349D01*
X37781220Y-34806781D01*
X37781218Y-34806778D01*
X37781218Y-34806776D01*
X37733224Y-34712584D01*
X37688287Y-34624390D01*
X37674205Y-34605007D01*
X37567971Y-34458786D01*
X37423213Y-34314028D01*
X37257613Y-34193715D01*
X37257612Y-34193714D01*
X37257610Y-34193713D01*
X37172604Y-34150400D01*
X37075223Y-34100781D01*
X36880534Y-34037522D01*
X36705995Y-34009878D01*
X36678352Y-34005500D01*
X36473648Y-34005500D01*
X36449329Y-34009351D01*
X36271465Y-34037522D01*
X36076776Y-34100781D01*
X35894386Y-34193715D01*
X35728786Y-34314028D01*
X35584028Y-34458786D01*
X35463715Y-34624386D01*
X35370781Y-34806776D01*
X35307522Y-35001465D01*
X35275500Y-35203648D01*
X34828500Y-35203648D01*
X34812742Y-35104157D01*
X34796477Y-35001465D01*
X34756474Y-34878349D01*
X34733220Y-34806781D01*
X34733218Y-34806778D01*
X34733218Y-34806776D01*
X34685224Y-34712584D01*
X34640287Y-34624390D01*
X34626205Y-34605007D01*
X34519971Y-34458786D01*
X34375213Y-34314028D01*
X34209613Y-34193715D01*
X34209612Y-34193714D01*
X34209610Y-34193713D01*
X34124604Y-34150400D01*
X34027223Y-34100781D01*
X33832534Y-34037522D01*
X33657995Y-34009878D01*
X33630352Y-34005500D01*
X33425648Y-34005500D01*
X33401329Y-34009351D01*
X33223465Y-34037522D01*
X33028776Y-34100781D01*
X32846386Y-34193715D01*
X32680786Y-34314028D01*
X32536028Y-34458786D01*
X32415715Y-34624386D01*
X32322781Y-34806776D01*
X32259522Y-35001465D01*
X32227500Y-35203648D01*
X31128731Y-35203648D01*
X31109377Y-35131416D01*
X31109373Y-35131409D01*
X31030324Y-34994490D01*
X31030321Y-34994486D01*
X31030320Y-34994484D01*
X30918516Y-34882680D01*
X30918515Y-34882679D01*
X30914185Y-34878349D01*
X30914174Y-34878339D01*
X29400757Y-33364922D01*
X29367272Y-33303599D01*
X29370507Y-33238923D01*
X29384246Y-33196643D01*
X29417500Y-32986687D01*
X29417500Y-32774113D01*
X29384246Y-32564157D01*
X29318557Y-32361988D01*
X29222051Y-32172584D01*
X29222049Y-32172581D01*
X29222048Y-32172579D01*
X29097109Y-32000613D01*
X28946786Y-31850290D01*
X28774820Y-31725351D01*
X28774115Y-31724991D01*
X28766054Y-31720885D01*
X28715259Y-31672912D01*
X28698463Y-31605092D01*
X28720999Y-31538956D01*
X28766054Y-31499915D01*
X28774816Y-31495451D01*
X28929443Y-31383109D01*
X28946786Y-31370509D01*
X28946788Y-31370506D01*
X28946792Y-31370504D01*
X29097104Y-31220192D01*
X29097106Y-31220188D01*
X29097109Y-31220186D01*
X29222048Y-31048220D01*
X29222047Y-31048220D01*
X29222051Y-31048216D01*
X29318557Y-30858812D01*
X29384246Y-30656643D01*
X29417500Y-30446687D01*
X29417500Y-30234113D01*
X29384246Y-30024157D01*
X29318557Y-29821988D01*
X29222051Y-29632584D01*
X29222049Y-29632581D01*
X29222048Y-29632579D01*
X29097109Y-29460613D01*
X28946786Y-29310290D01*
X28774820Y-29185351D01*
X28774115Y-29184991D01*
X28766054Y-29180885D01*
X28715259Y-29132912D01*
X28698463Y-29065092D01*
X28720999Y-28998956D01*
X28766054Y-28959915D01*
X28774816Y-28955451D01*
X28929443Y-28843109D01*
X28946786Y-28830509D01*
X28946788Y-28830506D01*
X28946792Y-28830504D01*
X29097104Y-28680192D01*
X29097106Y-28680188D01*
X29097109Y-28680186D01*
X29222048Y-28508220D01*
X29222047Y-28508220D01*
X29222051Y-28508216D01*
X29318557Y-28318812D01*
X29384246Y-28116643D01*
X29417500Y-27906687D01*
X29417500Y-27694113D01*
X29384246Y-27484157D01*
X29318557Y-27281988D01*
X29222051Y-27092584D01*
X29222049Y-27092581D01*
X29222048Y-27092579D01*
X29097109Y-26920613D01*
X28946786Y-26770290D01*
X28774820Y-26645351D01*
X28774115Y-26644991D01*
X28766054Y-26640885D01*
X28715259Y-26592912D01*
X28698463Y-26525092D01*
X28720999Y-26458956D01*
X28766054Y-26419915D01*
X28774816Y-26415451D01*
X28929443Y-26303109D01*
X28946786Y-26290509D01*
X28946788Y-26290506D01*
X28946792Y-26290504D01*
X29097104Y-26140192D01*
X29097106Y-26140188D01*
X29097109Y-26140186D01*
X29222048Y-25968220D01*
X29222047Y-25968220D01*
X29222051Y-25968216D01*
X29318557Y-25778812D01*
X29384246Y-25576643D01*
X29417500Y-25366687D01*
X29417500Y-25154113D01*
X29417500Y-25154112D01*
X29402305Y-25058173D01*
X29400004Y-25043648D01*
X32227500Y-25043648D01*
X32227500Y-25248351D01*
X32259522Y-25450534D01*
X32322781Y-25645223D01*
X32415715Y-25827613D01*
X32536028Y-25993213D01*
X32680786Y-26137971D01*
X32835749Y-26250556D01*
X32846390Y-26258287D01*
X32934358Y-26303109D01*
X33028776Y-26351218D01*
X33028778Y-26351218D01*
X33028781Y-26351220D01*
X33133137Y-26385127D01*
X33223465Y-26414477D01*
X33309161Y-26428050D01*
X33425648Y-26446500D01*
X33425649Y-26446500D01*
X33630351Y-26446500D01*
X33630352Y-26446500D01*
X33832534Y-26414477D01*
X34027219Y-26351220D01*
X34209610Y-26258287D01*
X34354821Y-26152786D01*
X34375213Y-26137971D01*
X34375215Y-26137968D01*
X34375219Y-26137966D01*
X34519966Y-25993219D01*
X34519968Y-25993215D01*
X34519971Y-25993213D01*
X34572732Y-25920590D01*
X34640287Y-25827610D01*
X34733220Y-25645219D01*
X34796477Y-25450534D01*
X34828500Y-25248352D01*
X34828500Y-25043648D01*
X35275500Y-25043648D01*
X35275500Y-25248351D01*
X35307522Y-25450534D01*
X35370781Y-25645223D01*
X35463715Y-25827613D01*
X35584028Y-25993213D01*
X35728786Y-26137971D01*
X35883749Y-26250556D01*
X35894390Y-26258287D01*
X35982358Y-26303109D01*
X36076776Y-26351218D01*
X36076778Y-26351218D01*
X36076781Y-26351220D01*
X36181137Y-26385127D01*
X36271465Y-26414477D01*
X36357161Y-26428050D01*
X36473648Y-26446500D01*
X36473649Y-26446500D01*
X36678351Y-26446500D01*
X36678352Y-26446500D01*
X36880534Y-26414477D01*
X37075219Y-26351220D01*
X37257610Y-26258287D01*
X37402821Y-26152786D01*
X37423213Y-26137971D01*
X37423215Y-26137968D01*
X37423219Y-26137966D01*
X37567966Y-25993219D01*
X37567968Y-25993215D01*
X37567971Y-25993213D01*
X37620732Y-25920590D01*
X37688287Y-25827610D01*
X37781220Y-25645219D01*
X37844477Y-25450534D01*
X37876500Y-25248352D01*
X37876500Y-25043648D01*
X38323500Y-25043648D01*
X38323500Y-25248351D01*
X38355522Y-25450534D01*
X38418781Y-25645223D01*
X38511715Y-25827613D01*
X38632028Y-25993213D01*
X38776786Y-26137971D01*
X38931749Y-26250556D01*
X38942390Y-26258287D01*
X39030358Y-26303109D01*
X39124776Y-26351218D01*
X39124778Y-26351218D01*
X39124781Y-26351220D01*
X39229137Y-26385127D01*
X39319465Y-26414477D01*
X39405161Y-26428050D01*
X39521648Y-26446500D01*
X39521649Y-26446500D01*
X39726351Y-26446500D01*
X39726352Y-26446500D01*
X39928534Y-26414477D01*
X40123219Y-26351220D01*
X40305610Y-26258287D01*
X40450821Y-26152786D01*
X40471213Y-26137971D01*
X40471215Y-26137968D01*
X40471219Y-26137966D01*
X40615966Y-25993219D01*
X40615968Y-25993215D01*
X40615971Y-25993213D01*
X40668732Y-25920590D01*
X40736287Y-25827610D01*
X40829220Y-25645219D01*
X40892477Y-25450534D01*
X40924500Y-25248352D01*
X40924500Y-25043648D01*
X41371500Y-25043648D01*
X41371500Y-25248351D01*
X41403522Y-25450534D01*
X41466781Y-25645223D01*
X41559715Y-25827613D01*
X41680028Y-25993213D01*
X41824786Y-26137971D01*
X41979749Y-26250556D01*
X41990390Y-26258287D01*
X42078358Y-26303109D01*
X42172776Y-26351218D01*
X42172778Y-26351218D01*
X42172781Y-26351220D01*
X42277137Y-26385127D01*
X42367465Y-26414477D01*
X42453161Y-26428050D01*
X42569648Y-26446500D01*
X42569649Y-26446500D01*
X42774351Y-26446500D01*
X42774352Y-26446500D01*
X42976534Y-26414477D01*
X43171219Y-26351220D01*
X43353610Y-26258287D01*
X43498821Y-26152786D01*
X43519213Y-26137971D01*
X43519215Y-26137968D01*
X43519219Y-26137966D01*
X43663966Y-25993219D01*
X43663968Y-25993215D01*
X43663971Y-25993213D01*
X43716732Y-25920590D01*
X43784287Y-25827610D01*
X43877220Y-25645219D01*
X43940477Y-25450534D01*
X43972500Y-25248352D01*
X43972500Y-25043648D01*
X44419500Y-25043648D01*
X44419500Y-25248351D01*
X44451522Y-25450534D01*
X44514781Y-25645223D01*
X44607715Y-25827613D01*
X44728028Y-25993213D01*
X44872786Y-26137971D01*
X45027749Y-26250556D01*
X45038390Y-26258287D01*
X45126358Y-26303109D01*
X45220776Y-26351218D01*
X45220778Y-26351218D01*
X45220781Y-26351220D01*
X45325137Y-26385127D01*
X45415465Y-26414477D01*
X45501161Y-26428050D01*
X45617648Y-26446500D01*
X45617649Y-26446500D01*
X45822351Y-26446500D01*
X45822352Y-26446500D01*
X46024534Y-26414477D01*
X46219219Y-26351220D01*
X46401610Y-26258287D01*
X46546821Y-26152786D01*
X46567213Y-26137971D01*
X46567215Y-26137968D01*
X46567219Y-26137966D01*
X46711966Y-25993219D01*
X46711968Y-25993215D01*
X46711971Y-25993213D01*
X46764732Y-25920590D01*
X46832287Y-25827610D01*
X46925220Y-25645219D01*
X46988477Y-25450534D01*
X47020500Y-25248352D01*
X47020500Y-25043648D01*
X47721500Y-25043648D01*
X47721500Y-25248351D01*
X47753522Y-25450534D01*
X47816781Y-25645223D01*
X47909715Y-25827613D01*
X48030028Y-25993213D01*
X48174786Y-26137971D01*
X48329749Y-26250556D01*
X48340390Y-26258287D01*
X48428358Y-26303109D01*
X48522776Y-26351218D01*
X48522778Y-26351218D01*
X48522781Y-26351220D01*
X48627137Y-26385127D01*
X48717465Y-26414477D01*
X48803161Y-26428050D01*
X48919648Y-26446500D01*
X48919649Y-26446500D01*
X49124351Y-26446500D01*
X49124352Y-26446500D01*
X49326534Y-26414477D01*
X49521219Y-26351220D01*
X49703610Y-26258287D01*
X49848821Y-26152786D01*
X49869213Y-26137971D01*
X49869215Y-26137968D01*
X49869219Y-26137966D01*
X50013966Y-25993219D01*
X50013968Y-25993215D01*
X50013971Y-25993213D01*
X50066732Y-25920590D01*
X50134287Y-25827610D01*
X50227220Y-25645219D01*
X50290477Y-25450534D01*
X50322500Y-25248352D01*
X50322500Y-25043648D01*
X50290477Y-24841466D01*
X50227220Y-24646781D01*
X50227218Y-24646778D01*
X50227218Y-24646776D01*
X50179224Y-24552584D01*
X50134287Y-24464390D01*
X50126556Y-24453749D01*
X50013971Y-24298786D01*
X49869213Y-24154028D01*
X49703613Y-24033715D01*
X49703612Y-24033714D01*
X49703610Y-24033713D01*
X49646653Y-24004691D01*
X49521223Y-23940781D01*
X49326534Y-23877522D01*
X49151995Y-23849878D01*
X49124352Y-23845500D01*
X48919648Y-23845500D01*
X48902166Y-23848269D01*
X48717465Y-23877522D01*
X48522776Y-23940781D01*
X48340386Y-24033715D01*
X48174786Y-24154028D01*
X48030028Y-24298786D01*
X47909715Y-24464386D01*
X47816781Y-24646776D01*
X47753522Y-24841465D01*
X47721500Y-25043648D01*
X47020500Y-25043648D01*
X46988477Y-24841466D01*
X46925220Y-24646781D01*
X46925218Y-24646778D01*
X46925218Y-24646776D01*
X46877224Y-24552584D01*
X46832287Y-24464390D01*
X46824556Y-24453749D01*
X46711971Y-24298786D01*
X46567213Y-24154028D01*
X46401613Y-24033715D01*
X46401612Y-24033714D01*
X46401610Y-24033713D01*
X46344653Y-24004691D01*
X46219223Y-23940781D01*
X46024534Y-23877522D01*
X45849995Y-23849878D01*
X45822352Y-23845500D01*
X45617648Y-23845500D01*
X45600166Y-23848269D01*
X45415465Y-23877522D01*
X45220776Y-23940781D01*
X45038386Y-24033715D01*
X44872786Y-24154028D01*
X44728028Y-24298786D01*
X44607715Y-24464386D01*
X44514781Y-24646776D01*
X44451522Y-24841465D01*
X44419500Y-25043648D01*
X43972500Y-25043648D01*
X43940477Y-24841466D01*
X43877220Y-24646781D01*
X43877218Y-24646778D01*
X43877218Y-24646776D01*
X43829224Y-24552584D01*
X43784287Y-24464390D01*
X43776556Y-24453749D01*
X43663971Y-24298786D01*
X43519213Y-24154028D01*
X43353613Y-24033715D01*
X43353612Y-24033714D01*
X43353610Y-24033713D01*
X43296653Y-24004691D01*
X43171223Y-23940781D01*
X42976534Y-23877522D01*
X42801995Y-23849878D01*
X42774352Y-23845500D01*
X42569648Y-23845500D01*
X42552166Y-23848269D01*
X42367465Y-23877522D01*
X42172776Y-23940781D01*
X41990386Y-24033715D01*
X41824786Y-24154028D01*
X41680028Y-24298786D01*
X41559715Y-24464386D01*
X41466781Y-24646776D01*
X41403522Y-24841465D01*
X41371500Y-25043648D01*
X40924500Y-25043648D01*
X40892477Y-24841466D01*
X40829220Y-24646781D01*
X40829218Y-24646778D01*
X40829218Y-24646776D01*
X40781224Y-24552584D01*
X40736287Y-24464390D01*
X40728556Y-24453749D01*
X40615971Y-24298786D01*
X40471213Y-24154028D01*
X40305613Y-24033715D01*
X40305612Y-24033714D01*
X40305610Y-24033713D01*
X40248653Y-24004691D01*
X40123223Y-23940781D01*
X39928534Y-23877522D01*
X39753995Y-23849878D01*
X39726352Y-23845500D01*
X39521648Y-23845500D01*
X39504166Y-23848269D01*
X39319465Y-23877522D01*
X39124776Y-23940781D01*
X38942386Y-24033715D01*
X38776786Y-24154028D01*
X38632028Y-24298786D01*
X38511715Y-24464386D01*
X38418781Y-24646776D01*
X38355522Y-24841465D01*
X38323500Y-25043648D01*
X37876500Y-25043648D01*
X37844477Y-24841466D01*
X37781220Y-24646781D01*
X37781218Y-24646778D01*
X37781218Y-24646776D01*
X37733224Y-24552584D01*
X37688287Y-24464390D01*
X37680556Y-24453749D01*
X37567971Y-24298786D01*
X37423213Y-24154028D01*
X37257613Y-24033715D01*
X37257612Y-24033714D01*
X37257610Y-24033713D01*
X37200653Y-24004691D01*
X37075223Y-23940781D01*
X36880534Y-23877522D01*
X36705995Y-23849878D01*
X36678352Y-23845500D01*
X36473648Y-23845500D01*
X36456166Y-23848269D01*
X36271465Y-23877522D01*
X36076776Y-23940781D01*
X35894386Y-24033715D01*
X35728786Y-24154028D01*
X35584028Y-24298786D01*
X35463715Y-24464386D01*
X35370781Y-24646776D01*
X35307522Y-24841465D01*
X35275500Y-25043648D01*
X34828500Y-25043648D01*
X34796477Y-24841466D01*
X34733220Y-24646781D01*
X34733218Y-24646778D01*
X34733218Y-24646776D01*
X34685224Y-24552584D01*
X34640287Y-24464390D01*
X34632556Y-24453749D01*
X34519971Y-24298786D01*
X34375213Y-24154028D01*
X34209613Y-24033715D01*
X34209612Y-24033714D01*
X34209610Y-24033713D01*
X34152653Y-24004691D01*
X34027223Y-23940781D01*
X33832534Y-23877522D01*
X33657995Y-23849878D01*
X33630352Y-23845500D01*
X33425648Y-23845500D01*
X33408166Y-23848269D01*
X33223465Y-23877522D01*
X33028776Y-23940781D01*
X32846386Y-24033715D01*
X32680786Y-24154028D01*
X32536028Y-24298786D01*
X32415715Y-24464386D01*
X32322781Y-24646776D01*
X32259522Y-24841465D01*
X32227500Y-25043648D01*
X29400004Y-25043648D01*
X29386242Y-24956760D01*
X29384246Y-24944157D01*
X29318557Y-24741988D01*
X29222051Y-24552584D01*
X29222049Y-24552581D01*
X29222048Y-24552579D01*
X29097109Y-24380613D01*
X28946786Y-24230290D01*
X28774817Y-24105349D01*
X28765504Y-24100604D01*
X28714707Y-24052630D01*
X28697912Y-23984809D01*
X28720449Y-23918674D01*
X28765507Y-23879632D01*
X28774555Y-23875022D01*
X28828716Y-23835670D01*
X28828717Y-23835670D01*
X28196408Y-23203362D01*
X28259993Y-23186325D01*
X28374007Y-23120499D01*
X28467099Y-23027407D01*
X28532925Y-22913393D01*
X28549962Y-22849808D01*
X29182270Y-23482117D01*
X29182270Y-23482116D01*
X29221622Y-23427954D01*
X29318095Y-23238617D01*
X29383757Y-23036530D01*
X29383757Y-23036527D01*
X29417000Y-22826646D01*
X29417000Y-22614153D01*
X29383757Y-22404272D01*
X29383757Y-22404269D01*
X29318095Y-22202182D01*
X29221624Y-22012849D01*
X29182270Y-21958682D01*
X29182269Y-21958682D01*
X28549962Y-22590990D01*
X28532925Y-22527407D01*
X28467099Y-22413393D01*
X28374007Y-22320301D01*
X28259993Y-22254475D01*
X28196409Y-22237437D01*
X28866627Y-21567218D01*
X28927950Y-21533733D01*
X28954307Y-21530899D01*
X28964872Y-21530899D01*
X29024483Y-21524491D01*
X29159331Y-21474196D01*
X29274546Y-21387946D01*
X29360796Y-21272731D01*
X29411091Y-21137883D01*
X29417500Y-21078273D01*
X29417499Y-20086713D01*
X52116500Y-20086713D01*
X52116500Y-20299286D01*
X52149753Y-20509239D01*
X52215444Y-20711414D01*
X52311951Y-20900820D01*
X52436890Y-21072786D01*
X52587213Y-21223109D01*
X52759179Y-21348048D01*
X52759181Y-21348049D01*
X52759184Y-21348051D01*
X52768493Y-21352794D01*
X52819290Y-21400766D01*
X52836087Y-21468587D01*
X52813552Y-21534722D01*
X52768505Y-21573760D01*
X52759446Y-21578376D01*
X52759440Y-21578380D01*
X52705282Y-21617727D01*
X52705282Y-21617728D01*
X53337591Y-22250037D01*
X53274007Y-22267075D01*
X53159993Y-22332901D01*
X53066901Y-22425993D01*
X53001075Y-22540007D01*
X52984037Y-22603591D01*
X52351728Y-21971282D01*
X52351727Y-21971282D01*
X52312380Y-22025439D01*
X52215904Y-22214782D01*
X52150242Y-22416869D01*
X52150242Y-22416872D01*
X52117000Y-22626753D01*
X52117000Y-22839246D01*
X52150242Y-23049127D01*
X52150242Y-23049130D01*
X52215904Y-23251217D01*
X52312375Y-23440550D01*
X52351728Y-23494716D01*
X52984037Y-22862408D01*
X53001075Y-22925993D01*
X53066901Y-23040007D01*
X53159993Y-23133099D01*
X53274007Y-23198925D01*
X53337590Y-23215962D01*
X52705282Y-23848269D01*
X52705282Y-23848270D01*
X52759452Y-23887626D01*
X52759451Y-23887626D01*
X52768495Y-23892234D01*
X52819292Y-23940208D01*
X52836087Y-24008029D01*
X52813550Y-24074164D01*
X52768499Y-24113202D01*
X52759182Y-24117949D01*
X52587213Y-24242890D01*
X52436890Y-24393213D01*
X52311951Y-24565179D01*
X52215444Y-24754585D01*
X52149753Y-24956760D01*
X52116500Y-25166713D01*
X52116500Y-25379286D01*
X52149753Y-25589239D01*
X52215444Y-25791414D01*
X52311951Y-25980820D01*
X52436890Y-26152786D01*
X52587213Y-26303109D01*
X52759182Y-26428050D01*
X52767946Y-26432516D01*
X52818742Y-26480491D01*
X52835536Y-26548312D01*
X52812998Y-26614447D01*
X52767946Y-26653484D01*
X52759182Y-26657949D01*
X52587213Y-26782890D01*
X52436890Y-26933213D01*
X52311951Y-27105179D01*
X52215444Y-27294585D01*
X52149753Y-27496760D01*
X52116500Y-27706713D01*
X52116500Y-27919286D01*
X52149753Y-28129239D01*
X52215444Y-28331414D01*
X52311951Y-28520820D01*
X52436890Y-28692786D01*
X52587213Y-28843109D01*
X52759182Y-28968050D01*
X52767946Y-28972516D01*
X52818742Y-29020491D01*
X52835536Y-29088312D01*
X52812998Y-29154447D01*
X52767946Y-29193484D01*
X52759182Y-29197949D01*
X52587213Y-29322890D01*
X52436890Y-29473213D01*
X52311951Y-29645179D01*
X52215444Y-29834585D01*
X52149753Y-30036760D01*
X52116500Y-30246713D01*
X52116500Y-30459286D01*
X52149753Y-30669239D01*
X52215444Y-30871414D01*
X52311951Y-31060820D01*
X52436890Y-31232786D01*
X52587213Y-31383109D01*
X52759182Y-31508050D01*
X52767946Y-31512516D01*
X52818742Y-31560491D01*
X52835536Y-31628312D01*
X52812998Y-31694447D01*
X52767946Y-31733484D01*
X52759182Y-31737949D01*
X52587213Y-31862890D01*
X52436890Y-32013213D01*
X52311951Y-32185179D01*
X52215444Y-32374585D01*
X52149753Y-32576760D01*
X52116500Y-32786713D01*
X52116500Y-32999286D01*
X52147757Y-33196639D01*
X52149754Y-33209243D01*
X52200337Y-33364922D01*
X52215444Y-33411414D01*
X52311951Y-33600820D01*
X52436890Y-33772786D01*
X52587213Y-33923109D01*
X52759182Y-34048050D01*
X52767946Y-34052516D01*
X52818742Y-34100491D01*
X52835536Y-34168312D01*
X52812998Y-34234447D01*
X52767946Y-34273484D01*
X52759182Y-34277949D01*
X52587213Y-34402890D01*
X52436890Y-34553213D01*
X52311951Y-34725179D01*
X52215444Y-34914585D01*
X52149753Y-35116760D01*
X52116500Y-35326713D01*
X52116500Y-35539286D01*
X52147757Y-35736639D01*
X52149754Y-35749243D01*
X52200337Y-35904922D01*
X52215444Y-35951414D01*
X52311951Y-36140820D01*
X52436890Y-36312786D01*
X52587213Y-36463109D01*
X52759182Y-36588050D01*
X52767946Y-36592516D01*
X52818742Y-36640491D01*
X52835536Y-36708312D01*
X52812998Y-36774447D01*
X52767946Y-36813484D01*
X52759182Y-36817949D01*
X52587213Y-36942890D01*
X52436890Y-37093213D01*
X52311951Y-37265179D01*
X52215444Y-37454585D01*
X52149753Y-37656760D01*
X52116500Y-37866713D01*
X52116500Y-38079286D01*
X52147757Y-38276639D01*
X52149754Y-38289243D01*
X52213735Y-38486156D01*
X52215444Y-38491414D01*
X52311951Y-38680820D01*
X52436890Y-38852786D01*
X52587213Y-39003109D01*
X52759182Y-39128050D01*
X52767946Y-39132516D01*
X52818742Y-39180491D01*
X52835536Y-39248312D01*
X52812998Y-39314447D01*
X52767946Y-39353484D01*
X52759182Y-39357949D01*
X52587213Y-39482890D01*
X52436890Y-39633213D01*
X52311951Y-39805179D01*
X52215444Y-39994585D01*
X52149753Y-40196760D01*
X52119876Y-40385400D01*
X52116500Y-40406713D01*
X52116500Y-40619287D01*
X52118099Y-40629380D01*
X52147757Y-40816639D01*
X52149754Y-40829243D01*
X52213735Y-41026156D01*
X52215444Y-41031414D01*
X52311951Y-41220820D01*
X52436890Y-41392786D01*
X52587213Y-41543109D01*
X52759182Y-41668050D01*
X52767946Y-41672516D01*
X52818742Y-41720491D01*
X52835536Y-41788312D01*
X52812998Y-41854447D01*
X52767946Y-41893484D01*
X52759182Y-41897949D01*
X52587213Y-42022890D01*
X52436890Y-42173213D01*
X52311951Y-42345179D01*
X52215444Y-42534585D01*
X52149753Y-42736760D01*
X52116500Y-42946713D01*
X52116500Y-43159286D01*
X52147757Y-43356639D01*
X52149754Y-43369243D01*
X52213735Y-43566156D01*
X52215444Y-43571414D01*
X52311951Y-43760820D01*
X52436890Y-43932786D01*
X52587213Y-44083109D01*
X52759182Y-44208050D01*
X52767946Y-44212516D01*
X52818742Y-44260491D01*
X52835536Y-44328312D01*
X52812998Y-44394447D01*
X52767946Y-44433484D01*
X52759182Y-44437949D01*
X52587213Y-44562890D01*
X52436890Y-44713213D01*
X52311951Y-44885179D01*
X52215444Y-45074585D01*
X52149753Y-45276760D01*
X52116500Y-45486713D01*
X52116500Y-45699286D01*
X52147757Y-45896639D01*
X52149754Y-45909243D01*
X52213735Y-46106156D01*
X52215444Y-46111414D01*
X52311951Y-46300820D01*
X52436890Y-46472786D01*
X52587213Y-46623109D01*
X52759182Y-46748050D01*
X52767946Y-46752516D01*
X52818742Y-46800491D01*
X52835536Y-46868312D01*
X52812998Y-46934447D01*
X52767946Y-46973484D01*
X52759182Y-46977949D01*
X52587213Y-47102890D01*
X52436890Y-47253213D01*
X52311951Y-47425179D01*
X52215444Y-47614585D01*
X52149753Y-47816760D01*
X52116500Y-48026713D01*
X52116500Y-48239286D01*
X52147757Y-48436639D01*
X52149754Y-48449243D01*
X52214743Y-48649259D01*
X52215444Y-48651414D01*
X52311951Y-48840820D01*
X52436890Y-49012786D01*
X52587213Y-49163109D01*
X52759182Y-49288050D01*
X52767946Y-49292516D01*
X52818742Y-49340491D01*
X52835536Y-49408312D01*
X52812998Y-49474447D01*
X52767946Y-49513484D01*
X52759182Y-49517949D01*
X52587213Y-49642890D01*
X52436890Y-49793213D01*
X52311951Y-49965179D01*
X52215444Y-50154585D01*
X52149753Y-50356760D01*
X52116500Y-50566713D01*
X52116500Y-50779286D01*
X52147757Y-50976639D01*
X52149754Y-50989243D01*
X52178119Y-51076542D01*
X52215444Y-51191414D01*
X52311951Y-51380820D01*
X52436890Y-51552786D01*
X52587213Y-51703109D01*
X52759182Y-51828050D01*
X52767946Y-51832516D01*
X52818742Y-51880491D01*
X52835536Y-51948312D01*
X52812998Y-52014447D01*
X52767946Y-52053484D01*
X52759182Y-52057949D01*
X52587213Y-52182890D01*
X52436890Y-52333213D01*
X52311951Y-52505179D01*
X52215444Y-52694585D01*
X52149753Y-52896760D01*
X52116500Y-53106713D01*
X52116500Y-53319286D01*
X52149753Y-53529239D01*
X52215444Y-53731414D01*
X52311951Y-53920820D01*
X52436890Y-54092786D01*
X52550430Y-54206326D01*
X52583915Y-54267649D01*
X52578931Y-54337341D01*
X52537059Y-54393274D01*
X52506083Y-54410189D01*
X52374669Y-54459203D01*
X52374664Y-54459206D01*
X52259455Y-54545452D01*
X52259452Y-54545455D01*
X52173206Y-54660664D01*
X52173202Y-54660671D01*
X52122908Y-54795517D01*
X52116501Y-54855116D01*
X52116501Y-54855123D01*
X52116500Y-54855135D01*
X52116500Y-56650870D01*
X52116501Y-56650876D01*
X52122908Y-56710483D01*
X52173202Y-56845328D01*
X52173206Y-56845335D01*
X52259452Y-56960544D01*
X52259455Y-56960547D01*
X52374664Y-57046793D01*
X52374671Y-57046797D01*
X52509517Y-57097091D01*
X52509516Y-57097091D01*
X52516444Y-57097835D01*
X52569127Y-57103500D01*
X54364872Y-57103499D01*
X54424483Y-57097091D01*
X54559331Y-57046796D01*
X54674546Y-56960546D01*
X54760796Y-56845331D01*
X54811091Y-56710483D01*
X54817500Y-56650873D01*
X54817499Y-54855128D01*
X54811091Y-54795517D01*
X54779303Y-54710290D01*
X54760797Y-54660671D01*
X54760793Y-54660664D01*
X54674547Y-54545455D01*
X54674544Y-54545452D01*
X54559335Y-54459206D01*
X54559328Y-54459202D01*
X54427917Y-54410189D01*
X54371983Y-54368318D01*
X54347566Y-54302853D01*
X54362418Y-54234580D01*
X54383563Y-54206332D01*
X54497104Y-54092792D01*
X54506259Y-54080192D01*
X54622048Y-53920820D01*
X54622047Y-53920820D01*
X54622051Y-53920816D01*
X54718557Y-53731412D01*
X54784246Y-53529243D01*
X54817500Y-53319287D01*
X54817500Y-53106713D01*
X54784246Y-52896757D01*
X54718557Y-52694588D01*
X54622051Y-52505184D01*
X54622049Y-52505181D01*
X54622048Y-52505179D01*
X54497109Y-52333213D01*
X54346786Y-52182890D01*
X54174820Y-52057951D01*
X54174115Y-52057591D01*
X54166054Y-52053485D01*
X54115259Y-52005512D01*
X54098463Y-51937692D01*
X54120999Y-51871556D01*
X54166054Y-51832515D01*
X54174816Y-51828051D01*
X54196789Y-51812086D01*
X54346786Y-51703109D01*
X54346788Y-51703106D01*
X54346792Y-51703104D01*
X54497104Y-51552792D01*
X54497106Y-51552788D01*
X54497109Y-51552786D01*
X54622048Y-51380820D01*
X54622047Y-51380820D01*
X54622051Y-51380816D01*
X54718557Y-51191412D01*
X54784246Y-50989243D01*
X54817500Y-50779287D01*
X54817500Y-50566713D01*
X54784246Y-50356757D01*
X54718557Y-50154588D01*
X54622051Y-49965184D01*
X54622049Y-49965181D01*
X54622048Y-49965179D01*
X54497109Y-49793213D01*
X54346786Y-49642890D01*
X54174820Y-49517951D01*
X54174115Y-49517591D01*
X54166054Y-49513485D01*
X54115259Y-49465512D01*
X54098463Y-49397692D01*
X54120999Y-49331556D01*
X54166054Y-49292515D01*
X54174816Y-49288051D01*
X54204089Y-49266783D01*
X54346786Y-49163109D01*
X54346788Y-49163106D01*
X54346792Y-49163104D01*
X54497104Y-49012792D01*
X54497106Y-49012788D01*
X54497109Y-49012786D01*
X54622048Y-48840820D01*
X54622047Y-48840820D01*
X54622051Y-48840816D01*
X54718557Y-48651412D01*
X54784246Y-48449243D01*
X54817500Y-48239287D01*
X54817500Y-48026713D01*
X54784246Y-47816757D01*
X54718557Y-47614588D01*
X54622051Y-47425184D01*
X54622049Y-47425181D01*
X54622048Y-47425179D01*
X54497109Y-47253213D01*
X54346786Y-47102890D01*
X54174820Y-46977951D01*
X54174115Y-46977591D01*
X54166054Y-46973485D01*
X54115259Y-46925512D01*
X54098463Y-46857692D01*
X54120999Y-46791556D01*
X54166054Y-46752515D01*
X54174816Y-46748051D01*
X54196789Y-46732086D01*
X54346786Y-46623109D01*
X54346788Y-46623106D01*
X54346792Y-46623104D01*
X54497104Y-46472792D01*
X54497106Y-46472788D01*
X54497109Y-46472786D01*
X54622048Y-46300820D01*
X54622047Y-46300820D01*
X54622051Y-46300816D01*
X54718557Y-46111412D01*
X54784246Y-45909243D01*
X54817500Y-45699287D01*
X54817500Y-45486713D01*
X54784246Y-45276757D01*
X54718557Y-45074588D01*
X54622051Y-44885184D01*
X54622049Y-44885181D01*
X54622048Y-44885179D01*
X54497109Y-44713213D01*
X54346786Y-44562890D01*
X54174820Y-44437951D01*
X54174115Y-44437591D01*
X54166054Y-44433485D01*
X54115259Y-44385512D01*
X54098463Y-44317692D01*
X54120999Y-44251556D01*
X54166054Y-44212515D01*
X54174816Y-44208051D01*
X54208869Y-44183310D01*
X54346786Y-44083109D01*
X54346788Y-44083106D01*
X54346792Y-44083104D01*
X54497104Y-43932792D01*
X54497106Y-43932788D01*
X54497109Y-43932786D01*
X54622048Y-43760820D01*
X54622047Y-43760820D01*
X54622051Y-43760816D01*
X54718557Y-43571412D01*
X54784246Y-43369243D01*
X54817500Y-43159287D01*
X54817500Y-42946713D01*
X54784246Y-42736757D01*
X54718557Y-42534588D01*
X54622051Y-42345184D01*
X54622049Y-42345181D01*
X54622048Y-42345179D01*
X54497109Y-42173213D01*
X54346786Y-42022890D01*
X54174820Y-41897951D01*
X54174115Y-41897591D01*
X54166054Y-41893485D01*
X54115259Y-41845512D01*
X54098463Y-41777692D01*
X54120999Y-41711556D01*
X54166054Y-41672515D01*
X54174816Y-41668051D01*
X54196789Y-41652086D01*
X54346786Y-41543109D01*
X54346788Y-41543106D01*
X54346792Y-41543104D01*
X54497104Y-41392792D01*
X54497106Y-41392788D01*
X54497109Y-41392786D01*
X54622048Y-41220820D01*
X54622047Y-41220820D01*
X54622051Y-41220816D01*
X54718557Y-41031412D01*
X54784246Y-40829243D01*
X54817500Y-40619287D01*
X54817500Y-40406713D01*
X54784246Y-40196757D01*
X54718557Y-39994588D01*
X54622051Y-39805184D01*
X54622049Y-39805181D01*
X54622048Y-39805179D01*
X54497109Y-39633213D01*
X54346786Y-39482890D01*
X54174820Y-39357951D01*
X54174115Y-39357591D01*
X54166054Y-39353485D01*
X54115259Y-39305512D01*
X54098463Y-39237692D01*
X54120999Y-39171556D01*
X54166054Y-39132515D01*
X54174816Y-39128051D01*
X54196789Y-39112086D01*
X54346786Y-39003109D01*
X54346788Y-39003106D01*
X54346792Y-39003104D01*
X54497104Y-38852792D01*
X54497106Y-38852788D01*
X54497109Y-38852786D01*
X54622048Y-38680820D01*
X54622047Y-38680820D01*
X54622051Y-38680816D01*
X54718557Y-38491412D01*
X54784246Y-38289243D01*
X54817500Y-38079287D01*
X54817500Y-37866713D01*
X54784246Y-37656757D01*
X54718557Y-37454588D01*
X54622051Y-37265184D01*
X54622049Y-37265181D01*
X54622048Y-37265179D01*
X54497109Y-37093213D01*
X54346786Y-36942890D01*
X54174820Y-36817951D01*
X54174115Y-36817591D01*
X54166054Y-36813485D01*
X54115259Y-36765512D01*
X54098463Y-36697692D01*
X54120999Y-36631556D01*
X54166054Y-36592515D01*
X54174816Y-36588051D01*
X54280566Y-36511220D01*
X54346786Y-36463109D01*
X54346788Y-36463106D01*
X54346792Y-36463104D01*
X54497104Y-36312792D01*
X54497106Y-36312788D01*
X54497109Y-36312786D01*
X54616468Y-36148500D01*
X54622051Y-36140816D01*
X54718557Y-35951412D01*
X54784246Y-35749243D01*
X54817500Y-35539287D01*
X54817500Y-35326713D01*
X54784246Y-35116757D01*
X54718557Y-34914588D01*
X54622051Y-34725184D01*
X54622049Y-34725181D01*
X54622048Y-34725179D01*
X54497109Y-34553213D01*
X54346786Y-34402890D01*
X54174820Y-34277951D01*
X54174115Y-34277591D01*
X54166054Y-34273485D01*
X54115259Y-34225512D01*
X54098463Y-34157692D01*
X54120999Y-34091556D01*
X54166054Y-34052515D01*
X54174816Y-34048051D01*
X54233383Y-34005500D01*
X54346786Y-33923109D01*
X54346788Y-33923106D01*
X54346792Y-33923104D01*
X54497104Y-33772792D01*
X54497106Y-33772788D01*
X54497109Y-33772786D01*
X54622048Y-33600820D01*
X54622047Y-33600820D01*
X54622051Y-33600816D01*
X54718557Y-33411412D01*
X54784246Y-33209243D01*
X54817500Y-32999287D01*
X54817500Y-32786713D01*
X54784246Y-32576757D01*
X54718557Y-32374588D01*
X54622051Y-32185184D01*
X54622049Y-32185181D01*
X54622048Y-32185179D01*
X54497109Y-32013213D01*
X54346786Y-31862890D01*
X54174820Y-31737951D01*
X54174115Y-31737591D01*
X54166054Y-31733485D01*
X54115259Y-31685512D01*
X54098463Y-31617692D01*
X54120999Y-31551556D01*
X54166054Y-31512515D01*
X54174816Y-31508051D01*
X54196789Y-31492086D01*
X54346786Y-31383109D01*
X54346788Y-31383106D01*
X54346792Y-31383104D01*
X54497104Y-31232792D01*
X54497106Y-31232788D01*
X54497109Y-31232786D01*
X54622048Y-31060820D01*
X54622047Y-31060820D01*
X54622051Y-31060816D01*
X54718557Y-30871412D01*
X54784246Y-30669243D01*
X54817500Y-30459287D01*
X54817500Y-30246713D01*
X54784246Y-30036757D01*
X54718557Y-29834588D01*
X54622051Y-29645184D01*
X54622049Y-29645181D01*
X54622048Y-29645179D01*
X54497109Y-29473213D01*
X54346786Y-29322890D01*
X54174820Y-29197951D01*
X54174115Y-29197591D01*
X54166054Y-29193485D01*
X54115259Y-29145512D01*
X54098463Y-29077692D01*
X54120999Y-29011556D01*
X54166054Y-28972515D01*
X54174816Y-28968051D01*
X54196789Y-28952086D01*
X54346786Y-28843109D01*
X54346788Y-28843106D01*
X54346792Y-28843104D01*
X54497104Y-28692792D01*
X54497106Y-28692788D01*
X54497109Y-28692786D01*
X54622048Y-28520820D01*
X54622047Y-28520820D01*
X54622051Y-28520816D01*
X54718557Y-28331412D01*
X54784246Y-28129243D01*
X54817500Y-27919287D01*
X54817500Y-27706713D01*
X54784246Y-27496757D01*
X54718557Y-27294588D01*
X54622051Y-27105184D01*
X54622049Y-27105181D01*
X54622048Y-27105179D01*
X54497109Y-26933213D01*
X54346786Y-26782890D01*
X54174820Y-26657951D01*
X54174115Y-26657591D01*
X54166054Y-26653485D01*
X54115259Y-26605512D01*
X54098463Y-26537692D01*
X54120999Y-26471556D01*
X54166054Y-26432515D01*
X54174816Y-26428051D01*
X54280566Y-26351220D01*
X54346786Y-26303109D01*
X54346788Y-26303106D01*
X54346792Y-26303104D01*
X54497104Y-26152792D01*
X54497106Y-26152788D01*
X54497109Y-26152786D01*
X54622048Y-25980820D01*
X54622047Y-25980820D01*
X54622051Y-25980816D01*
X54718557Y-25791412D01*
X54784246Y-25589243D01*
X54817500Y-25379287D01*
X54817500Y-25166713D01*
X54784246Y-24956757D01*
X54718557Y-24754588D01*
X54622051Y-24565184D01*
X54622049Y-24565181D01*
X54622048Y-24565179D01*
X54497109Y-24393213D01*
X54346786Y-24242890D01*
X54174817Y-24117949D01*
X54165504Y-24113204D01*
X54114707Y-24065230D01*
X54097912Y-23997409D01*
X54120449Y-23931274D01*
X54165507Y-23892232D01*
X54174555Y-23887622D01*
X54228716Y-23848270D01*
X54228717Y-23848270D01*
X53596408Y-23215962D01*
X53659993Y-23198925D01*
X53774007Y-23133099D01*
X53867099Y-23040007D01*
X53932925Y-22925993D01*
X53949962Y-22862408D01*
X54582270Y-23494717D01*
X54582270Y-23494716D01*
X54621622Y-23440554D01*
X54718095Y-23251217D01*
X54783757Y-23049130D01*
X54783757Y-23049127D01*
X54817000Y-22839246D01*
X54817000Y-22626753D01*
X54783757Y-22416872D01*
X54783757Y-22416869D01*
X54718095Y-22214782D01*
X54621624Y-22025449D01*
X54582270Y-21971282D01*
X54582269Y-21971282D01*
X53949962Y-22603590D01*
X53932925Y-22540007D01*
X53867099Y-22425993D01*
X53774007Y-22332901D01*
X53659993Y-22267075D01*
X53596409Y-22250037D01*
X54228716Y-21617728D01*
X54174547Y-21578373D01*
X54174547Y-21578372D01*
X54165500Y-21573763D01*
X54114706Y-21525788D01*
X54097912Y-21457966D01*
X54120451Y-21391832D01*
X54165508Y-21352793D01*
X54174816Y-21348051D01*
X54254007Y-21290515D01*
X54346786Y-21223109D01*
X54346788Y-21223106D01*
X54346792Y-21223104D01*
X54497104Y-21072792D01*
X54497106Y-21072788D01*
X54497109Y-21072786D01*
X54622048Y-20900820D01*
X54622047Y-20900820D01*
X54622051Y-20900816D01*
X54718557Y-20711412D01*
X54784246Y-20509243D01*
X54817500Y-20299287D01*
X54817500Y-20086713D01*
X54784246Y-19876757D01*
X54718557Y-19674588D01*
X54622051Y-19485184D01*
X54622049Y-19485181D01*
X54622048Y-19485179D01*
X54497109Y-19313213D01*
X54346786Y-19162890D01*
X54174820Y-19037951D01*
X53985414Y-18941444D01*
X53985413Y-18941443D01*
X53985412Y-18941443D01*
X53783243Y-18875754D01*
X53783241Y-18875753D01*
X53783240Y-18875753D01*
X53621957Y-18850208D01*
X53573287Y-18842500D01*
X53360713Y-18842500D01*
X53312042Y-18850208D01*
X53150760Y-18875753D01*
X52948585Y-18941444D01*
X52759179Y-19037951D01*
X52587213Y-19162890D01*
X52436890Y-19313213D01*
X52311951Y-19485179D01*
X52215444Y-19674585D01*
X52149753Y-19876760D01*
X52116500Y-20086713D01*
X29417499Y-20086713D01*
X29417499Y-19282528D01*
X29411091Y-19222917D01*
X29399746Y-19192500D01*
X29360797Y-19088071D01*
X29360793Y-19088064D01*
X29274547Y-18972855D01*
X29274544Y-18972852D01*
X29159335Y-18886606D01*
X29159328Y-18886602D01*
X29024482Y-18836308D01*
X29024483Y-18836308D01*
X28964883Y-18829901D01*
X28964881Y-18829900D01*
X28964873Y-18829900D01*
X28964865Y-18829900D01*
X28791500Y-18829900D01*
X28724461Y-18810215D01*
X28678706Y-18757411D01*
X28667500Y-18705900D01*
X28667500Y-18488343D01*
X28667499Y-18488339D01*
X28655420Y-18443258D01*
X28626576Y-18335613D01*
X28600809Y-18290984D01*
X28597437Y-18285143D01*
X28547520Y-18198684D01*
X28493892Y-18145056D01*
X28488274Y-18137388D01*
X28479503Y-18113112D01*
X28467134Y-18090460D01*
X28465361Y-18073970D01*
X28464532Y-18071676D01*
X28464927Y-18069942D01*
X28464300Y-18064102D01*
X28464300Y-6065896D01*
X28483985Y-5998857D01*
X28500615Y-5978219D01*
X29400913Y-5077921D01*
X29400916Y-5077920D01*
X29512720Y-4966116D01*
X29562839Y-4879304D01*
X29591777Y-4829185D01*
X29632700Y-4676457D01*
X29632700Y-4518343D01*
X29632700Y-3937895D01*
X29652385Y-3870856D01*
X29705189Y-3825101D01*
X29774347Y-3815157D01*
X29795006Y-3819961D01*
X29909757Y-3857246D01*
X30119713Y-3890500D01*
X30119714Y-3890500D01*
X30332286Y-3890500D01*
X30332287Y-3890500D01*
X30542243Y-3857246D01*
X30744412Y-3791557D01*
X30933816Y-3695051D01*
X31014405Y-3636500D01*
X31105786Y-3570109D01*
X31105788Y-3570106D01*
X31105792Y-3570104D01*
X31256104Y-3419792D01*
X31256106Y-3419788D01*
X31256109Y-3419786D01*
X31381048Y-3247820D01*
X31381047Y-3247820D01*
X31381051Y-3247816D01*
X31385514Y-3239054D01*
X31433488Y-3188259D01*
X31501308Y-3171463D01*
X31567444Y-3193999D01*
X31606486Y-3239056D01*
X31610951Y-3247820D01*
X31735890Y-3419786D01*
X31886213Y-3570109D01*
X32058179Y-3695048D01*
X32058181Y-3695049D01*
X32058184Y-3695051D01*
X32247588Y-3791557D01*
X32449757Y-3857246D01*
X32659713Y-3890500D01*
X32659714Y-3890500D01*
X32872286Y-3890500D01*
X32872287Y-3890500D01*
X33082243Y-3857246D01*
X33284412Y-3791557D01*
X33473816Y-3695051D01*
X33554405Y-3636500D01*
X33645786Y-3570109D01*
X33645788Y-3570106D01*
X33645792Y-3570104D01*
X33796104Y-3419792D01*
X33796106Y-3419788D01*
X33796109Y-3419786D01*
X33921048Y-3247820D01*
X33921047Y-3247820D01*
X33921051Y-3247816D01*
X34017557Y-3058412D01*
X34083246Y-2856243D01*
X34116500Y-2646287D01*
X34116500Y-2433713D01*
X34083246Y-2223757D01*
X34017557Y-2021588D01*
X33921051Y-1832184D01*
X33921049Y-1832181D01*
X33921048Y-1832179D01*
X33796109Y-1660213D01*
X33645792Y-1509896D01*
X33576866Y-1459819D01*
X33534200Y-1404489D01*
X33528221Y-1334876D01*
X33560826Y-1273080D01*
X33621665Y-1238723D01*
X33649751Y-1235500D01*
X37108100Y-1235500D01*
X37175139Y-1255185D01*
G37*
%TD.AperFunction*%
M02*
