%TF.GenerationSoftware,KiCad,Pcbnew,10.0.3*%
%TF.CreationDate,2026-07-09T23:44:08+01:00*%
%TF.ProjectId,MANTA,4d414e54-412e-46b6-9963-61645f706362,rev?*%
%TF.SameCoordinates,Original*%
%TF.FileFunction,Soldermask,Top*%
%TF.FilePolarity,Negative*%
%FSLAX46Y46*%
G04 Gerber Fmt 4.6, Leading zero omitted, Abs format (unit mm)*
G04 Created by KiCad (PCBNEW 10.0.3) date 2026-07-09 23:44:08*
%MOMM*%
%LPD*%
G01*
G04 APERTURE LIST*
G04 Aperture macros list*
%AMRoundRect*
0 Rectangle with rounded corners*
0 $1 Rounding radius*
0 $2 $3 $4 $5 $6 $7 $8 $9 X,Y pos of 4 corners*
0 Add a 4 corners polygon primitive as box body*
4,1,4,$2,$3,$4,$5,$6,$7,$8,$9,$2,$3,0*
0 Add four circle primitives for the rounded corners*
1,1,$1+$1,$2,$3*
1,1,$1+$1,$4,$5*
1,1,$1+$1,$6,$7*
1,1,$1+$1,$8,$9*
0 Add four rect primitives between the rounded corners*
20,1,$1+$1,$2,$3,$4,$5,0*
20,1,$1+$1,$4,$5,$6,$7,0*
20,1,$1+$1,$6,$7,$8,$9,0*
20,1,$1+$1,$8,$9,$2,$3,0*%
G04 Aperture macros list end*
%ADD10R,1.700000X1.700000*%
%ADD11C,1.700000*%
%ADD12RoundRect,0.249999X-1.950001X-1.950001X1.950001X-1.950001X1.950001X1.950001X-1.950001X1.950001X0*%
%ADD13C,4.400000*%
%ADD14R,0.900000X2.000000*%
%ADD15RoundRect,1.025000X-1.025000X-1.025000X1.025000X-1.025000X1.025000X1.025000X-1.025000X1.025000X0*%
%ADD16C,4.100000*%
G04 APERTURE END LIST*
D10*
X10500000Y-18000000D03*
D11*
X10500000Y-20540000D03*
X10500000Y-23080000D03*
D10*
X9144000Y-68834000D03*
D11*
X6604000Y-68834000D03*
D10*
X49398000Y-62230000D03*
D11*
X51938000Y-62230000D03*
D10*
X49144000Y-86834000D03*
D11*
X51684000Y-86834000D03*
D12*
X27200000Y-96500000D03*
D13*
X36000000Y-96500000D03*
D10*
X2000000Y-24000000D03*
D11*
X2000000Y-26540000D03*
D10*
X50500000Y-18000000D03*
D11*
X50500000Y-20540000D03*
X50500000Y-23080000D03*
D10*
X9144000Y-86834000D03*
D11*
X6604000Y-86834000D03*
D10*
X59000000Y-24000000D03*
D11*
X59000000Y-26540000D03*
D10*
X50500000Y-27500000D03*
D11*
X50500000Y-30040000D03*
X50500000Y-32580000D03*
D10*
X9398000Y-62230000D03*
D11*
X6858000Y-62230000D03*
D10*
X13000000Y-2000000D03*
D11*
X15540000Y-2000000D03*
D10*
X49398000Y-44230000D03*
D11*
X51938000Y-44230000D03*
D10*
X49276000Y-8382000D03*
D11*
X49276000Y-10922000D03*
D10*
X9398000Y-44230000D03*
D11*
X6858000Y-44230000D03*
D10*
X46228000Y-98044000D03*
D11*
X48768000Y-98044000D03*
D10*
X48500000Y-2000000D03*
D11*
X51040000Y-2000000D03*
X53580000Y-2000000D03*
D10*
X49144000Y-68834000D03*
D11*
X51684000Y-68834000D03*
D10*
X29000000Y-33000000D03*
D11*
X31540000Y-33000000D03*
X34080000Y-33000000D03*
D14*
X24550000Y-2500000D03*
X38050000Y-2500000D03*
D15*
X27700000Y-8500000D03*
D16*
X34900000Y-8500000D03*
D10*
X10500000Y-27500000D03*
D11*
X10500000Y-30040000D03*
X10500000Y-32580000D03*
D10*
X59000000Y-97000000D03*
D11*
X59000000Y-94460000D03*
X59000000Y-91920000D03*
X59000000Y-89380000D03*
X59000000Y-86840000D03*
X59000000Y-84300000D03*
D10*
X59000000Y-3000000D03*
D11*
X59000000Y-5540000D03*
X59000000Y-8080000D03*
X59000000Y-10620000D03*
X59000000Y-13160000D03*
X59000000Y-15700000D03*
D10*
X44958000Y-90678000D03*
D11*
X47498000Y-90678000D03*
X50038000Y-90678000D03*
D10*
X58000000Y-61000000D03*
D11*
X58000000Y-63540000D03*
X58000000Y-66080000D03*
X58000000Y-68620000D03*
X58000000Y-71160000D03*
X58000000Y-73700000D03*
X58000000Y-76240000D03*
X58000000Y-78780000D03*
D10*
X2000000Y-97000000D03*
D11*
X2000000Y-94460000D03*
X2000000Y-91920000D03*
X2000000Y-89380000D03*
X2000000Y-86840000D03*
X2000000Y-84300000D03*
D10*
X2000000Y-3000000D03*
D11*
X2000000Y-5540000D03*
X2000000Y-8080000D03*
X2000000Y-10620000D03*
X2000000Y-13160000D03*
X2000000Y-15700000D03*
M02*
