%TF.GenerationSoftware,KiCad,Pcbnew,10.0.3*%
%TF.CreationDate,2026-07-09T23:44:08+01:00*%
%TF.ProjectId,MANTA,4d414e54-412e-46b6-9963-61645f706362,rev?*%
%TF.SameCoordinates,Original*%
%TF.FileFunction,Legend,Bot*%
%TF.FilePolarity,Positive*%
%FSLAX46Y46*%
G04 Gerber Fmt 4.6, Leading zero omitted, Abs format (unit mm)*
G04 Created by KiCad (PCBNEW 10.0.3) date 2026-07-09 23:44:08*
%MOMM*%
%LPD*%
G01*
G04 APERTURE LIST*
%ADD10C,0.100000*%
%ADD11C,0.120000*%
G04 APERTURE END LIST*
D10*
X55337295Y-61318380D02*
X55299200Y-61356476D01*
X55299200Y-61356476D02*
X55261104Y-61470761D01*
X55261104Y-61470761D02*
X55261104Y-61546952D01*
X55261104Y-61546952D02*
X55299200Y-61661238D01*
X55299200Y-61661238D02*
X55375390Y-61737428D01*
X55375390Y-61737428D02*
X55451580Y-61775523D01*
X55451580Y-61775523D02*
X55603961Y-61813619D01*
X55603961Y-61813619D02*
X55718247Y-61813619D01*
X55718247Y-61813619D02*
X55870628Y-61775523D01*
X55870628Y-61775523D02*
X55946819Y-61737428D01*
X55946819Y-61737428D02*
X56023009Y-61661238D01*
X56023009Y-61661238D02*
X56061104Y-61546952D01*
X56061104Y-61546952D02*
X56061104Y-61470761D01*
X56061104Y-61470761D02*
X56023009Y-61356476D01*
X56023009Y-61356476D02*
X55984914Y-61318380D01*
X55261104Y-60975523D02*
X56061104Y-60975523D01*
X55680152Y-60975523D02*
X55680152Y-60518380D01*
X55261104Y-60518380D02*
X56061104Y-60518380D01*
X56061104Y-59794571D02*
X56061104Y-59946952D01*
X56061104Y-59946952D02*
X56023009Y-60023143D01*
X56023009Y-60023143D02*
X55984914Y-60061238D01*
X55984914Y-60061238D02*
X55870628Y-60137428D01*
X55870628Y-60137428D02*
X55718247Y-60175524D01*
X55718247Y-60175524D02*
X55413485Y-60175524D01*
X55413485Y-60175524D02*
X55337295Y-60137428D01*
X55337295Y-60137428D02*
X55299200Y-60099333D01*
X55299200Y-60099333D02*
X55261104Y-60023143D01*
X55261104Y-60023143D02*
X55261104Y-59870762D01*
X55261104Y-59870762D02*
X55299200Y-59794571D01*
X55299200Y-59794571D02*
X55337295Y-59756476D01*
X55337295Y-59756476D02*
X55413485Y-59718381D01*
X55413485Y-59718381D02*
X55603961Y-59718381D01*
X55603961Y-59718381D02*
X55680152Y-59756476D01*
X55680152Y-59756476D02*
X55718247Y-59794571D01*
X55718247Y-59794571D02*
X55756342Y-59870762D01*
X55756342Y-59870762D02*
X55756342Y-60023143D01*
X55756342Y-60023143D02*
X55718247Y-60099333D01*
X55718247Y-60099333D02*
X55680152Y-60137428D01*
X55680152Y-60137428D02*
X55603961Y-60175524D01*
X56061104Y-63932666D02*
X55261104Y-63665999D01*
X55261104Y-63665999D02*
X56061104Y-63399333D01*
X55261104Y-63132666D02*
X56061104Y-63132666D01*
X56061104Y-63132666D02*
X56061104Y-62942190D01*
X56061104Y-62942190D02*
X56023009Y-62827904D01*
X56023009Y-62827904D02*
X55946819Y-62751714D01*
X55946819Y-62751714D02*
X55870628Y-62713619D01*
X55870628Y-62713619D02*
X55718247Y-62675523D01*
X55718247Y-62675523D02*
X55603961Y-62675523D01*
X55603961Y-62675523D02*
X55451580Y-62713619D01*
X55451580Y-62713619D02*
X55375390Y-62751714D01*
X55375390Y-62751714D02*
X55299200Y-62827904D01*
X55299200Y-62827904D02*
X55261104Y-62942190D01*
X55261104Y-62942190D02*
X55261104Y-63132666D01*
X56061104Y-65994571D02*
X56061104Y-65537428D01*
X55261104Y-65766000D02*
X56061104Y-65766000D01*
X55680152Y-68608857D02*
X55642057Y-68494571D01*
X55642057Y-68494571D02*
X55603961Y-68456476D01*
X55603961Y-68456476D02*
X55527771Y-68418380D01*
X55527771Y-68418380D02*
X55413485Y-68418380D01*
X55413485Y-68418380D02*
X55337295Y-68456476D01*
X55337295Y-68456476D02*
X55299200Y-68494571D01*
X55299200Y-68494571D02*
X55261104Y-68570761D01*
X55261104Y-68570761D02*
X55261104Y-68875523D01*
X55261104Y-68875523D02*
X56061104Y-68875523D01*
X56061104Y-68875523D02*
X56061104Y-68608857D01*
X56061104Y-68608857D02*
X56023009Y-68532666D01*
X56023009Y-68532666D02*
X55984914Y-68494571D01*
X55984914Y-68494571D02*
X55908723Y-68456476D01*
X55908723Y-68456476D02*
X55832533Y-68456476D01*
X55832533Y-68456476D02*
X55756342Y-68494571D01*
X55756342Y-68494571D02*
X55718247Y-68532666D01*
X55718247Y-68532666D02*
X55680152Y-68608857D01*
X55680152Y-68608857D02*
X55680152Y-68875523D01*
X55261104Y-67618380D02*
X55642057Y-67885047D01*
X55261104Y-68075523D02*
X56061104Y-68075523D01*
X56061104Y-68075523D02*
X56061104Y-67770761D01*
X56061104Y-67770761D02*
X56023009Y-67694571D01*
X56023009Y-67694571D02*
X55984914Y-67656476D01*
X55984914Y-67656476D02*
X55908723Y-67618380D01*
X55908723Y-67618380D02*
X55794438Y-67618380D01*
X55794438Y-67618380D02*
X55718247Y-67656476D01*
X55718247Y-67656476D02*
X55680152Y-67694571D01*
X55680152Y-67694571D02*
X55642057Y-67770761D01*
X55642057Y-67770761D02*
X55642057Y-68075523D01*
X55680152Y-71151714D02*
X55680152Y-71418380D01*
X55261104Y-71418380D02*
X56061104Y-71418380D01*
X56061104Y-71418380D02*
X56061104Y-71037428D01*
X55261104Y-70275523D02*
X55642057Y-70542190D01*
X55261104Y-70732666D02*
X56061104Y-70732666D01*
X56061104Y-70732666D02*
X56061104Y-70427904D01*
X56061104Y-70427904D02*
X56023009Y-70351714D01*
X56023009Y-70351714D02*
X55984914Y-70313619D01*
X55984914Y-70313619D02*
X55908723Y-70275523D01*
X55908723Y-70275523D02*
X55794438Y-70275523D01*
X55794438Y-70275523D02*
X55718247Y-70313619D01*
X55718247Y-70313619D02*
X55680152Y-70351714D01*
X55680152Y-70351714D02*
X55642057Y-70427904D01*
X55642057Y-70427904D02*
X55642057Y-70732666D01*
X55680152Y-73575523D02*
X55680152Y-73842189D01*
X55261104Y-73842189D02*
X56061104Y-73842189D01*
X56061104Y-73842189D02*
X56061104Y-73461237D01*
X55261104Y-72775523D02*
X55261104Y-73156475D01*
X55261104Y-73156475D02*
X56061104Y-73156475D01*
X55680152Y-76132666D02*
X55642057Y-76018380D01*
X55642057Y-76018380D02*
X55603961Y-75980285D01*
X55603961Y-75980285D02*
X55527771Y-75942189D01*
X55527771Y-75942189D02*
X55413485Y-75942189D01*
X55413485Y-75942189D02*
X55337295Y-75980285D01*
X55337295Y-75980285D02*
X55299200Y-76018380D01*
X55299200Y-76018380D02*
X55261104Y-76094570D01*
X55261104Y-76094570D02*
X55261104Y-76399332D01*
X55261104Y-76399332D02*
X56061104Y-76399332D01*
X56061104Y-76399332D02*
X56061104Y-76132666D01*
X56061104Y-76132666D02*
X56023009Y-76056475D01*
X56023009Y-76056475D02*
X55984914Y-76018380D01*
X55984914Y-76018380D02*
X55908723Y-75980285D01*
X55908723Y-75980285D02*
X55832533Y-75980285D01*
X55832533Y-75980285D02*
X55756342Y-76018380D01*
X55756342Y-76018380D02*
X55718247Y-76056475D01*
X55718247Y-76056475D02*
X55680152Y-76132666D01*
X55680152Y-76132666D02*
X55680152Y-76399332D01*
X55261104Y-75218380D02*
X55261104Y-75599332D01*
X55261104Y-75599332D02*
X56061104Y-75599332D01*
X45186571Y-94052800D02*
X45072285Y-94090895D01*
X45072285Y-94090895D02*
X44881809Y-94090895D01*
X44881809Y-94090895D02*
X44805618Y-94052800D01*
X44805618Y-94052800D02*
X44767523Y-94014704D01*
X44767523Y-94014704D02*
X44729428Y-93938514D01*
X44729428Y-93938514D02*
X44729428Y-93862323D01*
X44729428Y-93862323D02*
X44767523Y-93786133D01*
X44767523Y-93786133D02*
X44805618Y-93748038D01*
X44805618Y-93748038D02*
X44881809Y-93709942D01*
X44881809Y-93709942D02*
X45034190Y-93671847D01*
X45034190Y-93671847D02*
X45110380Y-93633752D01*
X45110380Y-93633752D02*
X45148475Y-93595657D01*
X45148475Y-93595657D02*
X45186571Y-93519466D01*
X45186571Y-93519466D02*
X45186571Y-93443276D01*
X45186571Y-93443276D02*
X45148475Y-93367085D01*
X45148475Y-93367085D02*
X45110380Y-93328990D01*
X45110380Y-93328990D02*
X45034190Y-93290895D01*
X45034190Y-93290895D02*
X44843713Y-93290895D01*
X44843713Y-93290895D02*
X44729428Y-93328990D01*
X47764666Y-93290895D02*
X47231332Y-94090895D01*
X47231332Y-93290895D02*
X47764666Y-94090895D01*
X52583714Y-94814895D02*
X52317047Y-95614895D01*
X52317047Y-95614895D02*
X52050381Y-94814895D01*
X51631333Y-94814895D02*
X51478952Y-94814895D01*
X51478952Y-94814895D02*
X51402762Y-94852990D01*
X51402762Y-94852990D02*
X51326571Y-94929180D01*
X51326571Y-94929180D02*
X51288476Y-95081561D01*
X51288476Y-95081561D02*
X51288476Y-95348228D01*
X51288476Y-95348228D02*
X51326571Y-95500609D01*
X51326571Y-95500609D02*
X51402762Y-95576800D01*
X51402762Y-95576800D02*
X51478952Y-95614895D01*
X51478952Y-95614895D02*
X51631333Y-95614895D01*
X51631333Y-95614895D02*
X51707524Y-95576800D01*
X51707524Y-95576800D02*
X51783714Y-95500609D01*
X51783714Y-95500609D02*
X51821810Y-95348228D01*
X51821810Y-95348228D02*
X51821810Y-95081561D01*
X51821810Y-95081561D02*
X51783714Y-94929180D01*
X51783714Y-94929180D02*
X51707524Y-94852990D01*
X51707524Y-94852990D02*
X51631333Y-94814895D01*
X50564667Y-95614895D02*
X50945619Y-95614895D01*
X50945619Y-95614895D02*
X50945619Y-94814895D01*
X50412286Y-94814895D02*
X49955143Y-94814895D01*
X50183715Y-95614895D02*
X50183715Y-94814895D01*
X49726572Y-95386323D02*
X49345619Y-95386323D01*
X49802762Y-95614895D02*
X49536095Y-94814895D01*
X49536095Y-94814895D02*
X49269429Y-95614895D01*
X48583715Y-94852990D02*
X48659905Y-94814895D01*
X48659905Y-94814895D02*
X48774191Y-94814895D01*
X48774191Y-94814895D02*
X48888477Y-94852990D01*
X48888477Y-94852990D02*
X48964667Y-94929180D01*
X48964667Y-94929180D02*
X49002762Y-95005371D01*
X49002762Y-95005371D02*
X49040858Y-95157752D01*
X49040858Y-95157752D02*
X49040858Y-95272038D01*
X49040858Y-95272038D02*
X49002762Y-95424419D01*
X49002762Y-95424419D02*
X48964667Y-95500609D01*
X48964667Y-95500609D02*
X48888477Y-95576800D01*
X48888477Y-95576800D02*
X48774191Y-95614895D01*
X48774191Y-95614895D02*
X48698000Y-95614895D01*
X48698000Y-95614895D02*
X48583715Y-95576800D01*
X48583715Y-95576800D02*
X48545619Y-95538704D01*
X48545619Y-95538704D02*
X48545619Y-95272038D01*
X48545619Y-95272038D02*
X48698000Y-95272038D01*
X48202762Y-95195847D02*
X47936096Y-95195847D01*
X47821810Y-95614895D02*
X48202762Y-95614895D01*
X48202762Y-95614895D02*
X48202762Y-94814895D01*
X48202762Y-94814895D02*
X47821810Y-94814895D01*
X46907524Y-95576800D02*
X46793238Y-95614895D01*
X46793238Y-95614895D02*
X46602762Y-95614895D01*
X46602762Y-95614895D02*
X46526571Y-95576800D01*
X46526571Y-95576800D02*
X46488476Y-95538704D01*
X46488476Y-95538704D02*
X46450381Y-95462514D01*
X46450381Y-95462514D02*
X46450381Y-95386323D01*
X46450381Y-95386323D02*
X46488476Y-95310133D01*
X46488476Y-95310133D02*
X46526571Y-95272038D01*
X46526571Y-95272038D02*
X46602762Y-95233942D01*
X46602762Y-95233942D02*
X46755143Y-95195847D01*
X46755143Y-95195847D02*
X46831333Y-95157752D01*
X46831333Y-95157752D02*
X46869428Y-95119657D01*
X46869428Y-95119657D02*
X46907524Y-95043466D01*
X46907524Y-95043466D02*
X46907524Y-94967276D01*
X46907524Y-94967276D02*
X46869428Y-94891085D01*
X46869428Y-94891085D02*
X46831333Y-94852990D01*
X46831333Y-94852990D02*
X46755143Y-94814895D01*
X46755143Y-94814895D02*
X46564666Y-94814895D01*
X46564666Y-94814895D02*
X46450381Y-94852990D01*
X46107523Y-95195847D02*
X45840857Y-95195847D01*
X45726571Y-95614895D02*
X46107523Y-95614895D01*
X46107523Y-95614895D02*
X46107523Y-94814895D01*
X46107523Y-94814895D02*
X45726571Y-94814895D01*
X45383713Y-95614895D02*
X45383713Y-94814895D01*
X45383713Y-94814895D02*
X44926570Y-95614895D01*
X44926570Y-95614895D02*
X44926570Y-94814895D01*
X44583714Y-95576800D02*
X44469428Y-95614895D01*
X44469428Y-95614895D02*
X44278952Y-95614895D01*
X44278952Y-95614895D02*
X44202761Y-95576800D01*
X44202761Y-95576800D02*
X44164666Y-95538704D01*
X44164666Y-95538704D02*
X44126571Y-95462514D01*
X44126571Y-95462514D02*
X44126571Y-95386323D01*
X44126571Y-95386323D02*
X44164666Y-95310133D01*
X44164666Y-95310133D02*
X44202761Y-95272038D01*
X44202761Y-95272038D02*
X44278952Y-95233942D01*
X44278952Y-95233942D02*
X44431333Y-95195847D01*
X44431333Y-95195847D02*
X44507523Y-95157752D01*
X44507523Y-95157752D02*
X44545618Y-95119657D01*
X44545618Y-95119657D02*
X44583714Y-95043466D01*
X44583714Y-95043466D02*
X44583714Y-94967276D01*
X44583714Y-94967276D02*
X44545618Y-94891085D01*
X44545618Y-94891085D02*
X44507523Y-94852990D01*
X44507523Y-94852990D02*
X44431333Y-94814895D01*
X44431333Y-94814895D02*
X44240856Y-94814895D01*
X44240856Y-94814895D02*
X44126571Y-94852990D01*
X43631332Y-94814895D02*
X43478951Y-94814895D01*
X43478951Y-94814895D02*
X43402761Y-94852990D01*
X43402761Y-94852990D02*
X43326570Y-94929180D01*
X43326570Y-94929180D02*
X43288475Y-95081561D01*
X43288475Y-95081561D02*
X43288475Y-95348228D01*
X43288475Y-95348228D02*
X43326570Y-95500609D01*
X43326570Y-95500609D02*
X43402761Y-95576800D01*
X43402761Y-95576800D02*
X43478951Y-95614895D01*
X43478951Y-95614895D02*
X43631332Y-95614895D01*
X43631332Y-95614895D02*
X43707523Y-95576800D01*
X43707523Y-95576800D02*
X43783713Y-95500609D01*
X43783713Y-95500609D02*
X43821809Y-95348228D01*
X43821809Y-95348228D02*
X43821809Y-95081561D01*
X43821809Y-95081561D02*
X43783713Y-94929180D01*
X43783713Y-94929180D02*
X43707523Y-94852990D01*
X43707523Y-94852990D02*
X43631332Y-94814895D01*
X42488475Y-95614895D02*
X42755142Y-95233942D01*
X42945618Y-95614895D02*
X42945618Y-94814895D01*
X42945618Y-94814895D02*
X42640856Y-94814895D01*
X42640856Y-94814895D02*
X42564666Y-94852990D01*
X42564666Y-94852990D02*
X42526571Y-94891085D01*
X42526571Y-94891085D02*
X42488475Y-94967276D01*
X42488475Y-94967276D02*
X42488475Y-95081561D01*
X42488475Y-95081561D02*
X42526571Y-95157752D01*
X42526571Y-95157752D02*
X42564666Y-95195847D01*
X42564666Y-95195847D02*
X42640856Y-95233942D01*
X42640856Y-95233942D02*
X42945618Y-95233942D01*
X50647523Y-93328990D02*
X50723713Y-93290895D01*
X50723713Y-93290895D02*
X50837999Y-93290895D01*
X50837999Y-93290895D02*
X50952285Y-93328990D01*
X50952285Y-93328990D02*
X51028475Y-93405180D01*
X51028475Y-93405180D02*
X51066570Y-93481371D01*
X51066570Y-93481371D02*
X51104666Y-93633752D01*
X51104666Y-93633752D02*
X51104666Y-93748038D01*
X51104666Y-93748038D02*
X51066570Y-93900419D01*
X51066570Y-93900419D02*
X51028475Y-93976609D01*
X51028475Y-93976609D02*
X50952285Y-94052800D01*
X50952285Y-94052800D02*
X50837999Y-94090895D01*
X50837999Y-94090895D02*
X50761808Y-94090895D01*
X50761808Y-94090895D02*
X50647523Y-94052800D01*
X50647523Y-94052800D02*
X50609427Y-94014704D01*
X50609427Y-94014704D02*
X50609427Y-93748038D01*
X50609427Y-93748038D02*
X50761808Y-93748038D01*
X50266570Y-94090895D02*
X50266570Y-93290895D01*
X50266570Y-93290895D02*
X49809427Y-94090895D01*
X49809427Y-94090895D02*
X49809427Y-93290895D01*
X49428475Y-94090895D02*
X49428475Y-93290895D01*
X49428475Y-93290895D02*
X49237999Y-93290895D01*
X49237999Y-93290895D02*
X49123713Y-93328990D01*
X49123713Y-93328990D02*
X49047523Y-93405180D01*
X49047523Y-93405180D02*
X49009428Y-93481371D01*
X49009428Y-93481371D02*
X48971332Y-93633752D01*
X48971332Y-93633752D02*
X48971332Y-93748038D01*
X48971332Y-93748038D02*
X49009428Y-93900419D01*
X49009428Y-93900419D02*
X49047523Y-93976609D01*
X49047523Y-93976609D02*
X49123713Y-94052800D01*
X49123713Y-94052800D02*
X49237999Y-94090895D01*
X49237999Y-94090895D02*
X49428475Y-94090895D01*
X56061104Y-79233332D02*
X55261104Y-78566666D01*
X56061104Y-78566666D02*
X55261104Y-79233332D01*
X5841904Y-9157038D02*
X5937142Y-9109419D01*
X5937142Y-9109419D02*
X6079999Y-9109419D01*
X6079999Y-9109419D02*
X6222856Y-9157038D01*
X6222856Y-9157038D02*
X6318094Y-9252276D01*
X6318094Y-9252276D02*
X6365713Y-9347514D01*
X6365713Y-9347514D02*
X6413332Y-9537990D01*
X6413332Y-9537990D02*
X6413332Y-9680847D01*
X6413332Y-9680847D02*
X6365713Y-9871323D01*
X6365713Y-9871323D02*
X6318094Y-9966561D01*
X6318094Y-9966561D02*
X6222856Y-10061800D01*
X6222856Y-10061800D02*
X6079999Y-10109419D01*
X6079999Y-10109419D02*
X5984761Y-10109419D01*
X5984761Y-10109419D02*
X5841904Y-10061800D01*
X5841904Y-10061800D02*
X5794285Y-10014180D01*
X5794285Y-10014180D02*
X5794285Y-9680847D01*
X5794285Y-9680847D02*
X5984761Y-9680847D01*
X5365713Y-10109419D02*
X5365713Y-9109419D01*
X5365713Y-9109419D02*
X4794285Y-10109419D01*
X4794285Y-10109419D02*
X4794285Y-9109419D01*
X4318094Y-10109419D02*
X4318094Y-9109419D01*
X4318094Y-9109419D02*
X4079999Y-9109419D01*
X4079999Y-9109419D02*
X3937142Y-9157038D01*
X3937142Y-9157038D02*
X3841904Y-9252276D01*
X3841904Y-9252276D02*
X3794285Y-9347514D01*
X3794285Y-9347514D02*
X3746666Y-9537990D01*
X3746666Y-9537990D02*
X3746666Y-9680847D01*
X3746666Y-9680847D02*
X3794285Y-9871323D01*
X3794285Y-9871323D02*
X3841904Y-9966561D01*
X3841904Y-9966561D02*
X3937142Y-10061800D01*
X3937142Y-10061800D02*
X4079999Y-10109419D01*
X4079999Y-10109419D02*
X4318094Y-10109419D01*
X7318189Y-90135419D02*
X6699142Y-90135419D01*
X6699142Y-90135419D02*
X7032475Y-90516371D01*
X7032475Y-90516371D02*
X6889618Y-90516371D01*
X6889618Y-90516371D02*
X6794380Y-90563990D01*
X6794380Y-90563990D02*
X6746761Y-90611609D01*
X6746761Y-90611609D02*
X6699142Y-90706847D01*
X6699142Y-90706847D02*
X6699142Y-90944942D01*
X6699142Y-90944942D02*
X6746761Y-91040180D01*
X6746761Y-91040180D02*
X6794380Y-91087800D01*
X6794380Y-91087800D02*
X6889618Y-91135419D01*
X6889618Y-91135419D02*
X7175332Y-91135419D01*
X7175332Y-91135419D02*
X7270570Y-91087800D01*
X7270570Y-91087800D02*
X7318189Y-91040180D01*
X6270570Y-91040180D02*
X6222951Y-91087800D01*
X6222951Y-91087800D02*
X6270570Y-91135419D01*
X6270570Y-91135419D02*
X6318189Y-91087800D01*
X6318189Y-91087800D02*
X6270570Y-91040180D01*
X6270570Y-91040180D02*
X6270570Y-91135419D01*
X5889618Y-90135419D02*
X5270571Y-90135419D01*
X5270571Y-90135419D02*
X5603904Y-90516371D01*
X5603904Y-90516371D02*
X5461047Y-90516371D01*
X5461047Y-90516371D02*
X5365809Y-90563990D01*
X5365809Y-90563990D02*
X5318190Y-90611609D01*
X5318190Y-90611609D02*
X5270571Y-90706847D01*
X5270571Y-90706847D02*
X5270571Y-90944942D01*
X5270571Y-90944942D02*
X5318190Y-91040180D01*
X5318190Y-91040180D02*
X5365809Y-91087800D01*
X5365809Y-91087800D02*
X5461047Y-91135419D01*
X5461047Y-91135419D02*
X5746761Y-91135419D01*
X5746761Y-91135419D02*
X5841999Y-91087800D01*
X5841999Y-91087800D02*
X5889618Y-91040180D01*
X4984856Y-90135419D02*
X4651523Y-91135419D01*
X4651523Y-91135419D02*
X4318190Y-90135419D01*
X56594189Y-8855419D02*
X55975142Y-8855419D01*
X55975142Y-8855419D02*
X56308475Y-9236371D01*
X56308475Y-9236371D02*
X56165618Y-9236371D01*
X56165618Y-9236371D02*
X56070380Y-9283990D01*
X56070380Y-9283990D02*
X56022761Y-9331609D01*
X56022761Y-9331609D02*
X55975142Y-9426847D01*
X55975142Y-9426847D02*
X55975142Y-9664942D01*
X55975142Y-9664942D02*
X56022761Y-9760180D01*
X56022761Y-9760180D02*
X56070380Y-9807800D01*
X56070380Y-9807800D02*
X56165618Y-9855419D01*
X56165618Y-9855419D02*
X56451332Y-9855419D01*
X56451332Y-9855419D02*
X56546570Y-9807800D01*
X56546570Y-9807800D02*
X56594189Y-9760180D01*
X55546570Y-9760180D02*
X55498951Y-9807800D01*
X55498951Y-9807800D02*
X55546570Y-9855419D01*
X55546570Y-9855419D02*
X55594189Y-9807800D01*
X55594189Y-9807800D02*
X55546570Y-9760180D01*
X55546570Y-9760180D02*
X55546570Y-9855419D01*
X55165618Y-8855419D02*
X54546571Y-8855419D01*
X54546571Y-8855419D02*
X54879904Y-9236371D01*
X54879904Y-9236371D02*
X54737047Y-9236371D01*
X54737047Y-9236371D02*
X54641809Y-9283990D01*
X54641809Y-9283990D02*
X54594190Y-9331609D01*
X54594190Y-9331609D02*
X54546571Y-9426847D01*
X54546571Y-9426847D02*
X54546571Y-9664942D01*
X54546571Y-9664942D02*
X54594190Y-9760180D01*
X54594190Y-9760180D02*
X54641809Y-9807800D01*
X54641809Y-9807800D02*
X54737047Y-9855419D01*
X54737047Y-9855419D02*
X55022761Y-9855419D01*
X55022761Y-9855419D02*
X55117999Y-9807800D01*
X55117999Y-9807800D02*
X55165618Y-9760180D01*
X54260856Y-8855419D02*
X53927523Y-9855419D01*
X53927523Y-9855419D02*
X53594190Y-8855419D01*
X56387904Y-90183038D02*
X56483142Y-90135419D01*
X56483142Y-90135419D02*
X56625999Y-90135419D01*
X56625999Y-90135419D02*
X56768856Y-90183038D01*
X56768856Y-90183038D02*
X56864094Y-90278276D01*
X56864094Y-90278276D02*
X56911713Y-90373514D01*
X56911713Y-90373514D02*
X56959332Y-90563990D01*
X56959332Y-90563990D02*
X56959332Y-90706847D01*
X56959332Y-90706847D02*
X56911713Y-90897323D01*
X56911713Y-90897323D02*
X56864094Y-90992561D01*
X56864094Y-90992561D02*
X56768856Y-91087800D01*
X56768856Y-91087800D02*
X56625999Y-91135419D01*
X56625999Y-91135419D02*
X56530761Y-91135419D01*
X56530761Y-91135419D02*
X56387904Y-91087800D01*
X56387904Y-91087800D02*
X56340285Y-91040180D01*
X56340285Y-91040180D02*
X56340285Y-90706847D01*
X56340285Y-90706847D02*
X56530761Y-90706847D01*
X55911713Y-91135419D02*
X55911713Y-90135419D01*
X55911713Y-90135419D02*
X55340285Y-91135419D01*
X55340285Y-91135419D02*
X55340285Y-90135419D01*
X54864094Y-91135419D02*
X54864094Y-90135419D01*
X54864094Y-90135419D02*
X54625999Y-90135419D01*
X54625999Y-90135419D02*
X54483142Y-90183038D01*
X54483142Y-90183038D02*
X54387904Y-90278276D01*
X54387904Y-90278276D02*
X54340285Y-90373514D01*
X54340285Y-90373514D02*
X54292666Y-90563990D01*
X54292666Y-90563990D02*
X54292666Y-90706847D01*
X54292666Y-90706847D02*
X54340285Y-90897323D01*
X54340285Y-90897323D02*
X54387904Y-90992561D01*
X54387904Y-90992561D02*
X54483142Y-91087800D01*
X54483142Y-91087800D02*
X54625999Y-91135419D01*
X54625999Y-91135419D02*
X54864094Y-91135419D01*
X53642580Y-73659428D02*
X54642580Y-73659428D01*
X54642580Y-73659428D02*
X54642580Y-73421333D01*
X54642580Y-73421333D02*
X54594961Y-73278476D01*
X54594961Y-73278476D02*
X54499723Y-73183238D01*
X54499723Y-73183238D02*
X54404485Y-73135619D01*
X54404485Y-73135619D02*
X54214009Y-73088000D01*
X54214009Y-73088000D02*
X54071152Y-73088000D01*
X54071152Y-73088000D02*
X53880676Y-73135619D01*
X53880676Y-73135619D02*
X53785438Y-73183238D01*
X53785438Y-73183238D02*
X53690200Y-73278476D01*
X53690200Y-73278476D02*
X53642580Y-73421333D01*
X53642580Y-73421333D02*
X53642580Y-73659428D01*
X53928295Y-72707047D02*
X53928295Y-72230857D01*
X53642580Y-72802285D02*
X54642580Y-72468952D01*
X54642580Y-72468952D02*
X53642580Y-72135619D01*
X54642580Y-71945142D02*
X54642580Y-71373714D01*
X53642580Y-71659428D02*
X54642580Y-71659428D01*
X53928295Y-71087999D02*
X53928295Y-70611809D01*
X53642580Y-71183237D02*
X54642580Y-70849904D01*
X54642580Y-70849904D02*
X53642580Y-70516571D01*
X54166390Y-69087999D02*
X54118771Y-68945142D01*
X54118771Y-68945142D02*
X54071152Y-68897523D01*
X54071152Y-68897523D02*
X53975914Y-68849904D01*
X53975914Y-68849904D02*
X53833057Y-68849904D01*
X53833057Y-68849904D02*
X53737819Y-68897523D01*
X53737819Y-68897523D02*
X53690200Y-68945142D01*
X53690200Y-68945142D02*
X53642580Y-69040380D01*
X53642580Y-69040380D02*
X53642580Y-69421332D01*
X53642580Y-69421332D02*
X54642580Y-69421332D01*
X54642580Y-69421332D02*
X54642580Y-69087999D01*
X54642580Y-69087999D02*
X54594961Y-68992761D01*
X54594961Y-68992761D02*
X54547342Y-68945142D01*
X54547342Y-68945142D02*
X54452104Y-68897523D01*
X54452104Y-68897523D02*
X54356866Y-68897523D01*
X54356866Y-68897523D02*
X54261628Y-68945142D01*
X54261628Y-68945142D02*
X54214009Y-68992761D01*
X54214009Y-68992761D02*
X54166390Y-69087999D01*
X54166390Y-69087999D02*
X54166390Y-69421332D01*
X53642580Y-67849904D02*
X54118771Y-68183237D01*
X53642580Y-68421332D02*
X54642580Y-68421332D01*
X54642580Y-68421332D02*
X54642580Y-68040380D01*
X54642580Y-68040380D02*
X54594961Y-67945142D01*
X54594961Y-67945142D02*
X54547342Y-67897523D01*
X54547342Y-67897523D02*
X54452104Y-67849904D01*
X54452104Y-67849904D02*
X54309247Y-67849904D01*
X54309247Y-67849904D02*
X54214009Y-67897523D01*
X54214009Y-67897523D02*
X54166390Y-67945142D01*
X54166390Y-67945142D02*
X54118771Y-68040380D01*
X54118771Y-68040380D02*
X54118771Y-68421332D01*
X53642580Y-67421332D02*
X54642580Y-67421332D01*
X53642580Y-66945142D02*
X54642580Y-66945142D01*
X54642580Y-66945142D02*
X54642580Y-66707047D01*
X54642580Y-66707047D02*
X54594961Y-66564190D01*
X54594961Y-66564190D02*
X54499723Y-66468952D01*
X54499723Y-66468952D02*
X54404485Y-66421333D01*
X54404485Y-66421333D02*
X54214009Y-66373714D01*
X54214009Y-66373714D02*
X54071152Y-66373714D01*
X54071152Y-66373714D02*
X53880676Y-66421333D01*
X53880676Y-66421333D02*
X53785438Y-66468952D01*
X53785438Y-66468952D02*
X53690200Y-66564190D01*
X53690200Y-66564190D02*
X53642580Y-66707047D01*
X53642580Y-66707047D02*
X53642580Y-66945142D01*
X54594961Y-65421333D02*
X54642580Y-65516571D01*
X54642580Y-65516571D02*
X54642580Y-65659428D01*
X54642580Y-65659428D02*
X54594961Y-65802285D01*
X54594961Y-65802285D02*
X54499723Y-65897523D01*
X54499723Y-65897523D02*
X54404485Y-65945142D01*
X54404485Y-65945142D02*
X54214009Y-65992761D01*
X54214009Y-65992761D02*
X54071152Y-65992761D01*
X54071152Y-65992761D02*
X53880676Y-65945142D01*
X53880676Y-65945142D02*
X53785438Y-65897523D01*
X53785438Y-65897523D02*
X53690200Y-65802285D01*
X53690200Y-65802285D02*
X53642580Y-65659428D01*
X53642580Y-65659428D02*
X53642580Y-65564190D01*
X53642580Y-65564190D02*
X53690200Y-65421333D01*
X53690200Y-65421333D02*
X53737819Y-65373714D01*
X53737819Y-65373714D02*
X54071152Y-65373714D01*
X54071152Y-65373714D02*
X54071152Y-65564190D01*
X54166390Y-64945142D02*
X54166390Y-64611809D01*
X53642580Y-64468952D02*
X53642580Y-64945142D01*
X53642580Y-64945142D02*
X54642580Y-64945142D01*
X54642580Y-64945142D02*
X54642580Y-64468952D01*
D11*
X57620000Y-82920000D02*
X60380000Y-82920000D01*
X57620000Y-95730000D02*
X57620000Y-82920000D01*
X57620000Y-95730000D02*
X60380000Y-95730000D01*
X57620000Y-97000000D02*
X57620000Y-98380000D01*
X57620000Y-98380000D02*
X59000000Y-98380000D01*
X60380000Y-95730000D02*
X60380000Y-82920000D01*
X57620000Y-4270000D02*
X57620000Y-17080000D01*
X60380000Y-1620000D02*
X59000000Y-1620000D01*
X60380000Y-3000000D02*
X60380000Y-1620000D01*
X60380000Y-4270000D02*
X57620000Y-4270000D01*
X60380000Y-4270000D02*
X60380000Y-17080000D01*
X60380000Y-17080000D02*
X57620000Y-17080000D01*
X43578000Y-89298000D02*
X43578000Y-90678000D01*
X44958000Y-89298000D02*
X43578000Y-89298000D01*
X46228000Y-89298000D02*
X46228000Y-92058000D01*
X46228000Y-89298000D02*
X51418000Y-89298000D01*
X46228000Y-92058000D02*
X51418000Y-92058000D01*
X51418000Y-89298000D02*
X51418000Y-92058000D01*
X56620000Y-62270000D02*
X56620000Y-80160000D01*
X59380000Y-59620000D02*
X58000000Y-59620000D01*
X59380000Y-61000000D02*
X59380000Y-59620000D01*
X59380000Y-62270000D02*
X56620000Y-62270000D01*
X59380000Y-62270000D02*
X59380000Y-80160000D01*
X59380000Y-80160000D02*
X56620000Y-80160000D01*
X620000Y-82920000D02*
X3380000Y-82920000D01*
X620000Y-95730000D02*
X620000Y-82920000D01*
X620000Y-95730000D02*
X3380000Y-95730000D01*
X620000Y-97000000D02*
X620000Y-98380000D01*
X620000Y-98380000D02*
X2000000Y-98380000D01*
X3380000Y-95730000D02*
X3380000Y-82920000D01*
X620000Y-4270000D02*
X620000Y-17080000D01*
X3380000Y-1620000D02*
X2000000Y-1620000D01*
X3380000Y-3000000D02*
X3380000Y-1620000D01*
X3380000Y-4270000D02*
X620000Y-4270000D01*
X3380000Y-4270000D02*
X3380000Y-17080000D01*
X3380000Y-17080000D02*
X620000Y-17080000D01*
M02*
