M48
; DRILL file KiCad 10.0.3 date 2026-07-09T23:45:18
; FORMAT={-:-/ absolute / metric / decimal}
; #@! TF.CreationDate,2026-07-09T23:45:18+01:00
; #@! TF.GenerationSoftware,Kicad,Pcbnew,10.0.3
; #@! TF.FileFunction,Plated,1,4,PTH
FMAT,2
METRIC
; #@! TA.AperFunction,Plated,PTH,ComponentDrill
T1C0.600
; #@! TA.AperFunction,Plated,PTH,ComponentDrill
T2C1.000
; #@! TA.AperFunction,Plated,PTH,ComponentDrill
T3C2.700
; #@! TA.AperFunction,Plated,PTH,ComponentDrill
T4C3.000
%
G90
G05
T2
X2.0Y-3.0
X2.0Y-5.54
X2.0Y-8.08
X2.0Y-10.62
X2.0Y-13.16
X2.0Y-15.7
X2.0Y-24.0
X2.0Y-26.54
X2.0Y-84.3
X2.0Y-86.84
X2.0Y-89.38
X2.0Y-91.92
X2.0Y-94.46
X2.0Y-97.0
X6.604Y-68.834
X6.604Y-86.834
X6.858Y-44.23
X6.858Y-62.23
X9.144Y-68.834
X9.144Y-86.834
X9.398Y-44.23
X9.398Y-62.23
X10.5Y-18.0
X10.5Y-20.54
X10.5Y-23.08
X10.5Y-27.5
X10.5Y-30.04
X10.5Y-32.58
X13.0Y-2.0
X15.54Y-2.0
X29.0Y-33.0
X31.54Y-33.0
X34.08Y-33.0
X44.958Y-90.678
X46.228Y-98.044
X47.498Y-90.678
X48.5Y-2.0
X48.768Y-98.044
X49.144Y-68.834
X49.144Y-86.834
X49.276Y-8.382
X49.276Y-10.922
X49.398Y-44.23
X49.398Y-62.23
X50.038Y-90.678
X50.5Y-18.0
X50.5Y-20.54
X50.5Y-23.08
X50.5Y-27.5
X50.5Y-30.04
X50.5Y-32.58
X51.04Y-2.0
X51.684Y-68.834
X51.684Y-86.834
X51.938Y-44.23
X51.938Y-62.23
X53.58Y-2.0
X58.0Y-61.0
X58.0Y-63.54
X58.0Y-66.08
X58.0Y-68.62
X58.0Y-71.16
X58.0Y-73.7
X58.0Y-76.24
X58.0Y-78.78
X59.0Y-3.0
X59.0Y-5.54
X59.0Y-8.08
X59.0Y-10.62
X59.0Y-13.16
X59.0Y-15.7
X59.0Y-24.0
X59.0Y-26.54
X59.0Y-84.3
X59.0Y-86.84
X59.0Y-89.38
X59.0Y-91.92
X59.0Y-94.46
X59.0Y-97.0
T3
X27.7Y-8.5
X34.9Y-8.5
T4
X27.2Y-96.5
X36.0Y-96.5
T1
G00X24.55Y-1.95
M15
G01X24.55Y-3.05
M16
G05
G00X38.05Y-1.95
M15
G01X38.05Y-3.05
M16
G05
M30
