%TF.GenerationSoftware,KiCad,Pcbnew,10.0.3*%
%TF.CreationDate,2026-07-09T23:44:08+01:00*%
%TF.ProjectId,MANTA,4d414e54-412e-46b6-9963-61645f706362,rev?*%
%TF.SameCoordinates,Original*%
%TF.FileFunction,Legend,Top*%
%TF.FilePolarity,Positive*%
%FSLAX46Y46*%
G04 Gerber Fmt 4.6, Leading zero omitted, Abs format (unit mm)*
G04 Created by KiCad (PCBNEW 10.0.3) date 2026-07-09 23:44:08*
%MOMM*%
%LPD*%
G01*
G04 APERTURE LIST*
%ADD10C,0.100000*%
%ADD11C,0.200000*%
%ADD12C,0.500000*%
%ADD13C,0.150000*%
%ADD14C,0.120000*%
G04 APERTURE END LIST*
D10*
X4013238Y-24190133D02*
X4622762Y-24190133D01*
X4318000Y-24494895D02*
X4318000Y-23885371D01*
X4013238Y-26730133D02*
X4622762Y-26730133D01*
X12695238Y-4378133D02*
X13304762Y-4378133D01*
X13000000Y-4682895D02*
X13000000Y-4073371D01*
X9862190Y-5952895D02*
X9595523Y-5571942D01*
X9405047Y-5952895D02*
X9405047Y-5152895D01*
X9405047Y-5152895D02*
X9709809Y-5152895D01*
X9709809Y-5152895D02*
X9785999Y-5190990D01*
X9785999Y-5190990D02*
X9824094Y-5229085D01*
X9824094Y-5229085D02*
X9862190Y-5305276D01*
X9862190Y-5305276D02*
X9862190Y-5419561D01*
X9862190Y-5419561D02*
X9824094Y-5495752D01*
X9824094Y-5495752D02*
X9785999Y-5533847D01*
X9785999Y-5533847D02*
X9709809Y-5571942D01*
X9709809Y-5571942D02*
X9405047Y-5571942D01*
X10166951Y-5724323D02*
X10547904Y-5724323D01*
X10090761Y-5952895D02*
X10357428Y-5152895D01*
X10357428Y-5152895D02*
X10624094Y-5952895D01*
X10852665Y-5914800D02*
X10966951Y-5952895D01*
X10966951Y-5952895D02*
X11157427Y-5952895D01*
X11157427Y-5952895D02*
X11233618Y-5914800D01*
X11233618Y-5914800D02*
X11271713Y-5876704D01*
X11271713Y-5876704D02*
X11309808Y-5800514D01*
X11309808Y-5800514D02*
X11309808Y-5724323D01*
X11309808Y-5724323D02*
X11271713Y-5648133D01*
X11271713Y-5648133D02*
X11233618Y-5610038D01*
X11233618Y-5610038D02*
X11157427Y-5571942D01*
X11157427Y-5571942D02*
X11005046Y-5533847D01*
X11005046Y-5533847D02*
X10928856Y-5495752D01*
X10928856Y-5495752D02*
X10890761Y-5457657D01*
X10890761Y-5457657D02*
X10852665Y-5381466D01*
X10852665Y-5381466D02*
X10852665Y-5305276D01*
X10852665Y-5305276D02*
X10890761Y-5229085D01*
X10890761Y-5229085D02*
X10928856Y-5190990D01*
X10928856Y-5190990D02*
X11005046Y-5152895D01*
X11005046Y-5152895D02*
X11195523Y-5152895D01*
X11195523Y-5152895D02*
X11309808Y-5190990D01*
X11652666Y-5952895D02*
X11652666Y-5152895D01*
X11652666Y-5152895D02*
X11957428Y-5152895D01*
X11957428Y-5152895D02*
X12033618Y-5190990D01*
X12033618Y-5190990D02*
X12071713Y-5229085D01*
X12071713Y-5229085D02*
X12109809Y-5305276D01*
X12109809Y-5305276D02*
X12109809Y-5419561D01*
X12109809Y-5419561D02*
X12071713Y-5495752D01*
X12071713Y-5495752D02*
X12033618Y-5533847D01*
X12033618Y-5533847D02*
X11957428Y-5571942D01*
X11957428Y-5571942D02*
X11652666Y-5571942D01*
X12719332Y-5533847D02*
X12833618Y-5571942D01*
X12833618Y-5571942D02*
X12871713Y-5610038D01*
X12871713Y-5610038D02*
X12909809Y-5686228D01*
X12909809Y-5686228D02*
X12909809Y-5800514D01*
X12909809Y-5800514D02*
X12871713Y-5876704D01*
X12871713Y-5876704D02*
X12833618Y-5914800D01*
X12833618Y-5914800D02*
X12757428Y-5952895D01*
X12757428Y-5952895D02*
X12452666Y-5952895D01*
X12452666Y-5952895D02*
X12452666Y-5152895D01*
X12452666Y-5152895D02*
X12719332Y-5152895D01*
X12719332Y-5152895D02*
X12795523Y-5190990D01*
X12795523Y-5190990D02*
X12833618Y-5229085D01*
X12833618Y-5229085D02*
X12871713Y-5305276D01*
X12871713Y-5305276D02*
X12871713Y-5381466D01*
X12871713Y-5381466D02*
X12833618Y-5457657D01*
X12833618Y-5457657D02*
X12795523Y-5495752D01*
X12795523Y-5495752D02*
X12719332Y-5533847D01*
X12719332Y-5533847D02*
X12452666Y-5533847D01*
X13252666Y-5533847D02*
X13519332Y-5533847D01*
X13633618Y-5952895D02*
X13252666Y-5952895D01*
X13252666Y-5952895D02*
X13252666Y-5152895D01*
X13252666Y-5152895D02*
X13633618Y-5152895D01*
X14433619Y-5952895D02*
X14166952Y-5571942D01*
X13976476Y-5952895D02*
X13976476Y-5152895D01*
X13976476Y-5152895D02*
X14281238Y-5152895D01*
X14281238Y-5152895D02*
X14357428Y-5190990D01*
X14357428Y-5190990D02*
X14395523Y-5229085D01*
X14395523Y-5229085D02*
X14433619Y-5305276D01*
X14433619Y-5305276D02*
X14433619Y-5419561D01*
X14433619Y-5419561D02*
X14395523Y-5495752D01*
X14395523Y-5495752D02*
X14357428Y-5533847D01*
X14357428Y-5533847D02*
X14281238Y-5571942D01*
X14281238Y-5571942D02*
X13976476Y-5571942D01*
X15233619Y-5952895D02*
X14966952Y-5571942D01*
X14776476Y-5952895D02*
X14776476Y-5152895D01*
X14776476Y-5152895D02*
X15081238Y-5152895D01*
X15081238Y-5152895D02*
X15157428Y-5190990D01*
X15157428Y-5190990D02*
X15195523Y-5229085D01*
X15195523Y-5229085D02*
X15233619Y-5305276D01*
X15233619Y-5305276D02*
X15233619Y-5419561D01*
X15233619Y-5419561D02*
X15195523Y-5495752D01*
X15195523Y-5495752D02*
X15157428Y-5533847D01*
X15157428Y-5533847D02*
X15081238Y-5571942D01*
X15081238Y-5571942D02*
X14776476Y-5571942D01*
X15728857Y-5571942D02*
X15728857Y-5952895D01*
X15462190Y-5152895D02*
X15728857Y-5571942D01*
X15728857Y-5571942D02*
X15995523Y-5152895D01*
X16871714Y-5952895D02*
X16871714Y-5152895D01*
X16871714Y-5152895D02*
X17176476Y-5152895D01*
X17176476Y-5152895D02*
X17252666Y-5190990D01*
X17252666Y-5190990D02*
X17290761Y-5229085D01*
X17290761Y-5229085D02*
X17328857Y-5305276D01*
X17328857Y-5305276D02*
X17328857Y-5419561D01*
X17328857Y-5419561D02*
X17290761Y-5495752D01*
X17290761Y-5495752D02*
X17252666Y-5533847D01*
X17252666Y-5533847D02*
X17176476Y-5571942D01*
X17176476Y-5571942D02*
X16871714Y-5571942D01*
X17824095Y-5152895D02*
X17976476Y-5152895D01*
X17976476Y-5152895D02*
X18052666Y-5190990D01*
X18052666Y-5190990D02*
X18128857Y-5267180D01*
X18128857Y-5267180D02*
X18166952Y-5419561D01*
X18166952Y-5419561D02*
X18166952Y-5686228D01*
X18166952Y-5686228D02*
X18128857Y-5838609D01*
X18128857Y-5838609D02*
X18052666Y-5914800D01*
X18052666Y-5914800D02*
X17976476Y-5952895D01*
X17976476Y-5952895D02*
X17824095Y-5952895D01*
X17824095Y-5952895D02*
X17747904Y-5914800D01*
X17747904Y-5914800D02*
X17671714Y-5838609D01*
X17671714Y-5838609D02*
X17633618Y-5686228D01*
X17633618Y-5686228D02*
X17633618Y-5419561D01*
X17633618Y-5419561D02*
X17671714Y-5267180D01*
X17671714Y-5267180D02*
X17747904Y-5190990D01*
X17747904Y-5190990D02*
X17824095Y-5152895D01*
X18433618Y-5152895D02*
X18624094Y-5952895D01*
X18624094Y-5952895D02*
X18776475Y-5381466D01*
X18776475Y-5381466D02*
X18928856Y-5952895D01*
X18928856Y-5952895D02*
X19119333Y-5152895D01*
X19424095Y-5533847D02*
X19690761Y-5533847D01*
X19805047Y-5952895D02*
X19424095Y-5952895D01*
X19424095Y-5952895D02*
X19424095Y-5152895D01*
X19424095Y-5152895D02*
X19805047Y-5152895D01*
X20605048Y-5952895D02*
X20338381Y-5571942D01*
X20147905Y-5952895D02*
X20147905Y-5152895D01*
X20147905Y-5152895D02*
X20452667Y-5152895D01*
X20452667Y-5152895D02*
X20528857Y-5190990D01*
X20528857Y-5190990D02*
X20566952Y-5229085D01*
X20566952Y-5229085D02*
X20605048Y-5305276D01*
X20605048Y-5305276D02*
X20605048Y-5419561D01*
X20605048Y-5419561D02*
X20566952Y-5495752D01*
X20566952Y-5495752D02*
X20528857Y-5533847D01*
X20528857Y-5533847D02*
X20452667Y-5571942D01*
X20452667Y-5571942D02*
X20147905Y-5571942D01*
X15295238Y-4378133D02*
X15904762Y-4378133D01*
X28727428Y-35886800D02*
X28841714Y-35924895D01*
X28841714Y-35924895D02*
X29032190Y-35924895D01*
X29032190Y-35924895D02*
X29108381Y-35886800D01*
X29108381Y-35886800D02*
X29146476Y-35848704D01*
X29146476Y-35848704D02*
X29184571Y-35772514D01*
X29184571Y-35772514D02*
X29184571Y-35696323D01*
X29184571Y-35696323D02*
X29146476Y-35620133D01*
X29146476Y-35620133D02*
X29108381Y-35582038D01*
X29108381Y-35582038D02*
X29032190Y-35543942D01*
X29032190Y-35543942D02*
X28879809Y-35505847D01*
X28879809Y-35505847D02*
X28803619Y-35467752D01*
X28803619Y-35467752D02*
X28765524Y-35429657D01*
X28765524Y-35429657D02*
X28727428Y-35353466D01*
X28727428Y-35353466D02*
X28727428Y-35277276D01*
X28727428Y-35277276D02*
X28765524Y-35201085D01*
X28765524Y-35201085D02*
X28803619Y-35162990D01*
X28803619Y-35162990D02*
X28879809Y-35124895D01*
X28879809Y-35124895D02*
X29070286Y-35124895D01*
X29070286Y-35124895D02*
X29184571Y-35162990D01*
X28657904Y-36775847D02*
X28924570Y-36775847D01*
X29038856Y-37194895D02*
X28657904Y-37194895D01*
X28657904Y-37194895D02*
X28657904Y-36394895D01*
X28657904Y-36394895D02*
X29038856Y-36394895D01*
X29343618Y-37156800D02*
X29457904Y-37194895D01*
X29457904Y-37194895D02*
X29648380Y-37194895D01*
X29648380Y-37194895D02*
X29724571Y-37156800D01*
X29724571Y-37156800D02*
X29762666Y-37118704D01*
X29762666Y-37118704D02*
X29800761Y-37042514D01*
X29800761Y-37042514D02*
X29800761Y-36966323D01*
X29800761Y-36966323D02*
X29762666Y-36890133D01*
X29762666Y-36890133D02*
X29724571Y-36852038D01*
X29724571Y-36852038D02*
X29648380Y-36813942D01*
X29648380Y-36813942D02*
X29495999Y-36775847D01*
X29495999Y-36775847D02*
X29419809Y-36737752D01*
X29419809Y-36737752D02*
X29381714Y-36699657D01*
X29381714Y-36699657D02*
X29343618Y-36623466D01*
X29343618Y-36623466D02*
X29343618Y-36547276D01*
X29343618Y-36547276D02*
X29381714Y-36471085D01*
X29381714Y-36471085D02*
X29419809Y-36432990D01*
X29419809Y-36432990D02*
X29495999Y-36394895D01*
X29495999Y-36394895D02*
X29686476Y-36394895D01*
X29686476Y-36394895D02*
X29800761Y-36432990D01*
X30600762Y-37118704D02*
X30562666Y-37156800D01*
X30562666Y-37156800D02*
X30448381Y-37194895D01*
X30448381Y-37194895D02*
X30372190Y-37194895D01*
X30372190Y-37194895D02*
X30257904Y-37156800D01*
X30257904Y-37156800D02*
X30181714Y-37080609D01*
X30181714Y-37080609D02*
X30143619Y-37004419D01*
X30143619Y-37004419D02*
X30105523Y-36852038D01*
X30105523Y-36852038D02*
X30105523Y-36737752D01*
X30105523Y-36737752D02*
X30143619Y-36585371D01*
X30143619Y-36585371D02*
X30181714Y-36509180D01*
X30181714Y-36509180D02*
X30257904Y-36432990D01*
X30257904Y-36432990D02*
X30372190Y-36394895D01*
X30372190Y-36394895D02*
X30448381Y-36394895D01*
X30448381Y-36394895D02*
X30562666Y-36432990D01*
X30562666Y-36432990D02*
X30600762Y-36471085D01*
X31553143Y-36394895D02*
X31553143Y-37042514D01*
X31553143Y-37042514D02*
X31591238Y-37118704D01*
X31591238Y-37118704D02*
X31629333Y-37156800D01*
X31629333Y-37156800D02*
X31705524Y-37194895D01*
X31705524Y-37194895D02*
X31857905Y-37194895D01*
X31857905Y-37194895D02*
X31934095Y-37156800D01*
X31934095Y-37156800D02*
X31972190Y-37118704D01*
X31972190Y-37118704D02*
X32010286Y-37042514D01*
X32010286Y-37042514D02*
X32010286Y-36394895D01*
X32657904Y-36775847D02*
X32772190Y-36813942D01*
X32772190Y-36813942D02*
X32810285Y-36852038D01*
X32810285Y-36852038D02*
X32848381Y-36928228D01*
X32848381Y-36928228D02*
X32848381Y-37042514D01*
X32848381Y-37042514D02*
X32810285Y-37118704D01*
X32810285Y-37118704D02*
X32772190Y-37156800D01*
X32772190Y-37156800D02*
X32696000Y-37194895D01*
X32696000Y-37194895D02*
X32391238Y-37194895D01*
X32391238Y-37194895D02*
X32391238Y-36394895D01*
X32391238Y-36394895D02*
X32657904Y-36394895D01*
X32657904Y-36394895D02*
X32734095Y-36432990D01*
X32734095Y-36432990D02*
X32772190Y-36471085D01*
X32772190Y-36471085D02*
X32810285Y-36547276D01*
X32810285Y-36547276D02*
X32810285Y-36623466D01*
X32810285Y-36623466D02*
X32772190Y-36699657D01*
X32772190Y-36699657D02*
X32734095Y-36737752D01*
X32734095Y-36737752D02*
X32657904Y-36775847D01*
X32657904Y-36775847D02*
X32391238Y-36775847D01*
X33191238Y-36775847D02*
X33457904Y-36775847D01*
X33572190Y-37194895D02*
X33191238Y-37194895D01*
X33191238Y-37194895D02*
X33191238Y-36394895D01*
X33191238Y-36394895D02*
X33572190Y-36394895D01*
X34372191Y-37118704D02*
X34334095Y-37156800D01*
X34334095Y-37156800D02*
X34219810Y-37194895D01*
X34219810Y-37194895D02*
X34143619Y-37194895D01*
X34143619Y-37194895D02*
X34029333Y-37156800D01*
X34029333Y-37156800D02*
X33953143Y-37080609D01*
X33953143Y-37080609D02*
X33915048Y-37004419D01*
X33915048Y-37004419D02*
X33876952Y-36852038D01*
X33876952Y-36852038D02*
X33876952Y-36737752D01*
X33876952Y-36737752D02*
X33915048Y-36585371D01*
X33915048Y-36585371D02*
X33953143Y-36509180D01*
X33953143Y-36509180D02*
X34029333Y-36432990D01*
X34029333Y-36432990D02*
X34143619Y-36394895D01*
X34143619Y-36394895D02*
X34219810Y-36394895D01*
X34219810Y-36394895D02*
X34334095Y-36432990D01*
X34334095Y-36432990D02*
X34372191Y-36471085D01*
X31275238Y-35620133D02*
X31884762Y-35620133D01*
X31580000Y-35924895D02*
X31580000Y-35315371D01*
X33825238Y-35620133D02*
X34434762Y-35620133D01*
X45421619Y-9686704D02*
X45383523Y-9724800D01*
X45383523Y-9724800D02*
X45269238Y-9762895D01*
X45269238Y-9762895D02*
X45193047Y-9762895D01*
X45193047Y-9762895D02*
X45078761Y-9724800D01*
X45078761Y-9724800D02*
X45002571Y-9648609D01*
X45002571Y-9648609D02*
X44964476Y-9572419D01*
X44964476Y-9572419D02*
X44926380Y-9420038D01*
X44926380Y-9420038D02*
X44926380Y-9305752D01*
X44926380Y-9305752D02*
X44964476Y-9153371D01*
X44964476Y-9153371D02*
X45002571Y-9077180D01*
X45002571Y-9077180D02*
X45078761Y-9000990D01*
X45078761Y-9000990D02*
X45193047Y-8962895D01*
X45193047Y-8962895D02*
X45269238Y-8962895D01*
X45269238Y-8962895D02*
X45383523Y-9000990D01*
X45383523Y-9000990D02*
X45421619Y-9039085D01*
X45764476Y-9762895D02*
X45764476Y-8962895D01*
X45764476Y-9343847D02*
X46221619Y-9343847D01*
X46221619Y-9762895D02*
X46221619Y-8962895D01*
X46945428Y-8962895D02*
X46793047Y-8962895D01*
X46793047Y-8962895D02*
X46716856Y-9000990D01*
X46716856Y-9000990D02*
X46678761Y-9039085D01*
X46678761Y-9039085D02*
X46602571Y-9153371D01*
X46602571Y-9153371D02*
X46564475Y-9305752D01*
X46564475Y-9305752D02*
X46564475Y-9610514D01*
X46564475Y-9610514D02*
X46602571Y-9686704D01*
X46602571Y-9686704D02*
X46640666Y-9724800D01*
X46640666Y-9724800D02*
X46716856Y-9762895D01*
X46716856Y-9762895D02*
X46869237Y-9762895D01*
X46869237Y-9762895D02*
X46945428Y-9724800D01*
X46945428Y-9724800D02*
X46983523Y-9686704D01*
X46983523Y-9686704D02*
X47021618Y-9610514D01*
X47021618Y-9610514D02*
X47021618Y-9420038D01*
X47021618Y-9420038D02*
X46983523Y-9343847D01*
X46983523Y-9343847D02*
X46945428Y-9305752D01*
X46945428Y-9305752D02*
X46869237Y-9267657D01*
X46869237Y-9267657D02*
X46716856Y-9267657D01*
X46716856Y-9267657D02*
X46640666Y-9305752D01*
X46640666Y-9305752D02*
X46602571Y-9343847D01*
X46602571Y-9343847D02*
X46564475Y-9420038D01*
X45923238Y-95564133D02*
X46532762Y-95564133D01*
X46228000Y-95868895D02*
X46228000Y-95259371D01*
X42412285Y-94052895D02*
X42678952Y-94852895D01*
X42678952Y-94852895D02*
X42945618Y-94052895D01*
X43364666Y-94052895D02*
X43517047Y-94052895D01*
X43517047Y-94052895D02*
X43593237Y-94090990D01*
X43593237Y-94090990D02*
X43669428Y-94167180D01*
X43669428Y-94167180D02*
X43707523Y-94319561D01*
X43707523Y-94319561D02*
X43707523Y-94586228D01*
X43707523Y-94586228D02*
X43669428Y-94738609D01*
X43669428Y-94738609D02*
X43593237Y-94814800D01*
X43593237Y-94814800D02*
X43517047Y-94852895D01*
X43517047Y-94852895D02*
X43364666Y-94852895D01*
X43364666Y-94852895D02*
X43288475Y-94814800D01*
X43288475Y-94814800D02*
X43212285Y-94738609D01*
X43212285Y-94738609D02*
X43174189Y-94586228D01*
X43174189Y-94586228D02*
X43174189Y-94319561D01*
X43174189Y-94319561D02*
X43212285Y-94167180D01*
X43212285Y-94167180D02*
X43288475Y-94090990D01*
X43288475Y-94090990D02*
X43364666Y-94052895D01*
X44431332Y-94852895D02*
X44050380Y-94852895D01*
X44050380Y-94852895D02*
X44050380Y-94052895D01*
X44583713Y-94052895D02*
X45040856Y-94052895D01*
X44812284Y-94852895D02*
X44812284Y-94052895D01*
X45269427Y-94624323D02*
X45650380Y-94624323D01*
X45193237Y-94852895D02*
X45459904Y-94052895D01*
X45459904Y-94052895D02*
X45726570Y-94852895D01*
X46412284Y-94090990D02*
X46336094Y-94052895D01*
X46336094Y-94052895D02*
X46221808Y-94052895D01*
X46221808Y-94052895D02*
X46107522Y-94090990D01*
X46107522Y-94090990D02*
X46031332Y-94167180D01*
X46031332Y-94167180D02*
X45993237Y-94243371D01*
X45993237Y-94243371D02*
X45955141Y-94395752D01*
X45955141Y-94395752D02*
X45955141Y-94510038D01*
X45955141Y-94510038D02*
X45993237Y-94662419D01*
X45993237Y-94662419D02*
X46031332Y-94738609D01*
X46031332Y-94738609D02*
X46107522Y-94814800D01*
X46107522Y-94814800D02*
X46221808Y-94852895D01*
X46221808Y-94852895D02*
X46297999Y-94852895D01*
X46297999Y-94852895D02*
X46412284Y-94814800D01*
X46412284Y-94814800D02*
X46450380Y-94776704D01*
X46450380Y-94776704D02*
X46450380Y-94510038D01*
X46450380Y-94510038D02*
X46297999Y-94510038D01*
X46793237Y-94433847D02*
X47059903Y-94433847D01*
X47174189Y-94852895D02*
X46793237Y-94852895D01*
X46793237Y-94852895D02*
X46793237Y-94052895D01*
X46793237Y-94052895D02*
X47174189Y-94052895D01*
X48088475Y-94814800D02*
X48202761Y-94852895D01*
X48202761Y-94852895D02*
X48393237Y-94852895D01*
X48393237Y-94852895D02*
X48469428Y-94814800D01*
X48469428Y-94814800D02*
X48507523Y-94776704D01*
X48507523Y-94776704D02*
X48545618Y-94700514D01*
X48545618Y-94700514D02*
X48545618Y-94624323D01*
X48545618Y-94624323D02*
X48507523Y-94548133D01*
X48507523Y-94548133D02*
X48469428Y-94510038D01*
X48469428Y-94510038D02*
X48393237Y-94471942D01*
X48393237Y-94471942D02*
X48240856Y-94433847D01*
X48240856Y-94433847D02*
X48164666Y-94395752D01*
X48164666Y-94395752D02*
X48126571Y-94357657D01*
X48126571Y-94357657D02*
X48088475Y-94281466D01*
X48088475Y-94281466D02*
X48088475Y-94205276D01*
X48088475Y-94205276D02*
X48126571Y-94129085D01*
X48126571Y-94129085D02*
X48164666Y-94090990D01*
X48164666Y-94090990D02*
X48240856Y-94052895D01*
X48240856Y-94052895D02*
X48431333Y-94052895D01*
X48431333Y-94052895D02*
X48545618Y-94090990D01*
X48888476Y-94433847D02*
X49155142Y-94433847D01*
X49269428Y-94852895D02*
X48888476Y-94852895D01*
X48888476Y-94852895D02*
X48888476Y-94052895D01*
X48888476Y-94052895D02*
X49269428Y-94052895D01*
X49612286Y-94852895D02*
X49612286Y-94052895D01*
X49612286Y-94052895D02*
X50069429Y-94852895D01*
X50069429Y-94852895D02*
X50069429Y-94052895D01*
X50412285Y-94814800D02*
X50526571Y-94852895D01*
X50526571Y-94852895D02*
X50717047Y-94852895D01*
X50717047Y-94852895D02*
X50793238Y-94814800D01*
X50793238Y-94814800D02*
X50831333Y-94776704D01*
X50831333Y-94776704D02*
X50869428Y-94700514D01*
X50869428Y-94700514D02*
X50869428Y-94624323D01*
X50869428Y-94624323D02*
X50831333Y-94548133D01*
X50831333Y-94548133D02*
X50793238Y-94510038D01*
X50793238Y-94510038D02*
X50717047Y-94471942D01*
X50717047Y-94471942D02*
X50564666Y-94433847D01*
X50564666Y-94433847D02*
X50488476Y-94395752D01*
X50488476Y-94395752D02*
X50450381Y-94357657D01*
X50450381Y-94357657D02*
X50412285Y-94281466D01*
X50412285Y-94281466D02*
X50412285Y-94205276D01*
X50412285Y-94205276D02*
X50450381Y-94129085D01*
X50450381Y-94129085D02*
X50488476Y-94090990D01*
X50488476Y-94090990D02*
X50564666Y-94052895D01*
X50564666Y-94052895D02*
X50755143Y-94052895D01*
X50755143Y-94052895D02*
X50869428Y-94090990D01*
X51364667Y-94052895D02*
X51517048Y-94052895D01*
X51517048Y-94052895D02*
X51593238Y-94090990D01*
X51593238Y-94090990D02*
X51669429Y-94167180D01*
X51669429Y-94167180D02*
X51707524Y-94319561D01*
X51707524Y-94319561D02*
X51707524Y-94586228D01*
X51707524Y-94586228D02*
X51669429Y-94738609D01*
X51669429Y-94738609D02*
X51593238Y-94814800D01*
X51593238Y-94814800D02*
X51517048Y-94852895D01*
X51517048Y-94852895D02*
X51364667Y-94852895D01*
X51364667Y-94852895D02*
X51288476Y-94814800D01*
X51288476Y-94814800D02*
X51212286Y-94738609D01*
X51212286Y-94738609D02*
X51174190Y-94586228D01*
X51174190Y-94586228D02*
X51174190Y-94319561D01*
X51174190Y-94319561D02*
X51212286Y-94167180D01*
X51212286Y-94167180D02*
X51288476Y-94090990D01*
X51288476Y-94090990D02*
X51364667Y-94052895D01*
X52507524Y-94852895D02*
X52240857Y-94471942D01*
X52050381Y-94852895D02*
X52050381Y-94052895D01*
X52050381Y-94052895D02*
X52355143Y-94052895D01*
X52355143Y-94052895D02*
X52431333Y-94090990D01*
X52431333Y-94090990D02*
X52469428Y-94129085D01*
X52469428Y-94129085D02*
X52507524Y-94205276D01*
X52507524Y-94205276D02*
X52507524Y-94319561D01*
X52507524Y-94319561D02*
X52469428Y-94395752D01*
X52469428Y-94395752D02*
X52431333Y-94433847D01*
X52431333Y-94433847D02*
X52355143Y-94471942D01*
X52355143Y-94471942D02*
X52050381Y-94471942D01*
X48463238Y-95564133D02*
X49072762Y-95564133D01*
X48928571Y-5952895D02*
X48661904Y-5571942D01*
X48471428Y-5952895D02*
X48471428Y-5152895D01*
X48471428Y-5152895D02*
X48776190Y-5152895D01*
X48776190Y-5152895D02*
X48852380Y-5190990D01*
X48852380Y-5190990D02*
X48890475Y-5229085D01*
X48890475Y-5229085D02*
X48928571Y-5305276D01*
X48928571Y-5305276D02*
X48928571Y-5419561D01*
X48928571Y-5419561D02*
X48890475Y-5495752D01*
X48890475Y-5495752D02*
X48852380Y-5533847D01*
X48852380Y-5533847D02*
X48776190Y-5571942D01*
X48776190Y-5571942D02*
X48471428Y-5571942D01*
X49271428Y-5533847D02*
X49538094Y-5533847D01*
X49652380Y-5952895D02*
X49271428Y-5952895D01*
X49271428Y-5952895D02*
X49271428Y-5152895D01*
X49271428Y-5152895D02*
X49652380Y-5152895D01*
X50452381Y-5876704D02*
X50414285Y-5914800D01*
X50414285Y-5914800D02*
X50300000Y-5952895D01*
X50300000Y-5952895D02*
X50223809Y-5952895D01*
X50223809Y-5952895D02*
X50109523Y-5914800D01*
X50109523Y-5914800D02*
X50033333Y-5838609D01*
X50033333Y-5838609D02*
X49995238Y-5762419D01*
X49995238Y-5762419D02*
X49957142Y-5610038D01*
X49957142Y-5610038D02*
X49957142Y-5495752D01*
X49957142Y-5495752D02*
X49995238Y-5343371D01*
X49995238Y-5343371D02*
X50033333Y-5267180D01*
X50033333Y-5267180D02*
X50109523Y-5190990D01*
X50109523Y-5190990D02*
X50223809Y-5152895D01*
X50223809Y-5152895D02*
X50300000Y-5152895D01*
X50300000Y-5152895D02*
X50414285Y-5190990D01*
X50414285Y-5190990D02*
X50452381Y-5229085D01*
X50795238Y-5533847D02*
X51061904Y-5533847D01*
X51176190Y-5952895D02*
X50795238Y-5952895D01*
X50795238Y-5952895D02*
X50795238Y-5152895D01*
X50795238Y-5152895D02*
X51176190Y-5152895D01*
X51519048Y-5952895D02*
X51519048Y-5152895D01*
X51785714Y-5152895D02*
X52052381Y-5952895D01*
X52052381Y-5952895D02*
X52319047Y-5152895D01*
X52585714Y-5533847D02*
X52852380Y-5533847D01*
X52966666Y-5952895D02*
X52585714Y-5952895D01*
X52585714Y-5952895D02*
X52585714Y-5152895D01*
X52585714Y-5152895D02*
X52966666Y-5152895D01*
X53766667Y-5952895D02*
X53500000Y-5571942D01*
X53309524Y-5952895D02*
X53309524Y-5152895D01*
X53309524Y-5152895D02*
X53614286Y-5152895D01*
X53614286Y-5152895D02*
X53690476Y-5190990D01*
X53690476Y-5190990D02*
X53728571Y-5229085D01*
X53728571Y-5229085D02*
X53766667Y-5305276D01*
X53766667Y-5305276D02*
X53766667Y-5419561D01*
X53766667Y-5419561D02*
X53728571Y-5495752D01*
X53728571Y-5495752D02*
X53690476Y-5533847D01*
X53690476Y-5533847D02*
X53614286Y-5571942D01*
X53614286Y-5571942D02*
X53309524Y-5571942D01*
X56083238Y-23936133D02*
X56692762Y-23936133D01*
X56388000Y-24240895D02*
X56388000Y-23631371D01*
X56083238Y-26476133D02*
X56692762Y-26476133D01*
X55103847Y-28191734D02*
X55103847Y-27925068D01*
X55522895Y-27810782D02*
X55522895Y-28191734D01*
X55522895Y-28191734D02*
X54722895Y-28191734D01*
X54722895Y-28191734D02*
X54722895Y-27810782D01*
X54722895Y-27544115D02*
X55522895Y-27010781D01*
X54722895Y-27010781D02*
X55522895Y-27544115D01*
X54722895Y-26820305D02*
X54722895Y-26363162D01*
X55522895Y-26591734D02*
X54722895Y-26591734D01*
X55522895Y-25639352D02*
X55141942Y-25906019D01*
X55522895Y-26096495D02*
X54722895Y-26096495D01*
X54722895Y-26096495D02*
X54722895Y-25791733D01*
X54722895Y-25791733D02*
X54760990Y-25715543D01*
X54760990Y-25715543D02*
X54799085Y-25677448D01*
X54799085Y-25677448D02*
X54875276Y-25639352D01*
X54875276Y-25639352D02*
X54989561Y-25639352D01*
X54989561Y-25639352D02*
X55065752Y-25677448D01*
X55065752Y-25677448D02*
X55103847Y-25715543D01*
X55103847Y-25715543D02*
X55141942Y-25791733D01*
X55141942Y-25791733D02*
X55141942Y-26096495D01*
X55294323Y-25334591D02*
X55294323Y-24953638D01*
X55522895Y-25410781D02*
X54722895Y-25144114D01*
X54722895Y-25144114D02*
X55522895Y-24877448D01*
X55522895Y-23582210D02*
X55522895Y-24039353D01*
X55522895Y-23810781D02*
X54722895Y-23810781D01*
X54722895Y-23810781D02*
X54837180Y-23886972D01*
X54837180Y-23886972D02*
X54913371Y-23963162D01*
X54913371Y-23963162D02*
X54951466Y-24039353D01*
X54722895Y-22858400D02*
X54722895Y-23239352D01*
X54722895Y-23239352D02*
X55103847Y-23277448D01*
X55103847Y-23277448D02*
X55065752Y-23239352D01*
X55065752Y-23239352D02*
X55027657Y-23163162D01*
X55027657Y-23163162D02*
X55027657Y-22972686D01*
X55027657Y-22972686D02*
X55065752Y-22896495D01*
X55065752Y-22896495D02*
X55103847Y-22858400D01*
X55103847Y-22858400D02*
X55180038Y-22820305D01*
X55180038Y-22820305D02*
X55370514Y-22820305D01*
X55370514Y-22820305D02*
X55446704Y-22858400D01*
X55446704Y-22858400D02*
X55484800Y-22896495D01*
X55484800Y-22896495D02*
X55522895Y-22972686D01*
X55522895Y-22972686D02*
X55522895Y-23163162D01*
X55522895Y-23163162D02*
X55484800Y-23239352D01*
X55484800Y-23239352D02*
X55446704Y-23277448D01*
X54722895Y-22591733D02*
X55522895Y-22325066D01*
X55522895Y-22325066D02*
X54722895Y-22058400D01*
X5787847Y-28028571D02*
X5787847Y-27761905D01*
X6206895Y-27647619D02*
X6206895Y-28028571D01*
X6206895Y-28028571D02*
X5406895Y-28028571D01*
X5406895Y-28028571D02*
X5406895Y-27647619D01*
X5406895Y-27380952D02*
X6206895Y-26847618D01*
X5406895Y-26847618D02*
X6206895Y-27380952D01*
X5406895Y-26657142D02*
X5406895Y-26199999D01*
X6206895Y-26428571D02*
X5406895Y-26428571D01*
X6206895Y-25476189D02*
X5825942Y-25742856D01*
X6206895Y-25933332D02*
X5406895Y-25933332D01*
X5406895Y-25933332D02*
X5406895Y-25628570D01*
X5406895Y-25628570D02*
X5444990Y-25552380D01*
X5444990Y-25552380D02*
X5483085Y-25514285D01*
X5483085Y-25514285D02*
X5559276Y-25476189D01*
X5559276Y-25476189D02*
X5673561Y-25476189D01*
X5673561Y-25476189D02*
X5749752Y-25514285D01*
X5749752Y-25514285D02*
X5787847Y-25552380D01*
X5787847Y-25552380D02*
X5825942Y-25628570D01*
X5825942Y-25628570D02*
X5825942Y-25933332D01*
X5978323Y-25171428D02*
X5978323Y-24790475D01*
X6206895Y-25247618D02*
X5406895Y-24980951D01*
X5406895Y-24980951D02*
X6206895Y-24714285D01*
X5406895Y-23457142D02*
X5406895Y-23838094D01*
X5406895Y-23838094D02*
X5787847Y-23876190D01*
X5787847Y-23876190D02*
X5749752Y-23838094D01*
X5749752Y-23838094D02*
X5711657Y-23761904D01*
X5711657Y-23761904D02*
X5711657Y-23571428D01*
X5711657Y-23571428D02*
X5749752Y-23495237D01*
X5749752Y-23495237D02*
X5787847Y-23457142D01*
X5787847Y-23457142D02*
X5864038Y-23419047D01*
X5864038Y-23419047D02*
X6054514Y-23419047D01*
X6054514Y-23419047D02*
X6130704Y-23457142D01*
X6130704Y-23457142D02*
X6168800Y-23495237D01*
X6168800Y-23495237D02*
X6206895Y-23571428D01*
X6206895Y-23571428D02*
X6206895Y-23761904D01*
X6206895Y-23761904D02*
X6168800Y-23838094D01*
X6168800Y-23838094D02*
X6130704Y-23876190D01*
X5406895Y-23190475D02*
X6206895Y-22923808D01*
X6206895Y-22923808D02*
X5406895Y-22657142D01*
X55914704Y-61318380D02*
X55952800Y-61356476D01*
X55952800Y-61356476D02*
X55990895Y-61470761D01*
X55990895Y-61470761D02*
X55990895Y-61546952D01*
X55990895Y-61546952D02*
X55952800Y-61661238D01*
X55952800Y-61661238D02*
X55876609Y-61737428D01*
X55876609Y-61737428D02*
X55800419Y-61775523D01*
X55800419Y-61775523D02*
X55648038Y-61813619D01*
X55648038Y-61813619D02*
X55533752Y-61813619D01*
X55533752Y-61813619D02*
X55381371Y-61775523D01*
X55381371Y-61775523D02*
X55305180Y-61737428D01*
X55305180Y-61737428D02*
X55228990Y-61661238D01*
X55228990Y-61661238D02*
X55190895Y-61546952D01*
X55190895Y-61546952D02*
X55190895Y-61470761D01*
X55190895Y-61470761D02*
X55228990Y-61356476D01*
X55228990Y-61356476D02*
X55267085Y-61318380D01*
X55990895Y-60975523D02*
X55190895Y-60975523D01*
X55571847Y-60975523D02*
X55571847Y-60518380D01*
X55990895Y-60518380D02*
X55190895Y-60518380D01*
X55190895Y-59794571D02*
X55190895Y-59946952D01*
X55190895Y-59946952D02*
X55228990Y-60023143D01*
X55228990Y-60023143D02*
X55267085Y-60061238D01*
X55267085Y-60061238D02*
X55381371Y-60137428D01*
X55381371Y-60137428D02*
X55533752Y-60175524D01*
X55533752Y-60175524D02*
X55838514Y-60175524D01*
X55838514Y-60175524D02*
X55914704Y-60137428D01*
X55914704Y-60137428D02*
X55952800Y-60099333D01*
X55952800Y-60099333D02*
X55990895Y-60023143D01*
X55990895Y-60023143D02*
X55990895Y-59870762D01*
X55990895Y-59870762D02*
X55952800Y-59794571D01*
X55952800Y-59794571D02*
X55914704Y-59756476D01*
X55914704Y-59756476D02*
X55838514Y-59718381D01*
X55838514Y-59718381D02*
X55648038Y-59718381D01*
X55648038Y-59718381D02*
X55571847Y-59756476D01*
X55571847Y-59756476D02*
X55533752Y-59794571D01*
X55533752Y-59794571D02*
X55495657Y-59870762D01*
X55495657Y-59870762D02*
X55495657Y-60023143D01*
X55495657Y-60023143D02*
X55533752Y-60099333D01*
X55533752Y-60099333D02*
X55571847Y-60137428D01*
X55571847Y-60137428D02*
X55648038Y-60175524D01*
X55190895Y-63932666D02*
X55990895Y-63665999D01*
X55990895Y-63665999D02*
X55190895Y-63399333D01*
X55990895Y-63132666D02*
X55190895Y-63132666D01*
X55190895Y-63132666D02*
X55190895Y-62942190D01*
X55190895Y-62942190D02*
X55228990Y-62827904D01*
X55228990Y-62827904D02*
X55305180Y-62751714D01*
X55305180Y-62751714D02*
X55381371Y-62713619D01*
X55381371Y-62713619D02*
X55533752Y-62675523D01*
X55533752Y-62675523D02*
X55648038Y-62675523D01*
X55648038Y-62675523D02*
X55800419Y-62713619D01*
X55800419Y-62713619D02*
X55876609Y-62751714D01*
X55876609Y-62751714D02*
X55952800Y-62827904D01*
X55952800Y-62827904D02*
X55990895Y-62942190D01*
X55990895Y-62942190D02*
X55990895Y-63132666D01*
X55190895Y-65994571D02*
X55190895Y-65537428D01*
X55990895Y-65766000D02*
X55190895Y-65766000D01*
X55571847Y-68608857D02*
X55609942Y-68494571D01*
X55609942Y-68494571D02*
X55648038Y-68456476D01*
X55648038Y-68456476D02*
X55724228Y-68418380D01*
X55724228Y-68418380D02*
X55838514Y-68418380D01*
X55838514Y-68418380D02*
X55914704Y-68456476D01*
X55914704Y-68456476D02*
X55952800Y-68494571D01*
X55952800Y-68494571D02*
X55990895Y-68570761D01*
X55990895Y-68570761D02*
X55990895Y-68875523D01*
X55990895Y-68875523D02*
X55190895Y-68875523D01*
X55190895Y-68875523D02*
X55190895Y-68608857D01*
X55190895Y-68608857D02*
X55228990Y-68532666D01*
X55228990Y-68532666D02*
X55267085Y-68494571D01*
X55267085Y-68494571D02*
X55343276Y-68456476D01*
X55343276Y-68456476D02*
X55419466Y-68456476D01*
X55419466Y-68456476D02*
X55495657Y-68494571D01*
X55495657Y-68494571D02*
X55533752Y-68532666D01*
X55533752Y-68532666D02*
X55571847Y-68608857D01*
X55571847Y-68608857D02*
X55571847Y-68875523D01*
X55990895Y-67618380D02*
X55609942Y-67885047D01*
X55990895Y-68075523D02*
X55190895Y-68075523D01*
X55190895Y-68075523D02*
X55190895Y-67770761D01*
X55190895Y-67770761D02*
X55228990Y-67694571D01*
X55228990Y-67694571D02*
X55267085Y-67656476D01*
X55267085Y-67656476D02*
X55343276Y-67618380D01*
X55343276Y-67618380D02*
X55457561Y-67618380D01*
X55457561Y-67618380D02*
X55533752Y-67656476D01*
X55533752Y-67656476D02*
X55571847Y-67694571D01*
X55571847Y-67694571D02*
X55609942Y-67770761D01*
X55609942Y-67770761D02*
X55609942Y-68075523D01*
X55571847Y-71151714D02*
X55571847Y-71418380D01*
X55990895Y-71418380D02*
X55190895Y-71418380D01*
X55190895Y-71418380D02*
X55190895Y-71037428D01*
X55990895Y-70275523D02*
X55609942Y-70542190D01*
X55990895Y-70732666D02*
X55190895Y-70732666D01*
X55190895Y-70732666D02*
X55190895Y-70427904D01*
X55190895Y-70427904D02*
X55228990Y-70351714D01*
X55228990Y-70351714D02*
X55267085Y-70313619D01*
X55267085Y-70313619D02*
X55343276Y-70275523D01*
X55343276Y-70275523D02*
X55457561Y-70275523D01*
X55457561Y-70275523D02*
X55533752Y-70313619D01*
X55533752Y-70313619D02*
X55571847Y-70351714D01*
X55571847Y-70351714D02*
X55609942Y-70427904D01*
X55609942Y-70427904D02*
X55609942Y-70732666D01*
X55571847Y-73575523D02*
X55571847Y-73842189D01*
X55990895Y-73842189D02*
X55190895Y-73842189D01*
X55190895Y-73842189D02*
X55190895Y-73461237D01*
X55990895Y-72775523D02*
X55990895Y-73156475D01*
X55990895Y-73156475D02*
X55190895Y-73156475D01*
X55571847Y-76132666D02*
X55609942Y-76018380D01*
X55609942Y-76018380D02*
X55648038Y-75980285D01*
X55648038Y-75980285D02*
X55724228Y-75942189D01*
X55724228Y-75942189D02*
X55838514Y-75942189D01*
X55838514Y-75942189D02*
X55914704Y-75980285D01*
X55914704Y-75980285D02*
X55952800Y-76018380D01*
X55952800Y-76018380D02*
X55990895Y-76094570D01*
X55990895Y-76094570D02*
X55990895Y-76399332D01*
X55990895Y-76399332D02*
X55190895Y-76399332D01*
X55190895Y-76399332D02*
X55190895Y-76132666D01*
X55190895Y-76132666D02*
X55228990Y-76056475D01*
X55228990Y-76056475D02*
X55267085Y-76018380D01*
X55267085Y-76018380D02*
X55343276Y-75980285D01*
X55343276Y-75980285D02*
X55419466Y-75980285D01*
X55419466Y-75980285D02*
X55495657Y-76018380D01*
X55495657Y-76018380D02*
X55533752Y-76056475D01*
X55533752Y-76056475D02*
X55571847Y-76132666D01*
X55571847Y-76132666D02*
X55571847Y-76399332D01*
X55990895Y-75218380D02*
X55990895Y-75599332D01*
X55990895Y-75599332D02*
X55190895Y-75599332D01*
X48214000Y-3984895D02*
X48814000Y-4784895D01*
X48814000Y-3984895D02*
X48214000Y-4784895D01*
X50965142Y-4386300D02*
X51650857Y-4386300D01*
X51307999Y-4729157D02*
X51307999Y-4043442D01*
X53505142Y-4386300D02*
X54190857Y-4386300D01*
X55190895Y-79233332D02*
X55990895Y-78566666D01*
X55190895Y-78566666D02*
X55990895Y-79233332D01*
X7612095Y-20507609D02*
X7278762Y-20507609D01*
X7278762Y-21031419D02*
X7278762Y-20031419D01*
X7278762Y-20031419D02*
X7754952Y-20031419D01*
X8612095Y-21031419D02*
X8135905Y-21031419D01*
X8135905Y-21031419D02*
X8135905Y-20031419D01*
X7540666Y-29905609D02*
X7683523Y-29953228D01*
X7683523Y-29953228D02*
X7731142Y-30000847D01*
X7731142Y-30000847D02*
X7778761Y-30096085D01*
X7778761Y-30096085D02*
X7778761Y-30238942D01*
X7778761Y-30238942D02*
X7731142Y-30334180D01*
X7731142Y-30334180D02*
X7683523Y-30381800D01*
X7683523Y-30381800D02*
X7588285Y-30429419D01*
X7588285Y-30429419D02*
X7207333Y-30429419D01*
X7207333Y-30429419D02*
X7207333Y-29429419D01*
X7207333Y-29429419D02*
X7540666Y-29429419D01*
X7540666Y-29429419D02*
X7635904Y-29477038D01*
X7635904Y-29477038D02*
X7683523Y-29524657D01*
X7683523Y-29524657D02*
X7731142Y-29619895D01*
X7731142Y-29619895D02*
X7731142Y-29715133D01*
X7731142Y-29715133D02*
X7683523Y-29810371D01*
X7683523Y-29810371D02*
X7635904Y-29857990D01*
X7635904Y-29857990D02*
X7540666Y-29905609D01*
X7540666Y-29905609D02*
X7207333Y-29905609D01*
X8683523Y-30429419D02*
X8207333Y-30429419D01*
X8207333Y-30429419D02*
X8207333Y-29429419D01*
X7619048Y-71911466D02*
X8380953Y-71911466D01*
X8000000Y-72292419D02*
X8000000Y-71530514D01*
X7476191Y-79150419D02*
X7476191Y-78150419D01*
X7952381Y-79150419D02*
X7952381Y-78150419D01*
X7952381Y-78150419D02*
X8523809Y-79150419D01*
X8523809Y-79150419D02*
X8523809Y-78150419D01*
X7619048Y-85119466D02*
X8380953Y-85119466D01*
X7919048Y-46892466D02*
X8680953Y-46892466D01*
X8300000Y-47273419D02*
X8300000Y-46511514D01*
X7776191Y-54131419D02*
X7776191Y-53131419D01*
X8252381Y-54131419D02*
X8252381Y-53131419D01*
X8252381Y-53131419D02*
X8823809Y-54131419D01*
X8823809Y-54131419D02*
X8823809Y-53131419D01*
X7919048Y-60100466D02*
X8680953Y-60100466D01*
X26797048Y-93294466D02*
X27558953Y-93294466D01*
X27178000Y-93675419D02*
X27178000Y-92913514D01*
X25831790Y-53321800D02*
X25974647Y-53369419D01*
X25974647Y-53369419D02*
X26212742Y-53369419D01*
X26212742Y-53369419D02*
X26307980Y-53321800D01*
X26307980Y-53321800D02*
X26355599Y-53274180D01*
X26355599Y-53274180D02*
X26403218Y-53178942D01*
X26403218Y-53178942D02*
X26403218Y-53083704D01*
X26403218Y-53083704D02*
X26355599Y-52988466D01*
X26355599Y-52988466D02*
X26307980Y-52940847D01*
X26307980Y-52940847D02*
X26212742Y-52893228D01*
X26212742Y-52893228D02*
X26022266Y-52845609D01*
X26022266Y-52845609D02*
X25927028Y-52797990D01*
X25927028Y-52797990D02*
X25879409Y-52750371D01*
X25879409Y-52750371D02*
X25831790Y-52655133D01*
X25831790Y-52655133D02*
X25831790Y-52559895D01*
X25831790Y-52559895D02*
X25879409Y-52464657D01*
X25879409Y-52464657D02*
X25927028Y-52417038D01*
X25927028Y-52417038D02*
X26022266Y-52369419D01*
X26022266Y-52369419D02*
X26260361Y-52369419D01*
X26260361Y-52369419D02*
X26403218Y-52417038D01*
X26688933Y-52369419D02*
X27260361Y-52369419D01*
X26974647Y-53369419D02*
X26974647Y-52369419D01*
X27593695Y-52845609D02*
X27927028Y-52845609D01*
X28069885Y-53369419D02*
X27593695Y-53369419D01*
X27593695Y-53369419D02*
X27593695Y-52369419D01*
X27593695Y-52369419D02*
X28069885Y-52369419D01*
X28498457Y-53369419D02*
X28498457Y-52369419D01*
X28498457Y-52369419D02*
X28879409Y-52369419D01*
X28879409Y-52369419D02*
X28974647Y-52417038D01*
X28974647Y-52417038D02*
X29022266Y-52464657D01*
X29022266Y-52464657D02*
X29069885Y-52559895D01*
X29069885Y-52559895D02*
X29069885Y-52702752D01*
X29069885Y-52702752D02*
X29022266Y-52797990D01*
X29022266Y-52797990D02*
X28974647Y-52845609D01*
X28974647Y-52845609D02*
X28879409Y-52893228D01*
X28879409Y-52893228D02*
X28498457Y-52893228D01*
X29498457Y-53369419D02*
X29498457Y-52369419D01*
X29498457Y-52369419D02*
X29736552Y-52369419D01*
X29736552Y-52369419D02*
X29879409Y-52417038D01*
X29879409Y-52417038D02*
X29974647Y-52512276D01*
X29974647Y-52512276D02*
X30022266Y-52607514D01*
X30022266Y-52607514D02*
X30069885Y-52797990D01*
X30069885Y-52797990D02*
X30069885Y-52940847D01*
X30069885Y-52940847D02*
X30022266Y-53131323D01*
X30022266Y-53131323D02*
X29974647Y-53226561D01*
X29974647Y-53226561D02*
X29879409Y-53321800D01*
X29879409Y-53321800D02*
X29736552Y-53369419D01*
X29736552Y-53369419D02*
X29498457Y-53369419D01*
X30688933Y-52369419D02*
X30879409Y-52369419D01*
X30879409Y-52369419D02*
X30974647Y-52417038D01*
X30974647Y-52417038D02*
X31069885Y-52512276D01*
X31069885Y-52512276D02*
X31117504Y-52702752D01*
X31117504Y-52702752D02*
X31117504Y-53036085D01*
X31117504Y-53036085D02*
X31069885Y-53226561D01*
X31069885Y-53226561D02*
X30974647Y-53321800D01*
X30974647Y-53321800D02*
X30879409Y-53369419D01*
X30879409Y-53369419D02*
X30688933Y-53369419D01*
X30688933Y-53369419D02*
X30593695Y-53321800D01*
X30593695Y-53321800D02*
X30498457Y-53226561D01*
X30498457Y-53226561D02*
X30450838Y-53036085D01*
X30450838Y-53036085D02*
X30450838Y-52702752D01*
X30450838Y-52702752D02*
X30498457Y-52512276D01*
X30498457Y-52512276D02*
X30593695Y-52417038D01*
X30593695Y-52417038D02*
X30688933Y-52369419D01*
X31450838Y-52369419D02*
X31688933Y-53369419D01*
X31688933Y-53369419D02*
X31879409Y-52655133D01*
X31879409Y-52655133D02*
X32069885Y-53369419D01*
X32069885Y-53369419D02*
X32307981Y-52369419D01*
X32688933Y-53369419D02*
X32688933Y-52369419D01*
X32688933Y-52369419D02*
X33260361Y-53369419D01*
X33260361Y-53369419D02*
X33260361Y-52369419D01*
X34974647Y-52369419D02*
X34498457Y-52369419D01*
X34498457Y-52369419D02*
X34450838Y-52845609D01*
X34450838Y-52845609D02*
X34498457Y-52797990D01*
X34498457Y-52797990D02*
X34593695Y-52750371D01*
X34593695Y-52750371D02*
X34831790Y-52750371D01*
X34831790Y-52750371D02*
X34927028Y-52797990D01*
X34927028Y-52797990D02*
X34974647Y-52845609D01*
X34974647Y-52845609D02*
X35022266Y-52940847D01*
X35022266Y-52940847D02*
X35022266Y-53178942D01*
X35022266Y-53178942D02*
X34974647Y-53274180D01*
X34974647Y-53274180D02*
X34927028Y-53321800D01*
X34927028Y-53321800D02*
X34831790Y-53369419D01*
X34831790Y-53369419D02*
X34593695Y-53369419D01*
X34593695Y-53369419D02*
X34498457Y-53321800D01*
X34498457Y-53321800D02*
X34450838Y-53274180D01*
X35307981Y-52369419D02*
X35641314Y-53369419D01*
X35641314Y-53369419D02*
X35974647Y-52369419D01*
X25193705Y-78664800D02*
X25336562Y-78712419D01*
X25336562Y-78712419D02*
X25574657Y-78712419D01*
X25574657Y-78712419D02*
X25669895Y-78664800D01*
X25669895Y-78664800D02*
X25717514Y-78617180D01*
X25717514Y-78617180D02*
X25765133Y-78521942D01*
X25765133Y-78521942D02*
X25765133Y-78426704D01*
X25765133Y-78426704D02*
X25717514Y-78331466D01*
X25717514Y-78331466D02*
X25669895Y-78283847D01*
X25669895Y-78283847D02*
X25574657Y-78236228D01*
X25574657Y-78236228D02*
X25384181Y-78188609D01*
X25384181Y-78188609D02*
X25288943Y-78140990D01*
X25288943Y-78140990D02*
X25241324Y-78093371D01*
X25241324Y-78093371D02*
X25193705Y-77998133D01*
X25193705Y-77998133D02*
X25193705Y-77902895D01*
X25193705Y-77902895D02*
X25241324Y-77807657D01*
X25241324Y-77807657D02*
X25288943Y-77760038D01*
X25288943Y-77760038D02*
X25384181Y-77712419D01*
X25384181Y-77712419D02*
X25622276Y-77712419D01*
X25622276Y-77712419D02*
X25765133Y-77760038D01*
X26050848Y-77712419D02*
X26622276Y-77712419D01*
X26336562Y-78712419D02*
X26336562Y-77712419D01*
X26955610Y-78188609D02*
X27288943Y-78188609D01*
X27431800Y-78712419D02*
X26955610Y-78712419D01*
X26955610Y-78712419D02*
X26955610Y-77712419D01*
X26955610Y-77712419D02*
X27431800Y-77712419D01*
X27860372Y-78712419D02*
X27860372Y-77712419D01*
X27860372Y-77712419D02*
X28241324Y-77712419D01*
X28241324Y-77712419D02*
X28336562Y-77760038D01*
X28336562Y-77760038D02*
X28384181Y-77807657D01*
X28384181Y-77807657D02*
X28431800Y-77902895D01*
X28431800Y-77902895D02*
X28431800Y-78045752D01*
X28431800Y-78045752D02*
X28384181Y-78140990D01*
X28384181Y-78140990D02*
X28336562Y-78188609D01*
X28336562Y-78188609D02*
X28241324Y-78236228D01*
X28241324Y-78236228D02*
X27860372Y-78236228D01*
X28860372Y-78712419D02*
X28860372Y-77712419D01*
X28860372Y-77712419D02*
X29098467Y-77712419D01*
X29098467Y-77712419D02*
X29241324Y-77760038D01*
X29241324Y-77760038D02*
X29336562Y-77855276D01*
X29336562Y-77855276D02*
X29384181Y-77950514D01*
X29384181Y-77950514D02*
X29431800Y-78140990D01*
X29431800Y-78140990D02*
X29431800Y-78283847D01*
X29431800Y-78283847D02*
X29384181Y-78474323D01*
X29384181Y-78474323D02*
X29336562Y-78569561D01*
X29336562Y-78569561D02*
X29241324Y-78664800D01*
X29241324Y-78664800D02*
X29098467Y-78712419D01*
X29098467Y-78712419D02*
X28860372Y-78712419D01*
X30050848Y-77712419D02*
X30241324Y-77712419D01*
X30241324Y-77712419D02*
X30336562Y-77760038D01*
X30336562Y-77760038D02*
X30431800Y-77855276D01*
X30431800Y-77855276D02*
X30479419Y-78045752D01*
X30479419Y-78045752D02*
X30479419Y-78379085D01*
X30479419Y-78379085D02*
X30431800Y-78569561D01*
X30431800Y-78569561D02*
X30336562Y-78664800D01*
X30336562Y-78664800D02*
X30241324Y-78712419D01*
X30241324Y-78712419D02*
X30050848Y-78712419D01*
X30050848Y-78712419D02*
X29955610Y-78664800D01*
X29955610Y-78664800D02*
X29860372Y-78569561D01*
X29860372Y-78569561D02*
X29812753Y-78379085D01*
X29812753Y-78379085D02*
X29812753Y-78045752D01*
X29812753Y-78045752D02*
X29860372Y-77855276D01*
X29860372Y-77855276D02*
X29955610Y-77760038D01*
X29955610Y-77760038D02*
X30050848Y-77712419D01*
X30812753Y-77712419D02*
X31050848Y-78712419D01*
X31050848Y-78712419D02*
X31241324Y-77998133D01*
X31241324Y-77998133D02*
X31431800Y-78712419D01*
X31431800Y-78712419D02*
X31669896Y-77712419D01*
X32050848Y-78712419D02*
X32050848Y-77712419D01*
X32050848Y-77712419D02*
X32622276Y-78712419D01*
X32622276Y-78712419D02*
X32622276Y-77712419D01*
X33765134Y-77712419D02*
X34384181Y-77712419D01*
X34384181Y-77712419D02*
X34050848Y-78093371D01*
X34050848Y-78093371D02*
X34193705Y-78093371D01*
X34193705Y-78093371D02*
X34288943Y-78140990D01*
X34288943Y-78140990D02*
X34336562Y-78188609D01*
X34336562Y-78188609D02*
X34384181Y-78283847D01*
X34384181Y-78283847D02*
X34384181Y-78521942D01*
X34384181Y-78521942D02*
X34336562Y-78617180D01*
X34336562Y-78617180D02*
X34288943Y-78664800D01*
X34288943Y-78664800D02*
X34193705Y-78712419D01*
X34193705Y-78712419D02*
X33907991Y-78712419D01*
X33907991Y-78712419D02*
X33812753Y-78664800D01*
X33812753Y-78664800D02*
X33765134Y-78617180D01*
X34812753Y-78617180D02*
X34860372Y-78664800D01*
X34860372Y-78664800D02*
X34812753Y-78712419D01*
X34812753Y-78712419D02*
X34765134Y-78664800D01*
X34765134Y-78664800D02*
X34812753Y-78617180D01*
X34812753Y-78617180D02*
X34812753Y-78712419D01*
X35193705Y-77712419D02*
X35812752Y-77712419D01*
X35812752Y-77712419D02*
X35479419Y-78093371D01*
X35479419Y-78093371D02*
X35622276Y-78093371D01*
X35622276Y-78093371D02*
X35717514Y-78140990D01*
X35717514Y-78140990D02*
X35765133Y-78188609D01*
X35765133Y-78188609D02*
X35812752Y-78283847D01*
X35812752Y-78283847D02*
X35812752Y-78521942D01*
X35812752Y-78521942D02*
X35765133Y-78617180D01*
X35765133Y-78617180D02*
X35717514Y-78664800D01*
X35717514Y-78664800D02*
X35622276Y-78712419D01*
X35622276Y-78712419D02*
X35336562Y-78712419D01*
X35336562Y-78712419D02*
X35241324Y-78664800D01*
X35241324Y-78664800D02*
X35193705Y-78617180D01*
X36098467Y-77712419D02*
X36431800Y-78712419D01*
X36431800Y-78712419D02*
X36765133Y-77712419D01*
X35687048Y-93294466D02*
X36448953Y-93294466D01*
X50119048Y-71911466D02*
X50880953Y-71911466D01*
X50500000Y-72292419D02*
X50500000Y-71530514D01*
X49500000Y-78404419D02*
X49690476Y-78404419D01*
X49690476Y-78404419D02*
X49785714Y-78452038D01*
X49785714Y-78452038D02*
X49880952Y-78547276D01*
X49880952Y-78547276D02*
X49928571Y-78737752D01*
X49928571Y-78737752D02*
X49928571Y-79071085D01*
X49928571Y-79071085D02*
X49880952Y-79261561D01*
X49880952Y-79261561D02*
X49785714Y-79356800D01*
X49785714Y-79356800D02*
X49690476Y-79404419D01*
X49690476Y-79404419D02*
X49500000Y-79404419D01*
X49500000Y-79404419D02*
X49404762Y-79356800D01*
X49404762Y-79356800D02*
X49309524Y-79261561D01*
X49309524Y-79261561D02*
X49261905Y-79071085D01*
X49261905Y-79071085D02*
X49261905Y-78737752D01*
X49261905Y-78737752D02*
X49309524Y-78547276D01*
X49309524Y-78547276D02*
X49404762Y-78452038D01*
X49404762Y-78452038D02*
X49500000Y-78404419D01*
X50357143Y-78404419D02*
X50357143Y-79213942D01*
X50357143Y-79213942D02*
X50404762Y-79309180D01*
X50404762Y-79309180D02*
X50452381Y-79356800D01*
X50452381Y-79356800D02*
X50547619Y-79404419D01*
X50547619Y-79404419D02*
X50738095Y-79404419D01*
X50738095Y-79404419D02*
X50833333Y-79356800D01*
X50833333Y-79356800D02*
X50880952Y-79309180D01*
X50880952Y-79309180D02*
X50928571Y-79213942D01*
X50928571Y-79213942D02*
X50928571Y-78404419D01*
X51261905Y-78404419D02*
X51833333Y-78404419D01*
X51547619Y-79404419D02*
X51547619Y-78404419D01*
X50119048Y-85119466D02*
X50880953Y-85119466D01*
X50319048Y-46892466D02*
X51080953Y-46892466D01*
X50700000Y-47273419D02*
X50700000Y-46511514D01*
X49700000Y-52623419D02*
X49890476Y-52623419D01*
X49890476Y-52623419D02*
X49985714Y-52671038D01*
X49985714Y-52671038D02*
X50080952Y-52766276D01*
X50080952Y-52766276D02*
X50128571Y-52956752D01*
X50128571Y-52956752D02*
X50128571Y-53290085D01*
X50128571Y-53290085D02*
X50080952Y-53480561D01*
X50080952Y-53480561D02*
X49985714Y-53575800D01*
X49985714Y-53575800D02*
X49890476Y-53623419D01*
X49890476Y-53623419D02*
X49700000Y-53623419D01*
X49700000Y-53623419D02*
X49604762Y-53575800D01*
X49604762Y-53575800D02*
X49509524Y-53480561D01*
X49509524Y-53480561D02*
X49461905Y-53290085D01*
X49461905Y-53290085D02*
X49461905Y-52956752D01*
X49461905Y-52956752D02*
X49509524Y-52766276D01*
X49509524Y-52766276D02*
X49604762Y-52671038D01*
X49604762Y-52671038D02*
X49700000Y-52623419D01*
X50557143Y-52623419D02*
X50557143Y-53432942D01*
X50557143Y-53432942D02*
X50604762Y-53528180D01*
X50604762Y-53528180D02*
X50652381Y-53575800D01*
X50652381Y-53575800D02*
X50747619Y-53623419D01*
X50747619Y-53623419D02*
X50938095Y-53623419D01*
X50938095Y-53623419D02*
X51033333Y-53575800D01*
X51033333Y-53575800D02*
X51080952Y-53528180D01*
X51080952Y-53528180D02*
X51128571Y-53432942D01*
X51128571Y-53432942D02*
X51128571Y-52623419D01*
X51461905Y-52623419D02*
X52033333Y-52623419D01*
X51747619Y-53623419D02*
X51747619Y-52623419D01*
X50319048Y-60100466D02*
X51080953Y-60100466D01*
X52982857Y-20507609D02*
X52649524Y-20507609D01*
X52649524Y-21031419D02*
X52649524Y-20031419D01*
X52649524Y-20031419D02*
X53125714Y-20031419D01*
X54078095Y-21031419D02*
X53744762Y-20555228D01*
X53506667Y-21031419D02*
X53506667Y-20031419D01*
X53506667Y-20031419D02*
X53887619Y-20031419D01*
X53887619Y-20031419D02*
X53982857Y-20079038D01*
X53982857Y-20079038D02*
X54030476Y-20126657D01*
X54030476Y-20126657D02*
X54078095Y-20221895D01*
X54078095Y-20221895D02*
X54078095Y-20364752D01*
X54078095Y-20364752D02*
X54030476Y-20459990D01*
X54030476Y-20459990D02*
X53982857Y-20507609D01*
X53982857Y-20507609D02*
X53887619Y-20555228D01*
X53887619Y-20555228D02*
X53506667Y-20555228D01*
X52911428Y-29905609D02*
X53054285Y-29953228D01*
X53054285Y-29953228D02*
X53101904Y-30000847D01*
X53101904Y-30000847D02*
X53149523Y-30096085D01*
X53149523Y-30096085D02*
X53149523Y-30238942D01*
X53149523Y-30238942D02*
X53101904Y-30334180D01*
X53101904Y-30334180D02*
X53054285Y-30381800D01*
X53054285Y-30381800D02*
X52959047Y-30429419D01*
X52959047Y-30429419D02*
X52578095Y-30429419D01*
X52578095Y-30429419D02*
X52578095Y-29429419D01*
X52578095Y-29429419D02*
X52911428Y-29429419D01*
X52911428Y-29429419D02*
X53006666Y-29477038D01*
X53006666Y-29477038D02*
X53054285Y-29524657D01*
X53054285Y-29524657D02*
X53101904Y-29619895D01*
X53101904Y-29619895D02*
X53101904Y-29715133D01*
X53101904Y-29715133D02*
X53054285Y-29810371D01*
X53054285Y-29810371D02*
X53006666Y-29857990D01*
X53006666Y-29857990D02*
X52911428Y-29905609D01*
X52911428Y-29905609D02*
X52578095Y-29905609D01*
X54149523Y-30429419D02*
X53816190Y-29953228D01*
X53578095Y-30429419D02*
X53578095Y-29429419D01*
X53578095Y-29429419D02*
X53959047Y-29429419D01*
X53959047Y-29429419D02*
X54054285Y-29477038D01*
X54054285Y-29477038D02*
X54101904Y-29524657D01*
X54101904Y-29524657D02*
X54149523Y-29619895D01*
X54149523Y-29619895D02*
X54149523Y-29762752D01*
X54149523Y-29762752D02*
X54101904Y-29857990D01*
X54101904Y-29857990D02*
X54054285Y-29905609D01*
X54054285Y-29905609D02*
X53959047Y-29953228D01*
X53959047Y-29953228D02*
X53578095Y-29953228D01*
X54757419Y-73719428D02*
X53757419Y-73719428D01*
X53757419Y-73719428D02*
X53757419Y-73481333D01*
X53757419Y-73481333D02*
X53805038Y-73338476D01*
X53805038Y-73338476D02*
X53900276Y-73243238D01*
X53900276Y-73243238D02*
X53995514Y-73195619D01*
X53995514Y-73195619D02*
X54185990Y-73148000D01*
X54185990Y-73148000D02*
X54328847Y-73148000D01*
X54328847Y-73148000D02*
X54519323Y-73195619D01*
X54519323Y-73195619D02*
X54614561Y-73243238D01*
X54614561Y-73243238D02*
X54709800Y-73338476D01*
X54709800Y-73338476D02*
X54757419Y-73481333D01*
X54757419Y-73481333D02*
X54757419Y-73719428D01*
X54471704Y-72767047D02*
X54471704Y-72290857D01*
X54757419Y-72862285D02*
X53757419Y-72528952D01*
X53757419Y-72528952D02*
X54757419Y-72195619D01*
X53757419Y-72005142D02*
X53757419Y-71433714D01*
X54757419Y-71719428D02*
X53757419Y-71719428D01*
X54471704Y-71147999D02*
X54471704Y-70671809D01*
X54757419Y-71243237D02*
X53757419Y-70909904D01*
X53757419Y-70909904D02*
X54757419Y-70576571D01*
X54233609Y-69147999D02*
X54281228Y-69005142D01*
X54281228Y-69005142D02*
X54328847Y-68957523D01*
X54328847Y-68957523D02*
X54424085Y-68909904D01*
X54424085Y-68909904D02*
X54566942Y-68909904D01*
X54566942Y-68909904D02*
X54662180Y-68957523D01*
X54662180Y-68957523D02*
X54709800Y-69005142D01*
X54709800Y-69005142D02*
X54757419Y-69100380D01*
X54757419Y-69100380D02*
X54757419Y-69481332D01*
X54757419Y-69481332D02*
X53757419Y-69481332D01*
X53757419Y-69481332D02*
X53757419Y-69147999D01*
X53757419Y-69147999D02*
X53805038Y-69052761D01*
X53805038Y-69052761D02*
X53852657Y-69005142D01*
X53852657Y-69005142D02*
X53947895Y-68957523D01*
X53947895Y-68957523D02*
X54043133Y-68957523D01*
X54043133Y-68957523D02*
X54138371Y-69005142D01*
X54138371Y-69005142D02*
X54185990Y-69052761D01*
X54185990Y-69052761D02*
X54233609Y-69147999D01*
X54233609Y-69147999D02*
X54233609Y-69481332D01*
X54757419Y-67909904D02*
X54281228Y-68243237D01*
X54757419Y-68481332D02*
X53757419Y-68481332D01*
X53757419Y-68481332D02*
X53757419Y-68100380D01*
X53757419Y-68100380D02*
X53805038Y-68005142D01*
X53805038Y-68005142D02*
X53852657Y-67957523D01*
X53852657Y-67957523D02*
X53947895Y-67909904D01*
X53947895Y-67909904D02*
X54090752Y-67909904D01*
X54090752Y-67909904D02*
X54185990Y-67957523D01*
X54185990Y-67957523D02*
X54233609Y-68005142D01*
X54233609Y-68005142D02*
X54281228Y-68100380D01*
X54281228Y-68100380D02*
X54281228Y-68481332D01*
X54757419Y-67481332D02*
X53757419Y-67481332D01*
X54757419Y-67005142D02*
X53757419Y-67005142D01*
X53757419Y-67005142D02*
X53757419Y-66767047D01*
X53757419Y-66767047D02*
X53805038Y-66624190D01*
X53805038Y-66624190D02*
X53900276Y-66528952D01*
X53900276Y-66528952D02*
X53995514Y-66481333D01*
X53995514Y-66481333D02*
X54185990Y-66433714D01*
X54185990Y-66433714D02*
X54328847Y-66433714D01*
X54328847Y-66433714D02*
X54519323Y-66481333D01*
X54519323Y-66481333D02*
X54614561Y-66528952D01*
X54614561Y-66528952D02*
X54709800Y-66624190D01*
X54709800Y-66624190D02*
X54757419Y-66767047D01*
X54757419Y-66767047D02*
X54757419Y-67005142D01*
X53805038Y-65481333D02*
X53757419Y-65576571D01*
X53757419Y-65576571D02*
X53757419Y-65719428D01*
X53757419Y-65719428D02*
X53805038Y-65862285D01*
X53805038Y-65862285D02*
X53900276Y-65957523D01*
X53900276Y-65957523D02*
X53995514Y-66005142D01*
X53995514Y-66005142D02*
X54185990Y-66052761D01*
X54185990Y-66052761D02*
X54328847Y-66052761D01*
X54328847Y-66052761D02*
X54519323Y-66005142D01*
X54519323Y-66005142D02*
X54614561Y-65957523D01*
X54614561Y-65957523D02*
X54709800Y-65862285D01*
X54709800Y-65862285D02*
X54757419Y-65719428D01*
X54757419Y-65719428D02*
X54757419Y-65624190D01*
X54757419Y-65624190D02*
X54709800Y-65481333D01*
X54709800Y-65481333D02*
X54662180Y-65433714D01*
X54662180Y-65433714D02*
X54328847Y-65433714D01*
X54328847Y-65433714D02*
X54328847Y-65624190D01*
X54233609Y-65005142D02*
X54233609Y-64671809D01*
X54757419Y-64528952D02*
X54757419Y-65005142D01*
X54757419Y-65005142D02*
X53757419Y-65005142D01*
X53757419Y-65005142D02*
X53757419Y-64528952D01*
X30321429Y-91869371D02*
X30721429Y-91869371D01*
X30892857Y-92497942D02*
X30321429Y-92497942D01*
X30321429Y-92497942D02*
X30321429Y-91297942D01*
X30321429Y-91297942D02*
X30892857Y-91297942D01*
X31350000Y-92440800D02*
X31521429Y-92497942D01*
X31521429Y-92497942D02*
X31807143Y-92497942D01*
X31807143Y-92497942D02*
X31921429Y-92440800D01*
X31921429Y-92440800D02*
X31978571Y-92383657D01*
X31978571Y-92383657D02*
X32035714Y-92269371D01*
X32035714Y-92269371D02*
X32035714Y-92155085D01*
X32035714Y-92155085D02*
X31978571Y-92040800D01*
X31978571Y-92040800D02*
X31921429Y-91983657D01*
X31921429Y-91983657D02*
X31807143Y-91926514D01*
X31807143Y-91926514D02*
X31578571Y-91869371D01*
X31578571Y-91869371D02*
X31464286Y-91812228D01*
X31464286Y-91812228D02*
X31407143Y-91755085D01*
X31407143Y-91755085D02*
X31350000Y-91640800D01*
X31350000Y-91640800D02*
X31350000Y-91526514D01*
X31350000Y-91526514D02*
X31407143Y-91412228D01*
X31407143Y-91412228D02*
X31464286Y-91355085D01*
X31464286Y-91355085D02*
X31578571Y-91297942D01*
X31578571Y-91297942D02*
X31864286Y-91297942D01*
X31864286Y-91297942D02*
X32035714Y-91355085D01*
X33235714Y-92383657D02*
X33178571Y-92440800D01*
X33178571Y-92440800D02*
X33007143Y-92497942D01*
X33007143Y-92497942D02*
X32892857Y-92497942D01*
X32892857Y-92497942D02*
X32721428Y-92440800D01*
X32721428Y-92440800D02*
X32607143Y-92326514D01*
X32607143Y-92326514D02*
X32550000Y-92212228D01*
X32550000Y-92212228D02*
X32492857Y-91983657D01*
X32492857Y-91983657D02*
X32492857Y-91812228D01*
X32492857Y-91812228D02*
X32550000Y-91583657D01*
X32550000Y-91583657D02*
X32607143Y-91469371D01*
X32607143Y-91469371D02*
X32721428Y-91355085D01*
X32721428Y-91355085D02*
X32892857Y-91297942D01*
X32892857Y-91297942D02*
X33007143Y-91297942D01*
X33007143Y-91297942D02*
X33178571Y-91355085D01*
X33178571Y-91355085D02*
X33235714Y-91412228D01*
D11*
X21071427Y-26343409D02*
X22023808Y-26343409D01*
X20880951Y-26914838D02*
X21547617Y-24914838D01*
X21547617Y-24914838D02*
X22214284Y-26914838D01*
X22595237Y-25581504D02*
X23357141Y-25581504D01*
X22880951Y-26914838D02*
X22880951Y-25200552D01*
X22880951Y-25200552D02*
X22976189Y-25010076D01*
X22976189Y-25010076D02*
X23166665Y-24914838D01*
X23166665Y-24914838D02*
X23357141Y-24914838D01*
X24309522Y-26914838D02*
X24119046Y-26819600D01*
X24119046Y-26819600D02*
X24023808Y-26724361D01*
X24023808Y-26724361D02*
X23928570Y-26533885D01*
X23928570Y-26533885D02*
X23928570Y-25962457D01*
X23928570Y-25962457D02*
X24023808Y-25771980D01*
X24023808Y-25771980D02*
X24119046Y-25676742D01*
X24119046Y-25676742D02*
X24309522Y-25581504D01*
X24309522Y-25581504D02*
X24595237Y-25581504D01*
X24595237Y-25581504D02*
X24785713Y-25676742D01*
X24785713Y-25676742D02*
X24880951Y-25771980D01*
X24880951Y-25771980D02*
X24976189Y-25962457D01*
X24976189Y-25962457D02*
X24976189Y-26533885D01*
X24976189Y-26533885D02*
X24880951Y-26724361D01*
X24880951Y-26724361D02*
X24785713Y-26819600D01*
X24785713Y-26819600D02*
X24595237Y-26914838D01*
X24595237Y-26914838D02*
X24309522Y-26914838D01*
X25833332Y-25581504D02*
X25833332Y-26914838D01*
X25833332Y-25771980D02*
X25928570Y-25676742D01*
X25928570Y-25676742D02*
X26119046Y-25581504D01*
X26119046Y-25581504D02*
X26404761Y-25581504D01*
X26404761Y-25581504D02*
X26595237Y-25676742D01*
X26595237Y-25676742D02*
X26690475Y-25867219D01*
X26690475Y-25867219D02*
X26690475Y-26914838D01*
X27547618Y-26819600D02*
X27738094Y-26914838D01*
X27738094Y-26914838D02*
X28119046Y-26914838D01*
X28119046Y-26914838D02*
X28309523Y-26819600D01*
X28309523Y-26819600D02*
X28404761Y-26629123D01*
X28404761Y-26629123D02*
X28404761Y-26533885D01*
X28404761Y-26533885D02*
X28309523Y-26343409D01*
X28309523Y-26343409D02*
X28119046Y-26248171D01*
X28119046Y-26248171D02*
X27833332Y-26248171D01*
X27833332Y-26248171D02*
X27642856Y-26152933D01*
X27642856Y-26152933D02*
X27547618Y-25962457D01*
X27547618Y-25962457D02*
X27547618Y-25867219D01*
X27547618Y-25867219D02*
X27642856Y-25676742D01*
X27642856Y-25676742D02*
X27833332Y-25581504D01*
X27833332Y-25581504D02*
X28119046Y-25581504D01*
X28119046Y-25581504D02*
X28309523Y-25676742D01*
X29547618Y-26914838D02*
X29357142Y-26819600D01*
X29357142Y-26819600D02*
X29261904Y-26724361D01*
X29261904Y-26724361D02*
X29166666Y-26533885D01*
X29166666Y-26533885D02*
X29166666Y-25962457D01*
X29166666Y-25962457D02*
X29261904Y-25771980D01*
X29261904Y-25771980D02*
X29357142Y-25676742D01*
X29357142Y-25676742D02*
X29547618Y-25581504D01*
X29547618Y-25581504D02*
X29833333Y-25581504D01*
X29833333Y-25581504D02*
X30023809Y-25676742D01*
X30023809Y-25676742D02*
X30119047Y-25771980D01*
X30119047Y-25771980D02*
X30214285Y-25962457D01*
X30214285Y-25962457D02*
X30214285Y-26533885D01*
X30214285Y-26533885D02*
X30119047Y-26724361D01*
X30119047Y-26724361D02*
X30023809Y-26819600D01*
X30023809Y-26819600D02*
X29833333Y-26914838D01*
X29833333Y-26914838D02*
X29547618Y-26914838D01*
X32595238Y-26914838D02*
X32595238Y-24914838D01*
X32595238Y-24914838D02*
X33738095Y-26914838D01*
X33738095Y-26914838D02*
X33738095Y-24914838D01*
X34976190Y-26914838D02*
X34785714Y-26819600D01*
X34785714Y-26819600D02*
X34690476Y-26724361D01*
X34690476Y-26724361D02*
X34595238Y-26533885D01*
X34595238Y-26533885D02*
X34595238Y-25962457D01*
X34595238Y-25962457D02*
X34690476Y-25771980D01*
X34690476Y-25771980D02*
X34785714Y-25676742D01*
X34785714Y-25676742D02*
X34976190Y-25581504D01*
X34976190Y-25581504D02*
X35261905Y-25581504D01*
X35261905Y-25581504D02*
X35452381Y-25676742D01*
X35452381Y-25676742D02*
X35547619Y-25771980D01*
X35547619Y-25771980D02*
X35642857Y-25962457D01*
X35642857Y-25962457D02*
X35642857Y-26533885D01*
X35642857Y-26533885D02*
X35547619Y-26724361D01*
X35547619Y-26724361D02*
X35452381Y-26819600D01*
X35452381Y-26819600D02*
X35261905Y-26914838D01*
X35261905Y-26914838D02*
X34976190Y-26914838D01*
X35357143Y-24819600D02*
X35071428Y-25105314D01*
X36500000Y-26914838D02*
X36500000Y-25581504D01*
X36500000Y-24914838D02*
X36404762Y-25010076D01*
X36404762Y-25010076D02*
X36500000Y-25105314D01*
X36500000Y-25105314D02*
X36595238Y-25010076D01*
X36595238Y-25010076D02*
X36500000Y-24914838D01*
X36500000Y-24914838D02*
X36500000Y-25105314D01*
X38309524Y-26914838D02*
X38309524Y-25867219D01*
X38309524Y-25867219D02*
X38214286Y-25676742D01*
X38214286Y-25676742D02*
X38023810Y-25581504D01*
X38023810Y-25581504D02*
X37642857Y-25581504D01*
X37642857Y-25581504D02*
X37452381Y-25676742D01*
X38309524Y-26819600D02*
X38119048Y-26914838D01*
X38119048Y-26914838D02*
X37642857Y-26914838D01*
X37642857Y-26914838D02*
X37452381Y-26819600D01*
X37452381Y-26819600D02*
X37357143Y-26629123D01*
X37357143Y-26629123D02*
X37357143Y-26438647D01*
X37357143Y-26438647D02*
X37452381Y-26248171D01*
X37452381Y-26248171D02*
X37642857Y-26152933D01*
X37642857Y-26152933D02*
X38119048Y-26152933D01*
X38119048Y-26152933D02*
X38309524Y-26057695D01*
D12*
X17928571Y-22249714D02*
X17928571Y-16249714D01*
X17928571Y-16249714D02*
X19928571Y-20535428D01*
X19928571Y-20535428D02*
X21928571Y-16249714D01*
X21928571Y-16249714D02*
X21928571Y-22249714D01*
X24500000Y-20535428D02*
X27357143Y-20535428D01*
X23928571Y-22249714D02*
X25928571Y-16249714D01*
X25928571Y-16249714D02*
X27928571Y-22249714D01*
X29928571Y-22249714D02*
X29928571Y-16249714D01*
X29928571Y-16249714D02*
X33357142Y-22249714D01*
X33357142Y-22249714D02*
X33357142Y-16249714D01*
X35357142Y-16249714D02*
X38785714Y-16249714D01*
X37071428Y-22249714D02*
X37071428Y-16249714D01*
X40500000Y-20535428D02*
X43357143Y-20535428D01*
X39928571Y-22249714D02*
X41928571Y-16249714D01*
X41928571Y-16249714D02*
X43928571Y-22249714D01*
D13*
X27114571Y-5702700D02*
X28257429Y-5702700D01*
X34226571Y-5448700D02*
X35369429Y-5448700D01*
X34798000Y-6020128D02*
X34798000Y-4877271D01*
D14*
X9120000Y-16620000D02*
X10500000Y-16620000D01*
X9120000Y-18000000D02*
X9120000Y-16620000D01*
X9120000Y-19270000D02*
X9120000Y-24460000D01*
X9120000Y-19270000D02*
X11880000Y-19270000D01*
X9120000Y-24460000D02*
X11880000Y-24460000D01*
X11880000Y-19270000D02*
X11880000Y-24460000D01*
X5224000Y-67454000D02*
X5224000Y-70214000D01*
X7874000Y-67454000D02*
X5224000Y-67454000D01*
X7874000Y-67454000D02*
X7874000Y-70214000D01*
X7874000Y-70214000D02*
X5224000Y-70214000D01*
X9144000Y-67454000D02*
X10524000Y-67454000D01*
X10524000Y-67454000D02*
X10524000Y-68834000D01*
X48018000Y-63610000D02*
X48018000Y-62230000D01*
X49398000Y-63610000D02*
X48018000Y-63610000D01*
X50668000Y-60850000D02*
X53318000Y-60850000D01*
X50668000Y-63610000D02*
X50668000Y-60850000D01*
X50668000Y-63610000D02*
X53318000Y-63610000D01*
X53318000Y-63610000D02*
X53318000Y-60850000D01*
X47764000Y-88214000D02*
X47764000Y-86834000D01*
X49144000Y-88214000D02*
X47764000Y-88214000D01*
X50414000Y-85454000D02*
X53064000Y-85454000D01*
X50414000Y-88214000D02*
X50414000Y-85454000D01*
X50414000Y-88214000D02*
X53064000Y-88214000D01*
X53064000Y-88214000D02*
X53064000Y-85454000D01*
X620000Y-22620000D02*
X2000000Y-22620000D01*
X620000Y-24000000D02*
X620000Y-22620000D01*
X620000Y-25270000D02*
X620000Y-27920000D01*
X620000Y-25270000D02*
X3380000Y-25270000D01*
X620000Y-27920000D02*
X3380000Y-27920000D01*
X3380000Y-25270000D02*
X3380000Y-27920000D01*
X49120000Y-16620000D02*
X50500000Y-16620000D01*
X49120000Y-18000000D02*
X49120000Y-16620000D01*
X49120000Y-19270000D02*
X49120000Y-24460000D01*
X49120000Y-19270000D02*
X51880000Y-19270000D01*
X49120000Y-24460000D02*
X51880000Y-24460000D01*
X51880000Y-19270000D02*
X51880000Y-24460000D01*
X5224000Y-85454000D02*
X5224000Y-88214000D01*
X7874000Y-85454000D02*
X5224000Y-85454000D01*
X7874000Y-85454000D02*
X7874000Y-88214000D01*
X7874000Y-88214000D02*
X5224000Y-88214000D01*
X9144000Y-85454000D02*
X10524000Y-85454000D01*
X10524000Y-85454000D02*
X10524000Y-86834000D01*
X57620000Y-22620000D02*
X59000000Y-22620000D01*
X57620000Y-24000000D02*
X57620000Y-22620000D01*
X57620000Y-25270000D02*
X57620000Y-27920000D01*
X57620000Y-25270000D02*
X60380000Y-25270000D01*
X57620000Y-27920000D02*
X60380000Y-27920000D01*
X60380000Y-25270000D02*
X60380000Y-27920000D01*
X49120000Y-26120000D02*
X50500000Y-26120000D01*
X49120000Y-27500000D02*
X49120000Y-26120000D01*
X49120000Y-28770000D02*
X49120000Y-33960000D01*
X49120000Y-28770000D02*
X51880000Y-28770000D01*
X49120000Y-33960000D02*
X51880000Y-33960000D01*
X51880000Y-28770000D02*
X51880000Y-33960000D01*
X5478000Y-60850000D02*
X5478000Y-63610000D01*
X8128000Y-60850000D02*
X5478000Y-60850000D01*
X8128000Y-60850000D02*
X8128000Y-63610000D01*
X8128000Y-63610000D02*
X5478000Y-63610000D01*
X9398000Y-60850000D02*
X10778000Y-60850000D01*
X10778000Y-60850000D02*
X10778000Y-62230000D01*
X11620000Y-3380000D02*
X11620000Y-2000000D01*
X13000000Y-3380000D02*
X11620000Y-3380000D01*
X14270000Y-620000D02*
X16920000Y-620000D01*
X14270000Y-3380000D02*
X14270000Y-620000D01*
X14270000Y-3380000D02*
X16920000Y-3380000D01*
X16920000Y-3380000D02*
X16920000Y-620000D01*
X48018000Y-45610000D02*
X48018000Y-44230000D01*
X49398000Y-45610000D02*
X48018000Y-45610000D01*
X50668000Y-42850000D02*
X53318000Y-42850000D01*
X50668000Y-45610000D02*
X50668000Y-42850000D01*
X50668000Y-45610000D02*
X53318000Y-45610000D01*
X53318000Y-45610000D02*
X53318000Y-42850000D01*
X47896000Y-7002000D02*
X49276000Y-7002000D01*
X47896000Y-8382000D02*
X47896000Y-7002000D01*
X47896000Y-9652000D02*
X47896000Y-12302000D01*
X47896000Y-9652000D02*
X50656000Y-9652000D01*
X47896000Y-12302000D02*
X50656000Y-12302000D01*
X50656000Y-9652000D02*
X50656000Y-12302000D01*
X5478000Y-42850000D02*
X5478000Y-45610000D01*
X8128000Y-42850000D02*
X5478000Y-42850000D01*
X8128000Y-42850000D02*
X8128000Y-45610000D01*
X8128000Y-45610000D02*
X5478000Y-45610000D01*
X9398000Y-42850000D02*
X10778000Y-42850000D01*
X10778000Y-42850000D02*
X10778000Y-44230000D01*
X44848000Y-99424000D02*
X44848000Y-98044000D01*
X46228000Y-99424000D02*
X44848000Y-99424000D01*
X47498000Y-96664000D02*
X50148000Y-96664000D01*
X47498000Y-99424000D02*
X47498000Y-96664000D01*
X47498000Y-99424000D02*
X50148000Y-99424000D01*
X50148000Y-99424000D02*
X50148000Y-96664000D01*
X47120000Y-3380000D02*
X47120000Y-2000000D01*
X48500000Y-3380000D02*
X47120000Y-3380000D01*
X49770000Y-620000D02*
X54960000Y-620000D01*
X49770000Y-3380000D02*
X49770000Y-620000D01*
X49770000Y-3380000D02*
X54960000Y-3380000D01*
X54960000Y-3380000D02*
X54960000Y-620000D01*
X47764000Y-70214000D02*
X47764000Y-68834000D01*
X49144000Y-70214000D02*
X47764000Y-70214000D01*
X50414000Y-67454000D02*
X53064000Y-67454000D01*
X50414000Y-70214000D02*
X50414000Y-67454000D01*
X50414000Y-70214000D02*
X53064000Y-70214000D01*
X53064000Y-70214000D02*
X53064000Y-67454000D01*
X27620000Y-34380000D02*
X27620000Y-33000000D01*
X29000000Y-34380000D02*
X27620000Y-34380000D01*
X30270000Y-31620000D02*
X35460000Y-31620000D01*
X30270000Y-34380000D02*
X30270000Y-31620000D01*
X30270000Y-34380000D02*
X35460000Y-34380000D01*
X35460000Y-34380000D02*
X35460000Y-31620000D01*
X23440000Y7960000D02*
X23440000Y-6350000D01*
X23440000Y7960000D02*
X39160000Y7960000D01*
X30010000Y-10460000D02*
X33750000Y-10460000D01*
X39160000Y7960000D02*
X39160000Y-6350000D01*
X25433194Y-9872958D02*
G75*
G02*
X23440000Y-6350000I2116805J3522957D01*
G01*
X39160000Y-6350000D02*
G75*
G02*
X36251648Y-10280413I-4110000J0D01*
G01*
X9120000Y-26120000D02*
X10500000Y-26120000D01*
X9120000Y-27500000D02*
X9120000Y-26120000D01*
X9120000Y-28770000D02*
X9120000Y-33960000D01*
X9120000Y-28770000D02*
X11880000Y-28770000D01*
X9120000Y-33960000D02*
X11880000Y-33960000D01*
X11880000Y-28770000D02*
X11880000Y-33960000D01*
M02*
