%TF.GenerationSoftware,KiCad,Pcbnew,10.0.3*%
%TF.CreationDate,2026-07-09T23:44:08+01:00*%
%TF.ProjectId,MANTA,4d414e54-412e-46b6-9963-61645f706362,rev?*%
%TF.SameCoordinates,Original*%
%TF.FileFunction,Copper,L3,Inr*%
%TF.FilePolarity,Positive*%
%FSLAX46Y46*%
G04 Gerber Fmt 4.6, Leading zero omitted, Abs format (unit mm)*
G04 Created by KiCad (PCBNEW 10.0.3) date 2026-07-09 23:44:08*
%MOMM*%
%LPD*%
G01*
G04 APERTURE LIST*
G04 Aperture macros list*
%AMRoundRect*
0 Rectangle with rounded corners*
0 $1 Rounding radius*
0 $2 $3 $4 $5 $6 $7 $8 $9 X,Y pos of 4 corners*
0 Add a 4 corners polygon primitive as box body*
4,1,4,$2,$3,$4,$5,$6,$7,$8,$9,$2,$3,0*
0 Add four circle primitives for the rounded corners*
1,1,$1+$1,$2,$3*
1,1,$1+$1,$4,$5*
1,1,$1+$1,$6,$7*
1,1,$1+$1,$8,$9*
0 Add four rect primitives between the rounded corners*
20,1,$1+$1,$2,$3,$4,$5,0*
20,1,$1+$1,$4,$5,$6,$7,0*
20,1,$1+$1,$6,$7,$8,$9,0*
20,1,$1+$1,$8,$9,$2,$3,0*%
G04 Aperture macros list end*
%TA.AperFunction,ComponentPad*%
%ADD10R,1.700000X1.700000*%
%TD*%
%TA.AperFunction,ComponentPad*%
%ADD11C,1.700000*%
%TD*%
%TA.AperFunction,ComponentPad*%
%ADD12RoundRect,0.249999X-1.950001X-1.950001X1.950001X-1.950001X1.950001X1.950001X-1.950001X1.950001X0*%
%TD*%
%TA.AperFunction,ComponentPad*%
%ADD13C,4.400000*%
%TD*%
%TA.AperFunction,ComponentPad*%
%ADD14R,0.900000X2.000000*%
%TD*%
%TA.AperFunction,ComponentPad*%
%ADD15RoundRect,1.025000X-1.025000X-1.025000X1.025000X-1.025000X1.025000X1.025000X-1.025000X1.025000X0*%
%TD*%
%TA.AperFunction,ComponentPad*%
%ADD16C,4.100000*%
%TD*%
G04 APERTURE END LIST*
D10*
X10500000Y-18000000D03*
D11*
X10500000Y-20540000D03*
X10500000Y-23080000D03*
D10*
X9144000Y-68834000D03*
D11*
X6604000Y-68834000D03*
D10*
X49398000Y-62230000D03*
D11*
X51938000Y-62230000D03*
D10*
X49144000Y-86834000D03*
D11*
X51684000Y-86834000D03*
D12*
X27200000Y-96500000D03*
D13*
X36000000Y-96500000D03*
D10*
X2000000Y-24000000D03*
D11*
X2000000Y-26540000D03*
D10*
X50500000Y-18000000D03*
D11*
X50500000Y-20540000D03*
X50500000Y-23080000D03*
D10*
X9144000Y-86834000D03*
D11*
X6604000Y-86834000D03*
D10*
X59000000Y-24000000D03*
D11*
X59000000Y-26540000D03*
D10*
X50500000Y-27500000D03*
D11*
X50500000Y-30040000D03*
X50500000Y-32580000D03*
D10*
X9398000Y-62230000D03*
D11*
X6858000Y-62230000D03*
D10*
X13000000Y-2000000D03*
D11*
X15540000Y-2000000D03*
D10*
X49398000Y-44230000D03*
D11*
X51938000Y-44230000D03*
D10*
X49276000Y-8382000D03*
D11*
X49276000Y-10922000D03*
D10*
X9398000Y-44230000D03*
D11*
X6858000Y-44230000D03*
D10*
X46228000Y-98044000D03*
D11*
X48768000Y-98044000D03*
D10*
X48500000Y-2000000D03*
D11*
X51040000Y-2000000D03*
X53580000Y-2000000D03*
D10*
X49144000Y-68834000D03*
D11*
X51684000Y-68834000D03*
D10*
X29000000Y-33000000D03*
D11*
X31540000Y-33000000D03*
X34080000Y-33000000D03*
D14*
X24550000Y-2500000D03*
X38050000Y-2500000D03*
D15*
X27700000Y-8500000D03*
D16*
X34900000Y-8500000D03*
D10*
X10500000Y-27500000D03*
D11*
X10500000Y-30040000D03*
X10500000Y-32580000D03*
D10*
X59000000Y-97000000D03*
D11*
X59000000Y-94460000D03*
X59000000Y-91920000D03*
X59000000Y-89380000D03*
X59000000Y-86840000D03*
X59000000Y-84300000D03*
D10*
X59000000Y-3000000D03*
D11*
X59000000Y-5540000D03*
X59000000Y-8080000D03*
X59000000Y-10620000D03*
X59000000Y-13160000D03*
X59000000Y-15700000D03*
D10*
X44958000Y-90678000D03*
D11*
X47498000Y-90678000D03*
X50038000Y-90678000D03*
D10*
X58000000Y-61000000D03*
D11*
X58000000Y-63540000D03*
X58000000Y-66080000D03*
X58000000Y-68620000D03*
X58000000Y-71160000D03*
X58000000Y-73700000D03*
X58000000Y-76240000D03*
X58000000Y-78780000D03*
D10*
X2000000Y-97000000D03*
D11*
X2000000Y-94460000D03*
X2000000Y-91920000D03*
X2000000Y-89380000D03*
X2000000Y-86840000D03*
X2000000Y-84300000D03*
D10*
X2000000Y-3000000D03*
D11*
X2000000Y-5540000D03*
X2000000Y-8080000D03*
X2000000Y-10620000D03*
X2000000Y-13160000D03*
X2000000Y-15700000D03*
%TA.AperFunction,Conductor*%
G36*
X11876936Y-520185D02*
G01*
X11922691Y-572989D01*
X11932635Y-642147D01*
X11903610Y-705703D01*
X11884208Y-723766D01*
X11792455Y-792452D01*
X11792452Y-792455D01*
X11706206Y-907664D01*
X11706202Y-907671D01*
X11655908Y-1042517D01*
X11649501Y-1102116D01*
X11649500Y-1102135D01*
X11649500Y-2897870D01*
X11649501Y-2897876D01*
X11655908Y-2957483D01*
X11706202Y-3092328D01*
X11706206Y-3092335D01*
X11792452Y-3207544D01*
X11792455Y-3207547D01*
X11907664Y-3293793D01*
X11907671Y-3293797D01*
X12042517Y-3344091D01*
X12042516Y-3344091D01*
X12049444Y-3344835D01*
X12102127Y-3350500D01*
X13897872Y-3350499D01*
X13957483Y-3344091D01*
X14092331Y-3293796D01*
X14207546Y-3207546D01*
X14293796Y-3092331D01*
X14342810Y-2960916D01*
X14384681Y-2904984D01*
X14450145Y-2880566D01*
X14518418Y-2895417D01*
X14546673Y-2916569D01*
X14660213Y-3030109D01*
X14832179Y-3155048D01*
X14832181Y-3155049D01*
X14832184Y-3155051D01*
X15021588Y-3251557D01*
X15223757Y-3317246D01*
X15433713Y-3350500D01*
X15433714Y-3350500D01*
X15646286Y-3350500D01*
X15646287Y-3350500D01*
X15856243Y-3317246D01*
X16058412Y-3251557D01*
X16247816Y-3155051D01*
X16334138Y-3092335D01*
X16419786Y-3030109D01*
X16419788Y-3030106D01*
X16419792Y-3030104D01*
X16570104Y-2879792D01*
X16570106Y-2879788D01*
X16570109Y-2879786D01*
X16695048Y-2707820D01*
X16695047Y-2707820D01*
X16695051Y-2707816D01*
X16791557Y-2518412D01*
X16857246Y-2316243D01*
X16890500Y-2106287D01*
X16890500Y-1893713D01*
X16857246Y-1683757D01*
X16791557Y-1481588D01*
X16776550Y-1452135D01*
X23599500Y-1452135D01*
X23599500Y-3547870D01*
X23599501Y-3547876D01*
X23605908Y-3607483D01*
X23656202Y-3742328D01*
X23656206Y-3742335D01*
X23742452Y-3857544D01*
X23742455Y-3857547D01*
X23857664Y-3943793D01*
X23857671Y-3943797D01*
X23992517Y-3994091D01*
X23992516Y-3994091D01*
X23999444Y-3994835D01*
X24052127Y-4000500D01*
X25047872Y-4000499D01*
X25107483Y-3994091D01*
X25242331Y-3943796D01*
X25357546Y-3857546D01*
X25443796Y-3742331D01*
X25494091Y-3607483D01*
X25500500Y-3547873D01*
X25500499Y-1452135D01*
X37099500Y-1452135D01*
X37099500Y-3547870D01*
X37099501Y-3547876D01*
X37105908Y-3607483D01*
X37156202Y-3742328D01*
X37156206Y-3742335D01*
X37242452Y-3857544D01*
X37242455Y-3857547D01*
X37357664Y-3943793D01*
X37357671Y-3943797D01*
X37492517Y-3994091D01*
X37492516Y-3994091D01*
X37499444Y-3994835D01*
X37552127Y-4000500D01*
X38547872Y-4000499D01*
X38607483Y-3994091D01*
X38742331Y-3943796D01*
X38857546Y-3857546D01*
X38943796Y-3742331D01*
X38994091Y-3607483D01*
X39000500Y-3547873D01*
X39000499Y-1452128D01*
X38994091Y-1392517D01*
X38981886Y-1359795D01*
X38943797Y-1257671D01*
X38943793Y-1257664D01*
X38857547Y-1142455D01*
X38857544Y-1142452D01*
X38742335Y-1056206D01*
X38742328Y-1056202D01*
X38607482Y-1005908D01*
X38607483Y-1005908D01*
X38547883Y-999501D01*
X38547881Y-999500D01*
X38547873Y-999500D01*
X38547864Y-999500D01*
X37552129Y-999500D01*
X37552123Y-999501D01*
X37492516Y-1005908D01*
X37357671Y-1056202D01*
X37357664Y-1056206D01*
X37242455Y-1142452D01*
X37242452Y-1142455D01*
X37156206Y-1257664D01*
X37156202Y-1257671D01*
X37105908Y-1392517D01*
X37099501Y-1452116D01*
X37099501Y-1452123D01*
X37099500Y-1452135D01*
X25500499Y-1452135D01*
X25500499Y-1452128D01*
X25494091Y-1392517D01*
X25481886Y-1359795D01*
X25443797Y-1257671D01*
X25443793Y-1257664D01*
X25357547Y-1142455D01*
X25357544Y-1142452D01*
X25242335Y-1056206D01*
X25242328Y-1056202D01*
X25107482Y-1005908D01*
X25107483Y-1005908D01*
X25047883Y-999501D01*
X25047881Y-999500D01*
X25047873Y-999500D01*
X25047864Y-999500D01*
X24052129Y-999500D01*
X24052123Y-999501D01*
X23992516Y-1005908D01*
X23857671Y-1056202D01*
X23857664Y-1056206D01*
X23742455Y-1142452D01*
X23742452Y-1142455D01*
X23656206Y-1257664D01*
X23656202Y-1257671D01*
X23605908Y-1392517D01*
X23599501Y-1452116D01*
X23599501Y-1452123D01*
X23599500Y-1452135D01*
X16776550Y-1452135D01*
X16695051Y-1292184D01*
X16695049Y-1292181D01*
X16695048Y-1292179D01*
X16570109Y-1120213D01*
X16419786Y-969890D01*
X16247820Y-844951D01*
X16058414Y-748444D01*
X16058413Y-748443D01*
X16058412Y-748443D01*
X16039907Y-742430D01*
X15982232Y-702994D01*
X15955034Y-638635D01*
X15966949Y-569789D01*
X16014193Y-518313D01*
X16078226Y-500500D01*
X47309897Y-500500D01*
X47376936Y-520185D01*
X47422691Y-572989D01*
X47432635Y-642147D01*
X47403610Y-705703D01*
X47384208Y-723766D01*
X47292455Y-792452D01*
X47292452Y-792455D01*
X47206206Y-907664D01*
X47206202Y-907671D01*
X47155908Y-1042517D01*
X47149501Y-1102116D01*
X47149500Y-1102135D01*
X47149500Y-2897870D01*
X47149501Y-2897876D01*
X47155908Y-2957483D01*
X47206202Y-3092328D01*
X47206206Y-3092335D01*
X47292452Y-3207544D01*
X47292455Y-3207547D01*
X47407664Y-3293793D01*
X47407671Y-3293797D01*
X47542517Y-3344091D01*
X47542516Y-3344091D01*
X47549444Y-3344835D01*
X47602127Y-3350500D01*
X49397872Y-3350499D01*
X49457483Y-3344091D01*
X49592331Y-3293796D01*
X49707546Y-3207546D01*
X49793796Y-3092331D01*
X49842810Y-2960916D01*
X49884681Y-2904984D01*
X49950145Y-2880566D01*
X50018418Y-2895417D01*
X50046673Y-2916569D01*
X50160213Y-3030109D01*
X50332179Y-3155048D01*
X50332181Y-3155049D01*
X50332184Y-3155051D01*
X50521588Y-3251557D01*
X50723757Y-3317246D01*
X50933713Y-3350500D01*
X50933714Y-3350500D01*
X51146286Y-3350500D01*
X51146287Y-3350500D01*
X51356243Y-3317246D01*
X51558412Y-3251557D01*
X51747816Y-3155051D01*
X51834138Y-3092335D01*
X51919786Y-3030109D01*
X51919788Y-3030106D01*
X51919792Y-3030104D01*
X52070104Y-2879792D01*
X52070106Y-2879788D01*
X52070109Y-2879786D01*
X52195048Y-2707820D01*
X52195047Y-2707820D01*
X52195051Y-2707816D01*
X52199514Y-2699054D01*
X52247488Y-2648259D01*
X52315308Y-2631463D01*
X52381444Y-2653999D01*
X52420486Y-2699056D01*
X52424951Y-2707820D01*
X52549890Y-2879786D01*
X52700213Y-3030109D01*
X52872179Y-3155048D01*
X52872181Y-3155049D01*
X52872184Y-3155051D01*
X53061588Y-3251557D01*
X53263757Y-3317246D01*
X53473713Y-3350500D01*
X53473714Y-3350500D01*
X53686286Y-3350500D01*
X53686287Y-3350500D01*
X53896243Y-3317246D01*
X54098412Y-3251557D01*
X54287816Y-3155051D01*
X54374138Y-3092335D01*
X54459786Y-3030109D01*
X54459788Y-3030106D01*
X54459792Y-3030104D01*
X54610104Y-2879792D01*
X54610106Y-2879788D01*
X54610109Y-2879786D01*
X54735048Y-2707820D01*
X54735047Y-2707820D01*
X54735051Y-2707816D01*
X54831557Y-2518412D01*
X54897246Y-2316243D01*
X54930500Y-2106287D01*
X54930500Y-1893713D01*
X54897246Y-1683757D01*
X54831557Y-1481588D01*
X54735051Y-1292184D01*
X54735049Y-1292181D01*
X54735048Y-1292179D01*
X54610109Y-1120213D01*
X54459786Y-969890D01*
X54287820Y-844951D01*
X54098414Y-748444D01*
X54098413Y-748443D01*
X54098412Y-748443D01*
X54079907Y-742430D01*
X54022232Y-702994D01*
X53995034Y-638635D01*
X54006949Y-569789D01*
X54054193Y-518313D01*
X54118226Y-500500D01*
X60375500Y-500500D01*
X60442539Y-520185D01*
X60488294Y-572989D01*
X60499500Y-624500D01*
X60499500Y-1810730D01*
X60479815Y-1877769D01*
X60427011Y-1923524D01*
X60357853Y-1933468D01*
X60294297Y-1904443D01*
X60276234Y-1885042D01*
X60207187Y-1792809D01*
X60092093Y-1706649D01*
X60092086Y-1706645D01*
X59957379Y-1656403D01*
X59957372Y-1656401D01*
X59897844Y-1650000D01*
X59250000Y-1650000D01*
X59250000Y-2566988D01*
X59192993Y-2534075D01*
X59065826Y-2500000D01*
X58934174Y-2500000D01*
X58807007Y-2534075D01*
X58750000Y-2566988D01*
X58750000Y-1650000D01*
X58102155Y-1650000D01*
X58042627Y-1656401D01*
X58042620Y-1656403D01*
X57907913Y-1706645D01*
X57907906Y-1706649D01*
X57792812Y-1792809D01*
X57792809Y-1792812D01*
X57706649Y-1907906D01*
X57706645Y-1907913D01*
X57656403Y-2042620D01*
X57656401Y-2042627D01*
X57650000Y-2102155D01*
X57650000Y-2750000D01*
X58566988Y-2750000D01*
X58534075Y-2807007D01*
X58500000Y-2934174D01*
X58500000Y-3065826D01*
X58534075Y-3192993D01*
X58566988Y-3250000D01*
X57650000Y-3250000D01*
X57650000Y-3897844D01*
X57656401Y-3957372D01*
X57656403Y-3957379D01*
X57706645Y-4092086D01*
X57706649Y-4092093D01*
X57792809Y-4207187D01*
X57792812Y-4207190D01*
X57907906Y-4293350D01*
X57907913Y-4293354D01*
X58042620Y-4343596D01*
X58042619Y-4343596D01*
X58125444Y-4352501D01*
X58125116Y-4355550D01*
X58142014Y-4354642D01*
X58201196Y-4387642D01*
X58870591Y-5057037D01*
X58807007Y-5074075D01*
X58692993Y-5139901D01*
X58599901Y-5232993D01*
X58534075Y-5347007D01*
X58517037Y-5410591D01*
X57884728Y-4778282D01*
X57884727Y-4778282D01*
X57845380Y-4832439D01*
X57748904Y-5021782D01*
X57683242Y-5223869D01*
X57683242Y-5223872D01*
X57650000Y-5433753D01*
X57650000Y-5646246D01*
X57683242Y-5856127D01*
X57683242Y-5856130D01*
X57748904Y-6058217D01*
X57845375Y-6247550D01*
X57884728Y-6301716D01*
X58517037Y-5669408D01*
X58534075Y-5732993D01*
X58599901Y-5847007D01*
X58692993Y-5940099D01*
X58807007Y-6005925D01*
X58870591Y-6022962D01*
X58269971Y-6623581D01*
X58348711Y-6740895D01*
X58349920Y-6744729D01*
X58352844Y-6747491D01*
X58360343Y-6777778D01*
X58369727Y-6807529D01*
X58368671Y-6811408D01*
X58369638Y-6815312D01*
X58359573Y-6844844D01*
X58351383Y-6874947D01*
X58348397Y-6877640D01*
X58347100Y-6881447D01*
X58302051Y-6920483D01*
X58292440Y-6925380D01*
X58238282Y-6964727D01*
X58238282Y-6964728D01*
X58870591Y-7597037D01*
X58807007Y-7614075D01*
X58692993Y-7679901D01*
X58599901Y-7772993D01*
X58534075Y-7887007D01*
X58517037Y-7950591D01*
X57884728Y-7318282D01*
X57884727Y-7318282D01*
X57845380Y-7372439D01*
X57748904Y-7561782D01*
X57683242Y-7763869D01*
X57683242Y-7763872D01*
X57650000Y-7973753D01*
X57650000Y-8186246D01*
X57683242Y-8396127D01*
X57683242Y-8396130D01*
X57748904Y-8598217D01*
X57845375Y-8787550D01*
X57884728Y-8841716D01*
X58517037Y-8209408D01*
X58534075Y-8272993D01*
X58599901Y-8387007D01*
X58692993Y-8480099D01*
X58807007Y-8545925D01*
X58870591Y-8562962D01*
X58269971Y-9163581D01*
X58348711Y-9280895D01*
X58349920Y-9284729D01*
X58352844Y-9287491D01*
X58360343Y-9317778D01*
X58369727Y-9347529D01*
X58368671Y-9351408D01*
X58369638Y-9355312D01*
X58359573Y-9384844D01*
X58351383Y-9414947D01*
X58348397Y-9417640D01*
X58347100Y-9421447D01*
X58302051Y-9460483D01*
X58292440Y-9465380D01*
X58238282Y-9504727D01*
X58238282Y-9504728D01*
X58870591Y-10137037D01*
X58807007Y-10154075D01*
X58692993Y-10219901D01*
X58599901Y-10312993D01*
X58534075Y-10427007D01*
X58517037Y-10490591D01*
X57884728Y-9858282D01*
X57884727Y-9858282D01*
X57845380Y-9912439D01*
X57748904Y-10101782D01*
X57683242Y-10303869D01*
X57683242Y-10303872D01*
X57650000Y-10513753D01*
X57650000Y-10726246D01*
X57683242Y-10936127D01*
X57683242Y-10936130D01*
X57748904Y-11138217D01*
X57845375Y-11327550D01*
X57884728Y-11381716D01*
X58517037Y-10749408D01*
X58534075Y-10812993D01*
X58599901Y-10927007D01*
X58692993Y-11020099D01*
X58807007Y-11085925D01*
X58870591Y-11102962D01*
X58269971Y-11703581D01*
X58348711Y-11820895D01*
X58349920Y-11824729D01*
X58352844Y-11827491D01*
X58360343Y-11857778D01*
X58369727Y-11887529D01*
X58368671Y-11891408D01*
X58369638Y-11895312D01*
X58359573Y-11924844D01*
X58351383Y-11954947D01*
X58348397Y-11957640D01*
X58347100Y-11961447D01*
X58302051Y-12000483D01*
X58292440Y-12005380D01*
X58238282Y-12044727D01*
X58238282Y-12044728D01*
X58870591Y-12677037D01*
X58807007Y-12694075D01*
X58692993Y-12759901D01*
X58599901Y-12852993D01*
X58534075Y-12967007D01*
X58517037Y-13030591D01*
X57884728Y-12398282D01*
X57884727Y-12398282D01*
X57845380Y-12452439D01*
X57748904Y-12641782D01*
X57683242Y-12843869D01*
X57683242Y-12843872D01*
X57650000Y-13053753D01*
X57650000Y-13266246D01*
X57683242Y-13476127D01*
X57683242Y-13476130D01*
X57748904Y-13678217D01*
X57845375Y-13867550D01*
X57884728Y-13921716D01*
X58517037Y-13289408D01*
X58534075Y-13352993D01*
X58599901Y-13467007D01*
X58692993Y-13560099D01*
X58807007Y-13625925D01*
X58870591Y-13642962D01*
X58269971Y-14243581D01*
X58348711Y-14360895D01*
X58349920Y-14364729D01*
X58352844Y-14367491D01*
X58360343Y-14397778D01*
X58369727Y-14427529D01*
X58368671Y-14431408D01*
X58369638Y-14435312D01*
X58359573Y-14464844D01*
X58351383Y-14494947D01*
X58348397Y-14497640D01*
X58347100Y-14501447D01*
X58302051Y-14540483D01*
X58292440Y-14545380D01*
X58238282Y-14584727D01*
X58238282Y-14584728D01*
X58870591Y-15217037D01*
X58807007Y-15234075D01*
X58692993Y-15299901D01*
X58599901Y-15392993D01*
X58534075Y-15507007D01*
X58517037Y-15570591D01*
X57884728Y-14938282D01*
X57884727Y-14938282D01*
X57845380Y-14992439D01*
X57748904Y-15181782D01*
X57683242Y-15383869D01*
X57683242Y-15383872D01*
X57650000Y-15593753D01*
X57650000Y-15806246D01*
X57683242Y-16016127D01*
X57683242Y-16016130D01*
X57748904Y-16218217D01*
X57845375Y-16407550D01*
X57884728Y-16461716D01*
X58517037Y-15829408D01*
X58534075Y-15892993D01*
X58599901Y-16007007D01*
X58692993Y-16100099D01*
X58807007Y-16165925D01*
X58870590Y-16182962D01*
X58238282Y-16815269D01*
X58238282Y-16815270D01*
X58292449Y-16854624D01*
X58481782Y-16951095D01*
X58683870Y-17016757D01*
X58893754Y-17050000D01*
X59106246Y-17050000D01*
X59316127Y-17016757D01*
X59316130Y-17016757D01*
X59518217Y-16951095D01*
X59707554Y-16854622D01*
X59761716Y-16815270D01*
X59761717Y-16815270D01*
X59129408Y-16182962D01*
X59192993Y-16165925D01*
X59307007Y-16100099D01*
X59400099Y-16007007D01*
X59465925Y-15892993D01*
X59482962Y-15829409D01*
X60115270Y-16461717D01*
X60115270Y-16461716D01*
X60154622Y-16407554D01*
X60251093Y-16218221D01*
X60257568Y-16198294D01*
X60297005Y-16140618D01*
X60361363Y-16113419D01*
X60430210Y-16125333D01*
X60481686Y-16172576D01*
X60499500Y-16236611D01*
X60499500Y-22809897D01*
X60479815Y-22876936D01*
X60427011Y-22922691D01*
X60357853Y-22932635D01*
X60294297Y-22903610D01*
X60276234Y-22884208D01*
X60207547Y-22792455D01*
X60207544Y-22792452D01*
X60092335Y-22706206D01*
X60092328Y-22706202D01*
X59957482Y-22655908D01*
X59957483Y-22655908D01*
X59897883Y-22649501D01*
X59897881Y-22649500D01*
X59897873Y-22649500D01*
X59897864Y-22649500D01*
X58102129Y-22649500D01*
X58102123Y-22649501D01*
X58042516Y-22655908D01*
X57907671Y-22706202D01*
X57907664Y-22706206D01*
X57792455Y-22792452D01*
X57792452Y-22792455D01*
X57706206Y-22907664D01*
X57706202Y-22907671D01*
X57655908Y-23042517D01*
X57649501Y-23102116D01*
X57649501Y-23102123D01*
X57649500Y-23102135D01*
X57649500Y-24897870D01*
X57649501Y-24897876D01*
X57655908Y-24957483D01*
X57706202Y-25092328D01*
X57706206Y-25092335D01*
X57792452Y-25207544D01*
X57792455Y-25207547D01*
X57907664Y-25293793D01*
X57907671Y-25293797D01*
X58039082Y-25342810D01*
X58095016Y-25384681D01*
X58119433Y-25450145D01*
X58104582Y-25518418D01*
X58083431Y-25546673D01*
X57969889Y-25660215D01*
X57844951Y-25832179D01*
X57748444Y-26021585D01*
X57682753Y-26223760D01*
X57671873Y-26292454D01*
X57649500Y-26433713D01*
X57649500Y-26646287D01*
X57682754Y-26856243D01*
X57734075Y-27014193D01*
X57748444Y-27058414D01*
X57844951Y-27247820D01*
X57969890Y-27419786D01*
X58120213Y-27570109D01*
X58292179Y-27695048D01*
X58292181Y-27695049D01*
X58292184Y-27695051D01*
X58481588Y-27791557D01*
X58683757Y-27857246D01*
X58893713Y-27890500D01*
X58893714Y-27890500D01*
X59106286Y-27890500D01*
X59106287Y-27890500D01*
X59316243Y-27857246D01*
X59518412Y-27791557D01*
X59707816Y-27695051D01*
X59729789Y-27679086D01*
X59879786Y-27570109D01*
X59879788Y-27570106D01*
X59879792Y-27570104D01*
X60030104Y-27419792D01*
X60030106Y-27419788D01*
X60030109Y-27419786D01*
X60155048Y-27247820D01*
X60155047Y-27247820D01*
X60155051Y-27247816D01*
X60251557Y-27058412D01*
X60257569Y-27039907D01*
X60297006Y-26982232D01*
X60361365Y-26955034D01*
X60430211Y-26966949D01*
X60481687Y-27014193D01*
X60499500Y-27078226D01*
X60499500Y-83761773D01*
X60479815Y-83828812D01*
X60427011Y-83874567D01*
X60357853Y-83884511D01*
X60294297Y-83855486D01*
X60257570Y-83800094D01*
X60251557Y-83781588D01*
X60155051Y-83592184D01*
X60155049Y-83592181D01*
X60155048Y-83592179D01*
X60030109Y-83420213D01*
X59879786Y-83269890D01*
X59707820Y-83144951D01*
X59518414Y-83048444D01*
X59518413Y-83048443D01*
X59518412Y-83048443D01*
X59316243Y-82982754D01*
X59316241Y-82982753D01*
X59316240Y-82982753D01*
X59154957Y-82957208D01*
X59106287Y-82949500D01*
X58893713Y-82949500D01*
X58845042Y-82957208D01*
X58683760Y-82982753D01*
X58481585Y-83048444D01*
X58292179Y-83144951D01*
X58120213Y-83269890D01*
X57969890Y-83420213D01*
X57844951Y-83592179D01*
X57748444Y-83781585D01*
X57682753Y-83983760D01*
X57649500Y-84193713D01*
X57649500Y-84406286D01*
X57682735Y-84616127D01*
X57682754Y-84616243D01*
X57741906Y-84798294D01*
X57748444Y-84818414D01*
X57844951Y-85007820D01*
X57969890Y-85179786D01*
X58120213Y-85330109D01*
X58292182Y-85455050D01*
X58300946Y-85459516D01*
X58351742Y-85507491D01*
X58368536Y-85575312D01*
X58345998Y-85641447D01*
X58300946Y-85680484D01*
X58292182Y-85684949D01*
X58120213Y-85809890D01*
X57969890Y-85960213D01*
X57844951Y-86132179D01*
X57748444Y-86321585D01*
X57682753Y-86523760D01*
X57649500Y-86733713D01*
X57649500Y-86946286D01*
X57682735Y-87156127D01*
X57682754Y-87156243D01*
X57746493Y-87352412D01*
X57748444Y-87358414D01*
X57844951Y-87547820D01*
X57969890Y-87719786D01*
X58120213Y-87870109D01*
X58292182Y-87995050D01*
X58300946Y-87999516D01*
X58351742Y-88047491D01*
X58368536Y-88115312D01*
X58345998Y-88181447D01*
X58300946Y-88220484D01*
X58292182Y-88224949D01*
X58120213Y-88349890D01*
X57969890Y-88500213D01*
X57844951Y-88672179D01*
X57748444Y-88861585D01*
X57682753Y-89063760D01*
X57649500Y-89273713D01*
X57649500Y-89486286D01*
X57675096Y-89647896D01*
X57682754Y-89696243D01*
X57741906Y-89878294D01*
X57748444Y-89898414D01*
X57844951Y-90087820D01*
X57969890Y-90259786D01*
X58120213Y-90410109D01*
X58292182Y-90535050D01*
X58300946Y-90539516D01*
X58351742Y-90587491D01*
X58368536Y-90655312D01*
X58345998Y-90721447D01*
X58300946Y-90760484D01*
X58292182Y-90764949D01*
X58120213Y-90889890D01*
X57969890Y-91040213D01*
X57844951Y-91212179D01*
X57748444Y-91401585D01*
X57682753Y-91603760D01*
X57656371Y-91770331D01*
X57649500Y-91813713D01*
X57649500Y-92026287D01*
X57649851Y-92028500D01*
X57682735Y-92236127D01*
X57682754Y-92236243D01*
X57741906Y-92418294D01*
X57748444Y-92438414D01*
X57844951Y-92627820D01*
X57969890Y-92799786D01*
X58120213Y-92950109D01*
X58292182Y-93075050D01*
X58300946Y-93079516D01*
X58351742Y-93127491D01*
X58368536Y-93195312D01*
X58345998Y-93261447D01*
X58300946Y-93300484D01*
X58292182Y-93304949D01*
X58120213Y-93429890D01*
X57969890Y-93580213D01*
X57844951Y-93752179D01*
X57748444Y-93941585D01*
X57682753Y-94143760D01*
X57649500Y-94353713D01*
X57649500Y-94566286D01*
X57682735Y-94776127D01*
X57682754Y-94776243D01*
X57741906Y-94958294D01*
X57748444Y-94978414D01*
X57844951Y-95167820D01*
X57969890Y-95339786D01*
X58083430Y-95453326D01*
X58116915Y-95514649D01*
X58111931Y-95584341D01*
X58070059Y-95640274D01*
X58039083Y-95657189D01*
X57907669Y-95706203D01*
X57907664Y-95706206D01*
X57792455Y-95792452D01*
X57792452Y-95792455D01*
X57706206Y-95907664D01*
X57706202Y-95907671D01*
X57655908Y-96042517D01*
X57649501Y-96102116D01*
X57649500Y-96102135D01*
X57649500Y-97897870D01*
X57649501Y-97897876D01*
X57655908Y-97957483D01*
X57706202Y-98092328D01*
X57706206Y-98092335D01*
X57792452Y-98207544D01*
X57792455Y-98207547D01*
X57907664Y-98293793D01*
X57907671Y-98293797D01*
X58042517Y-98344091D01*
X58042516Y-98344091D01*
X58049444Y-98344835D01*
X58102127Y-98350500D01*
X59897872Y-98350499D01*
X59957483Y-98344091D01*
X60092331Y-98293796D01*
X60207546Y-98207546D01*
X60276234Y-98115789D01*
X60332167Y-98073920D01*
X60401859Y-98068936D01*
X60463182Y-98102421D01*
X60496666Y-98163745D01*
X60499500Y-98190102D01*
X60499500Y-99375500D01*
X60479815Y-99442539D01*
X60427011Y-99488294D01*
X60375500Y-99499500D01*
X49402649Y-99499500D01*
X49335610Y-99479815D01*
X49289855Y-99427011D01*
X49279911Y-99357853D01*
X49308936Y-99294297D01*
X49346354Y-99265015D01*
X49475816Y-99199051D01*
X49562138Y-99136335D01*
X49647786Y-99074109D01*
X49647788Y-99074106D01*
X49647792Y-99074104D01*
X49798104Y-98923792D01*
X49798106Y-98923788D01*
X49798109Y-98923786D01*
X49923048Y-98751820D01*
X49923047Y-98751820D01*
X49923051Y-98751816D01*
X50019557Y-98562412D01*
X50085246Y-98360243D01*
X50118500Y-98150287D01*
X50118500Y-97937713D01*
X50085246Y-97727757D01*
X50019557Y-97525588D01*
X49923051Y-97336184D01*
X49923049Y-97336181D01*
X49923048Y-97336179D01*
X49798109Y-97164213D01*
X49647786Y-97013890D01*
X49475820Y-96888951D01*
X49286414Y-96792444D01*
X49286413Y-96792443D01*
X49286412Y-96792443D01*
X49084243Y-96726754D01*
X49084241Y-96726753D01*
X49084240Y-96726753D01*
X48922957Y-96701208D01*
X48874287Y-96693500D01*
X48661713Y-96693500D01*
X48613042Y-96701208D01*
X48451760Y-96726753D01*
X48249585Y-96792444D01*
X48060179Y-96888951D01*
X47888215Y-97013889D01*
X47774673Y-97127431D01*
X47713350Y-97160915D01*
X47643658Y-97155931D01*
X47587725Y-97114059D01*
X47570810Y-97083082D01*
X47521797Y-96951671D01*
X47521793Y-96951664D01*
X47435547Y-96836455D01*
X47435544Y-96836452D01*
X47320335Y-96750206D01*
X47320328Y-96750202D01*
X47185482Y-96699908D01*
X47185483Y-96699908D01*
X47125883Y-96693501D01*
X47125881Y-96693500D01*
X47125873Y-96693500D01*
X47125864Y-96693500D01*
X45330129Y-96693500D01*
X45330123Y-96693501D01*
X45270516Y-96699908D01*
X45135671Y-96750202D01*
X45135664Y-96750206D01*
X45020455Y-96836452D01*
X45020452Y-96836455D01*
X44934206Y-96951664D01*
X44934202Y-96951671D01*
X44883908Y-97086517D01*
X44877501Y-97146116D01*
X44877500Y-97146135D01*
X44877500Y-98941870D01*
X44877501Y-98941876D01*
X44883908Y-99001483D01*
X44934202Y-99136328D01*
X44934206Y-99136335D01*
X45020452Y-99251544D01*
X45020453Y-99251544D01*
X45020454Y-99251546D01*
X45053433Y-99276234D01*
X45095303Y-99332168D01*
X45100287Y-99401860D01*
X45066801Y-99463182D01*
X45005478Y-99496667D01*
X44979121Y-99499500D01*
X624500Y-99499500D01*
X557461Y-99479815D01*
X511706Y-99427011D01*
X500500Y-99375500D01*
X500500Y-98189269D01*
X520185Y-98122230D01*
X572989Y-98076475D01*
X642147Y-98066531D01*
X705703Y-98095556D01*
X723766Y-98114958D01*
X792809Y-98207187D01*
X792812Y-98207190D01*
X907906Y-98293350D01*
X907913Y-98293354D01*
X1042620Y-98343596D01*
X1042627Y-98343598D01*
X1102155Y-98349999D01*
X1102172Y-98350000D01*
X1750000Y-98350000D01*
X1750000Y-97433012D01*
X1807007Y-97465925D01*
X1934174Y-97500000D01*
X2065826Y-97500000D01*
X2192993Y-97465925D01*
X2250000Y-97433012D01*
X2250000Y-98350000D01*
X2897828Y-98350000D01*
X2897844Y-98349999D01*
X2957372Y-98343598D01*
X2957379Y-98343596D01*
X3092086Y-98293354D01*
X3092093Y-98293350D01*
X3207187Y-98207190D01*
X3207190Y-98207187D01*
X3293350Y-98092093D01*
X3293354Y-98092086D01*
X3343596Y-97957379D01*
X3343598Y-97957372D01*
X3349999Y-97897844D01*
X3350000Y-97897827D01*
X3350000Y-97250000D01*
X2433012Y-97250000D01*
X2465925Y-97192993D01*
X2500000Y-97065826D01*
X2500000Y-96934174D01*
X2465925Y-96807007D01*
X2433012Y-96750000D01*
X3350000Y-96750000D01*
X3350000Y-96102172D01*
X3349999Y-96102155D01*
X3343598Y-96042627D01*
X3343596Y-96042620D01*
X3293354Y-95907913D01*
X3293350Y-95907906D01*
X3207190Y-95792812D01*
X3207187Y-95792809D01*
X3092093Y-95706649D01*
X3092086Y-95706645D01*
X2957380Y-95656403D01*
X2957373Y-95656401D01*
X2874555Y-95647497D01*
X2874884Y-95644431D01*
X2857875Y-95645330D01*
X2798803Y-95612356D01*
X2129408Y-94942962D01*
X2192993Y-94925925D01*
X2307007Y-94860099D01*
X2400099Y-94767007D01*
X2465925Y-94652993D01*
X2482962Y-94589408D01*
X3115270Y-95221717D01*
X3115270Y-95221716D01*
X3154622Y-95167554D01*
X3251095Y-94978217D01*
X3316757Y-94776130D01*
X3316757Y-94776127D01*
X3350000Y-94566246D01*
X3350000Y-94499982D01*
X24499500Y-94499982D01*
X24499500Y-98500017D01*
X24510000Y-98602796D01*
X24544163Y-98705892D01*
X24565186Y-98769335D01*
X24657288Y-98918656D01*
X24781344Y-99042712D01*
X24930665Y-99134814D01*
X25097202Y-99189999D01*
X25199990Y-99200500D01*
X25199995Y-99200500D01*
X29200005Y-99200500D01*
X29200010Y-99200500D01*
X29302798Y-99189999D01*
X29469335Y-99134814D01*
X29618656Y-99042712D01*
X29742712Y-98918656D01*
X29834814Y-98769335D01*
X29889999Y-98602798D01*
X29900500Y-98500010D01*
X29900500Y-96348336D01*
X33299500Y-96348336D01*
X33299500Y-96651663D01*
X33333457Y-96953048D01*
X33333460Y-96953062D01*
X33400953Y-97248771D01*
X33400957Y-97248783D01*
X33501133Y-97535068D01*
X33632733Y-97808338D01*
X33632735Y-97808341D01*
X33794108Y-98065164D01*
X33872724Y-98163745D01*
X33976083Y-98293354D01*
X33983221Y-98302304D01*
X34197696Y-98516779D01*
X34434836Y-98705892D01*
X34691659Y-98867265D01*
X34964935Y-98998868D01*
X35179948Y-99074104D01*
X35251216Y-99099042D01*
X35251228Y-99099046D01*
X35546937Y-99166540D01*
X35546946Y-99166541D01*
X35546951Y-99166542D01*
X35747874Y-99189180D01*
X35848337Y-99200499D01*
X35848340Y-99200500D01*
X35848343Y-99200500D01*
X36151660Y-99200500D01*
X36151661Y-99200499D01*
X36305694Y-99183144D01*
X36453048Y-99166542D01*
X36453051Y-99166541D01*
X36453063Y-99166540D01*
X36748772Y-99099046D01*
X37035065Y-98998868D01*
X37308341Y-98867265D01*
X37565164Y-98705892D01*
X37802304Y-98516779D01*
X38016779Y-98302304D01*
X38205892Y-98065164D01*
X38367265Y-97808341D01*
X38498868Y-97535065D01*
X38599046Y-97248772D01*
X38666540Y-96953063D01*
X38668669Y-96934174D01*
X38689396Y-96750206D01*
X38700500Y-96651657D01*
X38700500Y-96348343D01*
X38689180Y-96247874D01*
X38666542Y-96046951D01*
X38666541Y-96046946D01*
X38666540Y-96046937D01*
X38599046Y-95751228D01*
X38583291Y-95706204D01*
X38565865Y-95656401D01*
X38498868Y-95464935D01*
X38367265Y-95191659D01*
X38205892Y-94934836D01*
X38016779Y-94697696D01*
X37802304Y-94483221D01*
X37565164Y-94294108D01*
X37340581Y-94152993D01*
X37308338Y-94132733D01*
X37035068Y-94001133D01*
X36748783Y-93900957D01*
X36748771Y-93900953D01*
X36520556Y-93848864D01*
X36453063Y-93833460D01*
X36453060Y-93833459D01*
X36453048Y-93833457D01*
X36151663Y-93799500D01*
X36151657Y-93799500D01*
X35848343Y-93799500D01*
X35848336Y-93799500D01*
X35546951Y-93833457D01*
X35546937Y-93833460D01*
X35251228Y-93900953D01*
X35251216Y-93900957D01*
X34964931Y-94001133D01*
X34691661Y-94132733D01*
X34434837Y-94294107D01*
X34197696Y-94483220D01*
X33983220Y-94697696D01*
X33794107Y-94934837D01*
X33632733Y-95191661D01*
X33501133Y-95464931D01*
X33400957Y-95751216D01*
X33400953Y-95751228D01*
X33333460Y-96046937D01*
X33333457Y-96046951D01*
X33299500Y-96348336D01*
X29900500Y-96348336D01*
X29900500Y-94499990D01*
X29889999Y-94397202D01*
X29834814Y-94230665D01*
X29742712Y-94081344D01*
X29618656Y-93957288D01*
X29469335Y-93865186D01*
X29302798Y-93810001D01*
X29302796Y-93810000D01*
X29200017Y-93799500D01*
X29200010Y-93799500D01*
X25199990Y-93799500D01*
X25199982Y-93799500D01*
X25097203Y-93810000D01*
X25097202Y-93810001D01*
X25026417Y-93833457D01*
X24930667Y-93865185D01*
X24930662Y-93865187D01*
X24781342Y-93957289D01*
X24657289Y-94081342D01*
X24565187Y-94230662D01*
X24565186Y-94230665D01*
X24510001Y-94397202D01*
X24510001Y-94397203D01*
X24510000Y-94397203D01*
X24499500Y-94499982D01*
X3350000Y-94499982D01*
X3350000Y-94353753D01*
X3316757Y-94143872D01*
X3316757Y-94143869D01*
X3251095Y-93941782D01*
X3154624Y-93752449D01*
X3115270Y-93698282D01*
X3115269Y-93698282D01*
X2482962Y-94330590D01*
X2465925Y-94267007D01*
X2400099Y-94152993D01*
X2307007Y-94059901D01*
X2192993Y-93994075D01*
X2129409Y-93977037D01*
X2761716Y-93344728D01*
X2707550Y-93305375D01*
X2697954Y-93300486D01*
X2647157Y-93252512D01*
X2630361Y-93184692D01*
X2652897Y-93118556D01*
X2697954Y-93079514D01*
X2707554Y-93074622D01*
X2761716Y-93035270D01*
X2761717Y-93035270D01*
X2129408Y-92402962D01*
X2192993Y-92385925D01*
X2307007Y-92320099D01*
X2400099Y-92227007D01*
X2465925Y-92112993D01*
X2482962Y-92049408D01*
X3115270Y-92681717D01*
X3115270Y-92681716D01*
X3154622Y-92627554D01*
X3251095Y-92438217D01*
X3316757Y-92236130D01*
X3316757Y-92236127D01*
X3350000Y-92026246D01*
X3350000Y-91813753D01*
X3316757Y-91603872D01*
X3316757Y-91603869D01*
X3251095Y-91401782D01*
X3154624Y-91212449D01*
X3115270Y-91158282D01*
X3115269Y-91158282D01*
X2482962Y-91790590D01*
X2465925Y-91727007D01*
X2400099Y-91612993D01*
X2307007Y-91519901D01*
X2192993Y-91454075D01*
X2129409Y-91437037D01*
X2761716Y-90804728D01*
X2707550Y-90765375D01*
X2697954Y-90760486D01*
X2647157Y-90712512D01*
X2630361Y-90644692D01*
X2652897Y-90578556D01*
X2697954Y-90539514D01*
X2707554Y-90534622D01*
X2761716Y-90495270D01*
X2761717Y-90495270D01*
X2129408Y-89862962D01*
X2192993Y-89845925D01*
X2307007Y-89780099D01*
X2400099Y-89687007D01*
X2465925Y-89572993D01*
X2482962Y-89509408D01*
X3115270Y-90141717D01*
X3115270Y-90141716D01*
X3154622Y-90087554D01*
X3251095Y-89898217D01*
X3289462Y-89780135D01*
X43607500Y-89780135D01*
X43607500Y-91575870D01*
X43607501Y-91575876D01*
X43613908Y-91635483D01*
X43664202Y-91770328D01*
X43664206Y-91770335D01*
X43750452Y-91885544D01*
X43750455Y-91885547D01*
X43865664Y-91971793D01*
X43865671Y-91971797D01*
X44000517Y-92022091D01*
X44000516Y-92022091D01*
X44007444Y-92022835D01*
X44060127Y-92028500D01*
X45855872Y-92028499D01*
X45915483Y-92022091D01*
X46050331Y-91971796D01*
X46165546Y-91885546D01*
X46251796Y-91770331D01*
X46300810Y-91638916D01*
X46342681Y-91582984D01*
X46408145Y-91558566D01*
X46476418Y-91573417D01*
X46504673Y-91594569D01*
X46618213Y-91708109D01*
X46790179Y-91833048D01*
X46790181Y-91833049D01*
X46790184Y-91833051D01*
X46979588Y-91929557D01*
X47181757Y-91995246D01*
X47391713Y-92028500D01*
X47391714Y-92028500D01*
X47604286Y-92028500D01*
X47604287Y-92028500D01*
X47814243Y-91995246D01*
X48016412Y-91929557D01*
X48205816Y-91833051D01*
X48292138Y-91770335D01*
X48377786Y-91708109D01*
X48377788Y-91708106D01*
X48377792Y-91708104D01*
X48528104Y-91557792D01*
X48528106Y-91557788D01*
X48528109Y-91557786D01*
X48653048Y-91385820D01*
X48653047Y-91385820D01*
X48653051Y-91385816D01*
X48657514Y-91377054D01*
X48705488Y-91326259D01*
X48773308Y-91309463D01*
X48839444Y-91331999D01*
X48878486Y-91377056D01*
X48882951Y-91385820D01*
X49007890Y-91557786D01*
X49158213Y-91708109D01*
X49330179Y-91833048D01*
X49330181Y-91833049D01*
X49330184Y-91833051D01*
X49519588Y-91929557D01*
X49721757Y-91995246D01*
X49931713Y-92028500D01*
X49931714Y-92028500D01*
X50144286Y-92028500D01*
X50144287Y-92028500D01*
X50354243Y-91995246D01*
X50556412Y-91929557D01*
X50745816Y-91833051D01*
X50832138Y-91770335D01*
X50917786Y-91708109D01*
X50917788Y-91708106D01*
X50917792Y-91708104D01*
X51068104Y-91557792D01*
X51068106Y-91557788D01*
X51068109Y-91557786D01*
X51193048Y-91385820D01*
X51193047Y-91385820D01*
X51193051Y-91385816D01*
X51289557Y-91196412D01*
X51355246Y-90994243D01*
X51388500Y-90784287D01*
X51388500Y-90571713D01*
X51355246Y-90361757D01*
X51289557Y-90159588D01*
X51193051Y-89970184D01*
X51193049Y-89970181D01*
X51193048Y-89970179D01*
X51068109Y-89798213D01*
X50917786Y-89647890D01*
X50745820Y-89522951D01*
X50556414Y-89426444D01*
X50556413Y-89426443D01*
X50556412Y-89426443D01*
X50354243Y-89360754D01*
X50354241Y-89360753D01*
X50354240Y-89360753D01*
X50192957Y-89335208D01*
X50144287Y-89327500D01*
X49931713Y-89327500D01*
X49883042Y-89335208D01*
X49721760Y-89360753D01*
X49519585Y-89426444D01*
X49330179Y-89522951D01*
X49158213Y-89647890D01*
X49007890Y-89798213D01*
X48882949Y-89970182D01*
X48878484Y-89978946D01*
X48830509Y-90029742D01*
X48762688Y-90046536D01*
X48696553Y-90023998D01*
X48657516Y-89978946D01*
X48653050Y-89970182D01*
X48528109Y-89798213D01*
X48377786Y-89647890D01*
X48205820Y-89522951D01*
X48016414Y-89426444D01*
X48016413Y-89426443D01*
X48016412Y-89426443D01*
X47814243Y-89360754D01*
X47814241Y-89360753D01*
X47814240Y-89360753D01*
X47652957Y-89335208D01*
X47604287Y-89327500D01*
X47391713Y-89327500D01*
X47343042Y-89335208D01*
X47181760Y-89360753D01*
X46979585Y-89426444D01*
X46790179Y-89522951D01*
X46618215Y-89647889D01*
X46504673Y-89761431D01*
X46443350Y-89794915D01*
X46373658Y-89789931D01*
X46317725Y-89748059D01*
X46300810Y-89717082D01*
X46251797Y-89585671D01*
X46251793Y-89585664D01*
X46165547Y-89470455D01*
X46165544Y-89470452D01*
X46050335Y-89384206D01*
X46050328Y-89384202D01*
X45915482Y-89333908D01*
X45915483Y-89333908D01*
X45855883Y-89327501D01*
X45855881Y-89327500D01*
X45855873Y-89327500D01*
X45855864Y-89327500D01*
X44060129Y-89327500D01*
X44060123Y-89327501D01*
X44000516Y-89333908D01*
X43865671Y-89384202D01*
X43865664Y-89384206D01*
X43750455Y-89470452D01*
X43750452Y-89470455D01*
X43664206Y-89585664D01*
X43664202Y-89585671D01*
X43613908Y-89720517D01*
X43607501Y-89780116D01*
X43607500Y-89780135D01*
X3289462Y-89780135D01*
X3302994Y-89738488D01*
X3302994Y-89738487D01*
X3316758Y-89696126D01*
X3350000Y-89486246D01*
X3350000Y-89273753D01*
X3316757Y-89063872D01*
X3316757Y-89063869D01*
X3251095Y-88861782D01*
X3154624Y-88672449D01*
X3115270Y-88618282D01*
X3115269Y-88618282D01*
X2482962Y-89250590D01*
X2465925Y-89187007D01*
X2400099Y-89072993D01*
X2307007Y-88979901D01*
X2192993Y-88914075D01*
X2129409Y-88897037D01*
X2761716Y-88264728D01*
X2707550Y-88225375D01*
X2697954Y-88220486D01*
X2647157Y-88172512D01*
X2630361Y-88104692D01*
X2652897Y-88038556D01*
X2697954Y-87999514D01*
X2707554Y-87994622D01*
X2761716Y-87955270D01*
X2761717Y-87955270D01*
X2129408Y-87322962D01*
X2192993Y-87305925D01*
X2307007Y-87240099D01*
X2400099Y-87147007D01*
X2465925Y-87032993D01*
X2482962Y-86969408D01*
X3115270Y-87601717D01*
X3115270Y-87601716D01*
X3154622Y-87547554D01*
X3251095Y-87358217D01*
X3316757Y-87156130D01*
X3316757Y-87156127D01*
X3350000Y-86946246D01*
X3350000Y-86733763D01*
X3349998Y-86733744D01*
X3349043Y-86727713D01*
X5253500Y-86727713D01*
X5253500Y-86940287D01*
X5286754Y-87150243D01*
X5348380Y-87339908D01*
X5352444Y-87352414D01*
X5448951Y-87541820D01*
X5573890Y-87713786D01*
X5724213Y-87864109D01*
X5896179Y-87989048D01*
X5896181Y-87989049D01*
X5896184Y-87989051D01*
X6085588Y-88085557D01*
X6287757Y-88151246D01*
X6497713Y-88184500D01*
X6497714Y-88184500D01*
X6710286Y-88184500D01*
X6710287Y-88184500D01*
X6920243Y-88151246D01*
X7122412Y-88085557D01*
X7311816Y-87989051D01*
X7483792Y-87864104D01*
X7597329Y-87750566D01*
X7658648Y-87717084D01*
X7728340Y-87722068D01*
X7784274Y-87763939D01*
X7801189Y-87794917D01*
X7850202Y-87926328D01*
X7850206Y-87926335D01*
X7936452Y-88041544D01*
X7936455Y-88041547D01*
X8051664Y-88127793D01*
X8051671Y-88127797D01*
X8186517Y-88178091D01*
X8186516Y-88178091D01*
X8193444Y-88178835D01*
X8246127Y-88184500D01*
X10041872Y-88184499D01*
X10101483Y-88178091D01*
X10236331Y-88127796D01*
X10351546Y-88041546D01*
X10437796Y-87926331D01*
X10488091Y-87791483D01*
X10494500Y-87731873D01*
X10494499Y-85936135D01*
X47793500Y-85936135D01*
X47793500Y-87731870D01*
X47793501Y-87731876D01*
X47799908Y-87791483D01*
X47850202Y-87926328D01*
X47850206Y-87926335D01*
X47936452Y-88041544D01*
X47936455Y-88041547D01*
X48051664Y-88127793D01*
X48051671Y-88127797D01*
X48186517Y-88178091D01*
X48186516Y-88178091D01*
X48193444Y-88178835D01*
X48246127Y-88184500D01*
X50041872Y-88184499D01*
X50101483Y-88178091D01*
X50236331Y-88127796D01*
X50351546Y-88041546D01*
X50437796Y-87926331D01*
X50486810Y-87794916D01*
X50528681Y-87738984D01*
X50594145Y-87714566D01*
X50662418Y-87729417D01*
X50690673Y-87750569D01*
X50804213Y-87864109D01*
X50976179Y-87989048D01*
X50976181Y-87989049D01*
X50976184Y-87989051D01*
X51165588Y-88085557D01*
X51367757Y-88151246D01*
X51577713Y-88184500D01*
X51577714Y-88184500D01*
X51790286Y-88184500D01*
X51790287Y-88184500D01*
X52000243Y-88151246D01*
X52202412Y-88085557D01*
X52391816Y-87989051D01*
X52478138Y-87926335D01*
X52563786Y-87864109D01*
X52563788Y-87864106D01*
X52563792Y-87864104D01*
X52714104Y-87713792D01*
X52714106Y-87713788D01*
X52714109Y-87713786D01*
X52839048Y-87541820D01*
X52839047Y-87541820D01*
X52839051Y-87541816D01*
X52935557Y-87352412D01*
X53001246Y-87150243D01*
X53034500Y-86940287D01*
X53034500Y-86727713D01*
X53001246Y-86517757D01*
X52935557Y-86315588D01*
X52839051Y-86126184D01*
X52839049Y-86126181D01*
X52839048Y-86126179D01*
X52714109Y-85954213D01*
X52563786Y-85803890D01*
X52391820Y-85678951D01*
X52202414Y-85582444D01*
X52202413Y-85582443D01*
X52202412Y-85582443D01*
X52000243Y-85516754D01*
X52000241Y-85516753D01*
X52000240Y-85516753D01*
X51838957Y-85491208D01*
X51790287Y-85483500D01*
X51577713Y-85483500D01*
X51529042Y-85491208D01*
X51367760Y-85516753D01*
X51165585Y-85582444D01*
X50976179Y-85678951D01*
X50804215Y-85803889D01*
X50690673Y-85917431D01*
X50629350Y-85950915D01*
X50559658Y-85945931D01*
X50503725Y-85904059D01*
X50486810Y-85873082D01*
X50437797Y-85741671D01*
X50437793Y-85741664D01*
X50351547Y-85626455D01*
X50351544Y-85626452D01*
X50236335Y-85540206D01*
X50236328Y-85540202D01*
X50101482Y-85489908D01*
X50101483Y-85489908D01*
X50041883Y-85483501D01*
X50041881Y-85483500D01*
X50041873Y-85483500D01*
X50041864Y-85483500D01*
X48246129Y-85483500D01*
X48246123Y-85483501D01*
X48186516Y-85489908D01*
X48051671Y-85540202D01*
X48051664Y-85540206D01*
X47936455Y-85626452D01*
X47936452Y-85626455D01*
X47850206Y-85741664D01*
X47850202Y-85741671D01*
X47799908Y-85876517D01*
X47793501Y-85936116D01*
X47793500Y-85936135D01*
X10494499Y-85936135D01*
X10494499Y-85936128D01*
X10488091Y-85876517D01*
X10486810Y-85873083D01*
X10437797Y-85741671D01*
X10437793Y-85741664D01*
X10351547Y-85626455D01*
X10351544Y-85626452D01*
X10236335Y-85540206D01*
X10236328Y-85540202D01*
X10101482Y-85489908D01*
X10101483Y-85489908D01*
X10041883Y-85483501D01*
X10041881Y-85483500D01*
X10041873Y-85483500D01*
X10041864Y-85483500D01*
X8246129Y-85483500D01*
X8246123Y-85483501D01*
X8186516Y-85489908D01*
X8051671Y-85540202D01*
X8051664Y-85540206D01*
X7936455Y-85626452D01*
X7936452Y-85626455D01*
X7850206Y-85741664D01*
X7850203Y-85741669D01*
X7801189Y-85873083D01*
X7759317Y-85929016D01*
X7693853Y-85953433D01*
X7625580Y-85938581D01*
X7597326Y-85917430D01*
X7483786Y-85803890D01*
X7311820Y-85678951D01*
X7122414Y-85582444D01*
X7122413Y-85582443D01*
X7122412Y-85582443D01*
X6920243Y-85516754D01*
X6920241Y-85516753D01*
X6920240Y-85516753D01*
X6758957Y-85491208D01*
X6710287Y-85483500D01*
X6497713Y-85483500D01*
X6449042Y-85491208D01*
X6287760Y-85516753D01*
X6085585Y-85582444D01*
X5896179Y-85678951D01*
X5724213Y-85803890D01*
X5573890Y-85954213D01*
X5448951Y-86126179D01*
X5352444Y-86315585D01*
X5286753Y-86517760D01*
X5253500Y-86727713D01*
X3349043Y-86727713D01*
X3316757Y-86523872D01*
X3316757Y-86523869D01*
X3251095Y-86321782D01*
X3154624Y-86132449D01*
X3115270Y-86078282D01*
X3115269Y-86078282D01*
X2482962Y-86710590D01*
X2465925Y-86647007D01*
X2400099Y-86532993D01*
X2307007Y-86439901D01*
X2192993Y-86374075D01*
X2129409Y-86357037D01*
X2761716Y-85724728D01*
X2707550Y-85685375D01*
X2697954Y-85680486D01*
X2647157Y-85632512D01*
X2630361Y-85564692D01*
X2652897Y-85498556D01*
X2697954Y-85459514D01*
X2707554Y-85454622D01*
X2761716Y-85415270D01*
X2761717Y-85415270D01*
X2129408Y-84782962D01*
X2192993Y-84765925D01*
X2307007Y-84700099D01*
X2400099Y-84607007D01*
X2465925Y-84492993D01*
X2482962Y-84429408D01*
X3115270Y-85061717D01*
X3115270Y-85061716D01*
X3154622Y-85007554D01*
X3251095Y-84818217D01*
X3316757Y-84616130D01*
X3316757Y-84616127D01*
X3350000Y-84406246D01*
X3350000Y-84193753D01*
X3316757Y-83983872D01*
X3316757Y-83983869D01*
X3251095Y-83781782D01*
X3154624Y-83592449D01*
X3115270Y-83538282D01*
X3115269Y-83538282D01*
X2482962Y-84170590D01*
X2465925Y-84107007D01*
X2400099Y-83992993D01*
X2307007Y-83899901D01*
X2192993Y-83834075D01*
X2129409Y-83817037D01*
X2761716Y-83184728D01*
X2707550Y-83145375D01*
X2518217Y-83048904D01*
X2316129Y-82983242D01*
X2106246Y-82950000D01*
X1893754Y-82950000D01*
X1683872Y-82983242D01*
X1683869Y-82983242D01*
X1481782Y-83048904D01*
X1292439Y-83145380D01*
X1238282Y-83184727D01*
X1238282Y-83184728D01*
X1870591Y-83817037D01*
X1807007Y-83834075D01*
X1692993Y-83899901D01*
X1599901Y-83992993D01*
X1534075Y-84107007D01*
X1517037Y-84170591D01*
X884728Y-83538282D01*
X884727Y-83538282D01*
X845380Y-83592439D01*
X748904Y-83781782D01*
X742431Y-83801706D01*
X702994Y-83859381D01*
X638635Y-83886580D01*
X569789Y-83874665D01*
X518313Y-83827421D01*
X500500Y-83763388D01*
X500500Y-68727713D01*
X5253500Y-68727713D01*
X5253500Y-68940286D01*
X5286735Y-69150127D01*
X5286754Y-69150243D01*
X5344451Y-69327816D01*
X5352444Y-69352414D01*
X5448951Y-69541820D01*
X5573890Y-69713786D01*
X5724213Y-69864109D01*
X5896179Y-69989048D01*
X5896181Y-69989049D01*
X5896184Y-69989051D01*
X6085588Y-70085557D01*
X6287757Y-70151246D01*
X6497713Y-70184500D01*
X6497714Y-70184500D01*
X6710286Y-70184500D01*
X6710287Y-70184500D01*
X6920243Y-70151246D01*
X7122412Y-70085557D01*
X7311816Y-69989051D01*
X7398471Y-69926093D01*
X7483784Y-69864110D01*
X7483784Y-69864109D01*
X7483792Y-69864104D01*
X7597329Y-69750566D01*
X7658648Y-69717084D01*
X7728340Y-69722068D01*
X7784274Y-69763939D01*
X7801189Y-69794917D01*
X7850202Y-69926328D01*
X7850206Y-69926335D01*
X7936452Y-70041544D01*
X7936455Y-70041547D01*
X8051664Y-70127793D01*
X8051671Y-70127797D01*
X8186517Y-70178091D01*
X8186516Y-70178091D01*
X8193444Y-70178835D01*
X8246127Y-70184500D01*
X10041872Y-70184499D01*
X10101483Y-70178091D01*
X10236331Y-70127796D01*
X10351546Y-70041546D01*
X10437796Y-69926331D01*
X10488091Y-69791483D01*
X10494500Y-69731873D01*
X10494499Y-68834000D01*
X10494499Y-67936155D01*
X47794000Y-67936155D01*
X47794000Y-68584000D01*
X48710988Y-68584000D01*
X48678075Y-68641007D01*
X48644000Y-68768174D01*
X48644000Y-68899826D01*
X48678075Y-69026993D01*
X48710988Y-69084000D01*
X47794000Y-69084000D01*
X47794000Y-69731844D01*
X47800401Y-69791372D01*
X47800403Y-69791379D01*
X47850645Y-69926086D01*
X47850649Y-69926093D01*
X47936809Y-70041187D01*
X47936812Y-70041190D01*
X48051906Y-70127350D01*
X48051913Y-70127354D01*
X48186620Y-70177596D01*
X48186627Y-70177598D01*
X48246155Y-70183999D01*
X48246172Y-70184000D01*
X48894000Y-70184000D01*
X48894000Y-69267012D01*
X48951007Y-69299925D01*
X49078174Y-69334000D01*
X49209826Y-69334000D01*
X49336993Y-69299925D01*
X49394000Y-69267012D01*
X49394000Y-70184000D01*
X50041828Y-70184000D01*
X50041844Y-70183999D01*
X50101372Y-70177598D01*
X50101379Y-70177596D01*
X50236086Y-70127354D01*
X50236093Y-70127350D01*
X50351187Y-70041190D01*
X50351190Y-70041187D01*
X50437350Y-69926093D01*
X50437354Y-69926086D01*
X50459529Y-69866632D01*
X50498319Y-69693390D01*
X50498682Y-69692734D01*
X50498642Y-69691984D01*
X50531642Y-69632802D01*
X51201037Y-68963408D01*
X51218075Y-69026993D01*
X51283901Y-69141007D01*
X51376993Y-69234099D01*
X51491007Y-69299925D01*
X51554590Y-69316962D01*
X50922282Y-69949269D01*
X50922282Y-69949270D01*
X50976449Y-69988624D01*
X51165782Y-70085095D01*
X51367870Y-70150757D01*
X51577754Y-70184000D01*
X51790246Y-70184000D01*
X52000127Y-70150757D01*
X52000130Y-70150757D01*
X52202217Y-70085095D01*
X52391554Y-69988622D01*
X52445716Y-69949270D01*
X52445717Y-69949270D01*
X51813408Y-69316962D01*
X51876993Y-69299925D01*
X51991007Y-69234099D01*
X52084099Y-69141007D01*
X52149925Y-69026993D01*
X52166962Y-68963408D01*
X52799270Y-69595717D01*
X52799270Y-69595716D01*
X52838622Y-69541554D01*
X52935095Y-69352217D01*
X53000757Y-69150130D01*
X53000757Y-69150127D01*
X53034000Y-68940246D01*
X53034000Y-68727753D01*
X53000757Y-68517872D01*
X53000757Y-68517869D01*
X52935095Y-68315782D01*
X52838624Y-68126449D01*
X52799270Y-68072282D01*
X52799269Y-68072282D01*
X52166962Y-68704590D01*
X52149925Y-68641007D01*
X52084099Y-68526993D01*
X51991007Y-68433901D01*
X51876993Y-68368075D01*
X51813409Y-68351037D01*
X52445716Y-67718728D01*
X52391550Y-67679375D01*
X52202217Y-67582904D01*
X52000129Y-67517242D01*
X51790246Y-67484000D01*
X51577754Y-67484000D01*
X51367872Y-67517242D01*
X51367869Y-67517242D01*
X51165782Y-67582904D01*
X50976439Y-67679380D01*
X50922282Y-67718727D01*
X50922282Y-67718728D01*
X51554591Y-68351037D01*
X51491007Y-68368075D01*
X51376993Y-68433901D01*
X51283901Y-68526993D01*
X51218075Y-68641007D01*
X51201037Y-68704591D01*
X50531642Y-68035196D01*
X50498319Y-67974609D01*
X50459527Y-67801364D01*
X50437354Y-67741913D01*
X50437350Y-67741906D01*
X50351190Y-67626812D01*
X50351187Y-67626809D01*
X50236093Y-67540649D01*
X50236086Y-67540645D01*
X50101379Y-67490403D01*
X50101372Y-67490401D01*
X50041844Y-67484000D01*
X49394000Y-67484000D01*
X49394000Y-68400988D01*
X49336993Y-68368075D01*
X49209826Y-68334000D01*
X49078174Y-68334000D01*
X48951007Y-68368075D01*
X48894000Y-68400988D01*
X48894000Y-67484000D01*
X48246155Y-67484000D01*
X48186627Y-67490401D01*
X48186620Y-67490403D01*
X48051913Y-67540645D01*
X48051906Y-67540649D01*
X47936812Y-67626809D01*
X47936809Y-67626812D01*
X47850649Y-67741906D01*
X47850645Y-67741913D01*
X47800403Y-67876620D01*
X47800401Y-67876627D01*
X47794000Y-67936155D01*
X10494499Y-67936155D01*
X10494499Y-67936129D01*
X10494498Y-67936123D01*
X10491924Y-67912179D01*
X10488091Y-67876517D01*
X10486810Y-67873083D01*
X10437797Y-67741671D01*
X10437793Y-67741664D01*
X10351547Y-67626455D01*
X10351544Y-67626452D01*
X10236335Y-67540206D01*
X10236328Y-67540202D01*
X10101482Y-67489908D01*
X10101483Y-67489908D01*
X10041883Y-67483501D01*
X10041881Y-67483500D01*
X10041873Y-67483500D01*
X10041864Y-67483500D01*
X8246129Y-67483500D01*
X8246123Y-67483501D01*
X8186516Y-67489908D01*
X8051671Y-67540202D01*
X8051664Y-67540206D01*
X7936455Y-67626452D01*
X7936452Y-67626455D01*
X7850206Y-67741664D01*
X7850203Y-67741669D01*
X7801189Y-67873083D01*
X7759317Y-67929016D01*
X7693853Y-67953433D01*
X7625580Y-67938581D01*
X7597326Y-67917430D01*
X7483786Y-67803890D01*
X7311820Y-67678951D01*
X7122414Y-67582444D01*
X7122413Y-67582443D01*
X7122412Y-67582443D01*
X6920243Y-67516754D01*
X6920241Y-67516753D01*
X6920240Y-67516753D01*
X6758957Y-67491208D01*
X6710287Y-67483500D01*
X6497713Y-67483500D01*
X6449042Y-67491208D01*
X6287760Y-67516753D01*
X6085585Y-67582444D01*
X5896179Y-67678951D01*
X5724213Y-67803890D01*
X5573890Y-67954213D01*
X5448951Y-68126179D01*
X5352444Y-68315585D01*
X5286753Y-68517760D01*
X5253500Y-68727713D01*
X500500Y-68727713D01*
X500500Y-62123713D01*
X5507500Y-62123713D01*
X5507500Y-62336287D01*
X5540754Y-62546243D01*
X5577785Y-62660213D01*
X5606444Y-62748414D01*
X5702951Y-62937820D01*
X5827890Y-63109786D01*
X5978213Y-63260109D01*
X6150179Y-63385048D01*
X6150181Y-63385049D01*
X6150184Y-63385051D01*
X6339588Y-63481557D01*
X6541757Y-63547246D01*
X6751713Y-63580500D01*
X6751714Y-63580500D01*
X6964286Y-63580500D01*
X6964287Y-63580500D01*
X7174243Y-63547246D01*
X7376412Y-63481557D01*
X7565816Y-63385051D01*
X7737792Y-63260104D01*
X7851329Y-63146566D01*
X7912648Y-63113084D01*
X7982340Y-63118068D01*
X8038274Y-63159939D01*
X8055189Y-63190917D01*
X8104202Y-63322328D01*
X8104206Y-63322335D01*
X8190452Y-63437544D01*
X8190455Y-63437547D01*
X8305664Y-63523793D01*
X8305671Y-63523797D01*
X8440517Y-63574091D01*
X8440516Y-63574091D01*
X8447444Y-63574835D01*
X8500127Y-63580500D01*
X10295872Y-63580499D01*
X10355483Y-63574091D01*
X10490331Y-63523796D01*
X10605546Y-63437546D01*
X10691796Y-63322331D01*
X10742091Y-63187483D01*
X10748500Y-63127873D01*
X10748499Y-61332135D01*
X48047500Y-61332135D01*
X48047500Y-63127870D01*
X48047501Y-63127876D01*
X48053908Y-63187483D01*
X48104202Y-63322328D01*
X48104206Y-63322335D01*
X48190452Y-63437544D01*
X48190455Y-63437547D01*
X48305664Y-63523793D01*
X48305671Y-63523797D01*
X48440517Y-63574091D01*
X48440516Y-63574091D01*
X48447444Y-63574835D01*
X48500127Y-63580500D01*
X50295872Y-63580499D01*
X50355483Y-63574091D01*
X50490331Y-63523796D01*
X50605546Y-63437546D01*
X50691796Y-63322331D01*
X50740810Y-63190916D01*
X50782681Y-63134984D01*
X50848145Y-63110566D01*
X50916418Y-63125417D01*
X50944673Y-63146569D01*
X51058213Y-63260109D01*
X51230179Y-63385048D01*
X51230181Y-63385049D01*
X51230184Y-63385051D01*
X51419588Y-63481557D01*
X51621757Y-63547246D01*
X51831713Y-63580500D01*
X51831714Y-63580500D01*
X52044286Y-63580500D01*
X52044287Y-63580500D01*
X52254243Y-63547246D01*
X52456412Y-63481557D01*
X52645816Y-63385051D01*
X52732138Y-63322335D01*
X52817786Y-63260109D01*
X52817788Y-63260106D01*
X52817792Y-63260104D01*
X52968104Y-63109792D01*
X52968106Y-63109788D01*
X52968109Y-63109786D01*
X53093048Y-62937820D01*
X53093047Y-62937820D01*
X53093051Y-62937816D01*
X53189557Y-62748412D01*
X53255246Y-62546243D01*
X53288500Y-62336287D01*
X53288500Y-62123713D01*
X53255246Y-61913757D01*
X53189557Y-61711588D01*
X53093051Y-61522184D01*
X53093049Y-61522181D01*
X53093048Y-61522179D01*
X52968109Y-61350213D01*
X52817786Y-61199890D01*
X52645820Y-61074951D01*
X52456414Y-60978444D01*
X52456413Y-60978443D01*
X52456412Y-60978443D01*
X52254243Y-60912754D01*
X52254241Y-60912753D01*
X52254240Y-60912753D01*
X52092957Y-60887208D01*
X52044287Y-60879500D01*
X51831713Y-60879500D01*
X51783042Y-60887208D01*
X51621760Y-60912753D01*
X51419585Y-60978444D01*
X51230179Y-61074951D01*
X51058215Y-61199889D01*
X50944673Y-61313431D01*
X50883350Y-61346915D01*
X50813658Y-61341931D01*
X50757725Y-61300059D01*
X50740810Y-61269082D01*
X50691797Y-61137671D01*
X50691793Y-61137664D01*
X50605547Y-61022455D01*
X50605544Y-61022452D01*
X50490335Y-60936206D01*
X50490328Y-60936202D01*
X50355482Y-60885908D01*
X50355483Y-60885908D01*
X50295883Y-60879501D01*
X50295881Y-60879500D01*
X50295873Y-60879500D01*
X50295864Y-60879500D01*
X48500129Y-60879500D01*
X48500123Y-60879501D01*
X48440516Y-60885908D01*
X48305671Y-60936202D01*
X48305664Y-60936206D01*
X48190455Y-61022452D01*
X48190452Y-61022455D01*
X48104206Y-61137664D01*
X48104202Y-61137671D01*
X48053908Y-61272517D01*
X48047501Y-61332116D01*
X48047500Y-61332135D01*
X10748499Y-61332135D01*
X10748499Y-61332128D01*
X10742091Y-61272517D01*
X10740810Y-61269083D01*
X10691797Y-61137671D01*
X10691793Y-61137664D01*
X10605547Y-61022455D01*
X10605544Y-61022452D01*
X10490335Y-60936206D01*
X10490328Y-60936202D01*
X10355482Y-60885908D01*
X10355483Y-60885908D01*
X10295883Y-60879501D01*
X10295881Y-60879500D01*
X10295873Y-60879500D01*
X10295864Y-60879500D01*
X8500129Y-60879500D01*
X8500123Y-60879501D01*
X8440516Y-60885908D01*
X8305671Y-60936202D01*
X8305664Y-60936206D01*
X8190455Y-61022452D01*
X8190452Y-61022455D01*
X8104206Y-61137664D01*
X8104203Y-61137669D01*
X8055189Y-61269083D01*
X8013317Y-61325016D01*
X7947853Y-61349433D01*
X7879580Y-61334581D01*
X7851326Y-61313430D01*
X7737786Y-61199890D01*
X7565820Y-61074951D01*
X7376414Y-60978444D01*
X7376413Y-60978443D01*
X7376412Y-60978443D01*
X7174243Y-60912754D01*
X7174241Y-60912753D01*
X7174240Y-60912753D01*
X7012957Y-60887208D01*
X6964287Y-60879500D01*
X6751713Y-60879500D01*
X6703042Y-60887208D01*
X6541760Y-60912753D01*
X6339585Y-60978444D01*
X6150179Y-61074951D01*
X5978213Y-61199890D01*
X5827890Y-61350213D01*
X5702951Y-61522179D01*
X5606444Y-61711585D01*
X5540753Y-61913760D01*
X5533828Y-61957483D01*
X5507500Y-62123713D01*
X500500Y-62123713D01*
X500500Y-60102135D01*
X56649500Y-60102135D01*
X56649500Y-61897870D01*
X56649501Y-61897876D01*
X56655908Y-61957483D01*
X56706202Y-62092328D01*
X56706206Y-62092335D01*
X56792452Y-62207544D01*
X56792455Y-62207547D01*
X56907664Y-62293793D01*
X56907671Y-62293797D01*
X57039082Y-62342810D01*
X57095016Y-62384681D01*
X57119433Y-62450145D01*
X57104582Y-62518418D01*
X57083431Y-62546673D01*
X56969889Y-62660215D01*
X56844951Y-62832179D01*
X56748444Y-63021585D01*
X56682753Y-63223760D01*
X56649500Y-63433713D01*
X56649500Y-63646286D01*
X56682753Y-63856239D01*
X56748444Y-64058414D01*
X56844951Y-64247820D01*
X56969890Y-64419786D01*
X57120213Y-64570109D01*
X57292182Y-64695050D01*
X57300946Y-64699516D01*
X57351742Y-64747491D01*
X57368536Y-64815312D01*
X57345998Y-64881447D01*
X57300946Y-64920484D01*
X57292182Y-64924949D01*
X57120213Y-65049890D01*
X56969890Y-65200213D01*
X56844951Y-65372179D01*
X56748444Y-65561585D01*
X56682753Y-65763760D01*
X56649500Y-65973713D01*
X56649500Y-66186286D01*
X56682753Y-66396239D01*
X56748444Y-66598414D01*
X56844951Y-66787820D01*
X56969890Y-66959786D01*
X57120213Y-67110109D01*
X57292182Y-67235050D01*
X57300946Y-67239516D01*
X57351742Y-67287491D01*
X57368536Y-67355312D01*
X57345998Y-67421447D01*
X57300946Y-67460484D01*
X57292182Y-67464949D01*
X57120213Y-67589890D01*
X56969890Y-67740213D01*
X56844951Y-67912179D01*
X56748444Y-68101585D01*
X56682753Y-68303760D01*
X56672567Y-68368075D01*
X56649500Y-68513713D01*
X56649500Y-68726287D01*
X56682754Y-68936243D01*
X56730763Y-69084000D01*
X56748444Y-69138414D01*
X56844951Y-69327820D01*
X56969890Y-69499786D01*
X57120213Y-69650109D01*
X57292182Y-69775050D01*
X57300946Y-69779516D01*
X57351742Y-69827491D01*
X57368536Y-69895312D01*
X57345998Y-69961447D01*
X57300946Y-70000484D01*
X57292182Y-70004949D01*
X57120213Y-70129890D01*
X56969890Y-70280213D01*
X56844951Y-70452179D01*
X56748444Y-70641585D01*
X56682753Y-70843760D01*
X56649500Y-71053713D01*
X56649500Y-71266286D01*
X56682753Y-71476239D01*
X56748444Y-71678414D01*
X56844951Y-71867820D01*
X56969890Y-72039786D01*
X57120213Y-72190109D01*
X57292182Y-72315050D01*
X57300946Y-72319516D01*
X57351742Y-72367491D01*
X57368536Y-72435312D01*
X57345998Y-72501447D01*
X57300946Y-72540484D01*
X57292182Y-72544949D01*
X57120213Y-72669890D01*
X56969890Y-72820213D01*
X56844951Y-72992179D01*
X56748444Y-73181585D01*
X56682753Y-73383760D01*
X56649500Y-73593713D01*
X56649500Y-73806286D01*
X56682753Y-74016239D01*
X56748444Y-74218414D01*
X56844951Y-74407820D01*
X56969890Y-74579786D01*
X57120213Y-74730109D01*
X57292182Y-74855050D01*
X57300946Y-74859516D01*
X57351742Y-74907491D01*
X57368536Y-74975312D01*
X57345998Y-75041447D01*
X57300946Y-75080484D01*
X57292182Y-75084949D01*
X57120213Y-75209890D01*
X56969890Y-75360213D01*
X56844951Y-75532179D01*
X56748444Y-75721585D01*
X56682753Y-75923760D01*
X56649500Y-76133713D01*
X56649500Y-76346286D01*
X56682753Y-76556239D01*
X56748444Y-76758414D01*
X56844951Y-76947820D01*
X56969890Y-77119786D01*
X57120213Y-77270109D01*
X57292182Y-77395050D01*
X57300946Y-77399516D01*
X57351742Y-77447491D01*
X57368536Y-77515312D01*
X57345998Y-77581447D01*
X57300946Y-77620484D01*
X57292182Y-77624949D01*
X57120213Y-77749890D01*
X56969890Y-77900213D01*
X56844951Y-78072179D01*
X56748444Y-78261585D01*
X56682753Y-78463760D01*
X56649500Y-78673713D01*
X56649500Y-78886286D01*
X56682753Y-79096239D01*
X56748444Y-79298414D01*
X56844951Y-79487820D01*
X56969890Y-79659786D01*
X57120213Y-79810109D01*
X57292179Y-79935048D01*
X57292181Y-79935049D01*
X57292184Y-79935051D01*
X57481588Y-80031557D01*
X57683757Y-80097246D01*
X57893713Y-80130500D01*
X57893714Y-80130500D01*
X58106286Y-80130500D01*
X58106287Y-80130500D01*
X58316243Y-80097246D01*
X58518412Y-80031557D01*
X58707816Y-79935051D01*
X58729789Y-79919086D01*
X58879786Y-79810109D01*
X58879788Y-79810106D01*
X58879792Y-79810104D01*
X59030104Y-79659792D01*
X59030106Y-79659788D01*
X59030109Y-79659786D01*
X59155048Y-79487820D01*
X59155047Y-79487820D01*
X59155051Y-79487816D01*
X59251557Y-79298412D01*
X59317246Y-79096243D01*
X59350500Y-78886287D01*
X59350500Y-78673713D01*
X59317246Y-78463757D01*
X59251557Y-78261588D01*
X59155051Y-78072184D01*
X59155049Y-78072181D01*
X59155048Y-78072179D01*
X59030109Y-77900213D01*
X58879786Y-77749890D01*
X58707820Y-77624951D01*
X58707115Y-77624591D01*
X58699054Y-77620485D01*
X58648259Y-77572512D01*
X58631463Y-77504692D01*
X58653999Y-77438556D01*
X58699054Y-77399515D01*
X58707816Y-77395051D01*
X58729789Y-77379086D01*
X58879786Y-77270109D01*
X58879788Y-77270106D01*
X58879792Y-77270104D01*
X59030104Y-77119792D01*
X59030106Y-77119788D01*
X59030109Y-77119786D01*
X59155048Y-76947820D01*
X59155047Y-76947820D01*
X59155051Y-76947816D01*
X59251557Y-76758412D01*
X59317246Y-76556243D01*
X59350500Y-76346287D01*
X59350500Y-76133713D01*
X59317246Y-75923757D01*
X59251557Y-75721588D01*
X59155051Y-75532184D01*
X59155049Y-75532181D01*
X59155048Y-75532179D01*
X59030109Y-75360213D01*
X58879786Y-75209890D01*
X58707820Y-75084951D01*
X58707115Y-75084591D01*
X58699054Y-75080485D01*
X58648259Y-75032512D01*
X58631463Y-74964692D01*
X58653999Y-74898556D01*
X58699054Y-74859515D01*
X58707816Y-74855051D01*
X58729789Y-74839086D01*
X58879786Y-74730109D01*
X58879788Y-74730106D01*
X58879792Y-74730104D01*
X59030104Y-74579792D01*
X59030106Y-74579788D01*
X59030109Y-74579786D01*
X59155048Y-74407820D01*
X59155047Y-74407820D01*
X59155051Y-74407816D01*
X59251557Y-74218412D01*
X59317246Y-74016243D01*
X59350500Y-73806287D01*
X59350500Y-73593713D01*
X59317246Y-73383757D01*
X59251557Y-73181588D01*
X59155051Y-72992184D01*
X59155049Y-72992181D01*
X59155048Y-72992179D01*
X59030109Y-72820213D01*
X58879786Y-72669890D01*
X58707820Y-72544951D01*
X58707115Y-72544591D01*
X58699054Y-72540485D01*
X58648259Y-72492512D01*
X58631463Y-72424692D01*
X58653999Y-72358556D01*
X58699054Y-72319515D01*
X58707816Y-72315051D01*
X58729789Y-72299086D01*
X58879786Y-72190109D01*
X58879788Y-72190106D01*
X58879792Y-72190104D01*
X59030104Y-72039792D01*
X59030106Y-72039788D01*
X59030109Y-72039786D01*
X59155048Y-71867820D01*
X59155047Y-71867820D01*
X59155051Y-71867816D01*
X59251557Y-71678412D01*
X59317246Y-71476243D01*
X59350500Y-71266287D01*
X59350500Y-71053713D01*
X59317246Y-70843757D01*
X59251557Y-70641588D01*
X59155051Y-70452184D01*
X59155049Y-70452181D01*
X59155048Y-70452179D01*
X59030109Y-70280213D01*
X58879786Y-70129890D01*
X58707820Y-70004951D01*
X58707115Y-70004591D01*
X58699054Y-70000485D01*
X58648259Y-69952512D01*
X58631463Y-69884692D01*
X58653999Y-69818556D01*
X58699054Y-69779515D01*
X58707816Y-69775051D01*
X58767286Y-69731844D01*
X58879786Y-69650109D01*
X58879788Y-69650106D01*
X58879792Y-69650104D01*
X59030104Y-69499792D01*
X59030106Y-69499788D01*
X59030109Y-69499786D01*
X59155048Y-69327820D01*
X59155047Y-69327820D01*
X59155051Y-69327816D01*
X59251557Y-69138412D01*
X59317246Y-68936243D01*
X59350500Y-68726287D01*
X59350500Y-68513713D01*
X59317246Y-68303757D01*
X59251557Y-68101588D01*
X59155051Y-67912184D01*
X59155049Y-67912181D01*
X59155048Y-67912179D01*
X59030109Y-67740213D01*
X58879786Y-67589890D01*
X58707820Y-67464951D01*
X58707115Y-67464591D01*
X58699054Y-67460485D01*
X58648259Y-67412512D01*
X58631463Y-67344692D01*
X58653999Y-67278556D01*
X58699054Y-67239515D01*
X58707816Y-67235051D01*
X58729789Y-67219086D01*
X58879786Y-67110109D01*
X58879788Y-67110106D01*
X58879792Y-67110104D01*
X59030104Y-66959792D01*
X59030106Y-66959788D01*
X59030109Y-66959786D01*
X59155048Y-66787820D01*
X59155047Y-66787820D01*
X59155051Y-66787816D01*
X59251557Y-66598412D01*
X59317246Y-66396243D01*
X59350500Y-66186287D01*
X59350500Y-65973713D01*
X59317246Y-65763757D01*
X59251557Y-65561588D01*
X59155051Y-65372184D01*
X59155049Y-65372181D01*
X59155048Y-65372179D01*
X59030109Y-65200213D01*
X58879786Y-65049890D01*
X58707820Y-64924951D01*
X58707115Y-64924591D01*
X58699054Y-64920485D01*
X58648259Y-64872512D01*
X58631463Y-64804692D01*
X58653999Y-64738556D01*
X58699054Y-64699515D01*
X58707816Y-64695051D01*
X58729789Y-64679086D01*
X58879786Y-64570109D01*
X58879788Y-64570106D01*
X58879792Y-64570104D01*
X59030104Y-64419792D01*
X59030106Y-64419788D01*
X59030109Y-64419786D01*
X59155048Y-64247820D01*
X59155047Y-64247820D01*
X59155051Y-64247816D01*
X59251557Y-64058412D01*
X59317246Y-63856243D01*
X59350500Y-63646287D01*
X59350500Y-63433713D01*
X59317246Y-63223757D01*
X59251557Y-63021588D01*
X59155051Y-62832184D01*
X59155049Y-62832181D01*
X59155048Y-62832179D01*
X59030109Y-62660213D01*
X58916569Y-62546673D01*
X58883084Y-62485350D01*
X58888068Y-62415658D01*
X58929940Y-62359725D01*
X58960915Y-62342810D01*
X59092331Y-62293796D01*
X59207546Y-62207546D01*
X59293796Y-62092331D01*
X59344091Y-61957483D01*
X59350500Y-61897873D01*
X59350499Y-60102128D01*
X59344091Y-60042517D01*
X59293796Y-59907669D01*
X59293795Y-59907668D01*
X59293793Y-59907664D01*
X59207547Y-59792455D01*
X59207544Y-59792452D01*
X59092335Y-59706206D01*
X59092328Y-59706202D01*
X58957482Y-59655908D01*
X58957483Y-59655908D01*
X58897883Y-59649501D01*
X58897881Y-59649500D01*
X58897873Y-59649500D01*
X58897864Y-59649500D01*
X57102129Y-59649500D01*
X57102123Y-59649501D01*
X57042516Y-59655908D01*
X56907671Y-59706202D01*
X56907664Y-59706206D01*
X56792455Y-59792452D01*
X56792452Y-59792455D01*
X56706206Y-59907664D01*
X56706202Y-59907671D01*
X56655908Y-60042517D01*
X56649501Y-60102116D01*
X56649501Y-60102123D01*
X56649500Y-60102135D01*
X500500Y-60102135D01*
X500500Y-44123713D01*
X5507500Y-44123713D01*
X5507500Y-44336286D01*
X5540753Y-44546239D01*
X5606444Y-44748414D01*
X5702951Y-44937820D01*
X5827890Y-45109786D01*
X5978213Y-45260109D01*
X6150179Y-45385048D01*
X6150181Y-45385049D01*
X6150184Y-45385051D01*
X6339588Y-45481557D01*
X6541757Y-45547246D01*
X6751713Y-45580500D01*
X6751714Y-45580500D01*
X6964286Y-45580500D01*
X6964287Y-45580500D01*
X7174243Y-45547246D01*
X7376412Y-45481557D01*
X7565816Y-45385051D01*
X7737792Y-45260104D01*
X7851329Y-45146566D01*
X7912648Y-45113084D01*
X7982340Y-45118068D01*
X8038274Y-45159939D01*
X8055189Y-45190917D01*
X8104202Y-45322328D01*
X8104206Y-45322335D01*
X8190452Y-45437544D01*
X8190455Y-45437547D01*
X8305664Y-45523793D01*
X8305671Y-45523797D01*
X8440517Y-45574091D01*
X8440516Y-45574091D01*
X8447444Y-45574835D01*
X8500127Y-45580500D01*
X10295872Y-45580499D01*
X10355483Y-45574091D01*
X10490331Y-45523796D01*
X10605546Y-45437546D01*
X10691796Y-45322331D01*
X10742091Y-45187483D01*
X10748500Y-45127873D01*
X10748499Y-43332135D01*
X48047500Y-43332135D01*
X48047500Y-45127870D01*
X48047501Y-45127876D01*
X48053908Y-45187483D01*
X48104202Y-45322328D01*
X48104206Y-45322335D01*
X48190452Y-45437544D01*
X48190455Y-45437547D01*
X48305664Y-45523793D01*
X48305671Y-45523797D01*
X48440517Y-45574091D01*
X48440516Y-45574091D01*
X48447444Y-45574835D01*
X48500127Y-45580500D01*
X50295872Y-45580499D01*
X50355483Y-45574091D01*
X50490331Y-45523796D01*
X50605546Y-45437546D01*
X50691796Y-45322331D01*
X50740810Y-45190916D01*
X50782681Y-45134984D01*
X50848145Y-45110566D01*
X50916418Y-45125417D01*
X50944673Y-45146569D01*
X51058213Y-45260109D01*
X51230179Y-45385048D01*
X51230181Y-45385049D01*
X51230184Y-45385051D01*
X51419588Y-45481557D01*
X51621757Y-45547246D01*
X51831713Y-45580500D01*
X51831714Y-45580500D01*
X52044286Y-45580500D01*
X52044287Y-45580500D01*
X52254243Y-45547246D01*
X52456412Y-45481557D01*
X52645816Y-45385051D01*
X52732138Y-45322335D01*
X52817786Y-45260109D01*
X52817788Y-45260106D01*
X52817792Y-45260104D01*
X52968104Y-45109792D01*
X52968106Y-45109788D01*
X52968109Y-45109786D01*
X53093048Y-44937820D01*
X53093047Y-44937820D01*
X53093051Y-44937816D01*
X53189557Y-44748412D01*
X53255246Y-44546243D01*
X53288500Y-44336287D01*
X53288500Y-44123713D01*
X53255246Y-43913757D01*
X53189557Y-43711588D01*
X53093051Y-43522184D01*
X53093049Y-43522181D01*
X53093048Y-43522179D01*
X52968109Y-43350213D01*
X52817786Y-43199890D01*
X52645820Y-43074951D01*
X52456414Y-42978444D01*
X52456413Y-42978443D01*
X52456412Y-42978443D01*
X52254243Y-42912754D01*
X52254241Y-42912753D01*
X52254240Y-42912753D01*
X52092957Y-42887208D01*
X52044287Y-42879500D01*
X51831713Y-42879500D01*
X51783042Y-42887208D01*
X51621760Y-42912753D01*
X51419585Y-42978444D01*
X51230179Y-43074951D01*
X51058215Y-43199889D01*
X50944673Y-43313431D01*
X50883350Y-43346915D01*
X50813658Y-43341931D01*
X50757725Y-43300059D01*
X50740810Y-43269082D01*
X50691797Y-43137671D01*
X50691793Y-43137664D01*
X50605547Y-43022455D01*
X50605544Y-43022452D01*
X50490335Y-42936206D01*
X50490328Y-42936202D01*
X50355482Y-42885908D01*
X50355483Y-42885908D01*
X50295883Y-42879501D01*
X50295881Y-42879500D01*
X50295873Y-42879500D01*
X50295864Y-42879500D01*
X48500129Y-42879500D01*
X48500123Y-42879501D01*
X48440516Y-42885908D01*
X48305671Y-42936202D01*
X48305664Y-42936206D01*
X48190455Y-43022452D01*
X48190452Y-43022455D01*
X48104206Y-43137664D01*
X48104202Y-43137671D01*
X48053908Y-43272517D01*
X48047501Y-43332116D01*
X48047500Y-43332135D01*
X10748499Y-43332135D01*
X10748499Y-43332128D01*
X10742091Y-43272517D01*
X10740810Y-43269083D01*
X10691797Y-43137671D01*
X10691793Y-43137664D01*
X10605547Y-43022455D01*
X10605544Y-43022452D01*
X10490335Y-42936206D01*
X10490328Y-42936202D01*
X10355482Y-42885908D01*
X10355483Y-42885908D01*
X10295883Y-42879501D01*
X10295881Y-42879500D01*
X10295873Y-42879500D01*
X10295864Y-42879500D01*
X8500129Y-42879500D01*
X8500123Y-42879501D01*
X8440516Y-42885908D01*
X8305671Y-42936202D01*
X8305664Y-42936206D01*
X8190455Y-43022452D01*
X8190452Y-43022455D01*
X8104206Y-43137664D01*
X8104203Y-43137669D01*
X8055189Y-43269083D01*
X8013317Y-43325016D01*
X7947853Y-43349433D01*
X7879580Y-43334581D01*
X7851326Y-43313430D01*
X7737786Y-43199890D01*
X7565820Y-43074951D01*
X7376414Y-42978444D01*
X7376413Y-42978443D01*
X7376412Y-42978443D01*
X7174243Y-42912754D01*
X7174241Y-42912753D01*
X7174240Y-42912753D01*
X7012957Y-42887208D01*
X6964287Y-42879500D01*
X6751713Y-42879500D01*
X6703042Y-42887208D01*
X6541760Y-42912753D01*
X6339585Y-42978444D01*
X6150179Y-43074951D01*
X5978213Y-43199890D01*
X5827890Y-43350213D01*
X5702951Y-43522179D01*
X5606444Y-43711585D01*
X5540753Y-43913760D01*
X5507500Y-44123713D01*
X500500Y-44123713D01*
X500500Y-27078226D01*
X520185Y-27011187D01*
X572989Y-26965432D01*
X642147Y-26955488D01*
X705703Y-26984513D01*
X742431Y-27039908D01*
X748444Y-27058414D01*
X844951Y-27247820D01*
X969890Y-27419786D01*
X1120213Y-27570109D01*
X1292179Y-27695048D01*
X1292181Y-27695049D01*
X1292184Y-27695051D01*
X1481588Y-27791557D01*
X1683757Y-27857246D01*
X1893713Y-27890500D01*
X1893714Y-27890500D01*
X2106286Y-27890500D01*
X2106287Y-27890500D01*
X2316243Y-27857246D01*
X2518412Y-27791557D01*
X2707816Y-27695051D01*
X2729789Y-27679086D01*
X2879786Y-27570109D01*
X2879788Y-27570106D01*
X2879792Y-27570104D01*
X3030104Y-27419792D01*
X3030106Y-27419788D01*
X3030109Y-27419786D01*
X3155048Y-27247820D01*
X3155047Y-27247820D01*
X3155051Y-27247816D01*
X3251557Y-27058412D01*
X3317246Y-26856243D01*
X3350500Y-26646287D01*
X3350500Y-26602135D01*
X9149500Y-26602135D01*
X9149500Y-28397870D01*
X9149501Y-28397876D01*
X9155908Y-28457483D01*
X9206202Y-28592328D01*
X9206206Y-28592335D01*
X9292452Y-28707544D01*
X9292455Y-28707547D01*
X9407664Y-28793793D01*
X9407671Y-28793797D01*
X9539082Y-28842810D01*
X9595016Y-28884681D01*
X9619433Y-28950145D01*
X9604582Y-29018418D01*
X9583431Y-29046673D01*
X9469889Y-29160215D01*
X9344951Y-29332179D01*
X9248444Y-29521585D01*
X9182753Y-29723760D01*
X9149500Y-29933713D01*
X9149500Y-30146286D01*
X9182753Y-30356239D01*
X9248444Y-30558414D01*
X9344951Y-30747820D01*
X9469890Y-30919786D01*
X9620213Y-31070109D01*
X9792182Y-31195050D01*
X9800946Y-31199516D01*
X9851742Y-31247491D01*
X9868536Y-31315312D01*
X9845998Y-31381447D01*
X9800946Y-31420484D01*
X9792182Y-31424949D01*
X9620213Y-31549890D01*
X9469890Y-31700213D01*
X9344951Y-31872179D01*
X9248444Y-32061585D01*
X9248443Y-32061587D01*
X9248443Y-32061588D01*
X9223900Y-32137124D01*
X9182753Y-32263760D01*
X9149500Y-32473713D01*
X9149500Y-32686286D01*
X9182753Y-32896239D01*
X9248444Y-33098414D01*
X9344951Y-33287820D01*
X9469890Y-33459786D01*
X9620213Y-33610109D01*
X9792179Y-33735048D01*
X9792181Y-33735049D01*
X9792184Y-33735051D01*
X9981588Y-33831557D01*
X10183757Y-33897246D01*
X10393713Y-33930500D01*
X10393714Y-33930500D01*
X10606286Y-33930500D01*
X10606287Y-33930500D01*
X10816243Y-33897246D01*
X11018412Y-33831557D01*
X11207816Y-33735051D01*
X11257359Y-33699056D01*
X11379786Y-33610109D01*
X11379788Y-33610106D01*
X11379792Y-33610104D01*
X11530104Y-33459792D01*
X11530106Y-33459788D01*
X11530109Y-33459786D01*
X11655048Y-33287820D01*
X11655047Y-33287820D01*
X11655051Y-33287816D01*
X11751557Y-33098412D01*
X11817246Y-32896243D01*
X11850500Y-32686287D01*
X11850500Y-32473713D01*
X11817246Y-32263757D01*
X11764732Y-32102135D01*
X27649500Y-32102135D01*
X27649500Y-33897870D01*
X27649501Y-33897876D01*
X27655908Y-33957483D01*
X27706202Y-34092328D01*
X27706206Y-34092335D01*
X27792452Y-34207544D01*
X27792455Y-34207547D01*
X27907664Y-34293793D01*
X27907671Y-34293797D01*
X28042517Y-34344091D01*
X28042516Y-34344091D01*
X28049444Y-34344835D01*
X28102127Y-34350500D01*
X29897872Y-34350499D01*
X29957483Y-34344091D01*
X30092331Y-34293796D01*
X30207546Y-34207546D01*
X30293796Y-34092331D01*
X30342810Y-33960916D01*
X30384681Y-33904984D01*
X30450145Y-33880566D01*
X30518418Y-33895417D01*
X30546673Y-33916569D01*
X30660213Y-34030109D01*
X30832179Y-34155048D01*
X30832181Y-34155049D01*
X30832184Y-34155051D01*
X31021588Y-34251557D01*
X31223757Y-34317246D01*
X31433713Y-34350500D01*
X31433714Y-34350500D01*
X31646286Y-34350500D01*
X31646287Y-34350500D01*
X31856243Y-34317246D01*
X32058412Y-34251557D01*
X32247816Y-34155051D01*
X32334138Y-34092335D01*
X32419786Y-34030109D01*
X32419788Y-34030106D01*
X32419792Y-34030104D01*
X32570104Y-33879792D01*
X32570106Y-33879788D01*
X32570109Y-33879786D01*
X32695048Y-33707820D01*
X32695047Y-33707820D01*
X32695051Y-33707816D01*
X32699514Y-33699054D01*
X32747488Y-33648259D01*
X32815308Y-33631463D01*
X32881444Y-33653999D01*
X32920486Y-33699056D01*
X32924951Y-33707820D01*
X33049890Y-33879786D01*
X33200213Y-34030109D01*
X33372179Y-34155048D01*
X33372181Y-34155049D01*
X33372184Y-34155051D01*
X33561588Y-34251557D01*
X33763757Y-34317246D01*
X33973713Y-34350500D01*
X33973714Y-34350500D01*
X34186286Y-34350500D01*
X34186287Y-34350500D01*
X34396243Y-34317246D01*
X34598412Y-34251557D01*
X34787816Y-34155051D01*
X34874138Y-34092335D01*
X34959786Y-34030109D01*
X34959788Y-34030106D01*
X34959792Y-34030104D01*
X35110104Y-33879792D01*
X35110106Y-33879788D01*
X35110109Y-33879786D01*
X35235048Y-33707820D01*
X35235047Y-33707820D01*
X35235051Y-33707816D01*
X35331557Y-33518412D01*
X35397246Y-33316243D01*
X35430500Y-33106287D01*
X35430500Y-32893713D01*
X35397246Y-32683757D01*
X35331557Y-32481588D01*
X35235051Y-32292184D01*
X35235049Y-32292181D01*
X35235048Y-32292179D01*
X35110109Y-32120213D01*
X34959786Y-31969890D01*
X34787820Y-31844951D01*
X34598414Y-31748444D01*
X34598413Y-31748443D01*
X34598412Y-31748443D01*
X34396243Y-31682754D01*
X34396241Y-31682753D01*
X34396240Y-31682753D01*
X34234957Y-31657208D01*
X34186287Y-31649500D01*
X33973713Y-31649500D01*
X33925042Y-31657208D01*
X33763760Y-31682753D01*
X33561585Y-31748444D01*
X33372179Y-31844951D01*
X33200213Y-31969890D01*
X33049890Y-32120213D01*
X32924949Y-32292182D01*
X32920484Y-32300946D01*
X32872509Y-32351742D01*
X32804688Y-32368536D01*
X32738553Y-32345998D01*
X32699516Y-32300946D01*
X32695050Y-32292182D01*
X32570109Y-32120213D01*
X32419786Y-31969890D01*
X32247820Y-31844951D01*
X32058414Y-31748444D01*
X32058413Y-31748443D01*
X32058412Y-31748443D01*
X31856243Y-31682754D01*
X31856241Y-31682753D01*
X31856240Y-31682753D01*
X31694957Y-31657208D01*
X31646287Y-31649500D01*
X31433713Y-31649500D01*
X31385042Y-31657208D01*
X31223760Y-31682753D01*
X31021585Y-31748444D01*
X30832179Y-31844951D01*
X30660215Y-31969889D01*
X30546673Y-32083431D01*
X30485350Y-32116915D01*
X30415658Y-32111931D01*
X30359725Y-32070059D01*
X30342810Y-32039082D01*
X30293797Y-31907671D01*
X30293793Y-31907664D01*
X30207547Y-31792455D01*
X30207544Y-31792452D01*
X30092335Y-31706206D01*
X30092328Y-31706202D01*
X29957482Y-31655908D01*
X29957483Y-31655908D01*
X29897883Y-31649501D01*
X29897881Y-31649500D01*
X29897873Y-31649500D01*
X29897864Y-31649500D01*
X28102129Y-31649500D01*
X28102123Y-31649501D01*
X28042516Y-31655908D01*
X27907671Y-31706202D01*
X27907664Y-31706206D01*
X27792455Y-31792452D01*
X27792452Y-31792455D01*
X27706206Y-31907664D01*
X27706202Y-31907671D01*
X27655908Y-32042517D01*
X27649501Y-32102116D01*
X27649500Y-32102135D01*
X11764732Y-32102135D01*
X11751557Y-32061588D01*
X11655051Y-31872184D01*
X11655049Y-31872181D01*
X11655048Y-31872179D01*
X11530109Y-31700213D01*
X11379786Y-31549890D01*
X11207820Y-31424951D01*
X11207115Y-31424591D01*
X11199054Y-31420485D01*
X11148259Y-31372512D01*
X11131463Y-31304692D01*
X11153999Y-31238556D01*
X11199054Y-31199515D01*
X11207816Y-31195051D01*
X11229789Y-31179086D01*
X11379786Y-31070109D01*
X11379788Y-31070106D01*
X11379792Y-31070104D01*
X11530104Y-30919792D01*
X11530106Y-30919788D01*
X11530109Y-30919786D01*
X11655048Y-30747820D01*
X11655047Y-30747820D01*
X11655051Y-30747816D01*
X11751557Y-30558412D01*
X11817246Y-30356243D01*
X11850500Y-30146287D01*
X11850500Y-29933713D01*
X11817246Y-29723757D01*
X11751557Y-29521588D01*
X11655051Y-29332184D01*
X11655049Y-29332181D01*
X11655048Y-29332179D01*
X11530109Y-29160213D01*
X11416569Y-29046673D01*
X11383084Y-28985350D01*
X11388068Y-28915658D01*
X11429940Y-28859725D01*
X11460915Y-28842810D01*
X11592331Y-28793796D01*
X11707546Y-28707546D01*
X11793796Y-28592331D01*
X11844091Y-28457483D01*
X11850500Y-28397873D01*
X11850499Y-26602135D01*
X49149500Y-26602135D01*
X49149500Y-28397870D01*
X49149501Y-28397876D01*
X49155908Y-28457483D01*
X49206202Y-28592328D01*
X49206206Y-28592335D01*
X49292452Y-28707544D01*
X49292455Y-28707547D01*
X49407664Y-28793793D01*
X49407671Y-28793797D01*
X49539082Y-28842810D01*
X49595016Y-28884681D01*
X49619433Y-28950145D01*
X49604582Y-29018418D01*
X49583431Y-29046673D01*
X49469889Y-29160215D01*
X49344951Y-29332179D01*
X49248444Y-29521585D01*
X49182753Y-29723760D01*
X49149500Y-29933713D01*
X49149500Y-30146286D01*
X49182753Y-30356239D01*
X49248444Y-30558414D01*
X49344951Y-30747820D01*
X49469890Y-30919786D01*
X49620213Y-31070109D01*
X49792182Y-31195050D01*
X49800946Y-31199516D01*
X49851742Y-31247491D01*
X49868536Y-31315312D01*
X49845998Y-31381447D01*
X49800946Y-31420484D01*
X49792182Y-31424949D01*
X49620213Y-31549890D01*
X49469890Y-31700213D01*
X49344951Y-31872179D01*
X49248444Y-32061585D01*
X49248443Y-32061587D01*
X49248443Y-32061588D01*
X49223900Y-32137124D01*
X49182753Y-32263760D01*
X49149500Y-32473713D01*
X49149500Y-32686286D01*
X49182753Y-32896239D01*
X49248444Y-33098414D01*
X49344951Y-33287820D01*
X49469890Y-33459786D01*
X49620213Y-33610109D01*
X49792179Y-33735048D01*
X49792181Y-33735049D01*
X49792184Y-33735051D01*
X49981588Y-33831557D01*
X50183757Y-33897246D01*
X50393713Y-33930500D01*
X50393714Y-33930500D01*
X50606286Y-33930500D01*
X50606287Y-33930500D01*
X50816243Y-33897246D01*
X51018412Y-33831557D01*
X51207816Y-33735051D01*
X51257359Y-33699056D01*
X51379786Y-33610109D01*
X51379788Y-33610106D01*
X51379792Y-33610104D01*
X51530104Y-33459792D01*
X51530106Y-33459788D01*
X51530109Y-33459786D01*
X51655048Y-33287820D01*
X51655047Y-33287820D01*
X51655051Y-33287816D01*
X51751557Y-33098412D01*
X51817246Y-32896243D01*
X51850500Y-32686287D01*
X51850500Y-32473713D01*
X51817246Y-32263757D01*
X51751557Y-32061588D01*
X51655051Y-31872184D01*
X51655049Y-31872181D01*
X51655048Y-31872179D01*
X51530109Y-31700213D01*
X51379786Y-31549890D01*
X51207820Y-31424951D01*
X51207115Y-31424591D01*
X51199054Y-31420485D01*
X51148259Y-31372512D01*
X51131463Y-31304692D01*
X51153999Y-31238556D01*
X51199054Y-31199515D01*
X51207816Y-31195051D01*
X51229789Y-31179086D01*
X51379786Y-31070109D01*
X51379788Y-31070106D01*
X51379792Y-31070104D01*
X51530104Y-30919792D01*
X51530106Y-30919788D01*
X51530109Y-30919786D01*
X51655048Y-30747820D01*
X51655047Y-30747820D01*
X51655051Y-30747816D01*
X51751557Y-30558412D01*
X51817246Y-30356243D01*
X51850500Y-30146287D01*
X51850500Y-29933713D01*
X51817246Y-29723757D01*
X51751557Y-29521588D01*
X51655051Y-29332184D01*
X51655049Y-29332181D01*
X51655048Y-29332179D01*
X51530109Y-29160213D01*
X51416569Y-29046673D01*
X51383084Y-28985350D01*
X51388068Y-28915658D01*
X51429940Y-28859725D01*
X51460915Y-28842810D01*
X51592331Y-28793796D01*
X51707546Y-28707546D01*
X51793796Y-28592331D01*
X51844091Y-28457483D01*
X51850500Y-28397873D01*
X51850499Y-26602128D01*
X51844091Y-26542517D01*
X51793796Y-26407669D01*
X51793795Y-26407668D01*
X51793793Y-26407664D01*
X51707547Y-26292455D01*
X51707544Y-26292452D01*
X51592335Y-26206206D01*
X51592328Y-26206202D01*
X51457482Y-26155908D01*
X51457483Y-26155908D01*
X51397883Y-26149501D01*
X51397881Y-26149500D01*
X51397873Y-26149500D01*
X51397864Y-26149500D01*
X49602129Y-26149500D01*
X49602123Y-26149501D01*
X49542516Y-26155908D01*
X49407671Y-26206202D01*
X49407664Y-26206206D01*
X49292455Y-26292452D01*
X49292452Y-26292455D01*
X49206206Y-26407664D01*
X49206202Y-26407671D01*
X49155908Y-26542517D01*
X49149501Y-26602116D01*
X49149501Y-26602123D01*
X49149500Y-26602135D01*
X11850499Y-26602135D01*
X11850499Y-26602128D01*
X11844091Y-26542517D01*
X11793796Y-26407669D01*
X11793795Y-26407668D01*
X11793793Y-26407664D01*
X11707547Y-26292455D01*
X11707544Y-26292452D01*
X11592335Y-26206206D01*
X11592328Y-26206202D01*
X11457482Y-26155908D01*
X11457483Y-26155908D01*
X11397883Y-26149501D01*
X11397881Y-26149500D01*
X11397873Y-26149500D01*
X11397864Y-26149500D01*
X9602129Y-26149500D01*
X9602123Y-26149501D01*
X9542516Y-26155908D01*
X9407671Y-26206202D01*
X9407664Y-26206206D01*
X9292455Y-26292452D01*
X9292452Y-26292455D01*
X9206206Y-26407664D01*
X9206202Y-26407671D01*
X9155908Y-26542517D01*
X9149501Y-26602116D01*
X9149501Y-26602123D01*
X9149500Y-26602135D01*
X3350500Y-26602135D01*
X3350500Y-26433713D01*
X3317246Y-26223757D01*
X3251557Y-26021588D01*
X3155051Y-25832184D01*
X3155049Y-25832181D01*
X3155048Y-25832179D01*
X3030109Y-25660213D01*
X2916569Y-25546673D01*
X2883084Y-25485350D01*
X2888068Y-25415658D01*
X2929940Y-25359725D01*
X2960915Y-25342810D01*
X3092331Y-25293796D01*
X3207546Y-25207546D01*
X3293796Y-25092331D01*
X3344091Y-24957483D01*
X3350500Y-24897873D01*
X3350499Y-23102128D01*
X3344091Y-23042517D01*
X3302521Y-22931063D01*
X3293797Y-22907671D01*
X3293793Y-22907664D01*
X3207547Y-22792455D01*
X3207544Y-22792452D01*
X3092335Y-22706206D01*
X3092328Y-22706202D01*
X2957482Y-22655908D01*
X2957483Y-22655908D01*
X2897883Y-22649501D01*
X2897881Y-22649500D01*
X2897873Y-22649500D01*
X2897864Y-22649500D01*
X1102129Y-22649500D01*
X1102123Y-22649501D01*
X1042516Y-22655908D01*
X907671Y-22706202D01*
X907664Y-22706206D01*
X792455Y-22792452D01*
X792452Y-22792455D01*
X723766Y-22884208D01*
X667832Y-22926079D01*
X598141Y-22931063D01*
X536818Y-22897577D01*
X503334Y-22836254D01*
X500500Y-22809897D01*
X500500Y-17102135D01*
X9149500Y-17102135D01*
X9149500Y-18897870D01*
X9149501Y-18897876D01*
X9155908Y-18957483D01*
X9206202Y-19092328D01*
X9206206Y-19092335D01*
X9292452Y-19207544D01*
X9292455Y-19207547D01*
X9407664Y-19293793D01*
X9407671Y-19293797D01*
X9539082Y-19342810D01*
X9595016Y-19384681D01*
X9619433Y-19450145D01*
X9604582Y-19518418D01*
X9583431Y-19546673D01*
X9469889Y-19660215D01*
X9344951Y-19832179D01*
X9248444Y-20021585D01*
X9182753Y-20223760D01*
X9149500Y-20433713D01*
X9149500Y-20646286D01*
X9182753Y-20856239D01*
X9248444Y-21058414D01*
X9344951Y-21247820D01*
X9469890Y-21419786D01*
X9620213Y-21570109D01*
X9792182Y-21695050D01*
X9800946Y-21699516D01*
X9851742Y-21747491D01*
X9868536Y-21815312D01*
X9845998Y-21881447D01*
X9800946Y-21920484D01*
X9792182Y-21924949D01*
X9620213Y-22049890D01*
X9469890Y-22200213D01*
X9344951Y-22372179D01*
X9248444Y-22561585D01*
X9182753Y-22763760D01*
X9149500Y-22973713D01*
X9149500Y-23186286D01*
X9182753Y-23396239D01*
X9248444Y-23598414D01*
X9344951Y-23787820D01*
X9469890Y-23959786D01*
X9620213Y-24110109D01*
X9792179Y-24235048D01*
X9792181Y-24235049D01*
X9792184Y-24235051D01*
X9981588Y-24331557D01*
X10183757Y-24397246D01*
X10393713Y-24430500D01*
X10393714Y-24430500D01*
X10606286Y-24430500D01*
X10606287Y-24430500D01*
X10816243Y-24397246D01*
X11018412Y-24331557D01*
X11207816Y-24235051D01*
X11229789Y-24219086D01*
X11379786Y-24110109D01*
X11379788Y-24110106D01*
X11379792Y-24110104D01*
X11530104Y-23959792D01*
X11530106Y-23959788D01*
X11530109Y-23959786D01*
X11655048Y-23787820D01*
X11655047Y-23787820D01*
X11655051Y-23787816D01*
X11751557Y-23598412D01*
X11817246Y-23396243D01*
X11850500Y-23186287D01*
X11850500Y-22973713D01*
X11817246Y-22763757D01*
X11751557Y-22561588D01*
X11655051Y-22372184D01*
X11655049Y-22372181D01*
X11655048Y-22372179D01*
X11530109Y-22200213D01*
X11379786Y-22049890D01*
X11207820Y-21924951D01*
X11207115Y-21924591D01*
X11199054Y-21920485D01*
X11148259Y-21872512D01*
X11131463Y-21804692D01*
X11153999Y-21738556D01*
X11199054Y-21699515D01*
X11207816Y-21695051D01*
X11229789Y-21679086D01*
X11379786Y-21570109D01*
X11379788Y-21570106D01*
X11379792Y-21570104D01*
X11530104Y-21419792D01*
X11530106Y-21419788D01*
X11530109Y-21419786D01*
X11655048Y-21247820D01*
X11655047Y-21247820D01*
X11655051Y-21247816D01*
X11751557Y-21058412D01*
X11817246Y-20856243D01*
X11850500Y-20646287D01*
X11850500Y-20433713D01*
X11817246Y-20223757D01*
X11751557Y-20021588D01*
X11655051Y-19832184D01*
X11655049Y-19832181D01*
X11655048Y-19832179D01*
X11530109Y-19660213D01*
X11416569Y-19546673D01*
X11383084Y-19485350D01*
X11388068Y-19415658D01*
X11429940Y-19359725D01*
X11460915Y-19342810D01*
X11592331Y-19293796D01*
X11707546Y-19207546D01*
X11793796Y-19092331D01*
X11844091Y-18957483D01*
X11850500Y-18897873D01*
X11850499Y-17102135D01*
X49149500Y-17102135D01*
X49149500Y-18897870D01*
X49149501Y-18897876D01*
X49155908Y-18957483D01*
X49206202Y-19092328D01*
X49206206Y-19092335D01*
X49292452Y-19207544D01*
X49292455Y-19207547D01*
X49407664Y-19293793D01*
X49407671Y-19293797D01*
X49539082Y-19342810D01*
X49595016Y-19384681D01*
X49619433Y-19450145D01*
X49604582Y-19518418D01*
X49583431Y-19546673D01*
X49469889Y-19660215D01*
X49344951Y-19832179D01*
X49248444Y-20021585D01*
X49182753Y-20223760D01*
X49149500Y-20433713D01*
X49149500Y-20646286D01*
X49182753Y-20856239D01*
X49248444Y-21058414D01*
X49344951Y-21247820D01*
X49469890Y-21419786D01*
X49620213Y-21570109D01*
X49792182Y-21695050D01*
X49800946Y-21699516D01*
X49851742Y-21747491D01*
X49868536Y-21815312D01*
X49845998Y-21881447D01*
X49800946Y-21920484D01*
X49792182Y-21924949D01*
X49620213Y-22049890D01*
X49469890Y-22200213D01*
X49344951Y-22372179D01*
X49248444Y-22561585D01*
X49182753Y-22763760D01*
X49149500Y-22973713D01*
X49149500Y-23186286D01*
X49182753Y-23396239D01*
X49248444Y-23598414D01*
X49344951Y-23787820D01*
X49469890Y-23959786D01*
X49620213Y-24110109D01*
X49792179Y-24235048D01*
X49792181Y-24235049D01*
X49792184Y-24235051D01*
X49981588Y-24331557D01*
X50183757Y-24397246D01*
X50393713Y-24430500D01*
X50393714Y-24430500D01*
X50606286Y-24430500D01*
X50606287Y-24430500D01*
X50816243Y-24397246D01*
X51018412Y-24331557D01*
X51207816Y-24235051D01*
X51229789Y-24219086D01*
X51379786Y-24110109D01*
X51379788Y-24110106D01*
X51379792Y-24110104D01*
X51530104Y-23959792D01*
X51530106Y-23959788D01*
X51530109Y-23959786D01*
X51655048Y-23787820D01*
X51655047Y-23787820D01*
X51655051Y-23787816D01*
X51751557Y-23598412D01*
X51817246Y-23396243D01*
X51850500Y-23186287D01*
X51850500Y-22973713D01*
X51817246Y-22763757D01*
X51751557Y-22561588D01*
X51655051Y-22372184D01*
X51655049Y-22372181D01*
X51655048Y-22372179D01*
X51530109Y-22200213D01*
X51379786Y-22049890D01*
X51207820Y-21924951D01*
X51207115Y-21924591D01*
X51199054Y-21920485D01*
X51148259Y-21872512D01*
X51131463Y-21804692D01*
X51153999Y-21738556D01*
X51199054Y-21699515D01*
X51207816Y-21695051D01*
X51229789Y-21679086D01*
X51379786Y-21570109D01*
X51379788Y-21570106D01*
X51379792Y-21570104D01*
X51530104Y-21419792D01*
X51530106Y-21419788D01*
X51530109Y-21419786D01*
X51655048Y-21247820D01*
X51655047Y-21247820D01*
X51655051Y-21247816D01*
X51751557Y-21058412D01*
X51817246Y-20856243D01*
X51850500Y-20646287D01*
X51850500Y-20433713D01*
X51817246Y-20223757D01*
X51751557Y-20021588D01*
X51655051Y-19832184D01*
X51655049Y-19832181D01*
X51655048Y-19832179D01*
X51530109Y-19660213D01*
X51416569Y-19546673D01*
X51383084Y-19485350D01*
X51388068Y-19415658D01*
X51429940Y-19359725D01*
X51460915Y-19342810D01*
X51592331Y-19293796D01*
X51707546Y-19207546D01*
X51793796Y-19092331D01*
X51844091Y-18957483D01*
X51850500Y-18897873D01*
X51850499Y-17102128D01*
X51844091Y-17042517D01*
X51834483Y-17016757D01*
X51793797Y-16907671D01*
X51793796Y-16907669D01*
X51744877Y-16842322D01*
X51744876Y-16842321D01*
X51724625Y-16815269D01*
X51707546Y-16792454D01*
X51707544Y-16792453D01*
X51707544Y-16792452D01*
X51592335Y-16706206D01*
X51592328Y-16706202D01*
X51457482Y-16655908D01*
X51457483Y-16655908D01*
X51397883Y-16649501D01*
X51397881Y-16649500D01*
X51397873Y-16649500D01*
X51397864Y-16649500D01*
X49602129Y-16649500D01*
X49602123Y-16649501D01*
X49542516Y-16655908D01*
X49407671Y-16706202D01*
X49407664Y-16706206D01*
X49292455Y-16792452D01*
X49292452Y-16792455D01*
X49206206Y-16907664D01*
X49206202Y-16907671D01*
X49155908Y-17042517D01*
X49149501Y-17102116D01*
X49149501Y-17102123D01*
X49149500Y-17102135D01*
X11850499Y-17102135D01*
X11850499Y-17102128D01*
X11844091Y-17042517D01*
X11834483Y-17016757D01*
X11793797Y-16907671D01*
X11793793Y-16907664D01*
X11707547Y-16792455D01*
X11707544Y-16792452D01*
X11592335Y-16706206D01*
X11592328Y-16706202D01*
X11457482Y-16655908D01*
X11457483Y-16655908D01*
X11397883Y-16649501D01*
X11397881Y-16649500D01*
X11397873Y-16649500D01*
X11397864Y-16649500D01*
X9602129Y-16649500D01*
X9602123Y-16649501D01*
X9542516Y-16655908D01*
X9407671Y-16706202D01*
X9407664Y-16706206D01*
X9292455Y-16792452D01*
X9292452Y-16792455D01*
X9206206Y-16907664D01*
X9206202Y-16907671D01*
X9155908Y-17042517D01*
X9149501Y-17102116D01*
X9149501Y-17102123D01*
X9149500Y-17102135D01*
X500500Y-17102135D01*
X500500Y-16238226D01*
X520185Y-16171187D01*
X572989Y-16125432D01*
X642147Y-16115488D01*
X705703Y-16144513D01*
X742431Y-16199908D01*
X748444Y-16218414D01*
X844951Y-16407820D01*
X969890Y-16579786D01*
X1120213Y-16730109D01*
X1292179Y-16855048D01*
X1292181Y-16855049D01*
X1292184Y-16855051D01*
X1481588Y-16951557D01*
X1683757Y-17017246D01*
X1893713Y-17050500D01*
X1893714Y-17050500D01*
X2106286Y-17050500D01*
X2106287Y-17050500D01*
X2316243Y-17017246D01*
X2518412Y-16951557D01*
X2707816Y-16855051D01*
X2793977Y-16792452D01*
X2879786Y-16730109D01*
X2879788Y-16730106D01*
X2879792Y-16730104D01*
X3030104Y-16579792D01*
X3030106Y-16579788D01*
X3030109Y-16579786D01*
X3155048Y-16407820D01*
X3155047Y-16407820D01*
X3155051Y-16407816D01*
X3251557Y-16218412D01*
X3317246Y-16016243D01*
X3350500Y-15806287D01*
X3350500Y-15593713D01*
X3317246Y-15383757D01*
X3251557Y-15181588D01*
X3155051Y-14992184D01*
X3155049Y-14992181D01*
X3155048Y-14992179D01*
X3030109Y-14820213D01*
X2879786Y-14669890D01*
X2707820Y-14544951D01*
X2707115Y-14544591D01*
X2699054Y-14540485D01*
X2648259Y-14492512D01*
X2631463Y-14424692D01*
X2653999Y-14358556D01*
X2699054Y-14319515D01*
X2707816Y-14315051D01*
X2806187Y-14243581D01*
X2879786Y-14190109D01*
X2879788Y-14190106D01*
X2879792Y-14190104D01*
X3030104Y-14039792D01*
X3030106Y-14039788D01*
X3030109Y-14039786D01*
X3155048Y-13867820D01*
X3155047Y-13867820D01*
X3155051Y-13867816D01*
X3251557Y-13678412D01*
X3317246Y-13476243D01*
X3350500Y-13266287D01*
X3350500Y-13053713D01*
X3317246Y-12843757D01*
X3251557Y-12641588D01*
X3155051Y-12452184D01*
X3155049Y-12452181D01*
X3155048Y-12452179D01*
X3030109Y-12280213D01*
X2879786Y-12129890D01*
X2707820Y-12004951D01*
X2707115Y-12004591D01*
X2699054Y-12000485D01*
X2648259Y-11952512D01*
X2631463Y-11884692D01*
X2653999Y-11818556D01*
X2699054Y-11779515D01*
X2707816Y-11775051D01*
X2806187Y-11703581D01*
X2879786Y-11650109D01*
X2879788Y-11650106D01*
X2879792Y-11650104D01*
X3030104Y-11499792D01*
X3030106Y-11499788D01*
X3030109Y-11499786D01*
X3155048Y-11327820D01*
X3155047Y-11327820D01*
X3155051Y-11327816D01*
X3251557Y-11138412D01*
X3317246Y-10936243D01*
X3350500Y-10726287D01*
X3350500Y-10513713D01*
X3317246Y-10303757D01*
X3251557Y-10101588D01*
X3155051Y-9912184D01*
X3155049Y-9912181D01*
X3155048Y-9912179D01*
X3030109Y-9740213D01*
X2879786Y-9589890D01*
X2707820Y-9464951D01*
X2707115Y-9464591D01*
X2699054Y-9460485D01*
X2648259Y-9412512D01*
X2631463Y-9344692D01*
X2653999Y-9278556D01*
X2699054Y-9239515D01*
X2707816Y-9235051D01*
X2806187Y-9163581D01*
X2879786Y-9110109D01*
X2879788Y-9110106D01*
X2879792Y-9110104D01*
X3030104Y-8959792D01*
X3030106Y-8959788D01*
X3030109Y-8959786D01*
X3155048Y-8787820D01*
X3155047Y-8787820D01*
X3155051Y-8787816D01*
X3251557Y-8598412D01*
X3317246Y-8396243D01*
X3350500Y-8186287D01*
X3350500Y-7973713D01*
X3317246Y-7763757D01*
X3251557Y-7561588D01*
X3171620Y-7404702D01*
X25149500Y-7404702D01*
X25149500Y-9595292D01*
X25149501Y-9595298D01*
X25159718Y-9740027D01*
X25159718Y-9740031D01*
X25159719Y-9740034D01*
X25159720Y-9740038D01*
X25213834Y-9980314D01*
X25213835Y-9980319D01*
X25254667Y-10081773D01*
X25305795Y-10208809D01*
X25433216Y-10419589D01*
X25433219Y-10419592D01*
X25592798Y-10607201D01*
X25702990Y-10700930D01*
X25780411Y-10766784D01*
X25991191Y-10894205D01*
X26219683Y-10986165D01*
X26459966Y-11040281D01*
X26604705Y-11050500D01*
X28795294Y-11050499D01*
X28940034Y-11040281D01*
X29180317Y-10986165D01*
X29408809Y-10894205D01*
X29619589Y-10766784D01*
X29807201Y-10607201D01*
X29966784Y-10419589D01*
X30094205Y-10208809D01*
X30186165Y-9980317D01*
X30240281Y-9740034D01*
X30250500Y-9595295D01*
X30250499Y-8356762D01*
X32349500Y-8356762D01*
X32349500Y-8643237D01*
X32381572Y-8927891D01*
X32445317Y-9207181D01*
X32445321Y-9207193D01*
X32539929Y-9477565D01*
X32539935Y-9477579D01*
X32664223Y-9735666D01*
X32666968Y-9740034D01*
X32816634Y-9978227D01*
X32995243Y-10202195D01*
X33197805Y-10404757D01*
X33421773Y-10583366D01*
X33664331Y-10735775D01*
X33922428Y-10860068D01*
X33922434Y-10860070D01*
X34192806Y-10954678D01*
X34192818Y-10954682D01*
X34472102Y-11018426D01*
X34472105Y-11018426D01*
X34472108Y-11018427D01*
X34472107Y-11018427D01*
X34614434Y-11034463D01*
X34756763Y-11050499D01*
X34756764Y-11050500D01*
X34756767Y-11050500D01*
X35043236Y-11050500D01*
X35043236Y-11050499D01*
X35248815Y-11027336D01*
X35327891Y-11018427D01*
X35327892Y-11018426D01*
X35327898Y-11018426D01*
X35607182Y-10954682D01*
X35877572Y-10860068D01*
X36135669Y-10735775D01*
X36378227Y-10583366D01*
X36602195Y-10404757D01*
X36804757Y-10202195D01*
X36983366Y-9978227D01*
X37135775Y-9735669D01*
X37260068Y-9477572D01*
X37354682Y-9207182D01*
X37418426Y-8927898D01*
X37450500Y-8643233D01*
X37450500Y-8356767D01*
X37418426Y-8072102D01*
X37354682Y-7792818D01*
X37347745Y-7772993D01*
X37260072Y-7522438D01*
X37260064Y-7522420D01*
X37241627Y-7484135D01*
X47925500Y-7484135D01*
X47925500Y-9279870D01*
X47925501Y-9279876D01*
X47931908Y-9339483D01*
X47982202Y-9474328D01*
X47982206Y-9474335D01*
X48068452Y-9589544D01*
X48068455Y-9589547D01*
X48183664Y-9675793D01*
X48183671Y-9675797D01*
X48315082Y-9724810D01*
X48371016Y-9766681D01*
X48395433Y-9832145D01*
X48380582Y-9900418D01*
X48359431Y-9928673D01*
X48245889Y-10042215D01*
X48120951Y-10214179D01*
X48024444Y-10403585D01*
X47958753Y-10605760D01*
X47946072Y-10685826D01*
X47925500Y-10815713D01*
X47925500Y-11028287D01*
X47930244Y-11058238D01*
X47942942Y-11138414D01*
X47958754Y-11238243D01*
X48005371Y-11381716D01*
X48024444Y-11440414D01*
X48120951Y-11629820D01*
X48245890Y-11801786D01*
X48396213Y-11952109D01*
X48568179Y-12077048D01*
X48568181Y-12077049D01*
X48568184Y-12077051D01*
X48757588Y-12173557D01*
X48959757Y-12239246D01*
X49169713Y-12272500D01*
X49169714Y-12272500D01*
X49382286Y-12272500D01*
X49382287Y-12272500D01*
X49592243Y-12239246D01*
X49794412Y-12173557D01*
X49983816Y-12077051D01*
X50028305Y-12044728D01*
X50155786Y-11952109D01*
X50155788Y-11952106D01*
X50155792Y-11952104D01*
X50306104Y-11801792D01*
X50306106Y-11801788D01*
X50306109Y-11801786D01*
X50431048Y-11629820D01*
X50431051Y-11629816D01*
X50527557Y-11440412D01*
X50593246Y-11238243D01*
X50626500Y-11028287D01*
X50626500Y-10815713D01*
X50593246Y-10605757D01*
X50527557Y-10403588D01*
X50431051Y-10214184D01*
X50431049Y-10214181D01*
X50431048Y-10214179D01*
X50306109Y-10042213D01*
X50192569Y-9928673D01*
X50159084Y-9867350D01*
X50164068Y-9797658D01*
X50205940Y-9741725D01*
X50236915Y-9724810D01*
X50368331Y-9675796D01*
X50483546Y-9589546D01*
X50569796Y-9474331D01*
X50620091Y-9339483D01*
X50626500Y-9279873D01*
X50626499Y-7484128D01*
X50620091Y-7424517D01*
X50612702Y-7404707D01*
X50569797Y-7289671D01*
X50569793Y-7289664D01*
X50483547Y-7174455D01*
X50483544Y-7174452D01*
X50368335Y-7088206D01*
X50368328Y-7088202D01*
X50233482Y-7037908D01*
X50233483Y-7037908D01*
X50173883Y-7031501D01*
X50173881Y-7031500D01*
X50173873Y-7031500D01*
X50173864Y-7031500D01*
X48378129Y-7031500D01*
X48378123Y-7031501D01*
X48318516Y-7037908D01*
X48183671Y-7088202D01*
X48183664Y-7088206D01*
X48068455Y-7174452D01*
X48068452Y-7174455D01*
X47982206Y-7289664D01*
X47982202Y-7289671D01*
X47931908Y-7424517D01*
X47928221Y-7458815D01*
X47925501Y-7484123D01*
X47925500Y-7484135D01*
X37241627Y-7484135D01*
X37229433Y-7458815D01*
X37135775Y-7264331D01*
X36983366Y-7021773D01*
X36804757Y-6797805D01*
X36602195Y-6595243D01*
X36378227Y-6416634D01*
X36135669Y-6264225D01*
X36135666Y-6264223D01*
X35877579Y-6139935D01*
X35877565Y-6139929D01*
X35607193Y-6045321D01*
X35607181Y-6045317D01*
X35327891Y-5981572D01*
X35327892Y-5981572D01*
X35043237Y-5949500D01*
X35043233Y-5949500D01*
X34756767Y-5949500D01*
X34756762Y-5949500D01*
X34472108Y-5981572D01*
X34192818Y-6045317D01*
X34192806Y-6045321D01*
X33922434Y-6139929D01*
X33922420Y-6139935D01*
X33664333Y-6264223D01*
X33421774Y-6416633D01*
X33197805Y-6595242D01*
X32995242Y-6797805D01*
X32816633Y-7021774D01*
X32664223Y-7264333D01*
X32539935Y-7522420D01*
X32539929Y-7522434D01*
X32445321Y-7792806D01*
X32445317Y-7792818D01*
X32381572Y-8072108D01*
X32349500Y-8356762D01*
X30250499Y-8356762D01*
X30250499Y-7404706D01*
X30240281Y-7259966D01*
X30186165Y-7019683D01*
X30094205Y-6791191D01*
X29966784Y-6580411D01*
X29900930Y-6502990D01*
X29807201Y-6392798D01*
X29636445Y-6247554D01*
X29619589Y-6233216D01*
X29408809Y-6105795D01*
X29291077Y-6058412D01*
X29180318Y-6013835D01*
X28940036Y-5959719D01*
X28940029Y-5959718D01*
X28795296Y-5949500D01*
X26604707Y-5949500D01*
X26604701Y-5949501D01*
X26459972Y-5959718D01*
X26459966Y-5959718D01*
X26459966Y-5959719D01*
X26459963Y-5959719D01*
X26459961Y-5959720D01*
X26219685Y-6013834D01*
X26219680Y-6013835D01*
X25991190Y-6105795D01*
X25991185Y-6105798D01*
X25780417Y-6233212D01*
X25780407Y-6233219D01*
X25592798Y-6392798D01*
X25433219Y-6580407D01*
X25433212Y-6580417D01*
X25305798Y-6791185D01*
X25305795Y-6791190D01*
X25213835Y-7019680D01*
X25213835Y-7019682D01*
X25159719Y-7259963D01*
X25159718Y-7259970D01*
X25149500Y-7404702D01*
X3171620Y-7404702D01*
X3155051Y-7372184D01*
X3147023Y-7361134D01*
X3030109Y-7200213D01*
X2879786Y-7049890D01*
X2707820Y-6924951D01*
X2707115Y-6924591D01*
X2699054Y-6920485D01*
X2648259Y-6872512D01*
X2631463Y-6804692D01*
X2653999Y-6738556D01*
X2699054Y-6699515D01*
X2707816Y-6695051D01*
X2806187Y-6623581D01*
X2879786Y-6570109D01*
X2879788Y-6570106D01*
X2879792Y-6570104D01*
X3030104Y-6419792D01*
X3030106Y-6419788D01*
X3030109Y-6419786D01*
X3155048Y-6247820D01*
X3155047Y-6247820D01*
X3155051Y-6247816D01*
X3251557Y-6058412D01*
X3317246Y-5856243D01*
X3350500Y-5646287D01*
X3350500Y-5433713D01*
X3317246Y-5223757D01*
X3251557Y-5021588D01*
X3155051Y-4832184D01*
X3155049Y-4832181D01*
X3155048Y-4832179D01*
X3030109Y-4660213D01*
X2916569Y-4546673D01*
X2883084Y-4485350D01*
X2888068Y-4415658D01*
X2929940Y-4359725D01*
X2960915Y-4342810D01*
X3092331Y-4293796D01*
X3207546Y-4207546D01*
X3293796Y-4092331D01*
X3344091Y-3957483D01*
X3350500Y-3897873D01*
X3350499Y-2102128D01*
X3344091Y-2042517D01*
X3303418Y-1933468D01*
X3293797Y-1907671D01*
X3293793Y-1907664D01*
X3207547Y-1792455D01*
X3207544Y-1792452D01*
X3092335Y-1706206D01*
X3092328Y-1706202D01*
X2957482Y-1655908D01*
X2957483Y-1655908D01*
X2897883Y-1649501D01*
X2897881Y-1649500D01*
X2897873Y-1649500D01*
X2897864Y-1649500D01*
X1102129Y-1649500D01*
X1102123Y-1649501D01*
X1042516Y-1655908D01*
X907671Y-1706202D01*
X907664Y-1706206D01*
X792455Y-1792452D01*
X792452Y-1792455D01*
X723766Y-1884208D01*
X667832Y-1926079D01*
X598141Y-1931063D01*
X536818Y-1897577D01*
X503334Y-1836254D01*
X500500Y-1809897D01*
X500500Y-624500D01*
X520185Y-557461D01*
X572989Y-511706D01*
X624500Y-500500D01*
X11809897Y-500500D01*
X11876936Y-520185D01*
G37*
%TD.AperFunction*%
%TA.AperFunction,Conductor*%
G36*
X1534075Y-94652993D02*
G01*
X1599901Y-94767007D01*
X1692993Y-94860099D01*
X1807007Y-94925925D01*
X1870590Y-94942962D01*
X1201195Y-95612356D01*
X1139872Y-95645841D01*
X1125167Y-95644924D01*
X1125444Y-95647497D01*
X1042626Y-95656401D01*
X1042619Y-95656403D01*
X907913Y-95706645D01*
X907906Y-95706649D01*
X792812Y-95792809D01*
X723766Y-95885042D01*
X667832Y-95926912D01*
X598140Y-95931896D01*
X536817Y-95898410D01*
X503333Y-95837086D01*
X500500Y-95810730D01*
X500500Y-94996611D01*
X520185Y-94929572D01*
X572989Y-94883817D01*
X642147Y-94873873D01*
X705703Y-94902898D01*
X742432Y-94958294D01*
X748906Y-94978221D01*
X845375Y-95167550D01*
X884728Y-95221716D01*
X1517037Y-94589408D01*
X1534075Y-94652993D01*
G37*
%TD.AperFunction*%
%TA.AperFunction,Conductor*%
G36*
X1534075Y-92112993D02*
G01*
X1599901Y-92227007D01*
X1692993Y-92320099D01*
X1807007Y-92385925D01*
X1870591Y-92402962D01*
X1269971Y-93003581D01*
X1348711Y-93120895D01*
X1349920Y-93124729D01*
X1352844Y-93127491D01*
X1360343Y-93157778D01*
X1369727Y-93187529D01*
X1368671Y-93191408D01*
X1369638Y-93195312D01*
X1359573Y-93224844D01*
X1351383Y-93254947D01*
X1348397Y-93257640D01*
X1347100Y-93261447D01*
X1302051Y-93300483D01*
X1292440Y-93305380D01*
X1238282Y-93344727D01*
X1238282Y-93344728D01*
X1870591Y-93977037D01*
X1807007Y-93994075D01*
X1692993Y-94059901D01*
X1599901Y-94152993D01*
X1534075Y-94267007D01*
X1517037Y-94330591D01*
X884728Y-93698282D01*
X884727Y-93698282D01*
X845380Y-93752439D01*
X748904Y-93941782D01*
X742431Y-93961706D01*
X702994Y-94019381D01*
X638635Y-94046580D01*
X569789Y-94034665D01*
X518313Y-93987421D01*
X500500Y-93923388D01*
X500500Y-92456611D01*
X520185Y-92389572D01*
X572989Y-92343817D01*
X642147Y-92333873D01*
X705703Y-92362898D01*
X742432Y-92418294D01*
X748906Y-92438221D01*
X845375Y-92627550D01*
X884728Y-92681716D01*
X1517037Y-92049408D01*
X1534075Y-92112993D01*
G37*
%TD.AperFunction*%
%TA.AperFunction,Conductor*%
G36*
X1534075Y-89572993D02*
G01*
X1599901Y-89687007D01*
X1692993Y-89780099D01*
X1807007Y-89845925D01*
X1870591Y-89862962D01*
X1269971Y-90463581D01*
X1348711Y-90580895D01*
X1349920Y-90584729D01*
X1352844Y-90587491D01*
X1360343Y-90617778D01*
X1369727Y-90647529D01*
X1368671Y-90651408D01*
X1369638Y-90655312D01*
X1359573Y-90684844D01*
X1351383Y-90714947D01*
X1348397Y-90717640D01*
X1347100Y-90721447D01*
X1302051Y-90760483D01*
X1292440Y-90765380D01*
X1238282Y-90804727D01*
X1238282Y-90804728D01*
X1870591Y-91437037D01*
X1807007Y-91454075D01*
X1692993Y-91519901D01*
X1599901Y-91612993D01*
X1534075Y-91727007D01*
X1517037Y-91790591D01*
X884728Y-91158282D01*
X884727Y-91158282D01*
X845380Y-91212439D01*
X748904Y-91401782D01*
X742431Y-91421706D01*
X702994Y-91479381D01*
X638635Y-91506580D01*
X569789Y-91494665D01*
X518313Y-91447421D01*
X500500Y-91383388D01*
X500500Y-89916611D01*
X520185Y-89849572D01*
X572989Y-89803817D01*
X642147Y-89793873D01*
X705703Y-89822898D01*
X742432Y-89878294D01*
X748906Y-89898221D01*
X845375Y-90087550D01*
X884728Y-90141716D01*
X1517037Y-89509408D01*
X1534075Y-89572993D01*
G37*
%TD.AperFunction*%
%TA.AperFunction,Conductor*%
G36*
X1534075Y-87032993D02*
G01*
X1599901Y-87147007D01*
X1692993Y-87240099D01*
X1807007Y-87305925D01*
X1870591Y-87322962D01*
X1269971Y-87923581D01*
X1348711Y-88040895D01*
X1349920Y-88044729D01*
X1352844Y-88047491D01*
X1360343Y-88077778D01*
X1369727Y-88107529D01*
X1368671Y-88111408D01*
X1369638Y-88115312D01*
X1359573Y-88144844D01*
X1351383Y-88174947D01*
X1348397Y-88177640D01*
X1347100Y-88181447D01*
X1302051Y-88220483D01*
X1292440Y-88225380D01*
X1238282Y-88264727D01*
X1238282Y-88264728D01*
X1870591Y-88897037D01*
X1807007Y-88914075D01*
X1692993Y-88979901D01*
X1599901Y-89072993D01*
X1534075Y-89187007D01*
X1517037Y-89250591D01*
X884728Y-88618282D01*
X884727Y-88618282D01*
X845380Y-88672439D01*
X748904Y-88861782D01*
X742431Y-88881706D01*
X702994Y-88939381D01*
X638635Y-88966580D01*
X569789Y-88954665D01*
X518313Y-88907421D01*
X500500Y-88843388D01*
X500500Y-87376611D01*
X520185Y-87309572D01*
X572989Y-87263817D01*
X642147Y-87253873D01*
X705703Y-87282898D01*
X742432Y-87338294D01*
X748906Y-87358221D01*
X845375Y-87547550D01*
X884728Y-87601716D01*
X1517037Y-86969408D01*
X1534075Y-87032993D01*
G37*
%TD.AperFunction*%
%TA.AperFunction,Conductor*%
G36*
X1534075Y-84492993D02*
G01*
X1599901Y-84607007D01*
X1692993Y-84700099D01*
X1807007Y-84765925D01*
X1870591Y-84782962D01*
X1269971Y-85383581D01*
X1348711Y-85500895D01*
X1349920Y-85504729D01*
X1352844Y-85507491D01*
X1360343Y-85537778D01*
X1369727Y-85567529D01*
X1368671Y-85571408D01*
X1369638Y-85575312D01*
X1359573Y-85604844D01*
X1351383Y-85634947D01*
X1348397Y-85637640D01*
X1347100Y-85641447D01*
X1302051Y-85680483D01*
X1292440Y-85685380D01*
X1238282Y-85724727D01*
X1238282Y-85724728D01*
X1870591Y-86357037D01*
X1807007Y-86374075D01*
X1692993Y-86439901D01*
X1599901Y-86532993D01*
X1534075Y-86647007D01*
X1517037Y-86710591D01*
X884728Y-86078282D01*
X884727Y-86078282D01*
X845380Y-86132439D01*
X748904Y-86321782D01*
X742431Y-86341706D01*
X702994Y-86399381D01*
X638635Y-86426580D01*
X569789Y-86414665D01*
X518313Y-86367421D01*
X500500Y-86303388D01*
X500500Y-84836611D01*
X520185Y-84769572D01*
X572989Y-84723817D01*
X642147Y-84713873D01*
X705703Y-84742898D01*
X742432Y-84798294D01*
X748906Y-84818221D01*
X845375Y-85007550D01*
X884728Y-85061716D01*
X1517037Y-84429408D01*
X1534075Y-84492993D01*
G37*
%TD.AperFunction*%
%TA.AperFunction,Conductor*%
G36*
X60115270Y-13921717D02*
G01*
X60115270Y-13921716D01*
X60154622Y-13867554D01*
X60251093Y-13678221D01*
X60257568Y-13658294D01*
X60297005Y-13600618D01*
X60361363Y-13573419D01*
X60430210Y-13585333D01*
X60481686Y-13632576D01*
X60499500Y-13696611D01*
X60499500Y-15163388D01*
X60479815Y-15230427D01*
X60427011Y-15276182D01*
X60357853Y-15286126D01*
X60294297Y-15257101D01*
X60257569Y-15201706D01*
X60251095Y-15181782D01*
X60154624Y-14992449D01*
X60115270Y-14938282D01*
X60115269Y-14938282D01*
X59482962Y-15570590D01*
X59465925Y-15507007D01*
X59400099Y-15392993D01*
X59307007Y-15299901D01*
X59192993Y-15234075D01*
X59129409Y-15217037D01*
X59761716Y-14584728D01*
X59707550Y-14545375D01*
X59697954Y-14540486D01*
X59647157Y-14492512D01*
X59630361Y-14424692D01*
X59652897Y-14358556D01*
X59697954Y-14319514D01*
X59707554Y-14314622D01*
X59761716Y-14275270D01*
X59761717Y-14275270D01*
X59129408Y-13642962D01*
X59192993Y-13625925D01*
X59307007Y-13560099D01*
X59400099Y-13467007D01*
X59465925Y-13352993D01*
X59482962Y-13289409D01*
X60115270Y-13921717D01*
G37*
%TD.AperFunction*%
%TA.AperFunction,Conductor*%
G36*
X60115270Y-11381717D02*
G01*
X60115270Y-11381716D01*
X60154622Y-11327554D01*
X60251093Y-11138221D01*
X60257568Y-11118294D01*
X60297005Y-11060618D01*
X60361363Y-11033419D01*
X60430210Y-11045333D01*
X60481686Y-11092576D01*
X60499500Y-11156611D01*
X60499500Y-12623388D01*
X60479815Y-12690427D01*
X60427011Y-12736182D01*
X60357853Y-12746126D01*
X60294297Y-12717101D01*
X60257569Y-12661706D01*
X60251095Y-12641782D01*
X60154624Y-12452449D01*
X60115270Y-12398282D01*
X60115269Y-12398282D01*
X59482962Y-13030590D01*
X59465925Y-12967007D01*
X59400099Y-12852993D01*
X59307007Y-12759901D01*
X59192993Y-12694075D01*
X59129409Y-12677037D01*
X59761716Y-12044728D01*
X59707550Y-12005375D01*
X59697954Y-12000486D01*
X59647157Y-11952512D01*
X59630361Y-11884692D01*
X59652897Y-11818556D01*
X59697954Y-11779514D01*
X59707554Y-11774622D01*
X59761716Y-11735270D01*
X59761717Y-11735270D01*
X59129408Y-11102962D01*
X59192993Y-11085925D01*
X59307007Y-11020099D01*
X59400099Y-10927007D01*
X59465925Y-10812993D01*
X59482962Y-10749409D01*
X60115270Y-11381717D01*
G37*
%TD.AperFunction*%
%TA.AperFunction,Conductor*%
G36*
X60115270Y-8841717D02*
G01*
X60115270Y-8841716D01*
X60154622Y-8787554D01*
X60251093Y-8598221D01*
X60257568Y-8578294D01*
X60297005Y-8520618D01*
X60361363Y-8493419D01*
X60430210Y-8505333D01*
X60481686Y-8552576D01*
X60499500Y-8616611D01*
X60499500Y-10083388D01*
X60479815Y-10150427D01*
X60427011Y-10196182D01*
X60357853Y-10206126D01*
X60294297Y-10177101D01*
X60257569Y-10121706D01*
X60251095Y-10101782D01*
X60154624Y-9912449D01*
X60115270Y-9858282D01*
X60115269Y-9858282D01*
X59482962Y-10490590D01*
X59465925Y-10427007D01*
X59400099Y-10312993D01*
X59307007Y-10219901D01*
X59192993Y-10154075D01*
X59129409Y-10137037D01*
X59761716Y-9504728D01*
X59707550Y-9465375D01*
X59697954Y-9460486D01*
X59647157Y-9412512D01*
X59630361Y-9344692D01*
X59652897Y-9278556D01*
X59697954Y-9239514D01*
X59707554Y-9234622D01*
X59761716Y-9195270D01*
X59761717Y-9195270D01*
X59129408Y-8562962D01*
X59192993Y-8545925D01*
X59307007Y-8480099D01*
X59400099Y-8387007D01*
X59465925Y-8272993D01*
X59482962Y-8209409D01*
X60115270Y-8841717D01*
G37*
%TD.AperFunction*%
%TA.AperFunction,Conductor*%
G36*
X60115270Y-6301717D02*
G01*
X60115270Y-6301716D01*
X60154622Y-6247554D01*
X60251093Y-6058221D01*
X60257568Y-6038294D01*
X60297005Y-5980618D01*
X60361363Y-5953419D01*
X60430210Y-5965333D01*
X60481686Y-6012576D01*
X60499500Y-6076611D01*
X60499500Y-7543388D01*
X60479815Y-7610427D01*
X60427011Y-7656182D01*
X60357853Y-7666126D01*
X60294297Y-7637101D01*
X60257569Y-7581706D01*
X60251095Y-7561782D01*
X60154624Y-7372449D01*
X60115270Y-7318282D01*
X60115269Y-7318282D01*
X59482962Y-7950590D01*
X59465925Y-7887007D01*
X59400099Y-7772993D01*
X59307007Y-7679901D01*
X59192993Y-7614075D01*
X59129409Y-7597037D01*
X59761716Y-6964728D01*
X59707550Y-6925375D01*
X59697954Y-6920486D01*
X59647157Y-6872512D01*
X59630361Y-6804692D01*
X59652897Y-6738556D01*
X59697954Y-6699514D01*
X59707554Y-6694622D01*
X59761716Y-6655270D01*
X59761717Y-6655270D01*
X59129408Y-6022962D01*
X59192993Y-6005925D01*
X59307007Y-5940099D01*
X59400099Y-5847007D01*
X59465925Y-5732993D01*
X59482962Y-5669409D01*
X60115270Y-6301717D01*
G37*
%TD.AperFunction*%
%TA.AperFunction,Conductor*%
G36*
X60463182Y-4101589D02*
G01*
X60496666Y-4162912D01*
X60499500Y-4189269D01*
X60499500Y-5003388D01*
X60479815Y-5070427D01*
X60427011Y-5116182D01*
X60357853Y-5126126D01*
X60294297Y-5097101D01*
X60257569Y-5041706D01*
X60251095Y-5021782D01*
X60154624Y-4832449D01*
X60115270Y-4778282D01*
X60115269Y-4778282D01*
X59482962Y-5410590D01*
X59465925Y-5347007D01*
X59400099Y-5232993D01*
X59307007Y-5139901D01*
X59192993Y-5074075D01*
X59129409Y-5057037D01*
X59798802Y-4387642D01*
X59860125Y-4354157D01*
X59874833Y-4355078D01*
X59874556Y-4352501D01*
X59957375Y-4343598D01*
X60092086Y-4293354D01*
X60092093Y-4293350D01*
X60207187Y-4207190D01*
X60207190Y-4207187D01*
X60276234Y-4114958D01*
X60332168Y-4073087D01*
X60401859Y-4068103D01*
X60463182Y-4101589D01*
G37*
%TD.AperFunction*%
M02*
