%TF.GenerationSoftware,KiCad,Pcbnew,10.0.3*%
%TF.CreationDate,2026-07-09T23:44:08+01:00*%
%TF.ProjectId,MANTA,4d414e54-412e-46b6-9963-61645f706362,rev?*%
%TF.SameCoordinates,Original*%
%TF.FileFunction,Copper,L1,Top*%
%TF.FilePolarity,Positive*%
%FSLAX46Y46*%
G04 Gerber Fmt 4.6, Leading zero omitted, Abs format (unit mm)*
G04 Created by KiCad (PCBNEW 10.0.3) date 2026-07-09 23:44:08*
%MOMM*%
%LPD*%
G01*
G04 APERTURE LIST*
G04 Aperture macros list*
%AMRoundRect*
0 Rectangle with rounded corners*
0 $1 Rounding radius*
0 $2 $3 $4 $5 $6 $7 $8 $9 X,Y pos of 4 corners*
0 Add a 4 corners polygon primitive as box body*
4,1,4,$2,$3,$4,$5,$6,$7,$8,$9,$2,$3,0*
0 Add four circle primitives for the rounded corners*
1,1,$1+$1,$2,$3*
1,1,$1+$1,$4,$5*
1,1,$1+$1,$6,$7*
1,1,$1+$1,$8,$9*
0 Add four rect primitives between the rounded corners*
20,1,$1+$1,$2,$3,$4,$5,0*
20,1,$1+$1,$4,$5,$6,$7,0*
20,1,$1+$1,$6,$7,$8,$9,0*
20,1,$1+$1,$8,$9,$2,$3,0*%
G04 Aperture macros list end*
%TA.AperFunction,ComponentPad*%
%ADD10R,1.700000X1.700000*%
%TD*%
%TA.AperFunction,ComponentPad*%
%ADD11C,1.700000*%
%TD*%
%TA.AperFunction,ComponentPad*%
%ADD12RoundRect,0.249999X-1.950001X-1.950001X1.950001X-1.950001X1.950001X1.950001X-1.950001X1.950001X0*%
%TD*%
%TA.AperFunction,ComponentPad*%
%ADD13C,4.400000*%
%TD*%
%TA.AperFunction,ComponentPad*%
%ADD14R,0.900000X2.000000*%
%TD*%
%TA.AperFunction,ComponentPad*%
%ADD15RoundRect,1.025000X-1.025000X-1.025000X1.025000X-1.025000X1.025000X1.025000X-1.025000X1.025000X0*%
%TD*%
%TA.AperFunction,ComponentPad*%
%ADD16C,4.100000*%
%TD*%
%TA.AperFunction,Conductor*%
%ADD17C,0.200000*%
%TD*%
G04 APERTURE END LIST*
D10*
X10500000Y-18000000D03*
D11*
X10500000Y-20540000D03*
X10500000Y-23080000D03*
D10*
X9144000Y-68834000D03*
D11*
X6604000Y-68834000D03*
D10*
X49398000Y-62230000D03*
D11*
X51938000Y-62230000D03*
D10*
X49144000Y-86834000D03*
D11*
X51684000Y-86834000D03*
D12*
X27200000Y-96500000D03*
D13*
X36000000Y-96500000D03*
D10*
X2000000Y-24000000D03*
D11*
X2000000Y-26540000D03*
D10*
X50500000Y-18000000D03*
D11*
X50500000Y-20540000D03*
X50500000Y-23080000D03*
D10*
X9144000Y-86834000D03*
D11*
X6604000Y-86834000D03*
D10*
X59000000Y-24000000D03*
D11*
X59000000Y-26540000D03*
D10*
X50500000Y-27500000D03*
D11*
X50500000Y-30040000D03*
X50500000Y-32580000D03*
D10*
X9398000Y-62230000D03*
D11*
X6858000Y-62230000D03*
D10*
X13000000Y-2000000D03*
D11*
X15540000Y-2000000D03*
D10*
X49398000Y-44230000D03*
D11*
X51938000Y-44230000D03*
D10*
X49276000Y-8382000D03*
D11*
X49276000Y-10922000D03*
D10*
X9398000Y-44230000D03*
D11*
X6858000Y-44230000D03*
D10*
X46228000Y-98044000D03*
D11*
X48768000Y-98044000D03*
D10*
X48500000Y-2000000D03*
D11*
X51040000Y-2000000D03*
X53580000Y-2000000D03*
D10*
X49144000Y-68834000D03*
D11*
X51684000Y-68834000D03*
D10*
X29000000Y-33000000D03*
D11*
X31540000Y-33000000D03*
X34080000Y-33000000D03*
D14*
X24550000Y-2500000D03*
X38050000Y-2500000D03*
D15*
X27700000Y-8500000D03*
D16*
X34900000Y-8500000D03*
D10*
X10500000Y-27500000D03*
D11*
X10500000Y-30040000D03*
X10500000Y-32580000D03*
D10*
X59000000Y-97000000D03*
D11*
X59000000Y-94460000D03*
X59000000Y-91920000D03*
X59000000Y-89380000D03*
X59000000Y-86840000D03*
X59000000Y-84300000D03*
D10*
X59000000Y-3000000D03*
D11*
X59000000Y-5540000D03*
X59000000Y-8080000D03*
X59000000Y-10620000D03*
X59000000Y-13160000D03*
X59000000Y-15700000D03*
D10*
X44958000Y-90678000D03*
D11*
X47498000Y-90678000D03*
X50038000Y-90678000D03*
D10*
X58000000Y-61000000D03*
D11*
X58000000Y-63540000D03*
X58000000Y-66080000D03*
X58000000Y-68620000D03*
X58000000Y-71160000D03*
X58000000Y-73700000D03*
X58000000Y-76240000D03*
X58000000Y-78780000D03*
D10*
X2000000Y-97000000D03*
D11*
X2000000Y-94460000D03*
X2000000Y-91920000D03*
X2000000Y-89380000D03*
X2000000Y-86840000D03*
X2000000Y-84300000D03*
D10*
X2000000Y-3000000D03*
D11*
X2000000Y-5540000D03*
X2000000Y-8080000D03*
X2000000Y-10620000D03*
X2000000Y-13160000D03*
X2000000Y-15700000D03*
D17*
X13716000Y-21216000D02*
X10500000Y-18000000D01*
X58000000Y-73700000D02*
X36362000Y-73700000D01*
X36362000Y-73700000D02*
X19304000Y-56642000D01*
X19304000Y-30734000D02*
X13716000Y-25146000D01*
X13716000Y-25146000D02*
X13716000Y-21216000D01*
X19304000Y-56642000D02*
X19304000Y-30734000D01*
X48260000Y-71990000D02*
X47244000Y-70974000D01*
X58000000Y-71160000D02*
X56456000Y-71160000D01*
X55626000Y-71990000D02*
X48260000Y-71990000D01*
X47244000Y-21256000D02*
X50500000Y-18000000D01*
X47244000Y-70974000D02*
X47244000Y-21256000D01*
X56456000Y-71160000D02*
X55626000Y-71990000D01*
X47644000Y-70808314D02*
X47644000Y-30356000D01*
X58000000Y-68620000D02*
X55030000Y-71590000D01*
X55030000Y-71590000D02*
X48425686Y-71590000D01*
X48425686Y-71590000D02*
X47644000Y-70808314D01*
X47644000Y-30356000D02*
X50500000Y-27500000D01*
X60400000Y-10362000D02*
X59436000Y-9398000D01*
X58000000Y-59856000D02*
X60400000Y-57456000D01*
X59436000Y-9398000D02*
X56896000Y-9398000D01*
X56896000Y-9398000D02*
X55880000Y-8382000D01*
X49276000Y-8382000D02*
X49276000Y-10922000D01*
X58000000Y-61000000D02*
X58000000Y-59856000D01*
X60400000Y-57456000D02*
X60400000Y-10362000D01*
X55880000Y-8382000D02*
X49276000Y-8382000D01*
X58000000Y-66080000D02*
X59690000Y-67770000D01*
X59690000Y-71628000D02*
X58928000Y-72390000D01*
X58928000Y-72390000D02*
X38608000Y-72390000D01*
X28722000Y-33000000D02*
X29000000Y-33000000D01*
X21082000Y-54864000D02*
X21082000Y-40640000D01*
X59690000Y-67770000D02*
X59690000Y-71628000D01*
X38608000Y-72390000D02*
X21082000Y-54864000D01*
X21082000Y-40640000D02*
X28722000Y-33000000D01*
X11498000Y-27500000D02*
X10500000Y-27500000D01*
X36068000Y-77216000D02*
X16764000Y-57912000D01*
X16764000Y-32766000D02*
X11498000Y-27500000D01*
X58000000Y-76240000D02*
X57024000Y-77216000D01*
X16764000Y-57912000D02*
X16764000Y-32766000D01*
X57024000Y-77216000D02*
X36068000Y-77216000D01*
%TA.AperFunction,Conductor*%
G36*
X11827828Y-505521D02*
G01*
X11838681Y-508707D01*
X11853680Y-518345D01*
X11870792Y-523369D01*
X11882466Y-536841D01*
X11897462Y-546477D01*
X11904870Y-562697D01*
X11916547Y-576172D01*
X11919083Y-593814D01*
X11926491Y-610031D01*
X11923954Y-627682D01*
X11926492Y-645331D01*
X11916553Y-679179D01*
X11916552Y-679190D01*
X11916549Y-679195D01*
X11915137Y-682287D01*
X11876654Y-730044D01*
X11792816Y-792805D01*
X11792810Y-792810D01*
X11792807Y-792813D01*
X11706648Y-907907D01*
X11706646Y-907910D01*
X11656402Y-1042621D01*
X11656400Y-1042628D01*
X11650000Y-1102146D01*
X11650000Y-1102155D01*
X11650000Y-1750000D01*
X12387750Y-1750000D01*
X12454789Y-1769685D01*
X12500544Y-1822489D01*
X12510488Y-1891647D01*
X12507524Y-1906093D01*
X12507103Y-1907665D01*
X12500000Y-1934171D01*
X12500000Y-2065828D01*
X12507524Y-2093905D01*
X12505863Y-2163755D01*
X12466701Y-2221618D01*
X12402473Y-2249123D01*
X12387750Y-2250000D01*
X11650000Y-2250000D01*
X11650000Y-2897852D01*
X11656400Y-2957370D01*
X11656401Y-2957372D01*
X11656403Y-2957379D01*
X11706645Y-3092086D01*
X11706649Y-3092093D01*
X11792807Y-3207184D01*
X11792810Y-3207188D01*
X11792813Y-3207191D01*
X11793289Y-3207547D01*
X11907906Y-3293350D01*
X11907913Y-3293354D01*
X12042620Y-3343596D01*
X12042627Y-3343598D01*
X12047212Y-3344091D01*
X12102138Y-3349998D01*
X12102155Y-3349999D01*
X12102172Y-3350000D01*
X12750000Y-3350000D01*
X12750000Y-2612250D01*
X12769685Y-2545211D01*
X12822489Y-2499456D01*
X12891647Y-2489512D01*
X12906093Y-2492475D01*
X12934174Y-2500000D01*
X13065825Y-2500000D01*
X13065826Y-2500000D01*
X13093905Y-2492476D01*
X13163755Y-2494137D01*
X13221618Y-2533299D01*
X13249123Y-2597527D01*
X13250000Y-2612250D01*
X13250000Y-3350000D01*
X13897828Y-3350000D01*
X13897836Y-3350000D01*
X13897847Y-3349999D01*
X13933560Y-3346158D01*
X13957372Y-3343598D01*
X13957379Y-3343596D01*
X14092086Y-3293354D01*
X14092093Y-3293350D01*
X14207187Y-3207190D01*
X14207190Y-3207187D01*
X14293350Y-3092093D01*
X14293354Y-3092086D01*
X14336192Y-2977231D01*
X14353103Y-2946260D01*
X14361422Y-2935147D01*
X14417352Y-2893276D01*
X14424493Y-2892765D01*
X14487042Y-2888289D01*
X14491525Y-2889264D01*
X14552850Y-2922746D01*
X14660216Y-3030112D01*
X14832169Y-3155042D01*
X14832200Y-3155060D01*
X14832442Y-3155182D01*
X15021588Y-3251557D01*
X15223757Y-3317246D01*
X15433713Y-3350500D01*
X15433714Y-3350500D01*
X15646286Y-3350500D01*
X15646287Y-3350500D01*
X15856243Y-3317246D01*
X16058412Y-3251557D01*
X16247816Y-3155051D01*
X16334138Y-3092335D01*
X16419786Y-3030109D01*
X16419788Y-3030106D01*
X16419792Y-3030104D01*
X16419799Y-3030096D01*
X16419849Y-3030061D01*
X16420605Y-3029290D01*
X16570104Y-2879792D01*
X16570106Y-2879788D01*
X16570109Y-2879786D01*
X16695048Y-2707820D01*
X16695050Y-2707817D01*
X16695051Y-2707816D01*
X16791557Y-2518412D01*
X16857246Y-2316243D01*
X16890500Y-2106287D01*
X16890500Y-1893713D01*
X16857246Y-1683757D01*
X16791557Y-1481588D01*
X16776545Y-1452125D01*
X23599500Y-1452125D01*
X23599500Y-3547876D01*
X23599659Y-3549806D01*
X23599885Y-3551454D01*
X23605907Y-3607482D01*
X23633690Y-3681971D01*
X23656202Y-3742328D01*
X23656203Y-3742330D01*
X23656204Y-3742332D01*
X23656205Y-3742333D01*
X23742450Y-3857542D01*
X23742452Y-3857544D01*
X23742455Y-3857547D01*
X23857664Y-3943793D01*
X23857671Y-3943797D01*
X23992517Y-3994091D01*
X23992516Y-3994091D01*
X23999444Y-3994835D01*
X24052127Y-4000500D01*
X25047872Y-4000499D01*
X25107483Y-3994091D01*
X25242331Y-3943796D01*
X25357546Y-3857546D01*
X25443796Y-3742331D01*
X25494091Y-3607483D01*
X25500500Y-3547873D01*
X25500499Y-1452128D01*
X25500499Y-1452125D01*
X37099500Y-1452125D01*
X37099500Y-3547876D01*
X37099659Y-3549806D01*
X37099885Y-3551454D01*
X37105907Y-3607482D01*
X37133690Y-3681971D01*
X37156202Y-3742328D01*
X37156203Y-3742330D01*
X37156204Y-3742332D01*
X37156205Y-3742333D01*
X37242450Y-3857542D01*
X37242452Y-3857544D01*
X37242455Y-3857547D01*
X37357664Y-3943793D01*
X37357671Y-3943797D01*
X37492517Y-3994091D01*
X37492516Y-3994091D01*
X37499444Y-3994835D01*
X37552127Y-4000500D01*
X38547872Y-4000499D01*
X38607483Y-3994091D01*
X38742331Y-3943796D01*
X38857546Y-3857546D01*
X38943796Y-3742331D01*
X38994091Y-3607483D01*
X39000500Y-3547873D01*
X39000499Y-1452128D01*
X38994091Y-1392517D01*
X38985352Y-1369087D01*
X38981581Y-1358977D01*
X38943797Y-1257671D01*
X38943795Y-1257668D01*
X38943793Y-1257664D01*
X38879229Y-1171419D01*
X38857548Y-1142456D01*
X38857542Y-1142450D01*
X38790634Y-1092363D01*
X38742335Y-1056206D01*
X38742332Y-1056204D01*
X38742330Y-1056203D01*
X38742328Y-1056202D01*
X38607482Y-1005908D01*
X38607483Y-1005908D01*
X38547883Y-999501D01*
X38547881Y-999500D01*
X38547873Y-999500D01*
X38547864Y-999500D01*
X38546841Y-999500D01*
X37552123Y-999500D01*
X37550192Y-999659D01*
X37548545Y-999885D01*
X37492516Y-1005908D01*
X37394068Y-1042627D01*
X37357666Y-1056204D01*
X37357665Y-1056205D01*
X37242456Y-1142450D01*
X37242450Y-1142456D01*
X37156205Y-1257665D01*
X37156203Y-1257668D01*
X37105908Y-1392516D01*
X37099500Y-1452125D01*
X25500499Y-1452125D01*
X25494091Y-1392517D01*
X25485352Y-1369087D01*
X25443797Y-1257671D01*
X25443793Y-1257664D01*
X25379229Y-1171419D01*
X25357548Y-1142456D01*
X25357542Y-1142450D01*
X25290634Y-1092363D01*
X25242335Y-1056206D01*
X25242332Y-1056204D01*
X25242330Y-1056203D01*
X25242328Y-1056202D01*
X25107482Y-1005908D01*
X25107483Y-1005908D01*
X25047883Y-999501D01*
X25047881Y-999500D01*
X25047873Y-999500D01*
X25047864Y-999500D01*
X25046841Y-999500D01*
X24052123Y-999500D01*
X24050192Y-999659D01*
X24048545Y-999885D01*
X23992516Y-1005908D01*
X23894068Y-1042627D01*
X23857666Y-1056204D01*
X23857665Y-1056205D01*
X23742456Y-1142450D01*
X23742450Y-1142456D01*
X23656205Y-1257665D01*
X23656203Y-1257668D01*
X23605908Y-1392516D01*
X23599500Y-1452125D01*
X16776545Y-1452125D01*
X16695051Y-1292184D01*
X16695049Y-1292181D01*
X16695048Y-1292179D01*
X16695039Y-1292167D01*
X16695037Y-1292162D01*
X16570112Y-1120216D01*
X16419788Y-969892D01*
X16419786Y-969890D01*
X16247820Y-844951D01*
X16240166Y-841051D01*
X16077765Y-758303D01*
X16077745Y-758294D01*
X16058414Y-748444D01*
X16058413Y-748443D01*
X16058412Y-748443D01*
X16052707Y-746589D01*
X16040618Y-740938D01*
X16039123Y-739619D01*
X16023135Y-730962D01*
X16019450Y-728442D01*
X16001323Y-706272D01*
X15988223Y-694715D01*
X15986280Y-687873D01*
X15975224Y-674351D01*
X15970335Y-631727D01*
X15969136Y-627503D01*
X15969654Y-625792D01*
X15967263Y-604936D01*
X15998094Y-542237D01*
X16056223Y-506620D01*
X16060177Y-505521D01*
X16061932Y-505033D01*
X16095153Y-500500D01*
X47292067Y-500500D01*
X47323599Y-505033D01*
X47326994Y-505521D01*
X47337847Y-508707D01*
X47396628Y-546477D01*
X47425657Y-610031D01*
X47415718Y-679190D01*
X47415715Y-679195D01*
X47414303Y-682287D01*
X47375820Y-730044D01*
X47292459Y-792448D01*
X47292453Y-792453D01*
X47292450Y-792456D01*
X47206205Y-907665D01*
X47206203Y-907668D01*
X47155907Y-1042516D01*
X47151468Y-1083821D01*
X47149500Y-1102126D01*
X47149500Y-2897876D01*
X47149659Y-2899806D01*
X47149885Y-2901454D01*
X47155907Y-2957482D01*
X47182670Y-3029235D01*
X47206202Y-3092328D01*
X47206206Y-3092335D01*
X47249086Y-3149616D01*
X47292450Y-3207542D01*
X47292452Y-3207544D01*
X47292455Y-3207547D01*
X47407664Y-3293793D01*
X47407671Y-3293797D01*
X47542517Y-3344091D01*
X47542516Y-3344091D01*
X47549444Y-3344835D01*
X47602127Y-3350500D01*
X49397872Y-3350499D01*
X49457483Y-3344091D01*
X49592331Y-3293796D01*
X49707546Y-3207546D01*
X49793796Y-3092331D01*
X49844091Y-2957483D01*
X49848532Y-2916181D01*
X49850499Y-2897888D01*
X49850499Y-2897882D01*
X49850500Y-2897873D01*
X49850499Y-2897816D01*
X49850504Y-2897796D01*
X49850677Y-2894565D01*
X49850855Y-2894574D01*
X49850856Y-2894568D01*
X49850977Y-2894581D01*
X49851141Y-2894589D01*
X49852127Y-2889628D01*
X49851209Y-2884540D01*
X49856489Y-2867677D01*
X49859935Y-2850341D01*
X49862472Y-2844212D01*
X49863940Y-2841525D01*
X49864802Y-2838587D01*
X49867343Y-2832453D01*
X49878778Y-2818260D01*
X49894224Y-2792219D01*
X50430297Y-2256147D01*
X50491619Y-2222663D01*
X50561311Y-2227647D01*
X50617244Y-2269519D01*
X50625363Y-2281828D01*
X50639896Y-2307000D01*
X50639899Y-2307004D01*
X50639901Y-2307007D01*
X50732993Y-2400099D01*
X50758169Y-2414634D01*
X50806384Y-2465202D01*
X50819606Y-2533809D01*
X50793638Y-2598673D01*
X50783849Y-2609702D01*
X50278282Y-3115268D01*
X50278282Y-3115269D01*
X50278282Y-3115270D01*
X50332449Y-3154624D01*
X50521782Y-3251095D01*
X50521784Y-3251096D01*
X50723866Y-3316756D01*
X50723867Y-3316756D01*
X50723870Y-3316757D01*
X50933754Y-3350000D01*
X51146245Y-3350000D01*
X51146246Y-3350000D01*
X51259050Y-3332132D01*
X51346487Y-3318284D01*
X51346493Y-3318283D01*
X51356127Y-3316757D01*
X51356130Y-3316757D01*
X51558217Y-3251095D01*
X51747554Y-3154622D01*
X51749976Y-3152862D01*
X51769121Y-3138953D01*
X51795858Y-3129412D01*
X51801717Y-3115269D01*
X51296149Y-2609702D01*
X51262664Y-2548379D01*
X51267648Y-2478688D01*
X51309519Y-2422754D01*
X51321822Y-2414639D01*
X51347007Y-2400099D01*
X51440099Y-2307007D01*
X51454634Y-2281830D01*
X51505199Y-2233616D01*
X51573805Y-2220391D01*
X51638671Y-2246358D01*
X51649702Y-2256149D01*
X52155269Y-2761717D01*
X52155269Y-2761716D01*
X52155270Y-2761717D01*
X52155270Y-2761716D01*
X52163859Y-2758158D01*
X52173710Y-2739207D01*
X52174955Y-2734968D01*
X52178057Y-2730369D01*
X52178474Y-2729779D01*
X52194622Y-2707555D01*
X52195694Y-2705450D01*
X52199676Y-2699825D01*
X52201521Y-2698365D01*
X52210733Y-2686327D01*
X52220363Y-2676131D01*
X52280703Y-2640907D01*
X52350508Y-2643897D01*
X52404227Y-2680066D01*
X52410297Y-2687071D01*
X52421752Y-2704056D01*
X52422401Y-2703659D01*
X52424944Y-2707809D01*
X52424947Y-2707813D01*
X52424949Y-2707817D01*
X52549890Y-2879786D01*
X52549892Y-2879788D01*
X52700216Y-3030112D01*
X52872169Y-3155042D01*
X52872200Y-3155060D01*
X52872442Y-3155182D01*
X53061588Y-3251557D01*
X53263757Y-3317246D01*
X53473713Y-3350500D01*
X53473714Y-3350500D01*
X53686286Y-3350500D01*
X53686287Y-3350500D01*
X53896243Y-3317246D01*
X54098412Y-3251557D01*
X54287816Y-3155051D01*
X54374138Y-3092335D01*
X54459786Y-3030109D01*
X54459788Y-3030106D01*
X54459792Y-3030104D01*
X54459799Y-3030096D01*
X54459849Y-3030061D01*
X54460605Y-3029290D01*
X54610104Y-2879792D01*
X54610106Y-2879788D01*
X54610109Y-2879786D01*
X54735048Y-2707820D01*
X54735050Y-2707817D01*
X54735051Y-2707816D01*
X54831557Y-2518412D01*
X54897246Y-2316243D01*
X54930500Y-2106287D01*
X54930500Y-1893713D01*
X54897246Y-1683757D01*
X54831557Y-1481588D01*
X54735051Y-1292184D01*
X54735049Y-1292181D01*
X54735048Y-1292179D01*
X54734702Y-1291703D01*
X54734700Y-1291699D01*
X54610112Y-1120216D01*
X54459788Y-969892D01*
X54459786Y-969890D01*
X54287820Y-844951D01*
X54280166Y-841051D01*
X54117765Y-758303D01*
X54117745Y-758294D01*
X54098414Y-748444D01*
X54098413Y-748443D01*
X54098412Y-748443D01*
X54092707Y-746589D01*
X54080618Y-740938D01*
X54079123Y-739619D01*
X54063135Y-730962D01*
X54059450Y-728442D01*
X54041323Y-706272D01*
X54028223Y-694715D01*
X54026280Y-687873D01*
X54015224Y-674351D01*
X54010335Y-631727D01*
X54009136Y-627503D01*
X54009654Y-625792D01*
X54007263Y-604936D01*
X54038094Y-542237D01*
X54096223Y-506620D01*
X54100177Y-505521D01*
X54101932Y-505033D01*
X54135153Y-500500D01*
X60357671Y-500500D01*
X60392606Y-505523D01*
X60407604Y-509927D01*
X60466355Y-547672D01*
X60466379Y-547700D01*
X60466382Y-547702D01*
X60466383Y-547704D01*
X60467542Y-549041D01*
X60495018Y-603902D01*
X60496663Y-611460D01*
X60499500Y-637831D01*
X60499500Y-1792067D01*
X60499499Y-1792069D01*
X60499500Y-1792070D01*
X60497940Y-1802917D01*
X60494476Y-1827005D01*
X60491289Y-1837858D01*
X60453514Y-1896635D01*
X60389957Y-1925658D01*
X60320819Y-1915722D01*
X60317720Y-1914307D01*
X60269955Y-1875820D01*
X60207547Y-1792455D01*
X60207544Y-1792452D01*
X60207542Y-1792450D01*
X60149616Y-1749086D01*
X60092335Y-1706206D01*
X60092332Y-1706204D01*
X60092330Y-1706203D01*
X60092328Y-1706202D01*
X59957482Y-1655908D01*
X59957483Y-1655908D01*
X59897883Y-1649501D01*
X59897881Y-1649500D01*
X59897873Y-1649500D01*
X59897864Y-1649500D01*
X59896841Y-1649500D01*
X58102123Y-1649500D01*
X58100192Y-1649659D01*
X58098545Y-1649885D01*
X58042516Y-1655908D01*
X57907666Y-1706204D01*
X57907665Y-1706205D01*
X57792456Y-1792450D01*
X57792450Y-1792456D01*
X57706205Y-1907665D01*
X57706203Y-1907668D01*
X57655908Y-2042516D01*
X57649500Y-2102125D01*
X57649500Y-3897876D01*
X57649659Y-3899806D01*
X57649885Y-3901454D01*
X57655907Y-3957482D01*
X57671952Y-4000499D01*
X57706202Y-4092328D01*
X57706206Y-4092335D01*
X57723762Y-4115786D01*
X57792450Y-4207542D01*
X57792452Y-4207544D01*
X57792455Y-4207547D01*
X57907664Y-4293793D01*
X57907671Y-4293797D01*
X58022376Y-4336579D01*
X58053350Y-4353491D01*
X58064461Y-4361808D01*
X58106334Y-4417740D01*
X58111321Y-4487432D01*
X58111318Y-4487445D01*
X58110342Y-4491930D01*
X58076860Y-4553244D01*
X57969886Y-4660218D01*
X57844949Y-4832182D01*
X57748445Y-5021580D01*
X57682752Y-5223759D01*
X57649500Y-5433707D01*
X57649500Y-5646286D01*
X57682754Y-5856244D01*
X57682754Y-5856247D01*
X57744189Y-6045321D01*
X57747657Y-6055994D01*
X57748444Y-6058414D01*
X57844951Y-6247820D01*
X57969890Y-6419786D01*
X58120213Y-6570109D01*
X58292182Y-6695050D01*
X58292190Y-6695054D01*
X58292693Y-6695363D01*
X58294174Y-6696496D01*
X58296122Y-6697912D01*
X58296086Y-6697960D01*
X58313034Y-6710934D01*
X58323315Y-6720643D01*
X58358541Y-6780983D01*
X58355552Y-6850789D01*
X58319383Y-6904507D01*
X58312227Y-6910708D01*
X58295814Y-6922723D01*
X58292190Y-6924943D01*
X58120210Y-7049892D01*
X57969892Y-7200210D01*
X57844949Y-7372182D01*
X57748445Y-7561580D01*
X57682752Y-7763759D01*
X57649500Y-7973707D01*
X57649500Y-8186291D01*
X57676501Y-8356767D01*
X57682753Y-8396239D01*
X57734074Y-8554191D01*
X57747660Y-8596003D01*
X57748444Y-8598414D01*
X57749929Y-8601330D01*
X57761310Y-8634733D01*
X57763871Y-8648375D01*
X57756894Y-8717896D01*
X57713443Y-8772604D01*
X57713438Y-8772606D01*
X57713438Y-8772608D01*
X57713436Y-8772608D01*
X57710715Y-8774527D01*
X57659586Y-8795502D01*
X57657641Y-8795825D01*
X57637327Y-8797500D01*
X57213927Y-8797500D01*
X57213926Y-8797499D01*
X57213926Y-8797500D01*
X57178991Y-8792477D01*
X57153749Y-8785065D01*
X57101004Y-8753769D01*
X56371928Y-8024693D01*
X56371919Y-8024683D01*
X56320943Y-7973707D01*
X56248717Y-7901481D01*
X56248716Y-7901480D01*
X56180714Y-7862220D01*
X56178653Y-7860920D01*
X56174489Y-7856197D01*
X56169430Y-7851798D01*
X56146842Y-7842663D01*
X56111786Y-7822423D01*
X56073603Y-7812192D01*
X55959057Y-7781499D01*
X55959054Y-7781499D01*
X55791443Y-7781499D01*
X55791380Y-7781500D01*
X50768329Y-7781500D01*
X50768324Y-7781499D01*
X50768322Y-7781500D01*
X50733388Y-7776475D01*
X50718389Y-7772070D01*
X50659643Y-7734327D01*
X50659614Y-7734293D01*
X50659613Y-7734293D01*
X50659612Y-7734291D01*
X50658456Y-7732958D01*
X50630976Y-7678083D01*
X50629331Y-7670521D01*
X50626499Y-7644168D01*
X50626499Y-7484852D01*
X50626499Y-7484129D01*
X50626498Y-7484123D01*
X50626497Y-7484116D01*
X50620091Y-7424517D01*
X50612702Y-7404707D01*
X50569797Y-7289671D01*
X50569793Y-7289664D01*
X50483547Y-7174455D01*
X50483544Y-7174452D01*
X50483542Y-7174450D01*
X50425616Y-7131086D01*
X50368335Y-7088206D01*
X50368332Y-7088204D01*
X50368330Y-7088203D01*
X50368328Y-7088202D01*
X50233482Y-7037908D01*
X50233483Y-7037908D01*
X50173883Y-7031501D01*
X50173881Y-7031500D01*
X50173873Y-7031500D01*
X50173864Y-7031500D01*
X50172841Y-7031500D01*
X48378123Y-7031500D01*
X48376192Y-7031659D01*
X48374545Y-7031885D01*
X48318516Y-7037908D01*
X48183666Y-7088204D01*
X48183665Y-7088205D01*
X48068456Y-7174450D01*
X48068450Y-7174456D01*
X47982205Y-7289665D01*
X47982203Y-7289668D01*
X47931907Y-7424516D01*
X47928547Y-7455781D01*
X47928221Y-7458815D01*
X47928221Y-7458816D01*
X47928220Y-7458815D01*
X47925502Y-7484113D01*
X47925501Y-7484123D01*
X47925501Y-7484129D01*
X47925500Y-7484139D01*
X47925500Y-9279876D01*
X47925659Y-9281806D01*
X47925885Y-9283454D01*
X47931907Y-9339482D01*
X47954697Y-9400584D01*
X47982202Y-9474328D01*
X47982206Y-9474335D01*
X48025086Y-9531616D01*
X48068450Y-9589542D01*
X48068456Y-9589548D01*
X48097419Y-9611229D01*
X48183664Y-9675793D01*
X48183671Y-9675797D01*
X48298376Y-9718579D01*
X48324264Y-9732714D01*
X48329350Y-9735491D01*
X48340461Y-9743808D01*
X48382334Y-9799740D01*
X48387321Y-9869432D01*
X48387318Y-9869445D01*
X48386342Y-9873930D01*
X48352860Y-9935244D01*
X48245886Y-10042218D01*
X48170627Y-10145805D01*
X48124853Y-10208809D01*
X48120949Y-10214182D01*
X48024445Y-10403582D01*
X47958753Y-10605757D01*
X47958753Y-10605760D01*
X47958525Y-10607201D01*
X47925500Y-10815707D01*
X47925500Y-10815713D01*
X47925500Y-11028287D01*
X47929951Y-11056386D01*
X47930244Y-11058238D01*
X47930244Y-11058248D01*
X47942942Y-11138414D01*
X47958753Y-11238243D01*
X47987859Y-11327819D01*
X48024445Y-11440418D01*
X48117532Y-11623111D01*
X48120951Y-11629820D01*
X48245890Y-11801786D01*
X48245892Y-11801788D01*
X48396216Y-11952112D01*
X48568169Y-12077042D01*
X48568200Y-12077060D01*
X48568442Y-12077182D01*
X48757588Y-12173557D01*
X48959757Y-12239246D01*
X49169713Y-12272500D01*
X49169714Y-12272500D01*
X49382286Y-12272500D01*
X49382287Y-12272500D01*
X49592243Y-12239246D01*
X49794412Y-12173557D01*
X49983816Y-12077051D01*
X50083057Y-12004949D01*
X50155786Y-11952109D01*
X50155787Y-11952107D01*
X50155843Y-11952067D01*
X50156605Y-11951290D01*
X50306104Y-11801792D01*
X50306106Y-11801788D01*
X50306109Y-11801786D01*
X50431048Y-11629820D01*
X50431047Y-11629820D01*
X50431051Y-11629816D01*
X50431053Y-11629810D01*
X50451445Y-11601744D01*
X50459730Y-11573529D01*
X50527557Y-11440412D01*
X50593246Y-11238243D01*
X50626500Y-11028287D01*
X50626500Y-10815713D01*
X50593246Y-10605757D01*
X50527557Y-10403588D01*
X50431051Y-10214184D01*
X50431049Y-10214181D01*
X50431048Y-10214179D01*
X50430702Y-10213703D01*
X50430700Y-10213699D01*
X50306112Y-10042216D01*
X50205178Y-9941282D01*
X50205173Y-9941277D01*
X50184027Y-9913030D01*
X50177372Y-9900842D01*
X50162521Y-9832572D01*
X50186935Y-9767111D01*
X50189698Y-9763420D01*
X50245621Y-9721562D01*
X50368331Y-9675796D01*
X50483546Y-9589546D01*
X50569796Y-9474331D01*
X50620091Y-9339483D01*
X50626500Y-9279873D01*
X50626500Y-9124329D01*
X50629482Y-9103592D01*
X50631523Y-9089393D01*
X50635927Y-9074395D01*
X50673672Y-9015644D01*
X50673700Y-9015619D01*
X50673699Y-9015619D01*
X50675041Y-9014456D01*
X50729920Y-8986977D01*
X50737479Y-8985333D01*
X50763832Y-8982500D01*
X55562073Y-8982500D01*
X55590544Y-8986593D01*
X55597005Y-8987521D01*
X55622249Y-8994934D01*
X55674995Y-9026230D01*
X56410085Y-9761320D01*
X56410106Y-9761342D01*
X56411149Y-9762385D01*
X56415479Y-9766715D01*
X56415480Y-9766716D01*
X56527284Y-9878520D01*
X56601728Y-9921500D01*
X56664215Y-9957577D01*
X56816943Y-9998501D01*
X56816946Y-9998501D01*
X56982653Y-9998501D01*
X56984557Y-9998501D01*
X56984620Y-9998500D01*
X57593437Y-9998500D01*
X57628369Y-10003521D01*
X57641688Y-10007432D01*
X57700466Y-10045206D01*
X57729492Y-10108761D01*
X57729493Y-10108769D01*
X57730487Y-10115685D01*
X57725679Y-10171643D01*
X57682753Y-10303757D01*
X57682752Y-10303762D01*
X57649500Y-10513707D01*
X57649500Y-10726291D01*
X57670689Y-10860070D01*
X57676095Y-10894204D01*
X57682754Y-10936243D01*
X57688744Y-10954677D01*
X57739740Y-11111631D01*
X57744638Y-11126703D01*
X57748444Y-11138414D01*
X57844951Y-11327820D01*
X57969890Y-11499786D01*
X58120213Y-11650109D01*
X58292182Y-11775050D01*
X58292190Y-11775054D01*
X58292693Y-11775363D01*
X58294174Y-11776496D01*
X58296122Y-11777912D01*
X58296086Y-11777960D01*
X58313034Y-11790934D01*
X58323315Y-11800643D01*
X58358541Y-11860983D01*
X58355552Y-11930789D01*
X58319383Y-11984507D01*
X58312227Y-11990708D01*
X58295814Y-12002723D01*
X58292190Y-12004943D01*
X58120210Y-12129892D01*
X57969892Y-12280210D01*
X57844949Y-12452182D01*
X57748445Y-12641580D01*
X57682752Y-12843759D01*
X57649500Y-13053707D01*
X57649500Y-13266291D01*
X57682752Y-13476239D01*
X57748445Y-13678418D01*
X57841532Y-13861111D01*
X57844951Y-13867820D01*
X57969890Y-14039786D01*
X58120213Y-14190109D01*
X58292182Y-14315050D01*
X58292190Y-14315054D01*
X58292693Y-14315363D01*
X58294174Y-14316496D01*
X58296122Y-14317912D01*
X58296086Y-14317960D01*
X58313034Y-14330934D01*
X58323315Y-14340643D01*
X58358541Y-14400983D01*
X58355552Y-14470789D01*
X58319383Y-14524507D01*
X58312227Y-14530708D01*
X58295814Y-14542723D01*
X58292190Y-14544943D01*
X58120210Y-14669892D01*
X57969892Y-14820210D01*
X57969890Y-14820213D01*
X57866951Y-14961899D01*
X57844949Y-14992182D01*
X57748445Y-15181580D01*
X57682752Y-15383759D01*
X57649500Y-15593707D01*
X57649500Y-15806291D01*
X57682752Y-16016239D01*
X57748445Y-16218418D01*
X57841532Y-16401111D01*
X57844951Y-16407820D01*
X57969890Y-16579786D01*
X57969892Y-16579788D01*
X58120216Y-16730112D01*
X58292169Y-16855042D01*
X58292200Y-16855060D01*
X58292442Y-16855182D01*
X58481588Y-16951557D01*
X58683757Y-17017246D01*
X58893713Y-17050500D01*
X58893714Y-17050500D01*
X59106286Y-17050500D01*
X59106287Y-17050500D01*
X59316243Y-17017246D01*
X59518412Y-16951557D01*
X59603332Y-16908287D01*
X59636728Y-16896908D01*
X59650374Y-16894346D01*
X59719894Y-16901323D01*
X59774607Y-16944777D01*
X59774617Y-16944791D01*
X59776540Y-16947520D01*
X59797498Y-16998612D01*
X59797821Y-17000555D01*
X59799500Y-17020889D01*
X59799500Y-22507670D01*
X59799499Y-22507676D01*
X59799500Y-22507679D01*
X59794475Y-22542614D01*
X59790070Y-22557612D01*
X59752327Y-22616355D01*
X59752292Y-22616385D01*
X59752291Y-22616387D01*
X59752289Y-22616387D01*
X59750958Y-22617542D01*
X59696097Y-22645018D01*
X59688539Y-22646663D01*
X59662168Y-22649500D01*
X58102123Y-22649500D01*
X58100192Y-22649659D01*
X58098545Y-22649885D01*
X58042516Y-22655908D01*
X57907666Y-22706204D01*
X57907665Y-22706205D01*
X57792456Y-22792450D01*
X57792450Y-22792456D01*
X57706205Y-22907665D01*
X57706203Y-22907668D01*
X57655907Y-23042516D01*
X57649501Y-23102116D01*
X57649500Y-23102139D01*
X57649500Y-24897876D01*
X57649659Y-24899806D01*
X57649885Y-24901454D01*
X57655907Y-24957482D01*
X57683690Y-25031971D01*
X57706202Y-25092328D01*
X57706206Y-25092335D01*
X57723142Y-25114958D01*
X57792450Y-25207542D01*
X57792452Y-25207544D01*
X57792455Y-25207547D01*
X57907664Y-25293793D01*
X57907671Y-25293797D01*
X58021338Y-25336192D01*
X58022376Y-25336579D01*
X58052649Y-25353108D01*
X58053351Y-25353491D01*
X58063950Y-25361426D01*
X58064461Y-25361808D01*
X58106334Y-25417740D01*
X58111321Y-25487432D01*
X58111318Y-25487445D01*
X58110342Y-25491930D01*
X58076860Y-25553244D01*
X57969886Y-25660218D01*
X57844949Y-25832182D01*
X57748445Y-26021582D01*
X57748444Y-26021584D01*
X57748444Y-26021585D01*
X57744956Y-26032319D01*
X57682752Y-26223762D01*
X57671873Y-26292454D01*
X57649500Y-26433707D01*
X57649500Y-26646286D01*
X57682754Y-26856244D01*
X57682754Y-26856247D01*
X57735792Y-27019479D01*
X57748441Y-27058406D01*
X57748443Y-27058412D01*
X57830645Y-27219744D01*
X57844951Y-27247820D01*
X57969890Y-27419786D01*
X57969892Y-27419788D01*
X58120216Y-27570112D01*
X58292169Y-27695042D01*
X58292177Y-27695047D01*
X58292179Y-27695048D01*
X58292181Y-27695049D01*
X58292182Y-27695050D01*
X58292200Y-27695060D01*
X58292442Y-27695182D01*
X58481588Y-27791557D01*
X58683757Y-27857246D01*
X58893713Y-27890500D01*
X58893714Y-27890500D01*
X59106286Y-27890500D01*
X59106287Y-27890500D01*
X59316243Y-27857246D01*
X59518412Y-27791557D01*
X59603332Y-27748287D01*
X59636728Y-27736908D01*
X59650374Y-27734346D01*
X59719894Y-27741323D01*
X59774607Y-27784777D01*
X59774617Y-27784791D01*
X59776540Y-27787520D01*
X59797498Y-27838612D01*
X59797821Y-27840555D01*
X59799500Y-27860889D01*
X59799500Y-57138072D01*
X59799499Y-57138074D01*
X59799500Y-57138075D01*
X59794476Y-57173009D01*
X59787064Y-57198250D01*
X59755769Y-57250994D01*
X57519483Y-59487278D01*
X57519479Y-59487284D01*
X57470534Y-59572060D01*
X57470533Y-59572063D01*
X57448714Y-59599805D01*
X57435095Y-59612790D01*
X57378767Y-59643548D01*
X57368641Y-59646004D01*
X57339410Y-59649500D01*
X57102130Y-59649500D01*
X57102128Y-59649500D01*
X57101423Y-59649550D01*
X57099979Y-59649731D01*
X57042516Y-59655907D01*
X56907666Y-59706204D01*
X56907665Y-59706205D01*
X56792456Y-59792450D01*
X56792450Y-59792456D01*
X56706205Y-59907665D01*
X56706203Y-59907668D01*
X56655908Y-60042516D01*
X56649500Y-60102125D01*
X56649500Y-61897876D01*
X56649659Y-61899806D01*
X56649885Y-61901454D01*
X56655907Y-61957482D01*
X56683690Y-62031971D01*
X56706202Y-62092328D01*
X56706203Y-62092330D01*
X56706204Y-62092332D01*
X56706205Y-62092333D01*
X56792450Y-62207542D01*
X56792452Y-62207544D01*
X56792455Y-62207547D01*
X56907664Y-62293793D01*
X56907671Y-62293797D01*
X57021590Y-62336286D01*
X57022376Y-62336579D01*
X57048555Y-62350873D01*
X57053350Y-62353491D01*
X57064461Y-62361808D01*
X57106334Y-62417740D01*
X57111321Y-62487432D01*
X57111318Y-62487445D01*
X57110342Y-62491930D01*
X57076860Y-62553244D01*
X56969886Y-62660218D01*
X56844949Y-62832182D01*
X56748445Y-63021580D01*
X56682752Y-63223759D01*
X56649500Y-63433707D01*
X56649500Y-63646291D01*
X56682752Y-63856239D01*
X56748445Y-64058418D01*
X56841532Y-64241111D01*
X56844951Y-64247820D01*
X56969890Y-64419786D01*
X57120213Y-64570109D01*
X57292182Y-64695050D01*
X57292190Y-64695054D01*
X57292693Y-64695363D01*
X57294174Y-64696496D01*
X57296122Y-64697912D01*
X57296086Y-64697960D01*
X57313034Y-64710934D01*
X57323315Y-64720643D01*
X57358541Y-64780983D01*
X57355552Y-64850789D01*
X57319383Y-64904507D01*
X57312227Y-64910708D01*
X57295814Y-64922723D01*
X57292190Y-64924943D01*
X57120210Y-65049892D01*
X56969892Y-65200210D01*
X56844949Y-65372182D01*
X56748445Y-65561580D01*
X56682752Y-65763759D01*
X56649500Y-65973707D01*
X56649500Y-66186291D01*
X56680473Y-66381847D01*
X56680474Y-66381853D01*
X56682753Y-66396239D01*
X56682753Y-66396241D01*
X56682754Y-66396243D01*
X56687141Y-66409746D01*
X56687145Y-66409761D01*
X56737430Y-66564521D01*
X56748441Y-66598408D01*
X56748443Y-66598413D01*
X56748444Y-66598414D01*
X56844951Y-66787820D01*
X56969890Y-66959786D01*
X57120213Y-67110109D01*
X57292182Y-67235050D01*
X57292190Y-67235054D01*
X57292693Y-67235363D01*
X57294174Y-67236496D01*
X57296122Y-67237912D01*
X57296086Y-67237960D01*
X57313034Y-67250934D01*
X57323315Y-67260643D01*
X57358541Y-67320983D01*
X57355552Y-67390789D01*
X57319383Y-67444507D01*
X57312227Y-67450708D01*
X57295814Y-67462723D01*
X57292190Y-67464943D01*
X57120210Y-67589892D01*
X56969892Y-67740210D01*
X56969890Y-67740213D01*
X56845907Y-67910864D01*
X56844949Y-67912182D01*
X56748445Y-68101580D01*
X56682752Y-68303759D01*
X56649500Y-68513707D01*
X56649500Y-68726291D01*
X56680233Y-68920332D01*
X56680234Y-68920339D01*
X56682754Y-68936244D01*
X56682754Y-68936247D01*
X56692032Y-68964803D01*
X56692904Y-68968086D01*
X56692799Y-68972068D01*
X56697000Y-68996342D01*
X56697488Y-69013409D01*
X56681071Y-69078693D01*
X56674443Y-69090236D01*
X56654591Y-69116171D01*
X54830191Y-70940573D01*
X54801940Y-70961722D01*
X54778852Y-70974330D01*
X54719422Y-70989500D01*
X48743613Y-70989500D01*
X48708677Y-70984477D01*
X48683435Y-70977065D01*
X48630690Y-70945769D01*
X48293425Y-70608504D01*
X48273643Y-70582692D01*
X48272961Y-70581508D01*
X48266115Y-70568970D01*
X48262542Y-70563411D01*
X48261037Y-70560796D01*
X48253525Y-70529667D01*
X48244500Y-70498927D01*
X48244500Y-70326328D01*
X48249523Y-70291392D01*
X48253927Y-70276394D01*
X48291661Y-70217652D01*
X48291832Y-70217503D01*
X48293034Y-70216461D01*
X48347925Y-70188974D01*
X48355483Y-70187329D01*
X48381827Y-70184499D01*
X50041871Y-70184499D01*
X50041872Y-70184499D01*
X50101483Y-70178091D01*
X50236331Y-70127796D01*
X50351546Y-70041546D01*
X50437796Y-69926331D01*
X50480580Y-69811618D01*
X50497490Y-69780649D01*
X50505811Y-69769533D01*
X50561741Y-69727663D01*
X50631424Y-69722675D01*
X50635909Y-69723650D01*
X50697234Y-69757130D01*
X50804216Y-69864112D01*
X50976169Y-69989042D01*
X50976200Y-69989060D01*
X50976442Y-69989182D01*
X51165588Y-70085557D01*
X51367757Y-70151246D01*
X51577713Y-70184500D01*
X51577714Y-70184500D01*
X51790286Y-70184500D01*
X51790287Y-70184500D01*
X52000243Y-70151246D01*
X52202412Y-70085557D01*
X52391816Y-69989051D01*
X52478138Y-69926335D01*
X52563786Y-69864109D01*
X52563788Y-69864106D01*
X52563792Y-69864104D01*
X52563799Y-69864096D01*
X52563849Y-69864061D01*
X52564605Y-69863290D01*
X52714104Y-69713792D01*
X52714106Y-69713788D01*
X52714109Y-69713786D01*
X52754355Y-69658391D01*
X52836225Y-69545707D01*
X52837659Y-69543730D01*
X52839048Y-69541820D01*
X52839047Y-69541820D01*
X52839051Y-69541816D01*
X52935557Y-69352412D01*
X53001246Y-69150243D01*
X53034500Y-68940287D01*
X53034500Y-68727713D01*
X53001246Y-68517757D01*
X52935557Y-68315588D01*
X52839051Y-68126184D01*
X52839049Y-68126181D01*
X52839048Y-68126179D01*
X52838702Y-68125703D01*
X52838700Y-68125699D01*
X52714112Y-67954216D01*
X52563788Y-67803892D01*
X52563786Y-67803890D01*
X52391820Y-67678951D01*
X52330628Y-67647772D01*
X52224245Y-67593567D01*
X52224240Y-67593565D01*
X52202414Y-67582444D01*
X52202413Y-67582443D01*
X52202412Y-67582443D01*
X52105550Y-67550970D01*
X52009074Y-67519623D01*
X52004552Y-67517770D01*
X51995362Y-67515600D01*
X51990599Y-67515226D01*
X51965401Y-67511235D01*
X51838957Y-67491208D01*
X51819489Y-67488124D01*
X51790290Y-67483500D01*
X51790287Y-67483500D01*
X51577713Y-67483500D01*
X51577709Y-67483500D01*
X51538776Y-67489666D01*
X51529042Y-67491208D01*
X51491654Y-67497129D01*
X51367763Y-67516752D01*
X51165582Y-67582445D01*
X50976182Y-67678949D01*
X50804218Y-67803886D01*
X50703281Y-67904823D01*
X50703279Y-67904824D01*
X50703279Y-67904825D01*
X50675024Y-67925975D01*
X50662841Y-67932627D01*
X50594568Y-67947477D01*
X50529104Y-67923058D01*
X50529105Y-67923058D01*
X50527412Y-67921791D01*
X50525414Y-67920295D01*
X50483563Y-67864376D01*
X50478109Y-67849755D01*
X50437797Y-67741671D01*
X50437793Y-67741664D01*
X50351547Y-67626455D01*
X50351544Y-67626452D01*
X50351542Y-67626450D01*
X50276555Y-67570315D01*
X50236335Y-67540206D01*
X50236332Y-67540204D01*
X50236330Y-67540203D01*
X50236328Y-67540202D01*
X50101482Y-67489908D01*
X50101483Y-67489908D01*
X50041883Y-67483501D01*
X50041881Y-67483500D01*
X50041873Y-67483500D01*
X50041865Y-67483500D01*
X50040841Y-67483500D01*
X48386330Y-67483500D01*
X48351389Y-67478475D01*
X48336390Y-67474070D01*
X48321402Y-67464440D01*
X48304324Y-67459432D01*
X48277644Y-67436327D01*
X48276457Y-67434958D01*
X48248977Y-67380083D01*
X48247332Y-67372521D01*
X48244500Y-67346168D01*
X48244500Y-63697403D01*
X48249518Y-63662484D01*
X48251322Y-63656340D01*
X48289087Y-63597561D01*
X48352639Y-63568527D01*
X48383543Y-63567972D01*
X48440516Y-63574090D01*
X48440517Y-63574091D01*
X48440516Y-63574091D01*
X48447444Y-63574835D01*
X48447444Y-63574838D01*
X48447458Y-63574836D01*
X48500127Y-63580500D01*
X50295872Y-63580499D01*
X50355483Y-63574091D01*
X50490331Y-63523796D01*
X50605546Y-63437546D01*
X50691796Y-63322331D01*
X50734580Y-63207618D01*
X50751490Y-63176649D01*
X50759811Y-63165533D01*
X50815741Y-63123663D01*
X50885424Y-63118675D01*
X50889909Y-63119650D01*
X50951234Y-63153130D01*
X51058216Y-63260112D01*
X51230169Y-63385042D01*
X51230200Y-63385060D01*
X51230442Y-63385182D01*
X51419588Y-63481557D01*
X51621757Y-63547246D01*
X51831713Y-63580500D01*
X51831714Y-63580500D01*
X52044286Y-63580500D01*
X52044287Y-63580500D01*
X52254243Y-63547246D01*
X52456412Y-63481557D01*
X52645816Y-63385051D01*
X52732138Y-63322335D01*
X52817786Y-63260109D01*
X52817788Y-63260106D01*
X52817792Y-63260104D01*
X52817799Y-63260096D01*
X52817849Y-63260061D01*
X52818605Y-63259290D01*
X52968104Y-63109792D01*
X52968106Y-63109788D01*
X52968109Y-63109786D01*
X53093048Y-62937820D01*
X53093047Y-62937820D01*
X53093051Y-62937816D01*
X53093053Y-62937810D01*
X53113445Y-62909744D01*
X53121730Y-62881529D01*
X53189557Y-62748412D01*
X53255246Y-62546243D01*
X53288500Y-62336287D01*
X53288500Y-62123713D01*
X53255246Y-61913757D01*
X53189557Y-61711588D01*
X53093051Y-61522184D01*
X53093049Y-61522181D01*
X53093048Y-61522179D01*
X53092702Y-61521703D01*
X53092700Y-61521699D01*
X52968112Y-61350216D01*
X52817788Y-61199892D01*
X52817786Y-61199890D01*
X52645820Y-61074951D01*
X52542781Y-61022450D01*
X52478245Y-60989567D01*
X52478240Y-60989565D01*
X52456414Y-60978444D01*
X52456413Y-60978443D01*
X52456412Y-60978443D01*
X52359550Y-60946970D01*
X52263074Y-60915623D01*
X52258552Y-60913770D01*
X52249362Y-60911600D01*
X52244599Y-60911226D01*
X52092957Y-60887208D01*
X52072808Y-60884017D01*
X52044290Y-60879500D01*
X52044287Y-60879500D01*
X51831713Y-60879500D01*
X51831709Y-60879500D01*
X51792776Y-60885666D01*
X51783042Y-60887208D01*
X51745654Y-60893129D01*
X51621763Y-60912752D01*
X51419582Y-60978445D01*
X51230182Y-61074949D01*
X51058218Y-61199886D01*
X50957281Y-61300823D01*
X50957279Y-61300824D01*
X50957279Y-61300825D01*
X50929024Y-61321975D01*
X50916841Y-61328627D01*
X50848568Y-61343477D01*
X50783104Y-61319058D01*
X50783105Y-61319058D01*
X50781412Y-61317791D01*
X50779414Y-61316295D01*
X50737563Y-61260376D01*
X50732109Y-61245755D01*
X50691797Y-61137671D01*
X50691793Y-61137664D01*
X50605547Y-61022455D01*
X50605544Y-61022452D01*
X50605542Y-61022450D01*
X50536641Y-60970871D01*
X50490335Y-60936206D01*
X50490332Y-60936204D01*
X50490330Y-60936203D01*
X50490328Y-60936202D01*
X50355482Y-60885908D01*
X50355483Y-60885908D01*
X50295883Y-60879501D01*
X50295881Y-60879500D01*
X50295873Y-60879500D01*
X50295864Y-60879500D01*
X50294841Y-60879500D01*
X48500432Y-60879500D01*
X48500129Y-60879500D01*
X48500123Y-60879501D01*
X48440515Y-60885909D01*
X48418088Y-60894273D01*
X48407100Y-60896245D01*
X48403401Y-60895843D01*
X48394049Y-60897878D01*
X48380209Y-60898868D01*
X48311936Y-60884017D01*
X48262530Y-60834612D01*
X48262527Y-60834605D01*
X48259665Y-60829363D01*
X48244500Y-60769942D01*
X48244500Y-45696870D01*
X48249522Y-45661937D01*
X48253433Y-45648618D01*
X48291206Y-45589841D01*
X48354758Y-45560816D01*
X48360671Y-45559966D01*
X48421655Y-45566522D01*
X48440622Y-45573597D01*
X48440627Y-45573598D01*
X48445212Y-45574091D01*
X48500141Y-45579998D01*
X48500152Y-45579998D01*
X48500155Y-45579999D01*
X48500172Y-45580000D01*
X49148000Y-45580000D01*
X49148000Y-44842250D01*
X49167685Y-44775211D01*
X49220489Y-44729456D01*
X49289647Y-44719512D01*
X49304093Y-44722475D01*
X49332174Y-44730000D01*
X49463825Y-44730000D01*
X49463826Y-44730000D01*
X49491905Y-44722476D01*
X49561755Y-44724137D01*
X49619618Y-44763299D01*
X49647123Y-44827527D01*
X49648000Y-44842250D01*
X49648000Y-45580000D01*
X50295828Y-45580000D01*
X50295836Y-45580000D01*
X50295847Y-45579999D01*
X50331560Y-45576158D01*
X50355372Y-45573598D01*
X50355379Y-45573596D01*
X50490086Y-45523354D01*
X50490093Y-45523350D01*
X50605187Y-45437190D01*
X50605190Y-45437187D01*
X50691350Y-45322093D01*
X50691354Y-45322086D01*
X50713529Y-45262632D01*
X50748431Y-45106752D01*
X50750659Y-45098235D01*
X50751119Y-45096701D01*
X50753444Y-45093127D01*
X50761592Y-45071932D01*
X50777234Y-45043880D01*
X50797848Y-45016595D01*
X51328297Y-44486147D01*
X51389619Y-44452663D01*
X51459311Y-44457647D01*
X51515244Y-44499519D01*
X51523363Y-44511828D01*
X51537896Y-44537000D01*
X51537899Y-44537004D01*
X51537901Y-44537007D01*
X51630993Y-44630099D01*
X51656169Y-44644634D01*
X51704384Y-44695202D01*
X51717606Y-44763809D01*
X51691638Y-44828673D01*
X51681849Y-44839702D01*
X51176282Y-45345268D01*
X51176282Y-45345269D01*
X51176282Y-45345270D01*
X51230449Y-45384624D01*
X51419782Y-45481095D01*
X51419784Y-45481096D01*
X51621866Y-45546756D01*
X51621867Y-45546756D01*
X51621870Y-45546757D01*
X51831754Y-45580000D01*
X52044245Y-45580000D01*
X52044246Y-45580000D01*
X52165371Y-45560815D01*
X52244487Y-45548284D01*
X52244493Y-45548283D01*
X52254127Y-45546757D01*
X52254130Y-45546757D01*
X52456217Y-45481095D01*
X52645554Y-45384622D01*
X52647976Y-45382862D01*
X52667121Y-45368953D01*
X52693858Y-45359412D01*
X52699717Y-45345269D01*
X52194149Y-44839702D01*
X52160664Y-44778379D01*
X52165648Y-44708688D01*
X52207519Y-44652754D01*
X52219822Y-44644639D01*
X52245007Y-44630099D01*
X52338099Y-44537007D01*
X52352634Y-44511830D01*
X52403199Y-44463616D01*
X52471805Y-44450391D01*
X52536671Y-44476358D01*
X52547702Y-44486149D01*
X53053269Y-44991717D01*
X53053269Y-44991716D01*
X53053270Y-44991717D01*
X53053270Y-44991716D01*
X53066738Y-44986137D01*
X53072955Y-44964967D01*
X53076954Y-44959118D01*
X53092429Y-44937820D01*
X53092622Y-44937554D01*
X53189095Y-44748217D01*
X53254757Y-44546130D01*
X53254757Y-44546127D01*
X53288000Y-44336246D01*
X53288000Y-44123753D01*
X53274260Y-44037007D01*
X53256284Y-43923511D01*
X53256283Y-43923505D01*
X53256283Y-43923506D01*
X53254756Y-43913865D01*
X53227473Y-43829898D01*
X53189095Y-43711782D01*
X53092624Y-43522449D01*
X53053270Y-43468282D01*
X53053269Y-43468282D01*
X53053268Y-43468282D01*
X52547702Y-43973849D01*
X52486379Y-44007334D01*
X52416687Y-44002350D01*
X52360754Y-43960478D01*
X52352634Y-43948169D01*
X52338099Y-43922993D01*
X52245007Y-43829901D01*
X52245004Y-43829899D01*
X52245000Y-43829896D01*
X52219828Y-43815363D01*
X52171613Y-43764796D01*
X52158391Y-43696189D01*
X52184359Y-43631324D01*
X52194135Y-43620310D01*
X52699716Y-43114728D01*
X52645550Y-43075375D01*
X52578318Y-43041118D01*
X52456214Y-42978902D01*
X52254130Y-42913242D01*
X52044251Y-42880000D01*
X52044246Y-42880000D01*
X51831754Y-42880000D01*
X51831749Y-42880000D01*
X51631513Y-42911715D01*
X51631505Y-42911715D01*
X51631506Y-42911716D01*
X51621865Y-42913242D01*
X51419784Y-42978903D01*
X51230438Y-43075380D01*
X51176282Y-43114727D01*
X51176282Y-43114728D01*
X51681850Y-43620296D01*
X51715335Y-43681619D01*
X51710351Y-43751311D01*
X51668479Y-43807244D01*
X51656173Y-43815362D01*
X51630996Y-43829898D01*
X51630990Y-43829903D01*
X51537903Y-43922990D01*
X51537898Y-43922996D01*
X51523362Y-43948173D01*
X51472793Y-43996387D01*
X51404185Y-44009607D01*
X51339322Y-43983637D01*
X51328296Y-43973850D01*
X50798113Y-43443667D01*
X50777142Y-43415742D01*
X50760817Y-43386059D01*
X50748465Y-43353398D01*
X50745761Y-43341321D01*
X50713527Y-43197364D01*
X50691354Y-43137913D01*
X50691350Y-43137906D01*
X50605190Y-43022812D01*
X50605187Y-43022809D01*
X50605185Y-43022807D01*
X50508936Y-42950755D01*
X50490093Y-42936649D01*
X50490088Y-42936646D01*
X50490089Y-42936646D01*
X50355377Y-42886402D01*
X50355370Y-42886400D01*
X50295852Y-42880000D01*
X50295844Y-42880000D01*
X49648000Y-42880000D01*
X49648000Y-43617749D01*
X49628315Y-43684788D01*
X49575511Y-43730543D01*
X49506353Y-43740487D01*
X49491908Y-43737524D01*
X49463828Y-43730000D01*
X49463826Y-43730000D01*
X49332174Y-43730000D01*
X49332171Y-43730000D01*
X49304092Y-43737524D01*
X49234242Y-43735861D01*
X49176380Y-43696698D01*
X49148877Y-43632469D01*
X49148000Y-43617749D01*
X49148000Y-42880000D01*
X48500155Y-42880000D01*
X48500149Y-42880000D01*
X48440628Y-42886400D01*
X48440605Y-42886407D01*
X48428538Y-42890907D01*
X48428537Y-42890909D01*
X48428533Y-42890909D01*
X48428530Y-42890911D01*
X48394049Y-42898411D01*
X48380207Y-42899401D01*
X48311934Y-42884549D01*
X48262529Y-42835144D01*
X48262527Y-42835140D01*
X48259666Y-42829900D01*
X48244500Y-42770477D01*
X48244500Y-42539500D01*
X48264185Y-42472461D01*
X48316989Y-42426706D01*
X48368500Y-42415500D01*
X54993990Y-42415500D01*
X54994000Y-42415500D01*
X55101456Y-42403947D01*
X55152967Y-42392741D01*
X55187197Y-42381347D01*
X55255497Y-42358616D01*
X55255501Y-42358613D01*
X55255504Y-42358613D01*
X55376543Y-42280825D01*
X55429347Y-42235070D01*
X55523567Y-42126336D01*
X55583338Y-41995459D01*
X55603023Y-41928420D01*
X55603024Y-41928416D01*
X55623500Y-41786000D01*
X55623500Y-15110000D01*
X55611947Y-15002544D01*
X55600741Y-14951033D01*
X55600637Y-14950722D01*
X55566616Y-14848502D01*
X55566613Y-14848496D01*
X55488828Y-14727462D01*
X55488825Y-14727457D01*
X55488820Y-14727451D01*
X55443076Y-14674659D01*
X55443072Y-14674656D01*
X55443070Y-14674653D01*
X55334336Y-14580433D01*
X55334333Y-14580431D01*
X55334331Y-14580430D01*
X55203465Y-14520664D01*
X55203460Y-14520662D01*
X55203459Y-14520662D01*
X55136420Y-14500977D01*
X55136422Y-14500977D01*
X55136417Y-14500976D01*
X55088944Y-14494150D01*
X54994000Y-14480500D01*
X54993998Y-14480500D01*
X6218842Y-14480500D01*
X6113712Y-14491553D01*
X6063250Y-14502284D01*
X6063248Y-14502285D01*
X5962702Y-14534969D01*
X5840938Y-14611625D01*
X5840932Y-14611629D01*
X5787712Y-14656882D01*
X5692485Y-14764727D01*
X5631491Y-14895042D01*
X5611180Y-14961896D01*
X5589374Y-15104112D01*
X5589374Y-15104115D01*
X5589374Y-15104117D01*
X5539665Y-20422998D01*
X5515455Y-23013499D01*
X5426669Y-32513499D01*
X5337663Y-42037134D01*
X5347453Y-42140970D01*
X5357431Y-42190873D01*
X5388317Y-42290480D01*
X5443439Y-42381032D01*
X5463131Y-42413382D01*
X5463135Y-42413388D01*
X5507580Y-42467280D01*
X5507601Y-42467300D01*
X5613988Y-42564125D01*
X5613989Y-42564126D01*
X5613994Y-42564130D01*
X5743376Y-42627073D01*
X5809916Y-42648386D01*
X5951787Y-42672328D01*
X6463532Y-42684809D01*
X6530071Y-42706122D01*
X6574525Y-42760026D01*
X6582779Y-42829406D01*
X6552213Y-42892235D01*
X6498827Y-42926703D01*
X6339580Y-42978445D01*
X6150182Y-43074949D01*
X6150179Y-43074950D01*
X6150179Y-43074951D01*
X6149589Y-43075380D01*
X5978210Y-43199892D01*
X5827892Y-43350210D01*
X5702949Y-43522182D01*
X5606445Y-43711580D01*
X5540752Y-43913759D01*
X5507500Y-44123707D01*
X5507500Y-44336291D01*
X5540752Y-44546239D01*
X5606445Y-44748418D01*
X5699532Y-44931111D01*
X5702951Y-44937820D01*
X5827890Y-45109786D01*
X5827892Y-45109788D01*
X5978216Y-45260112D01*
X6150169Y-45385042D01*
X6150200Y-45385060D01*
X6150442Y-45385182D01*
X6339588Y-45481557D01*
X6541757Y-45547246D01*
X6751713Y-45580500D01*
X6751714Y-45580500D01*
X6964286Y-45580500D01*
X6964287Y-45580500D01*
X7174243Y-45547246D01*
X7376412Y-45481557D01*
X7565816Y-45385051D01*
X7652471Y-45322093D01*
X7734313Y-45262632D01*
X7736539Y-45261129D01*
X7739983Y-45258511D01*
X7745828Y-45254263D01*
X7751664Y-45246231D01*
X7838725Y-45159169D01*
X7866973Y-45138023D01*
X7879156Y-45131371D01*
X7947427Y-45116521D01*
X8012891Y-45140939D01*
X8012898Y-45140943D01*
X8016571Y-45143693D01*
X8058435Y-45199621D01*
X8104202Y-45322328D01*
X8104206Y-45322335D01*
X8147086Y-45379616D01*
X8190450Y-45437542D01*
X8190452Y-45437544D01*
X8190455Y-45437547D01*
X8305664Y-45523793D01*
X8305671Y-45523797D01*
X8440517Y-45574091D01*
X8440516Y-45574091D01*
X8447444Y-45574835D01*
X8500127Y-45580500D01*
X10295872Y-45580499D01*
X10355483Y-45574091D01*
X10490331Y-45523796D01*
X10605546Y-45437546D01*
X10691796Y-45322331D01*
X10742091Y-45187483D01*
X10748500Y-45127873D01*
X10748499Y-43332128D01*
X10742091Y-43272517D01*
X10740810Y-43269083D01*
X10691797Y-43137671D01*
X10691793Y-43137664D01*
X10605815Y-43022813D01*
X10605548Y-43022456D01*
X10605545Y-43022453D01*
X10605539Y-43022448D01*
X10589660Y-43010561D01*
X10547790Y-42954627D01*
X10542806Y-42884935D01*
X10576292Y-42823613D01*
X10637615Y-42790128D01*
X10666991Y-42787332D01*
X14617353Y-42883682D01*
X16024145Y-42917994D01*
X16024151Y-42917994D01*
X16028496Y-42917607D01*
X16097018Y-42931265D01*
X16147278Y-42979801D01*
X16163500Y-43041118D01*
X16163500Y-57825330D01*
X16163499Y-57825348D01*
X16163499Y-57948961D01*
X16157601Y-57969046D01*
X16204423Y-58143786D01*
X16224662Y-58178841D01*
X16224663Y-58178841D01*
X16233358Y-58193901D01*
X16233359Y-58193904D01*
X16233360Y-58193904D01*
X16245422Y-58214796D01*
X16245422Y-58214798D01*
X16283467Y-58280695D01*
X16283477Y-58280711D01*
X16283481Y-58280717D01*
X16283485Y-58280722D01*
X16404756Y-58401993D01*
X16404794Y-58402029D01*
X35699287Y-77696523D01*
X35699969Y-77697014D01*
X35702475Y-77698363D01*
X35836209Y-77775573D01*
X35836216Y-77775577D01*
X35988943Y-77816501D01*
X35988945Y-77816501D01*
X36154654Y-77816501D01*
X36156558Y-77816501D01*
X36156621Y-77816500D01*
X56769520Y-77816500D01*
X56804455Y-77821523D01*
X56816879Y-77825171D01*
X56875657Y-77862945D01*
X56904682Y-77926501D01*
X56896841Y-77990781D01*
X56893355Y-77999370D01*
X56878777Y-78025621D01*
X56844952Y-78072177D01*
X56748445Y-78261580D01*
X56682752Y-78463759D01*
X56649500Y-78673707D01*
X56649500Y-78886291D01*
X56682752Y-79096239D01*
X56748445Y-79298418D01*
X56841532Y-79481111D01*
X56844951Y-79487820D01*
X56969890Y-79659786D01*
X56969892Y-79659788D01*
X57120216Y-79810112D01*
X57292169Y-79935042D01*
X57292177Y-79935047D01*
X57292179Y-79935048D01*
X57292181Y-79935049D01*
X57292182Y-79935050D01*
X57292200Y-79935060D01*
X57292442Y-79935182D01*
X57481588Y-80031557D01*
X57683757Y-80097246D01*
X57893713Y-80130500D01*
X57893714Y-80130500D01*
X58106286Y-80130500D01*
X58106287Y-80130500D01*
X58316243Y-80097246D01*
X58518412Y-80031557D01*
X58707816Y-79935051D01*
X58729789Y-79919086D01*
X58879786Y-79810109D01*
X58879786Y-79810108D01*
X58879844Y-79810066D01*
X58880605Y-79809290D01*
X59030104Y-79659792D01*
X59030106Y-79659788D01*
X59030109Y-79659786D01*
X59155048Y-79487820D01*
X59155047Y-79487820D01*
X59155051Y-79487816D01*
X59155053Y-79487810D01*
X59175445Y-79459744D01*
X59183730Y-79431529D01*
X59251557Y-79298412D01*
X59317246Y-79096243D01*
X59350500Y-78886287D01*
X59350500Y-78673713D01*
X59317246Y-78463757D01*
X59251557Y-78261588D01*
X59155051Y-78072184D01*
X59155049Y-78072181D01*
X59155048Y-78072179D01*
X59154702Y-78071703D01*
X59154700Y-78071699D01*
X59030112Y-77900216D01*
X58879782Y-77749886D01*
X58707824Y-77624953D01*
X58707258Y-77624606D01*
X58705627Y-77623357D01*
X58703901Y-77622103D01*
X58703932Y-77622059D01*
X58686960Y-77609062D01*
X58676683Y-77599357D01*
X58641457Y-77539017D01*
X58644445Y-77469212D01*
X58680613Y-77415493D01*
X58687783Y-77409281D01*
X58704187Y-77397275D01*
X58707816Y-77395051D01*
X58729789Y-77379086D01*
X58879786Y-77270109D01*
X58879787Y-77270106D01*
X58879790Y-77270105D01*
X58879792Y-77270104D01*
X58879793Y-77270102D01*
X58879847Y-77270063D01*
X58880605Y-77269290D01*
X59030104Y-77119792D01*
X59030106Y-77119788D01*
X59030109Y-77119786D01*
X59155048Y-76947820D01*
X59155047Y-76947820D01*
X59155051Y-76947816D01*
X59155053Y-76947810D01*
X59175445Y-76919744D01*
X59183730Y-76891529D01*
X59251557Y-76758412D01*
X59317246Y-76556243D01*
X59350500Y-76346287D01*
X59350500Y-76133713D01*
X59317246Y-75923757D01*
X59251557Y-75721588D01*
X59155051Y-75532184D01*
X59155049Y-75532181D01*
X59155048Y-75532179D01*
X59154702Y-75531703D01*
X59154700Y-75531699D01*
X59030112Y-75360216D01*
X58879782Y-75209886D01*
X58707824Y-75084953D01*
X58707258Y-75084606D01*
X58705627Y-75083357D01*
X58703901Y-75082103D01*
X58703932Y-75082059D01*
X58686960Y-75069062D01*
X58676683Y-75059357D01*
X58641457Y-74999017D01*
X58644445Y-74929212D01*
X58680613Y-74875493D01*
X58687783Y-74869281D01*
X58704187Y-74857275D01*
X58707816Y-74855051D01*
X58707817Y-74855050D01*
X58729789Y-74839086D01*
X58879786Y-74730109D01*
X58879787Y-74730106D01*
X58879790Y-74730105D01*
X58879792Y-74730104D01*
X58879793Y-74730102D01*
X58879847Y-74730063D01*
X58880605Y-74729290D01*
X59030104Y-74579792D01*
X59030106Y-74579788D01*
X59030109Y-74579786D01*
X59155048Y-74407820D01*
X59155047Y-74407820D01*
X59155051Y-74407816D01*
X59155053Y-74407810D01*
X59175445Y-74379744D01*
X59183730Y-74351529D01*
X59251557Y-74218412D01*
X59317246Y-74016243D01*
X59350500Y-73806287D01*
X59350500Y-73593713D01*
X59317246Y-73383757D01*
X59251557Y-73181588D01*
X59200866Y-73082101D01*
X59189482Y-73048696D01*
X59186597Y-73033336D01*
X59193567Y-72963818D01*
X59194905Y-72960523D01*
X59228818Y-72913263D01*
X59232415Y-72910161D01*
X59251377Y-72896693D01*
X59296716Y-72870520D01*
X59408520Y-72758716D01*
X59408520Y-72758714D01*
X59418728Y-72748507D01*
X59418728Y-72748505D01*
X59419233Y-72748001D01*
X59422416Y-72744816D01*
X59428931Y-72738301D01*
X59428934Y-72738300D01*
X59428937Y-72738295D01*
X60170520Y-71996716D01*
X60249577Y-71859784D01*
X60251109Y-71854063D01*
X60260206Y-71839136D01*
X60265011Y-71821601D01*
X60268191Y-71816385D01*
X60281369Y-71804407D01*
X60287466Y-71794404D01*
X60298018Y-71789276D01*
X60319897Y-71769393D01*
X60349008Y-71764501D01*
X60350310Y-71763869D01*
X60351693Y-71763644D01*
X60356308Y-71762921D01*
X60357491Y-71763075D01*
X60388801Y-71757815D01*
X60420275Y-71771297D01*
X60425586Y-71771993D01*
X60429380Y-71775197D01*
X60453026Y-71785327D01*
X60468578Y-71808307D01*
X60478962Y-71817078D01*
X60482662Y-71829118D01*
X60492173Y-71843171D01*
X60493609Y-71847662D01*
X60499015Y-71882321D01*
X60499490Y-71883865D01*
X60499339Y-71884400D01*
X60499500Y-71885427D01*
X60499500Y-83743943D01*
X60494472Y-83778896D01*
X60492513Y-83785564D01*
X60454730Y-83844336D01*
X60391169Y-83873352D01*
X60322012Y-83863398D01*
X60270200Y-83819142D01*
X60266928Y-83814208D01*
X60252338Y-83783993D01*
X60251557Y-83781588D01*
X60242676Y-83764159D01*
X60156112Y-83594267D01*
X60155051Y-83592184D01*
X60155049Y-83592181D01*
X60155048Y-83592179D01*
X60154702Y-83591703D01*
X60154700Y-83591699D01*
X60030112Y-83420216D01*
X59879788Y-83269892D01*
X59879786Y-83269890D01*
X59707820Y-83144951D01*
X59694167Y-83137994D01*
X59540245Y-83059567D01*
X59540240Y-83059565D01*
X59518414Y-83048444D01*
X59518413Y-83048443D01*
X59518412Y-83048443D01*
X59421550Y-83016970D01*
X59325074Y-82985623D01*
X59320552Y-82983770D01*
X59311362Y-82981600D01*
X59306599Y-82981226D01*
X59154957Y-82957208D01*
X59135489Y-82954124D01*
X59106290Y-82949500D01*
X59106287Y-82949500D01*
X58893713Y-82949500D01*
X58893709Y-82949500D01*
X58854776Y-82955666D01*
X58845042Y-82957208D01*
X58807654Y-82963129D01*
X58683763Y-82982752D01*
X58481582Y-83048445D01*
X58292182Y-83144949D01*
X58120210Y-83269892D01*
X57969892Y-83420210D01*
X57844949Y-83592182D01*
X57748445Y-83781580D01*
X57682752Y-83983759D01*
X57649500Y-84193707D01*
X57649500Y-84406286D01*
X57682754Y-84616244D01*
X57682754Y-84616247D01*
X57734074Y-84774192D01*
X57748441Y-84818406D01*
X57748443Y-84818412D01*
X57830645Y-84979744D01*
X57844951Y-85007820D01*
X57969890Y-85179786D01*
X58120213Y-85330109D01*
X58292182Y-85455050D01*
X58292190Y-85455054D01*
X58292693Y-85455363D01*
X58294174Y-85456496D01*
X58296122Y-85457912D01*
X58296086Y-85457960D01*
X58313034Y-85470934D01*
X58323315Y-85480643D01*
X58358541Y-85540983D01*
X58355552Y-85610789D01*
X58319383Y-85664507D01*
X58312227Y-85670708D01*
X58295814Y-85682723D01*
X58292190Y-85684943D01*
X58120210Y-85809892D01*
X57969892Y-85960210D01*
X57844949Y-86132182D01*
X57748445Y-86321580D01*
X57682752Y-86523759D01*
X57649500Y-86733707D01*
X57649500Y-86946291D01*
X57681802Y-87150238D01*
X57681803Y-87150243D01*
X57682754Y-87156243D01*
X57718827Y-87267264D01*
X57742429Y-87339906D01*
X57746493Y-87352412D01*
X57748444Y-87358414D01*
X57844951Y-87547820D01*
X57969890Y-87719786D01*
X58120213Y-87870109D01*
X58292182Y-87995050D01*
X58292190Y-87995054D01*
X58292693Y-87995363D01*
X58294174Y-87996496D01*
X58296122Y-87997912D01*
X58296086Y-87997960D01*
X58313034Y-88010934D01*
X58323315Y-88020643D01*
X58358541Y-88080983D01*
X58355552Y-88150789D01*
X58319383Y-88204507D01*
X58312227Y-88210708D01*
X58295814Y-88222723D01*
X58292190Y-88224943D01*
X58120210Y-88349892D01*
X57969892Y-88500210D01*
X57844949Y-88672182D01*
X57748445Y-88861580D01*
X57682752Y-89063759D01*
X57649500Y-89273707D01*
X57649500Y-89486291D01*
X57665240Y-89585665D01*
X57675095Y-89647892D01*
X57675096Y-89647895D01*
X57682753Y-89696239D01*
X57734074Y-89854192D01*
X57748441Y-89898406D01*
X57748443Y-89898412D01*
X57830645Y-90059744D01*
X57844951Y-90087820D01*
X57969890Y-90259786D01*
X58120213Y-90410109D01*
X58292182Y-90535050D01*
X58292190Y-90535054D01*
X58292693Y-90535363D01*
X58294174Y-90536496D01*
X58296122Y-90537912D01*
X58296086Y-90537960D01*
X58313034Y-90550934D01*
X58323315Y-90560643D01*
X58358541Y-90620983D01*
X58355552Y-90690789D01*
X58319383Y-90744507D01*
X58312227Y-90750708D01*
X58295814Y-90762723D01*
X58292190Y-90764943D01*
X58120210Y-90889892D01*
X57969892Y-91040210D01*
X57844949Y-91212182D01*
X57748445Y-91401580D01*
X57682753Y-91603759D01*
X57666227Y-91708104D01*
X57656371Y-91770331D01*
X57649500Y-91813713D01*
X57649500Y-92026287D01*
X57649851Y-92028500D01*
X57682754Y-92236244D01*
X57682754Y-92236247D01*
X57734074Y-92394192D01*
X57748441Y-92438406D01*
X57748443Y-92438412D01*
X57830645Y-92599744D01*
X57844951Y-92627820D01*
X57969890Y-92799786D01*
X58120213Y-92950109D01*
X58292182Y-93075050D01*
X58292190Y-93075054D01*
X58292693Y-93075363D01*
X58294174Y-93076496D01*
X58296122Y-93077912D01*
X58296086Y-93077960D01*
X58313034Y-93090934D01*
X58323315Y-93100643D01*
X58358541Y-93160983D01*
X58355552Y-93230789D01*
X58319383Y-93284507D01*
X58312227Y-93290708D01*
X58295814Y-93302723D01*
X58292190Y-93304943D01*
X58120210Y-93429892D01*
X57969892Y-93580210D01*
X57844949Y-93752182D01*
X57748445Y-93941580D01*
X57682752Y-94143759D01*
X57649500Y-94353707D01*
X57649500Y-94566286D01*
X57682754Y-94776244D01*
X57682754Y-94776247D01*
X57734283Y-94934835D01*
X57747726Y-94976205D01*
X57748444Y-94978414D01*
X57844951Y-95167820D01*
X57969890Y-95339786D01*
X58070824Y-95440720D01*
X58091973Y-95468971D01*
X58098625Y-95481153D01*
X58113477Y-95549426D01*
X58089061Y-95614891D01*
X58089055Y-95614899D01*
X58086305Y-95618572D01*
X58030376Y-95660436D01*
X57907673Y-95706201D01*
X57907670Y-95706202D01*
X57907669Y-95706203D01*
X57907665Y-95706205D01*
X57907662Y-95706207D01*
X57792456Y-95792450D01*
X57792450Y-95792456D01*
X57706205Y-95907665D01*
X57706203Y-95907668D01*
X57655908Y-96042516D01*
X57649500Y-96102125D01*
X57649500Y-97897876D01*
X57649659Y-97899806D01*
X57649885Y-97901454D01*
X57655907Y-97957482D01*
X57683690Y-98031971D01*
X57706202Y-98092328D01*
X57706206Y-98092335D01*
X57723762Y-98115786D01*
X57792450Y-98207542D01*
X57792451Y-98207543D01*
X57792452Y-98207544D01*
X57792455Y-98207547D01*
X57907664Y-98293793D01*
X57907671Y-98293797D01*
X58042517Y-98344091D01*
X58042516Y-98344091D01*
X58049444Y-98344835D01*
X58102127Y-98350500D01*
X59897872Y-98350499D01*
X59957483Y-98344091D01*
X60092331Y-98293796D01*
X60207546Y-98207546D01*
X60207548Y-98207544D01*
X60220604Y-98190102D01*
X60265556Y-98130052D01*
X60290507Y-98105104D01*
X60299564Y-98098324D01*
X60365029Y-98073911D01*
X60433302Y-98088767D01*
X60482693Y-98138155D01*
X60484324Y-98141141D01*
X60499500Y-98200582D01*
X60499500Y-99357670D01*
X60494475Y-99392614D01*
X60490070Y-99407612D01*
X60480439Y-99422601D01*
X60475432Y-99439675D01*
X60452327Y-99466355D01*
X60450958Y-99467542D01*
X60396097Y-99495018D01*
X60388539Y-99496663D01*
X60362168Y-99499500D01*
X49420479Y-99499500D01*
X49385535Y-99494474D01*
X49375280Y-99491462D01*
X49365062Y-99484894D01*
X49353137Y-99482566D01*
X49336213Y-99466351D01*
X49316505Y-99453683D01*
X49311459Y-99442633D01*
X49302687Y-99434228D01*
X49297217Y-99411440D01*
X49287485Y-99390126D01*
X49289214Y-99378101D01*
X49286379Y-99366288D01*
X49294097Y-99344160D01*
X49297434Y-99320968D01*
X49305959Y-99310154D01*
X49309391Y-99300317D01*
X49333809Y-99274832D01*
X49336917Y-99272400D01*
X49357038Y-99259571D01*
X49475810Y-99199054D01*
X49475809Y-99199054D01*
X49475816Y-99199051D01*
X49562138Y-99136335D01*
X49647786Y-99074109D01*
X49647788Y-99074106D01*
X49647792Y-99074104D01*
X49647799Y-99074096D01*
X49647849Y-99074061D01*
X49648605Y-99073290D01*
X49798104Y-98923792D01*
X49798106Y-98923788D01*
X49798109Y-98923786D01*
X49839173Y-98867266D01*
X49920448Y-98755400D01*
X49921740Y-98753620D01*
X49923048Y-98751820D01*
X49923047Y-98751820D01*
X49923051Y-98751816D01*
X50019557Y-98562412D01*
X50085246Y-98360243D01*
X50118500Y-98150287D01*
X50118500Y-97937713D01*
X50085246Y-97727757D01*
X50019557Y-97525588D01*
X49923051Y-97336184D01*
X49923049Y-97336181D01*
X49923048Y-97336179D01*
X49922702Y-97335703D01*
X49922700Y-97335699D01*
X49798112Y-97164216D01*
X49647788Y-97013892D01*
X49647786Y-97013890D01*
X49475820Y-96888951D01*
X49372781Y-96836450D01*
X49308245Y-96803567D01*
X49308240Y-96803565D01*
X49286414Y-96792444D01*
X49286413Y-96792443D01*
X49286412Y-96792443D01*
X49156427Y-96750208D01*
X49093074Y-96729623D01*
X49088552Y-96727770D01*
X49079362Y-96725600D01*
X49074599Y-96725226D01*
X48922957Y-96701208D01*
X48903489Y-96698124D01*
X48874290Y-96693500D01*
X48874287Y-96693500D01*
X48661713Y-96693500D01*
X48661709Y-96693500D01*
X48622776Y-96699666D01*
X48613042Y-96701208D01*
X48575654Y-96707129D01*
X48451763Y-96726752D01*
X48249582Y-96792445D01*
X48060182Y-96888949D01*
X47888218Y-97013886D01*
X47787281Y-97114823D01*
X47787279Y-97114824D01*
X47787279Y-97114825D01*
X47759024Y-97135975D01*
X47746841Y-97142627D01*
X47678568Y-97157477D01*
X47613104Y-97133058D01*
X47613105Y-97133058D01*
X47611412Y-97131791D01*
X47609414Y-97130295D01*
X47567563Y-97074376D01*
X47562109Y-97059755D01*
X47521797Y-96951671D01*
X47521793Y-96951664D01*
X47435547Y-96836455D01*
X47435544Y-96836452D01*
X47435542Y-96836450D01*
X47366641Y-96784871D01*
X47320335Y-96750206D01*
X47320332Y-96750204D01*
X47320330Y-96750203D01*
X47320328Y-96750202D01*
X47185482Y-96699908D01*
X47185483Y-96699908D01*
X47125883Y-96693501D01*
X47125881Y-96693500D01*
X47125873Y-96693500D01*
X47125864Y-96693500D01*
X47124841Y-96693500D01*
X45330123Y-96693500D01*
X45328192Y-96693659D01*
X45326545Y-96693885D01*
X45270516Y-96699908D01*
X45135666Y-96750204D01*
X45135665Y-96750205D01*
X45020456Y-96836450D01*
X45020450Y-96836456D01*
X44934205Y-96951665D01*
X44934203Y-96951668D01*
X44883907Y-97086516D01*
X44877501Y-97146116D01*
X44877500Y-97146139D01*
X44877500Y-98941876D01*
X44877659Y-98943806D01*
X44877885Y-98945454D01*
X44883907Y-99001482D01*
X44899285Y-99042712D01*
X44934202Y-99136328D01*
X44934206Y-99136335D01*
X45020452Y-99251544D01*
X45020453Y-99251544D01*
X45022073Y-99253708D01*
X45029334Y-99258194D01*
X45039158Y-99265549D01*
X45039161Y-99265550D01*
X45064117Y-99290508D01*
X45070895Y-99299563D01*
X45095309Y-99365028D01*
X45080455Y-99433301D01*
X45031068Y-99482693D01*
X45028083Y-99484323D01*
X44968641Y-99499500D01*
X642330Y-99499500D01*
X607389Y-99494475D01*
X592390Y-99490070D01*
X577402Y-99480440D01*
X560324Y-99475432D01*
X533644Y-99452327D01*
X532457Y-99450958D01*
X504977Y-99396083D01*
X503332Y-99388521D01*
X500500Y-99362168D01*
X500500Y-98207931D01*
X505521Y-98173004D01*
X508707Y-98162151D01*
X518341Y-98147157D01*
X523361Y-98130053D01*
X536836Y-98118373D01*
X546477Y-98103370D01*
X562691Y-98095963D01*
X576159Y-98084291D01*
X593808Y-98081750D01*
X610031Y-98074341D01*
X627678Y-98076876D01*
X645316Y-98074338D01*
X679174Y-98084273D01*
X682280Y-98085692D01*
X730043Y-98124177D01*
X792454Y-98207546D01*
X838643Y-98242123D01*
X907664Y-98293793D01*
X907671Y-98293797D01*
X967074Y-98315952D01*
X976218Y-98321277D01*
X992752Y-98338747D01*
X1049444Y-98344835D01*
X1049443Y-98344839D01*
X1049458Y-98344836D01*
X1102127Y-98350500D01*
X2897872Y-98350499D01*
X2957483Y-98344091D01*
X3092331Y-98293796D01*
X3207546Y-98207546D01*
X3293796Y-98092331D01*
X3344091Y-97957483D01*
X3350500Y-97897873D01*
X3350499Y-96102128D01*
X3344091Y-96042517D01*
X3302521Y-95931063D01*
X3293797Y-95907671D01*
X3293793Y-95907664D01*
X3207547Y-95792455D01*
X3207544Y-95792452D01*
X3207542Y-95792450D01*
X3092332Y-95706204D01*
X3092330Y-95706203D01*
X3092328Y-95706202D01*
X2977621Y-95663419D01*
X2946642Y-95646502D01*
X2935531Y-95638184D01*
X2893661Y-95582250D01*
X2888678Y-95512561D01*
X2889654Y-95508072D01*
X2923136Y-95446758D01*
X3030104Y-95339792D01*
X3155051Y-95167816D01*
X3251557Y-94978412D01*
X3317246Y-94776243D01*
X3350500Y-94566287D01*
X3350500Y-94499982D01*
X24499500Y-94499982D01*
X24499500Y-94502950D01*
X24499500Y-98500024D01*
X24509999Y-98602794D01*
X24510000Y-98602796D01*
X24544163Y-98705892D01*
X24565186Y-98769335D01*
X24657288Y-98918656D01*
X24781344Y-99042712D01*
X24930665Y-99134814D01*
X25097202Y-99189999D01*
X25199990Y-99200500D01*
X25199995Y-99200500D01*
X29200005Y-99200500D01*
X29200010Y-99200500D01*
X29302798Y-99189999D01*
X29469335Y-99134814D01*
X29618656Y-99042712D01*
X29742712Y-98918656D01*
X29834814Y-98769335D01*
X29889999Y-98602798D01*
X29900500Y-98500010D01*
X29900500Y-96348329D01*
X33299500Y-96348329D01*
X33299500Y-96651669D01*
X33333455Y-96953033D01*
X33333458Y-96953056D01*
X33333464Y-96953081D01*
X33347343Y-97013889D01*
X33400953Y-97248771D01*
X33400954Y-97248774D01*
X33400957Y-97248786D01*
X33400964Y-97248807D01*
X33501130Y-97535061D01*
X33501136Y-97535075D01*
X33632732Y-97808336D01*
X33632936Y-97808694D01*
X33633622Y-97809753D01*
X33794108Y-98065164D01*
X33983221Y-98302304D01*
X34197696Y-98516779D01*
X34434836Y-98705892D01*
X34691659Y-98867265D01*
X34964935Y-98998868D01*
X35051031Y-99028994D01*
X35179934Y-99074100D01*
X35179941Y-99074101D01*
X35179948Y-99074104D01*
X35251216Y-99099042D01*
X35251228Y-99099046D01*
X35546937Y-99166540D01*
X35546946Y-99166541D01*
X35546951Y-99166542D01*
X35747874Y-99189180D01*
X35747873Y-99189180D01*
X35755134Y-99189998D01*
X35845341Y-99200161D01*
X35847806Y-99200500D01*
X36151660Y-99200500D01*
X36161455Y-99200500D01*
X36169055Y-99198539D01*
X36305694Y-99183144D01*
X36453048Y-99166542D01*
X36453051Y-99166541D01*
X36453063Y-99166540D01*
X36453075Y-99166537D01*
X36453077Y-99166537D01*
X36453734Y-99166390D01*
X36458188Y-99165408D01*
X36458919Y-99165203D01*
X36748772Y-99099046D01*
X37035065Y-98998868D01*
X37308341Y-98867265D01*
X37565164Y-98705892D01*
X37802304Y-98516779D01*
X38016779Y-98302304D01*
X38205892Y-98065164D01*
X38367265Y-97808341D01*
X38498868Y-97535065D01*
X38599046Y-97248772D01*
X38666540Y-96953063D01*
X38666544Y-96953033D01*
X38679679Y-96836455D01*
X38689396Y-96750208D01*
X38689396Y-96750206D01*
X38692038Y-96726754D01*
X38700500Y-96651657D01*
X38700500Y-96348343D01*
X38689180Y-96247874D01*
X38666542Y-96046951D01*
X38666541Y-96046946D01*
X38666540Y-96046937D01*
X38599046Y-95751228D01*
X38599041Y-95751212D01*
X38583291Y-95706203D01*
X38583290Y-95706202D01*
X38566140Y-95657189D01*
X38551339Y-95614891D01*
X38498868Y-95464935D01*
X38367265Y-95191659D01*
X38205892Y-94934836D01*
X38016779Y-94697696D01*
X37802304Y-94483221D01*
X37802301Y-94483219D01*
X37694441Y-94397203D01*
X37565164Y-94294108D01*
X37325887Y-94143760D01*
X37325887Y-94143759D01*
X37325885Y-94143759D01*
X37308348Y-94132739D01*
X37308345Y-94132737D01*
X37308338Y-94132733D01*
X37104494Y-94034567D01*
X37035075Y-94001136D01*
X37035061Y-94001130D01*
X36748807Y-93900964D01*
X36748791Y-93900959D01*
X36748765Y-93900951D01*
X36581208Y-93862707D01*
X36520556Y-93848864D01*
X36520555Y-93848863D01*
X36454246Y-93833730D01*
X36453211Y-93833483D01*
X36453038Y-93833455D01*
X36151669Y-93799500D01*
X36151663Y-93799500D01*
X36151657Y-93799500D01*
X35848343Y-93799500D01*
X35848336Y-93799500D01*
X35848329Y-93799500D01*
X35546965Y-93833455D01*
X35546942Y-93833458D01*
X35546917Y-93833464D01*
X35251224Y-93900954D01*
X35251212Y-93900957D01*
X35251191Y-93900964D01*
X34964937Y-94001130D01*
X34964923Y-94001136D01*
X34691663Y-94132731D01*
X34434838Y-94294106D01*
X34197696Y-94483219D01*
X33983219Y-94697696D01*
X33794107Y-94934837D01*
X33632731Y-95191663D01*
X33501136Y-95464923D01*
X33501130Y-95464937D01*
X33400964Y-95751191D01*
X33400957Y-95751212D01*
X33400954Y-95751224D01*
X33333464Y-96046917D01*
X33333458Y-96046942D01*
X33333455Y-96046965D01*
X33299500Y-96348329D01*
X29900500Y-96348329D01*
X29900500Y-94499990D01*
X29889999Y-94397202D01*
X29834814Y-94230665D01*
X29742712Y-94081344D01*
X29618656Y-93957288D01*
X29469335Y-93865186D01*
X29311266Y-93812807D01*
X29308440Y-93811639D01*
X29302797Y-93809999D01*
X29200026Y-93799500D01*
X29200017Y-93799500D01*
X29200010Y-93799500D01*
X25199990Y-93799500D01*
X25199982Y-93799500D01*
X25199974Y-93799500D01*
X25095496Y-93810174D01*
X25089913Y-93812416D01*
X25026417Y-93833457D01*
X25026415Y-93833457D01*
X24930684Y-93865178D01*
X24930666Y-93865185D01*
X24930664Y-93865186D01*
X24930662Y-93865187D01*
X24847458Y-93916508D01*
X24781340Y-93957290D01*
X24657289Y-94081341D01*
X24657286Y-94081345D01*
X24565188Y-94230658D01*
X24565187Y-94230662D01*
X24565186Y-94230665D01*
X24544163Y-94294108D01*
X24520300Y-94366122D01*
X24511852Y-94379068D01*
X24510365Y-94393629D01*
X24509542Y-94399880D01*
X24509387Y-94402912D01*
X24509396Y-94403103D01*
X24509355Y-94403513D01*
X24499500Y-94499982D01*
X3350500Y-94499982D01*
X3350500Y-94353713D01*
X3317246Y-94143757D01*
X3251557Y-93941588D01*
X3155051Y-93752184D01*
X3155049Y-93752181D01*
X3155048Y-93752179D01*
X3154702Y-93751703D01*
X3154700Y-93751699D01*
X3030112Y-93580216D01*
X2879782Y-93429886D01*
X2707824Y-93304953D01*
X2707258Y-93304606D01*
X2705627Y-93303357D01*
X2703901Y-93302103D01*
X2703932Y-93302059D01*
X2686960Y-93289062D01*
X2676683Y-93279357D01*
X2641457Y-93219017D01*
X2644445Y-93149212D01*
X2680613Y-93095493D01*
X2687783Y-93089281D01*
X2704187Y-93077275D01*
X2707816Y-93075051D01*
X2707817Y-93075050D01*
X2729789Y-93059086D01*
X2879786Y-92950109D01*
X2879787Y-92950106D01*
X2879790Y-92950105D01*
X2879792Y-92950104D01*
X2879793Y-92950102D01*
X2879847Y-92950063D01*
X2880605Y-92949290D01*
X3030104Y-92799792D01*
X3030106Y-92799788D01*
X3030109Y-92799786D01*
X3155048Y-92627820D01*
X3155047Y-92627820D01*
X3155051Y-92627816D01*
X3155053Y-92627810D01*
X3175445Y-92599744D01*
X3183730Y-92571529D01*
X3251557Y-92438412D01*
X3317246Y-92236243D01*
X3350500Y-92026287D01*
X3350500Y-91813713D01*
X3317246Y-91603757D01*
X3251557Y-91401588D01*
X3155051Y-91212184D01*
X3155049Y-91212181D01*
X3155048Y-91212179D01*
X3154702Y-91211703D01*
X3154700Y-91211699D01*
X3030112Y-91040216D01*
X2879782Y-90889886D01*
X2707824Y-90764953D01*
X2707258Y-90764606D01*
X2705627Y-90763357D01*
X2703901Y-90762103D01*
X2703932Y-90762059D01*
X2686960Y-90749062D01*
X2676683Y-90739357D01*
X2641457Y-90679017D01*
X2644445Y-90609212D01*
X2680613Y-90555493D01*
X2687783Y-90549281D01*
X2704187Y-90537275D01*
X2707816Y-90535051D01*
X2707817Y-90535050D01*
X2729789Y-90519086D01*
X2879786Y-90410109D01*
X2879787Y-90410106D01*
X2879790Y-90410105D01*
X2879792Y-90410104D01*
X2879793Y-90410102D01*
X2879847Y-90410063D01*
X2880605Y-90409290D01*
X3030104Y-90259792D01*
X3030106Y-90259788D01*
X3030109Y-90259786D01*
X3155048Y-90087820D01*
X3155047Y-90087820D01*
X3155051Y-90087816D01*
X3155053Y-90087810D01*
X3175445Y-90059744D01*
X3183730Y-90031529D01*
X3251557Y-89898412D01*
X3289986Y-89780139D01*
X43607500Y-89780139D01*
X43607500Y-91575876D01*
X43607659Y-91577806D01*
X43607885Y-91579454D01*
X43613907Y-91635482D01*
X43634819Y-91691548D01*
X43664202Y-91770328D01*
X43664205Y-91770334D01*
X43750450Y-91885542D01*
X43750452Y-91885544D01*
X43750455Y-91885547D01*
X43865664Y-91971793D01*
X43865671Y-91971797D01*
X44000517Y-92022091D01*
X44000516Y-92022091D01*
X44007444Y-92022835D01*
X44060127Y-92028500D01*
X45855872Y-92028499D01*
X45915483Y-92022091D01*
X46050331Y-91971796D01*
X46165546Y-91885546D01*
X46251796Y-91770331D01*
X46294580Y-91655618D01*
X46311490Y-91624649D01*
X46319811Y-91613533D01*
X46375741Y-91571663D01*
X46445424Y-91566675D01*
X46449909Y-91567650D01*
X46511234Y-91601130D01*
X46618216Y-91708112D01*
X46790169Y-91833042D01*
X46790200Y-91833060D01*
X46790442Y-91833182D01*
X46979588Y-91929557D01*
X47181757Y-91995246D01*
X47391713Y-92028500D01*
X47391714Y-92028500D01*
X47604286Y-92028500D01*
X47604287Y-92028500D01*
X47814243Y-91995246D01*
X48016412Y-91929557D01*
X48205816Y-91833051D01*
X48292138Y-91770335D01*
X48377786Y-91708109D01*
X48377788Y-91708106D01*
X48377792Y-91708104D01*
X48377799Y-91708096D01*
X48377849Y-91708061D01*
X48378605Y-91707290D01*
X48528104Y-91557792D01*
X48528106Y-91557788D01*
X48528109Y-91557786D01*
X48653048Y-91385820D01*
X48653047Y-91385820D01*
X48653051Y-91385816D01*
X48653053Y-91385811D01*
X48661066Y-91374782D01*
X48661071Y-91374778D01*
X48671229Y-91362531D01*
X48678647Y-91354678D01*
X48713566Y-91334294D01*
X48716394Y-91332114D01*
X48717458Y-91332022D01*
X48738985Y-91319457D01*
X48808791Y-91322447D01*
X48862503Y-91358612D01*
X48868707Y-91365771D01*
X48880729Y-91382193D01*
X48882949Y-91385817D01*
X48882951Y-91385820D01*
X49007890Y-91557786D01*
X49007892Y-91557788D01*
X49158216Y-91708112D01*
X49330169Y-91833042D01*
X49330200Y-91833060D01*
X49330442Y-91833182D01*
X49519588Y-91929557D01*
X49721757Y-91995246D01*
X49931713Y-92028500D01*
X49931714Y-92028500D01*
X50144286Y-92028500D01*
X50144287Y-92028500D01*
X50354243Y-91995246D01*
X50556412Y-91929557D01*
X50745816Y-91833051D01*
X50832138Y-91770335D01*
X50917786Y-91708109D01*
X50917788Y-91708106D01*
X50917792Y-91708104D01*
X50917799Y-91708096D01*
X50917849Y-91708061D01*
X50918605Y-91707290D01*
X51068104Y-91557792D01*
X51068106Y-91557788D01*
X51068109Y-91557786D01*
X51193048Y-91385820D01*
X51193047Y-91385820D01*
X51193051Y-91385816D01*
X51193053Y-91385810D01*
X51213445Y-91357744D01*
X51221730Y-91329529D01*
X51289557Y-91196412D01*
X51355246Y-90994243D01*
X51388500Y-90784287D01*
X51388500Y-90571713D01*
X51355246Y-90361757D01*
X51289557Y-90159588D01*
X51193051Y-89970184D01*
X51193049Y-89970181D01*
X51193048Y-89970179D01*
X51192702Y-89969703D01*
X51192700Y-89969699D01*
X51068112Y-89798216D01*
X50917788Y-89647892D01*
X50917786Y-89647890D01*
X50745820Y-89522951D01*
X50642781Y-89470450D01*
X50578245Y-89437567D01*
X50578240Y-89437565D01*
X50556414Y-89426444D01*
X50556413Y-89426443D01*
X50556412Y-89426443D01*
X50459550Y-89394970D01*
X50363074Y-89363623D01*
X50358552Y-89361770D01*
X50349362Y-89359600D01*
X50344599Y-89359226D01*
X50192957Y-89335208D01*
X50173489Y-89332124D01*
X50144290Y-89327500D01*
X50144287Y-89327500D01*
X49931713Y-89327500D01*
X49931709Y-89327500D01*
X49892776Y-89333666D01*
X49883042Y-89335208D01*
X49845654Y-89341129D01*
X49721763Y-89360752D01*
X49519582Y-89426445D01*
X49330182Y-89522949D01*
X49158210Y-89647892D01*
X49007892Y-89798210D01*
X48969403Y-89851187D01*
X48882952Y-89970179D01*
X48882945Y-89970188D01*
X48882634Y-89970696D01*
X48881499Y-89972177D01*
X48880085Y-89974125D01*
X48880036Y-89974089D01*
X48867060Y-89991041D01*
X48857353Y-90001319D01*
X48797011Y-90036542D01*
X48727205Y-90033550D01*
X48673488Y-89997378D01*
X48667285Y-89990219D01*
X48655274Y-89973811D01*
X48653053Y-89970187D01*
X48653051Y-89970184D01*
X48653050Y-89970182D01*
X48528109Y-89798213D01*
X48377786Y-89647890D01*
X48205820Y-89522951D01*
X48102781Y-89470450D01*
X48038245Y-89437567D01*
X48038240Y-89437565D01*
X48016414Y-89426444D01*
X48016413Y-89426443D01*
X48016412Y-89426443D01*
X47919550Y-89394970D01*
X47823074Y-89363623D01*
X47818552Y-89361770D01*
X47809362Y-89359600D01*
X47804599Y-89359226D01*
X47652957Y-89335208D01*
X47633489Y-89332124D01*
X47604290Y-89327500D01*
X47604287Y-89327500D01*
X47391713Y-89327500D01*
X47391709Y-89327500D01*
X47352776Y-89333666D01*
X47343042Y-89335208D01*
X47305654Y-89341129D01*
X47181763Y-89360752D01*
X46979582Y-89426445D01*
X46790182Y-89522949D01*
X46618218Y-89647886D01*
X46517281Y-89748823D01*
X46517279Y-89748824D01*
X46517279Y-89748825D01*
X46489024Y-89769975D01*
X46476841Y-89776627D01*
X46408568Y-89791477D01*
X46343104Y-89767058D01*
X46343105Y-89767058D01*
X46341412Y-89765791D01*
X46339414Y-89764295D01*
X46297563Y-89708376D01*
X46275005Y-89647895D01*
X46251797Y-89585671D01*
X46251793Y-89585664D01*
X46165547Y-89470455D01*
X46165544Y-89470452D01*
X46165542Y-89470450D01*
X46096641Y-89418871D01*
X46050335Y-89384206D01*
X46050332Y-89384204D01*
X46050330Y-89384203D01*
X46050328Y-89384202D01*
X45915482Y-89333908D01*
X45915483Y-89333908D01*
X45855883Y-89327501D01*
X45855881Y-89327500D01*
X45855873Y-89327500D01*
X45855864Y-89327500D01*
X45854841Y-89327500D01*
X44060123Y-89327500D01*
X44058192Y-89327659D01*
X44056545Y-89327885D01*
X44000516Y-89333908D01*
X43865666Y-89384204D01*
X43865665Y-89384205D01*
X43750456Y-89470450D01*
X43750450Y-89470456D01*
X43664205Y-89585665D01*
X43664203Y-89585668D01*
X43613907Y-89720516D01*
X43607501Y-89780116D01*
X43607500Y-89780139D01*
X3289986Y-89780139D01*
X3317246Y-89696243D01*
X3350500Y-89486287D01*
X3350500Y-89273713D01*
X3317246Y-89063757D01*
X3251557Y-88861588D01*
X3155051Y-88672184D01*
X3155049Y-88672181D01*
X3155048Y-88672179D01*
X3154702Y-88671703D01*
X3154700Y-88671699D01*
X3030112Y-88500216D01*
X2879782Y-88349886D01*
X2707824Y-88224953D01*
X2707258Y-88224606D01*
X2705627Y-88223357D01*
X2703901Y-88222103D01*
X2703932Y-88222059D01*
X2686960Y-88209062D01*
X2676683Y-88199357D01*
X2641457Y-88139017D01*
X2644445Y-88069212D01*
X2680613Y-88015493D01*
X2687783Y-88009281D01*
X2704187Y-87997275D01*
X2707816Y-87995051D01*
X2715830Y-87989228D01*
X2729789Y-87979086D01*
X2879786Y-87870109D01*
X2879787Y-87870106D01*
X2879790Y-87870105D01*
X2879792Y-87870104D01*
X2879793Y-87870102D01*
X2879847Y-87870063D01*
X2880605Y-87869290D01*
X3030104Y-87719792D01*
X3030106Y-87719788D01*
X3030109Y-87719786D01*
X3155048Y-87547820D01*
X3155047Y-87547820D01*
X3155051Y-87547816D01*
X3155053Y-87547810D01*
X3175445Y-87519744D01*
X3183730Y-87491529D01*
X3251557Y-87358412D01*
X3317246Y-87156243D01*
X3350500Y-86946287D01*
X3350500Y-86733713D01*
X3349550Y-86727713D01*
X5253500Y-86727713D01*
X5253500Y-86732386D01*
X5253500Y-86940286D01*
X5286753Y-87150238D01*
X5286753Y-87150243D01*
X5343796Y-87325800D01*
X5348380Y-87339908D01*
X5352444Y-87352414D01*
X5448951Y-87541820D01*
X5573890Y-87713786D01*
X5573892Y-87713788D01*
X5724216Y-87864112D01*
X5896169Y-87989042D01*
X5896200Y-87989060D01*
X5896442Y-87989182D01*
X6085588Y-88085557D01*
X6287757Y-88151246D01*
X6497713Y-88184500D01*
X6497714Y-88184500D01*
X6710286Y-88184500D01*
X6710287Y-88184500D01*
X6920243Y-88151246D01*
X7122412Y-88085557D01*
X7311816Y-87989051D01*
X7483792Y-87864104D01*
X7584725Y-87763169D01*
X7612973Y-87742023D01*
X7625156Y-87735371D01*
X7693427Y-87720521D01*
X7758891Y-87744939D01*
X7758898Y-87744943D01*
X7762571Y-87747693D01*
X7804435Y-87803621D01*
X7850202Y-87926328D01*
X7850205Y-87926334D01*
X7936450Y-88041542D01*
X7936452Y-88041544D01*
X7936455Y-88041547D01*
X8051664Y-88127793D01*
X8051671Y-88127797D01*
X8186517Y-88178091D01*
X8186516Y-88178091D01*
X8193444Y-88178835D01*
X8246127Y-88184500D01*
X10041872Y-88184499D01*
X10101483Y-88178091D01*
X10236331Y-88127796D01*
X10351546Y-88041546D01*
X10437796Y-87926331D01*
X10488091Y-87791483D01*
X10494500Y-87731873D01*
X10494499Y-85936139D01*
X47793500Y-85936139D01*
X47793500Y-87731876D01*
X47793659Y-87733806D01*
X47793885Y-87735454D01*
X47799907Y-87791482D01*
X47826670Y-87863235D01*
X47850202Y-87926328D01*
X47850205Y-87926334D01*
X47936450Y-88041542D01*
X47936452Y-88041544D01*
X47936455Y-88041547D01*
X48051664Y-88127793D01*
X48051671Y-88127797D01*
X48186517Y-88178091D01*
X48186516Y-88178091D01*
X48193444Y-88178835D01*
X48246127Y-88184500D01*
X50041872Y-88184499D01*
X50101483Y-88178091D01*
X50236331Y-88127796D01*
X50351546Y-88041546D01*
X50437796Y-87926331D01*
X50480580Y-87811618D01*
X50497490Y-87780649D01*
X50505811Y-87769533D01*
X50561741Y-87727663D01*
X50631424Y-87722675D01*
X50635909Y-87723650D01*
X50697234Y-87757130D01*
X50804216Y-87864112D01*
X50976169Y-87989042D01*
X50976200Y-87989060D01*
X50976442Y-87989182D01*
X51165588Y-88085557D01*
X51367757Y-88151246D01*
X51577713Y-88184500D01*
X51577714Y-88184500D01*
X51790286Y-88184500D01*
X51790287Y-88184500D01*
X52000243Y-88151246D01*
X52202412Y-88085557D01*
X52391816Y-87989051D01*
X52478138Y-87926335D01*
X52563786Y-87864109D01*
X52563788Y-87864106D01*
X52563792Y-87864104D01*
X52563799Y-87864096D01*
X52563849Y-87864061D01*
X52564605Y-87863290D01*
X52714104Y-87713792D01*
X52714106Y-87713788D01*
X52714109Y-87713786D01*
X52839048Y-87541820D01*
X52839047Y-87541820D01*
X52839051Y-87541816D01*
X52839053Y-87541810D01*
X52859445Y-87513744D01*
X52867730Y-87485529D01*
X52935557Y-87352412D01*
X53001246Y-87150243D01*
X53034500Y-86940287D01*
X53034500Y-86727713D01*
X53001246Y-86517757D01*
X52935557Y-86315588D01*
X52839051Y-86126184D01*
X52839049Y-86126181D01*
X52839048Y-86126179D01*
X52838702Y-86125703D01*
X52838700Y-86125699D01*
X52714112Y-85954216D01*
X52563788Y-85803892D01*
X52563786Y-85803890D01*
X52391820Y-85678951D01*
X52318214Y-85641447D01*
X52224245Y-85593567D01*
X52224240Y-85593565D01*
X52202414Y-85582444D01*
X52202413Y-85582443D01*
X52202412Y-85582443D01*
X52074812Y-85540983D01*
X52009074Y-85519623D01*
X52004552Y-85517770D01*
X51995362Y-85515600D01*
X51990599Y-85515226D01*
X51838957Y-85491208D01*
X51819489Y-85488124D01*
X51790290Y-85483500D01*
X51790287Y-85483500D01*
X51577713Y-85483500D01*
X51577709Y-85483500D01*
X51538776Y-85489666D01*
X51529042Y-85491208D01*
X51491654Y-85497129D01*
X51367763Y-85516752D01*
X51165582Y-85582445D01*
X50976182Y-85678949D01*
X50976179Y-85678950D01*
X50976179Y-85678951D01*
X50967921Y-85684951D01*
X50804218Y-85803886D01*
X50703281Y-85904823D01*
X50703279Y-85904824D01*
X50703279Y-85904825D01*
X50675024Y-85925975D01*
X50662841Y-85932627D01*
X50594568Y-85947477D01*
X50529104Y-85923058D01*
X50529105Y-85923058D01*
X50527412Y-85921791D01*
X50525414Y-85920295D01*
X50483563Y-85864376D01*
X50478109Y-85849755D01*
X50437797Y-85741671D01*
X50437793Y-85741664D01*
X50351547Y-85626455D01*
X50351544Y-85626452D01*
X50351542Y-85626450D01*
X50269044Y-85564692D01*
X50236335Y-85540206D01*
X50236332Y-85540204D01*
X50236330Y-85540203D01*
X50236328Y-85540202D01*
X50101482Y-85489908D01*
X50101483Y-85489908D01*
X50041883Y-85483501D01*
X50041881Y-85483500D01*
X50041873Y-85483500D01*
X50041864Y-85483500D01*
X50040841Y-85483500D01*
X48246123Y-85483500D01*
X48244192Y-85483659D01*
X48242545Y-85483885D01*
X48186516Y-85489908D01*
X48051666Y-85540204D01*
X48051665Y-85540205D01*
X47936456Y-85626450D01*
X47936450Y-85626456D01*
X47850205Y-85741665D01*
X47850203Y-85741668D01*
X47799907Y-85876516D01*
X47793501Y-85936116D01*
X47793500Y-85936139D01*
X10494499Y-85936139D01*
X10494499Y-85936128D01*
X10488091Y-85876517D01*
X10486810Y-85873083D01*
X10437797Y-85741671D01*
X10437793Y-85741664D01*
X10351547Y-85626455D01*
X10351544Y-85626452D01*
X10351542Y-85626450D01*
X10269044Y-85564692D01*
X10236335Y-85540206D01*
X10236332Y-85540204D01*
X10236330Y-85540203D01*
X10236328Y-85540202D01*
X10101482Y-85489908D01*
X10101483Y-85489908D01*
X10041883Y-85483501D01*
X10041881Y-85483500D01*
X10041873Y-85483500D01*
X10041864Y-85483500D01*
X10040841Y-85483500D01*
X8246123Y-85483500D01*
X8244192Y-85483659D01*
X8242545Y-85483885D01*
X8186516Y-85489908D01*
X8051666Y-85540204D01*
X8051665Y-85540205D01*
X7936456Y-85626450D01*
X7936450Y-85626456D01*
X7850208Y-85741661D01*
X7850200Y-85741673D01*
X7807419Y-85856377D01*
X7807418Y-85856378D01*
X7807418Y-85856379D01*
X7790503Y-85887355D01*
X7782186Y-85898465D01*
X7726252Y-85940336D01*
X7656568Y-85945321D01*
X7656562Y-85945319D01*
X7656561Y-85945320D01*
X7656559Y-85945319D01*
X7652085Y-85944346D01*
X7590760Y-85910864D01*
X7483788Y-85803892D01*
X7483786Y-85803890D01*
X7311820Y-85678951D01*
X7238214Y-85641447D01*
X7144245Y-85593567D01*
X7144240Y-85593565D01*
X7122414Y-85582444D01*
X7122413Y-85582443D01*
X7122412Y-85582443D01*
X6994812Y-85540983D01*
X6929074Y-85519623D01*
X6924552Y-85517770D01*
X6915362Y-85515600D01*
X6910599Y-85515226D01*
X6758957Y-85491208D01*
X6739489Y-85488124D01*
X6710290Y-85483500D01*
X6710287Y-85483500D01*
X6497713Y-85483500D01*
X6497709Y-85483500D01*
X6458776Y-85489666D01*
X6449042Y-85491208D01*
X6411654Y-85497129D01*
X6287763Y-85516752D01*
X6085582Y-85582445D01*
X5896182Y-85678949D01*
X5896179Y-85678950D01*
X5896179Y-85678951D01*
X5887921Y-85684951D01*
X5724210Y-85803892D01*
X5573892Y-85954210D01*
X5448949Y-86126182D01*
X5352445Y-86315582D01*
X5352444Y-86315584D01*
X5352444Y-86315585D01*
X5350493Y-86321589D01*
X5286754Y-86517755D01*
X5286754Y-86517757D01*
X5286753Y-86517760D01*
X5285803Y-86523760D01*
X5253500Y-86727713D01*
X3349550Y-86727713D01*
X3317246Y-86523757D01*
X3251557Y-86321588D01*
X3155051Y-86132184D01*
X3155049Y-86132181D01*
X3155048Y-86132179D01*
X3154702Y-86131703D01*
X3154700Y-86131699D01*
X3030112Y-85960216D01*
X2879782Y-85809886D01*
X2707824Y-85684953D01*
X2707258Y-85684606D01*
X2705627Y-85683357D01*
X2703901Y-85682103D01*
X2703932Y-85682059D01*
X2686960Y-85669062D01*
X2676683Y-85659357D01*
X2641457Y-85599017D01*
X2644445Y-85529212D01*
X2680613Y-85475493D01*
X2687783Y-85469281D01*
X2704187Y-85457275D01*
X2707816Y-85455051D01*
X2707817Y-85455050D01*
X2729789Y-85439086D01*
X2879786Y-85330109D01*
X2879787Y-85330106D01*
X2879790Y-85330105D01*
X2879792Y-85330104D01*
X2879793Y-85330102D01*
X2879847Y-85330063D01*
X2880605Y-85329290D01*
X3030104Y-85179792D01*
X3030106Y-85179788D01*
X3030109Y-85179786D01*
X3155048Y-85007820D01*
X3155047Y-85007820D01*
X3155051Y-85007816D01*
X3155053Y-85007810D01*
X3175445Y-84979744D01*
X3183730Y-84951529D01*
X3251557Y-84818412D01*
X3317246Y-84616243D01*
X3350500Y-84406287D01*
X3350500Y-84193713D01*
X3317246Y-83983757D01*
X3251557Y-83781588D01*
X3155051Y-83592184D01*
X3155049Y-83592181D01*
X3155048Y-83592179D01*
X3154702Y-83591703D01*
X3154700Y-83591699D01*
X3030112Y-83420216D01*
X2879788Y-83269892D01*
X2879786Y-83269890D01*
X2707820Y-83144951D01*
X2694167Y-83137994D01*
X2540245Y-83059567D01*
X2540240Y-83059565D01*
X2518414Y-83048444D01*
X2518413Y-83048443D01*
X2518412Y-83048443D01*
X2421550Y-83016970D01*
X2325074Y-82985623D01*
X2320552Y-82983770D01*
X2311362Y-82981600D01*
X2306599Y-82981226D01*
X2154957Y-82957208D01*
X2135489Y-82954124D01*
X2106290Y-82949500D01*
X2106287Y-82949500D01*
X1893713Y-82949500D01*
X1893709Y-82949500D01*
X1854776Y-82955666D01*
X1845042Y-82957208D01*
X1807654Y-82963129D01*
X1683763Y-82982752D01*
X1481582Y-83048445D01*
X1292182Y-83144949D01*
X1120210Y-83269892D01*
X969892Y-83420210D01*
X844949Y-83592182D01*
X748449Y-83781574D01*
X748442Y-83781589D01*
X744150Y-83792319D01*
X741563Y-83795610D01*
X740895Y-83799741D01*
X731381Y-83816250D01*
X728447Y-83820541D01*
X710308Y-83835373D01*
X700972Y-83847251D01*
X691968Y-83850369D01*
X674358Y-83864770D01*
X638519Y-83868882D01*
X634951Y-83870119D01*
X631550Y-83869682D01*
X604944Y-83872736D01*
X542243Y-83841909D01*
X532986Y-83826804D01*
X529378Y-83824395D01*
X524134Y-83812360D01*
X506623Y-83783784D01*
X505036Y-83778079D01*
X503136Y-83764159D01*
X501472Y-83760340D01*
X502091Y-83756508D01*
X500500Y-83744847D01*
X500500Y-68727707D01*
X5253500Y-68727707D01*
X5253500Y-68940291D01*
X5286752Y-69150239D01*
X5352445Y-69352418D01*
X5420267Y-69485524D01*
X5448951Y-69541820D01*
X5573890Y-69713786D01*
X5573892Y-69713788D01*
X5724216Y-69864112D01*
X5896169Y-69989042D01*
X5896200Y-69989060D01*
X5896442Y-69989182D01*
X6085588Y-70085557D01*
X6287757Y-70151246D01*
X6497713Y-70184500D01*
X6497714Y-70184500D01*
X6710286Y-70184500D01*
X6710287Y-70184500D01*
X6920243Y-70151246D01*
X7122412Y-70085557D01*
X7311816Y-69989051D01*
X7483792Y-69864104D01*
X7584725Y-69763169D01*
X7612973Y-69742023D01*
X7625156Y-69735371D01*
X7693427Y-69720521D01*
X7758891Y-69744939D01*
X7758898Y-69744943D01*
X7762571Y-69747693D01*
X7804435Y-69803621D01*
X7821440Y-69849212D01*
X7850202Y-69926328D01*
X7850205Y-69926334D01*
X7936450Y-70041542D01*
X7936452Y-70041544D01*
X7936455Y-70041547D01*
X8051664Y-70127793D01*
X8051671Y-70127797D01*
X8186517Y-70178091D01*
X8186516Y-70178091D01*
X8193444Y-70178835D01*
X8246127Y-70184500D01*
X10041872Y-70184499D01*
X10101483Y-70178091D01*
X10236331Y-70127796D01*
X10351546Y-70041546D01*
X10437796Y-69926331D01*
X10488091Y-69791483D01*
X10494500Y-69731873D01*
X10494499Y-67936128D01*
X10488091Y-67876517D01*
X10486810Y-67873083D01*
X10437797Y-67741671D01*
X10437793Y-67741664D01*
X10351547Y-67626455D01*
X10351544Y-67626452D01*
X10351542Y-67626450D01*
X10276555Y-67570315D01*
X10236335Y-67540206D01*
X10236332Y-67540204D01*
X10236330Y-67540203D01*
X10236328Y-67540202D01*
X10101482Y-67489908D01*
X10101483Y-67489908D01*
X10041883Y-67483501D01*
X10041881Y-67483500D01*
X10041873Y-67483500D01*
X10041864Y-67483500D01*
X10040841Y-67483500D01*
X8246123Y-67483500D01*
X8244192Y-67483659D01*
X8242545Y-67483885D01*
X8186516Y-67489908D01*
X8056999Y-67538215D01*
X8051666Y-67540204D01*
X8051665Y-67540205D01*
X7936456Y-67626450D01*
X7936450Y-67626456D01*
X7850208Y-67741661D01*
X7850200Y-67741673D01*
X7807419Y-67856377D01*
X7807418Y-67856378D01*
X7807418Y-67856379D01*
X7790503Y-67887355D01*
X7782186Y-67898465D01*
X7726252Y-67940336D01*
X7656568Y-67945321D01*
X7656562Y-67945319D01*
X7656561Y-67945320D01*
X7656559Y-67945319D01*
X7652085Y-67944346D01*
X7590760Y-67910864D01*
X7483788Y-67803892D01*
X7483786Y-67803890D01*
X7311820Y-67678951D01*
X7250628Y-67647772D01*
X7144245Y-67593567D01*
X7144240Y-67593565D01*
X7122414Y-67582444D01*
X7122413Y-67582443D01*
X7122412Y-67582443D01*
X7025550Y-67550970D01*
X6929074Y-67519623D01*
X6924552Y-67517770D01*
X6915362Y-67515600D01*
X6910599Y-67515226D01*
X6885401Y-67511235D01*
X6758957Y-67491208D01*
X6739489Y-67488124D01*
X6710290Y-67483500D01*
X6710287Y-67483500D01*
X6497713Y-67483500D01*
X6497709Y-67483500D01*
X6458776Y-67489666D01*
X6449042Y-67491208D01*
X6411654Y-67497129D01*
X6287763Y-67516752D01*
X6085582Y-67582445D01*
X5896182Y-67678949D01*
X5724210Y-67803892D01*
X5573892Y-67954210D01*
X5448949Y-68126182D01*
X5352445Y-68315580D01*
X5286752Y-68517759D01*
X5253500Y-68727707D01*
X500500Y-68727707D01*
X500500Y-62123713D01*
X5507500Y-62123713D01*
X5507500Y-62336287D01*
X5515232Y-62385107D01*
X5540754Y-62546244D01*
X5540754Y-62546247D01*
X5577784Y-62660212D01*
X5606443Y-62748414D01*
X5699407Y-62930864D01*
X5702951Y-62937820D01*
X5827890Y-63109786D01*
X5827892Y-63109788D01*
X5978216Y-63260112D01*
X6150169Y-63385042D01*
X6150200Y-63385060D01*
X6150442Y-63385182D01*
X6339588Y-63481557D01*
X6541757Y-63547246D01*
X6751713Y-63580500D01*
X6751714Y-63580500D01*
X6964286Y-63580500D01*
X6964287Y-63580500D01*
X7174243Y-63547246D01*
X7376412Y-63481557D01*
X7565816Y-63385051D01*
X7737792Y-63260104D01*
X7838725Y-63159169D01*
X7866973Y-63138023D01*
X7879156Y-63131371D01*
X7947427Y-63116521D01*
X8012891Y-63140939D01*
X8012898Y-63140943D01*
X8016571Y-63143693D01*
X8058435Y-63199621D01*
X8077817Y-63251586D01*
X8104202Y-63322328D01*
X8104205Y-63322334D01*
X8190450Y-63437542D01*
X8190452Y-63437544D01*
X8190455Y-63437547D01*
X8305664Y-63523793D01*
X8305671Y-63523797D01*
X8440517Y-63574091D01*
X8440516Y-63574091D01*
X8447444Y-63574835D01*
X8500127Y-63580500D01*
X10295872Y-63580499D01*
X10355483Y-63574091D01*
X10490331Y-63523796D01*
X10605546Y-63437546D01*
X10691796Y-63322331D01*
X10742091Y-63187483D01*
X10748500Y-63127873D01*
X10748499Y-61332128D01*
X10742091Y-61272517D01*
X10740810Y-61269083D01*
X10691797Y-61137671D01*
X10691793Y-61137664D01*
X10605547Y-61022455D01*
X10605544Y-61022452D01*
X10605542Y-61022450D01*
X10536641Y-60970871D01*
X10490335Y-60936206D01*
X10490332Y-60936204D01*
X10490330Y-60936203D01*
X10490328Y-60936202D01*
X10355482Y-60885908D01*
X10355483Y-60885908D01*
X10295883Y-60879501D01*
X10295881Y-60879500D01*
X10295873Y-60879500D01*
X10295864Y-60879500D01*
X10294841Y-60879500D01*
X8500123Y-60879500D01*
X8498192Y-60879659D01*
X8496545Y-60879885D01*
X8440516Y-60885908D01*
X8405769Y-60898868D01*
X8305666Y-60936204D01*
X8305665Y-60936205D01*
X8190456Y-61022450D01*
X8190450Y-61022456D01*
X8104208Y-61137661D01*
X8104200Y-61137673D01*
X8061419Y-61252377D01*
X8061418Y-61252378D01*
X8061418Y-61252379D01*
X8044503Y-61283355D01*
X8036186Y-61294465D01*
X7980252Y-61336336D01*
X7910568Y-61341321D01*
X7910562Y-61341319D01*
X7910561Y-61341320D01*
X7910559Y-61341319D01*
X7906085Y-61340346D01*
X7844760Y-61306864D01*
X7737788Y-61199892D01*
X7737786Y-61199890D01*
X7565820Y-61074951D01*
X7462781Y-61022450D01*
X7398245Y-60989567D01*
X7398240Y-60989565D01*
X7376414Y-60978444D01*
X7376413Y-60978443D01*
X7376412Y-60978443D01*
X7279550Y-60946970D01*
X7183074Y-60915623D01*
X7178552Y-60913770D01*
X7169362Y-60911600D01*
X7164599Y-60911226D01*
X7012957Y-60887208D01*
X6992808Y-60884017D01*
X6964290Y-60879500D01*
X6964287Y-60879500D01*
X6751713Y-60879500D01*
X6751709Y-60879500D01*
X6712776Y-60885666D01*
X6703042Y-60887208D01*
X6665654Y-60893129D01*
X6541763Y-60912752D01*
X6339582Y-60978445D01*
X6150182Y-61074949D01*
X5978210Y-61199892D01*
X5827892Y-61350210D01*
X5702949Y-61522182D01*
X5606445Y-61711580D01*
X5540752Y-61913759D01*
X5540752Y-61913760D01*
X5533874Y-61957188D01*
X5533847Y-61957356D01*
X5533828Y-61957483D01*
X5507500Y-62123713D01*
X500500Y-62123713D01*
X500500Y-27096055D01*
X504326Y-27083022D01*
X505520Y-27061130D01*
X505564Y-27060977D01*
X507478Y-27054461D01*
X517119Y-27039456D01*
X520185Y-27029016D01*
X528403Y-27021894D01*
X545246Y-26995682D01*
X608800Y-26966652D01*
X677959Y-26976589D01*
X708866Y-27002982D01*
X720646Y-27010002D01*
X723281Y-27015292D01*
X729798Y-27020857D01*
X733072Y-27025794D01*
X747661Y-27056003D01*
X748445Y-27058417D01*
X760982Y-27083022D01*
X844951Y-27247820D01*
X969890Y-27419786D01*
X969892Y-27419788D01*
X1120216Y-27570112D01*
X1292169Y-27695042D01*
X1292177Y-27695047D01*
X1292179Y-27695048D01*
X1292181Y-27695049D01*
X1292182Y-27695050D01*
X1292200Y-27695060D01*
X1292442Y-27695182D01*
X1481588Y-27791557D01*
X1683757Y-27857246D01*
X1893713Y-27890500D01*
X1893714Y-27890500D01*
X2106286Y-27890500D01*
X2106287Y-27890500D01*
X2316243Y-27857246D01*
X2518412Y-27791557D01*
X2707816Y-27695051D01*
X2729789Y-27679086D01*
X2879786Y-27570109D01*
X2879786Y-27570108D01*
X2879844Y-27570066D01*
X2880605Y-27569290D01*
X3030104Y-27419792D01*
X3030106Y-27419788D01*
X3030109Y-27419786D01*
X3155048Y-27247820D01*
X3155047Y-27247820D01*
X3155051Y-27247816D01*
X3155053Y-27247810D01*
X3175445Y-27219744D01*
X3183730Y-27191529D01*
X3251557Y-27058412D01*
X3317246Y-26856243D01*
X3350500Y-26646287D01*
X3350500Y-26433713D01*
X3317246Y-26223757D01*
X3251557Y-26021588D01*
X3155051Y-25832184D01*
X3155049Y-25832181D01*
X3155048Y-25832179D01*
X3154702Y-25831703D01*
X3154700Y-25831699D01*
X3030112Y-25660216D01*
X2928790Y-25558894D01*
X2928785Y-25558889D01*
X2907639Y-25530642D01*
X2900984Y-25518454D01*
X2886133Y-25450184D01*
X2910547Y-25384723D01*
X2913315Y-25381025D01*
X2969233Y-25339175D01*
X3092086Y-25293354D01*
X3092093Y-25293350D01*
X3207187Y-25207190D01*
X3207190Y-25207187D01*
X3293350Y-25092093D01*
X3293354Y-25092086D01*
X3343596Y-24957379D01*
X3343598Y-24957372D01*
X3349611Y-24901454D01*
X3349998Y-24897860D01*
X3350000Y-24897827D01*
X3350000Y-24250000D01*
X2612250Y-24250000D01*
X2545211Y-24230315D01*
X2499456Y-24177511D01*
X2489512Y-24108353D01*
X2492476Y-24093905D01*
X2499999Y-24065828D01*
X2500000Y-24065825D01*
X2500000Y-23934175D01*
X2499999Y-23934171D01*
X2492476Y-23906095D01*
X2494137Y-23836245D01*
X2533299Y-23778382D01*
X2597527Y-23750877D01*
X2612250Y-23750000D01*
X3350000Y-23750000D01*
X3350000Y-23102172D01*
X3349998Y-23102138D01*
X3343598Y-23042628D01*
X3343596Y-23042621D01*
X3343596Y-23042620D01*
X3293354Y-22907913D01*
X3293350Y-22907906D01*
X3207190Y-22792812D01*
X3207187Y-22792809D01*
X3207185Y-22792807D01*
X3149317Y-22749487D01*
X3092093Y-22706649D01*
X3092088Y-22706646D01*
X3092089Y-22706646D01*
X2957377Y-22656402D01*
X2957370Y-22656400D01*
X2897852Y-22650000D01*
X2897844Y-22650000D01*
X2250000Y-22650000D01*
X2250000Y-23387749D01*
X2230315Y-23454788D01*
X2177511Y-23500543D01*
X2108353Y-23510487D01*
X2093908Y-23507524D01*
X2065828Y-23500000D01*
X2065826Y-23500000D01*
X1934174Y-23500000D01*
X1934171Y-23500000D01*
X1906092Y-23507524D01*
X1836242Y-23505861D01*
X1778380Y-23466698D01*
X1750877Y-23402469D01*
X1750000Y-23387749D01*
X1750000Y-22650000D01*
X1102155Y-22650000D01*
X1102146Y-22650000D01*
X1042628Y-22656400D01*
X1042621Y-22656402D01*
X907910Y-22706646D01*
X907907Y-22706648D01*
X792809Y-22792810D01*
X734452Y-22870766D01*
X734449Y-22870768D01*
X734448Y-22870772D01*
X709490Y-22895727D01*
X700433Y-22902506D01*
X634966Y-22926919D01*
X566695Y-22912062D01*
X517293Y-22862653D01*
X517291Y-22862650D01*
X515662Y-22859666D01*
X500500Y-22800250D01*
X500500Y-16256055D01*
X505520Y-16221130D01*
X506316Y-16218418D01*
X507478Y-16214461D01*
X516645Y-16200194D01*
X521189Y-16183854D01*
X535140Y-16171409D01*
X545246Y-16155682D01*
X560671Y-16148635D01*
X573330Y-16137345D01*
X591797Y-16134418D01*
X608800Y-16126652D01*
X625586Y-16129063D01*
X642339Y-16126409D01*
X659454Y-16133930D01*
X677959Y-16136589D01*
X691161Y-16147863D01*
X706305Y-16154518D01*
X729798Y-16180857D01*
X733072Y-16185794D01*
X747661Y-16216003D01*
X748445Y-16218417D01*
X767623Y-16256055D01*
X844951Y-16407820D01*
X969890Y-16579786D01*
X969892Y-16579788D01*
X1120216Y-16730112D01*
X1292169Y-16855042D01*
X1292200Y-16855060D01*
X1292442Y-16855182D01*
X1481588Y-16951557D01*
X1683757Y-17017246D01*
X1893713Y-17050500D01*
X1893714Y-17050500D01*
X2106286Y-17050500D01*
X2106287Y-17050500D01*
X2316243Y-17017246D01*
X2518412Y-16951557D01*
X2707816Y-16855051D01*
X2793977Y-16792452D01*
X2879786Y-16730109D01*
X2879787Y-16730106D01*
X2879790Y-16730105D01*
X2879792Y-16730104D01*
X2879793Y-16730102D01*
X2879847Y-16730063D01*
X2880605Y-16729290D01*
X3030104Y-16579792D01*
X3030106Y-16579788D01*
X3030109Y-16579786D01*
X3155048Y-16407820D01*
X3155047Y-16407820D01*
X3155051Y-16407816D01*
X3155053Y-16407810D01*
X3175445Y-16379744D01*
X3183730Y-16351529D01*
X3251557Y-16218412D01*
X3317246Y-16016243D01*
X3350500Y-15806287D01*
X3350500Y-15593713D01*
X3317246Y-15383757D01*
X3251557Y-15181588D01*
X3155051Y-14992184D01*
X3155049Y-14992181D01*
X3155048Y-14992179D01*
X3154702Y-14991703D01*
X3154700Y-14991699D01*
X3030112Y-14820216D01*
X2879782Y-14669886D01*
X2707824Y-14544953D01*
X2707258Y-14544606D01*
X2705627Y-14543357D01*
X2703901Y-14542103D01*
X2703932Y-14542059D01*
X2686960Y-14529062D01*
X2676683Y-14519357D01*
X2641457Y-14459017D01*
X2644445Y-14389212D01*
X2680613Y-14335493D01*
X2687783Y-14329281D01*
X2704187Y-14317275D01*
X2707816Y-14315051D01*
X2707817Y-14315050D01*
X2729789Y-14299086D01*
X2879786Y-14190109D01*
X2879787Y-14190106D01*
X2879790Y-14190105D01*
X2879792Y-14190104D01*
X2879793Y-14190102D01*
X2879847Y-14190063D01*
X2880605Y-14189290D01*
X3030104Y-14039792D01*
X3030106Y-14039788D01*
X3030109Y-14039786D01*
X3155048Y-13867820D01*
X3155047Y-13867820D01*
X3155051Y-13867816D01*
X3155053Y-13867810D01*
X3175445Y-13839744D01*
X3183730Y-13811529D01*
X3251557Y-13678412D01*
X3317246Y-13476243D01*
X3350500Y-13266287D01*
X3350500Y-13053713D01*
X3317246Y-12843757D01*
X3251557Y-12641588D01*
X3155051Y-12452184D01*
X3155049Y-12452181D01*
X3155048Y-12452179D01*
X3154702Y-12451703D01*
X3154700Y-12451699D01*
X3030112Y-12280216D01*
X2879782Y-12129886D01*
X2707824Y-12004953D01*
X2707258Y-12004606D01*
X2705627Y-12003357D01*
X2703901Y-12002103D01*
X2703932Y-12002059D01*
X2686960Y-11989062D01*
X2676683Y-11979357D01*
X2641457Y-11919017D01*
X2644445Y-11849212D01*
X2680613Y-11795493D01*
X2687783Y-11789281D01*
X2704187Y-11777275D01*
X2707816Y-11775051D01*
X2707817Y-11775050D01*
X2729789Y-11759086D01*
X2879786Y-11650109D01*
X2879787Y-11650106D01*
X2879790Y-11650105D01*
X2879792Y-11650104D01*
X2879793Y-11650102D01*
X2879847Y-11650063D01*
X2880605Y-11649290D01*
X3030104Y-11499792D01*
X3030106Y-11499788D01*
X3030109Y-11499786D01*
X3155048Y-11327820D01*
X3155047Y-11327820D01*
X3155051Y-11327816D01*
X3155053Y-11327810D01*
X3175445Y-11299744D01*
X3183730Y-11271529D01*
X3251557Y-11138412D01*
X3317246Y-10936243D01*
X3350500Y-10726287D01*
X3350500Y-10513713D01*
X3317246Y-10303757D01*
X3251557Y-10101588D01*
X3155051Y-9912184D01*
X3155049Y-9912181D01*
X3155048Y-9912179D01*
X3154702Y-9911703D01*
X3154700Y-9911699D01*
X3030112Y-9740216D01*
X2879782Y-9589886D01*
X2707824Y-9464953D01*
X2707258Y-9464606D01*
X2705627Y-9463357D01*
X2703901Y-9462103D01*
X2703932Y-9462059D01*
X2686960Y-9449062D01*
X2676683Y-9439357D01*
X2641457Y-9379017D01*
X2644445Y-9309212D01*
X2680612Y-9255495D01*
X2687783Y-9249281D01*
X2704194Y-9237269D01*
X2707794Y-9235062D01*
X2707816Y-9235051D01*
X2840005Y-9139011D01*
X2879786Y-9110109D01*
X2879788Y-9110106D01*
X2879792Y-9110104D01*
X2879794Y-9110101D01*
X2879848Y-9110062D01*
X2880605Y-9109290D01*
X3030104Y-8959792D01*
X3030106Y-8959788D01*
X3030109Y-8959786D01*
X3155048Y-8787820D01*
X3155047Y-8787820D01*
X3155051Y-8787816D01*
X3155053Y-8787810D01*
X3175445Y-8759744D01*
X3183730Y-8731529D01*
X3251557Y-8598412D01*
X3317246Y-8396243D01*
X3350500Y-8186287D01*
X3350500Y-7973713D01*
X3317246Y-7763757D01*
X3251557Y-7561588D01*
X3171618Y-7404699D01*
X25149500Y-7404699D01*
X25149500Y-9595354D01*
X25149557Y-9596103D01*
X25159410Y-9735663D01*
X25159521Y-9738820D01*
X25160169Y-9742812D01*
X25161086Y-9746105D01*
X25213505Y-9978854D01*
X25213768Y-9980094D01*
X25213836Y-9980321D01*
X25250327Y-10070989D01*
X25305795Y-10208810D01*
X25433216Y-10419590D01*
X25434756Y-10421555D01*
X25436456Y-10423398D01*
X25592798Y-10607201D01*
X25702990Y-10700930D01*
X25780411Y-10766784D01*
X25991191Y-10894205D01*
X26219683Y-10986165D01*
X26459966Y-11040281D01*
X26604705Y-11050500D01*
X28795294Y-11050499D01*
X28940034Y-11040281D01*
X29180317Y-10986165D01*
X29408809Y-10894205D01*
X29619589Y-10766784D01*
X29807201Y-10607201D01*
X29966784Y-10419589D01*
X30094205Y-10208809D01*
X30186165Y-9980317D01*
X30240281Y-9740034D01*
X30240281Y-9740031D01*
X30240282Y-9740022D01*
X30244816Y-9675795D01*
X30250500Y-9595295D01*
X30250499Y-8356755D01*
X32349500Y-8356755D01*
X32349500Y-8643243D01*
X32381569Y-8927875D01*
X32381572Y-8927893D01*
X32445317Y-9207180D01*
X32445321Y-9207196D01*
X32445328Y-9207217D01*
X32539926Y-9477559D01*
X32539932Y-9477574D01*
X32539933Y-9477576D01*
X32664218Y-9735657D01*
X32664220Y-9735661D01*
X32664222Y-9735665D01*
X32664223Y-9735666D01*
X32666961Y-9740023D01*
X32666965Y-9740035D01*
X32666968Y-9740034D01*
X32816634Y-9978227D01*
X32945761Y-10140147D01*
X32970878Y-10171643D01*
X32995243Y-10202195D01*
X33197805Y-10404757D01*
X33421773Y-10583366D01*
X33664331Y-10735775D01*
X33922428Y-10860068D01*
X33922432Y-10860069D01*
X33922534Y-10860111D01*
X33923296Y-10860371D01*
X34005088Y-10888992D01*
X34192781Y-10954670D01*
X34192802Y-10954677D01*
X34192806Y-10954678D01*
X34192818Y-10954682D01*
X34370024Y-10995127D01*
X34396437Y-11009901D01*
X34472108Y-11018427D01*
X34472107Y-11018427D01*
X34614434Y-11034463D01*
X34739366Y-11048539D01*
X34746969Y-11050500D01*
X35043236Y-11050500D01*
X35067708Y-11050500D01*
X35069670Y-11049988D01*
X35073868Y-11047696D01*
X35086335Y-11045642D01*
X35248815Y-11027336D01*
X35327891Y-11018427D01*
X35327892Y-11018426D01*
X35327898Y-11018426D01*
X35327903Y-11018424D01*
X35334878Y-11017639D01*
X35341508Y-11015319D01*
X35607182Y-10954682D01*
X35877572Y-10860068D01*
X36135669Y-10735775D01*
X36378227Y-10583366D01*
X36602195Y-10404757D01*
X36804757Y-10202195D01*
X36983366Y-9978227D01*
X37135775Y-9735669D01*
X37260068Y-9477572D01*
X37354682Y-9207182D01*
X37418426Y-8927898D01*
X37450500Y-8643233D01*
X37450500Y-8356767D01*
X37431291Y-8186286D01*
X37418427Y-8072108D01*
X37406614Y-8020352D01*
X37354682Y-7792818D01*
X37354676Y-7792802D01*
X37260070Y-7522434D01*
X37260068Y-7522428D01*
X37135775Y-7264331D01*
X36983366Y-7021773D01*
X36804757Y-6797805D01*
X36602195Y-6595243D01*
X36602192Y-6595241D01*
X36545315Y-6549883D01*
X36378227Y-6416634D01*
X36137081Y-6265112D01*
X36136022Y-6264426D01*
X36135659Y-6264219D01*
X35877576Y-6139933D01*
X35877574Y-6139932D01*
X35877559Y-6139926D01*
X35607204Y-6045324D01*
X35607196Y-6045321D01*
X35607184Y-6045318D01*
X35607181Y-6045317D01*
X35500048Y-6020865D01*
X35429974Y-6004871D01*
X35403562Y-5990097D01*
X35043243Y-5949500D01*
X35043237Y-5949500D01*
X35043233Y-5949500D01*
X34756767Y-5949500D01*
X34756762Y-5949500D01*
X34756755Y-5949500D01*
X34472123Y-5981569D01*
X34472105Y-5981572D01*
X34192818Y-6045317D01*
X34192802Y-6045321D01*
X34192795Y-6045324D01*
X33922439Y-6139926D01*
X33922424Y-6139932D01*
X33922422Y-6139933D01*
X33664338Y-6264219D01*
X33421775Y-6416632D01*
X33197805Y-6595241D01*
X32995241Y-6797805D01*
X32816632Y-7021775D01*
X32664219Y-7264338D01*
X32539933Y-7522422D01*
X32539932Y-7522424D01*
X32539926Y-7522439D01*
X32445328Y-7792781D01*
X32445321Y-7792802D01*
X32445317Y-7792818D01*
X32381572Y-8072105D01*
X32381569Y-8072123D01*
X32349500Y-8356755D01*
X30250499Y-8356755D01*
X30250499Y-7404706D01*
X30240281Y-7259966D01*
X30186165Y-7019683D01*
X30094205Y-6791191D01*
X29966784Y-6580411D01*
X29900930Y-6502990D01*
X29807201Y-6392797D01*
X29636753Y-6247816D01*
X29636751Y-6247814D01*
X29619594Y-6233220D01*
X29619588Y-6233215D01*
X29408814Y-6105798D01*
X29408809Y-6105795D01*
X29291077Y-6058412D01*
X29180320Y-6013835D01*
X29180315Y-6013834D01*
X28975073Y-5967610D01*
X28940036Y-5959719D01*
X28940034Y-5959718D01*
X28940031Y-5959718D01*
X28795298Y-5949500D01*
X28795296Y-5949500D01*
X26604707Y-5949500D01*
X26604642Y-5949500D01*
X26603895Y-5949557D01*
X26474719Y-5958676D01*
X26464333Y-5959410D01*
X26455603Y-5959718D01*
X26439255Y-5959718D01*
X26424926Y-5967610D01*
X26221145Y-6013505D01*
X26219904Y-6013768D01*
X26219677Y-6013836D01*
X25991192Y-6105793D01*
X25849377Y-6191524D01*
X25780417Y-6233212D01*
X25780407Y-6233219D01*
X25746903Y-6261716D01*
X25592797Y-6392797D01*
X25499069Y-6502990D01*
X25433219Y-6580407D01*
X25433212Y-6580417D01*
X25391583Y-6649279D01*
X25305793Y-6791192D01*
X25213772Y-7019834D01*
X25213421Y-7021514D01*
X25159718Y-7259966D01*
X25159718Y-7259968D01*
X25149500Y-7404699D01*
X3171618Y-7404699D01*
X3155051Y-7372184D01*
X3147023Y-7361134D01*
X3030109Y-7200213D01*
X2879786Y-7049890D01*
X2879782Y-7049886D01*
X2707824Y-6924953D01*
X2707258Y-6924606D01*
X2705627Y-6923357D01*
X2703901Y-6922103D01*
X2703932Y-6922059D01*
X2686960Y-6909062D01*
X2676683Y-6899357D01*
X2641457Y-6839017D01*
X2644445Y-6769212D01*
X2680613Y-6715493D01*
X2687783Y-6709281D01*
X2704187Y-6697275D01*
X2707816Y-6695051D01*
X2707817Y-6695050D01*
X2729789Y-6679086D01*
X2879786Y-6570109D01*
X2879787Y-6570106D01*
X2879790Y-6570105D01*
X2879792Y-6570104D01*
X2879793Y-6570102D01*
X2879847Y-6570063D01*
X2880605Y-6569290D01*
X3030104Y-6419792D01*
X3030106Y-6419788D01*
X3030109Y-6419786D01*
X3155048Y-6247820D01*
X3155047Y-6247820D01*
X3155051Y-6247816D01*
X3155053Y-6247810D01*
X3175445Y-6219744D01*
X3183730Y-6191529D01*
X3251557Y-6058412D01*
X3317246Y-5856243D01*
X3350500Y-5646287D01*
X3350500Y-5433713D01*
X3317246Y-5223757D01*
X3251557Y-5021588D01*
X3155051Y-4832184D01*
X3155049Y-4832181D01*
X3155048Y-4832179D01*
X3154702Y-4831703D01*
X3154700Y-4831699D01*
X3030112Y-4660216D01*
X2929178Y-4559282D01*
X2929173Y-4559277D01*
X2908027Y-4531030D01*
X2901372Y-4518842D01*
X2886521Y-4450572D01*
X2910935Y-4385111D01*
X2913698Y-4381420D01*
X2969621Y-4339562D01*
X3092331Y-4293796D01*
X3207546Y-4207546D01*
X3293796Y-4092331D01*
X3344091Y-3957483D01*
X3350500Y-3897873D01*
X3350499Y-2102128D01*
X3344091Y-2042517D01*
X3344090Y-2042513D01*
X3335576Y-2019686D01*
X3335575Y-2019684D01*
X3293797Y-1907671D01*
X3293795Y-1907668D01*
X3293793Y-1907664D01*
X3207547Y-1792455D01*
X3207544Y-1792452D01*
X3207542Y-1792450D01*
X3149616Y-1749086D01*
X3092335Y-1706206D01*
X3092332Y-1706204D01*
X3092330Y-1706203D01*
X3092328Y-1706202D01*
X2957482Y-1655908D01*
X2957483Y-1655908D01*
X2897883Y-1649501D01*
X2897881Y-1649500D01*
X2897873Y-1649500D01*
X2897864Y-1649500D01*
X2896841Y-1649500D01*
X1102123Y-1649500D01*
X1100192Y-1649659D01*
X1098545Y-1649885D01*
X1042516Y-1655908D01*
X907666Y-1706204D01*
X907665Y-1706205D01*
X792456Y-1792450D01*
X792453Y-1792453D01*
X792448Y-1792459D01*
X734449Y-1869935D01*
X715542Y-1888841D01*
X709493Y-1894890D01*
X700440Y-1901667D01*
X634976Y-1926084D01*
X566703Y-1911232D01*
X517298Y-1861827D01*
X517290Y-1861813D01*
X515660Y-1858827D01*
X500500Y-1799414D01*
X500500Y-642329D01*
X505523Y-607393D01*
X506245Y-604936D01*
X509927Y-592394D01*
X519557Y-577404D01*
X524567Y-560324D01*
X547672Y-533644D01*
X549041Y-532457D01*
X603920Y-504977D01*
X611479Y-503333D01*
X637832Y-500500D01*
X11792901Y-500500D01*
X11827828Y-505521D01*
G37*
%TD.AperFunction*%
%TA.AperFunction,Conductor*%
G36*
X50520483Y-505520D02*
G01*
X50523580Y-506429D01*
X50527151Y-507477D01*
X50530640Y-509719D01*
X50533137Y-509991D01*
X50541208Y-516510D01*
X50585931Y-545246D01*
X50614961Y-608800D01*
X50605024Y-677959D01*
X50578699Y-708789D01*
X50571688Y-720577D01*
X50565558Y-724179D01*
X50560766Y-729792D01*
X50555833Y-733064D01*
X50544448Y-736586D01*
X50525604Y-747662D01*
X50521786Y-748902D01*
X50332438Y-845380D01*
X50278282Y-884727D01*
X50278282Y-884728D01*
X50783850Y-1390296D01*
X50817335Y-1451619D01*
X50812351Y-1521311D01*
X50770479Y-1577244D01*
X50758173Y-1585362D01*
X50732996Y-1599898D01*
X50732990Y-1599903D01*
X50639903Y-1692990D01*
X50639898Y-1692996D01*
X50625362Y-1718173D01*
X50574793Y-1766387D01*
X50506185Y-1779607D01*
X50441322Y-1753637D01*
X50430296Y-1743850D01*
X49899425Y-1212979D01*
X49899420Y-1212974D01*
X49878273Y-1184723D01*
X49865666Y-1161634D01*
X49851763Y-1107164D01*
X49851612Y-1107176D01*
X49851348Y-1107221D01*
X49851344Y-1107199D01*
X49850922Y-1107234D01*
X49850509Y-1102250D01*
X49850499Y-1102209D01*
X49850499Y-1102122D01*
X49850339Y-1100197D01*
X49850112Y-1098538D01*
X49849448Y-1092363D01*
X49844091Y-1042517D01*
X49793887Y-907913D01*
X49793864Y-907850D01*
X49793800Y-907678D01*
X49793796Y-907669D01*
X49793795Y-907668D01*
X49793793Y-907664D01*
X49707815Y-792813D01*
X49707548Y-792456D01*
X49707545Y-792453D01*
X49707536Y-792445D01*
X49660789Y-757451D01*
X49630064Y-734450D01*
X49605106Y-709491D01*
X49598325Y-700432D01*
X49573914Y-634965D01*
X49588772Y-566694D01*
X49638182Y-517293D01*
X49638183Y-517291D01*
X49641172Y-515659D01*
X49700585Y-500500D01*
X50485558Y-500500D01*
X50520483Y-505520D01*
G37*
%TD.AperFunction*%
%TA.AperFunction,Conductor*%
G36*
X53058864Y-505519D02*
G01*
X53064269Y-507105D01*
X53065532Y-507476D01*
X53124315Y-545243D01*
X53153348Y-608795D01*
X53143413Y-677954D01*
X53099134Y-729805D01*
X53094199Y-733077D01*
X53064034Y-747648D01*
X53061584Y-748444D01*
X53061580Y-748446D01*
X52872182Y-844949D01*
X52872179Y-844950D01*
X52872179Y-844951D01*
X52871589Y-845380D01*
X52700210Y-969892D01*
X52549886Y-1120216D01*
X52424943Y-1292187D01*
X52424188Y-1293421D01*
X52408613Y-1313768D01*
X52399070Y-1323872D01*
X52338728Y-1359094D01*
X52268922Y-1356100D01*
X52215211Y-1319934D01*
X52209107Y-1312890D01*
X52197086Y-1296467D01*
X52194628Y-1292457D01*
X52194626Y-1292452D01*
X52155270Y-1238282D01*
X52155268Y-1238282D01*
X51649702Y-1743849D01*
X51588379Y-1777334D01*
X51518687Y-1772350D01*
X51462754Y-1730478D01*
X51454634Y-1718169D01*
X51440099Y-1692993D01*
X51347007Y-1599901D01*
X51347004Y-1599899D01*
X51347000Y-1599896D01*
X51321828Y-1585363D01*
X51273613Y-1534796D01*
X51260391Y-1466189D01*
X51286359Y-1401324D01*
X51296135Y-1390310D01*
X51801716Y-884728D01*
X51747550Y-845375D01*
X51740720Y-841895D01*
X51558218Y-748904D01*
X51558213Y-748902D01*
X51555251Y-747940D01*
X51554270Y-747269D01*
X51553721Y-747042D01*
X51553768Y-746926D01*
X51544029Y-740267D01*
X51523571Y-732363D01*
X51517836Y-728441D01*
X51506554Y-714643D01*
X51497575Y-708503D01*
X51493338Y-698478D01*
X51473611Y-674350D01*
X51465650Y-604935D01*
X51496482Y-542236D01*
X51531113Y-521016D01*
X51541434Y-511978D01*
X51547290Y-511104D01*
X51554606Y-506622D01*
X51560312Y-505035D01*
X51593539Y-500500D01*
X53023944Y-500500D01*
X53058864Y-505519D01*
G37*
%TD.AperFunction*%
%TA.AperFunction,Conductor*%
G36*
X55061039Y-15005685D02*
G01*
X55106794Y-15058489D01*
X55118000Y-15110000D01*
X55118000Y-41786000D01*
X55098315Y-41853039D01*
X55045511Y-41898794D01*
X54994000Y-41910000D01*
X48368500Y-41910000D01*
X48301461Y-41890315D01*
X48255706Y-41837511D01*
X48244500Y-41786000D01*
X48244500Y-30656096D01*
X48264185Y-30589057D01*
X48280814Y-30568420D01*
X48938322Y-29910912D01*
X48999642Y-29877429D01*
X49069333Y-29882413D01*
X49125267Y-29924284D01*
X49149684Y-29989749D01*
X49150000Y-29998595D01*
X49150000Y-30146246D01*
X49183242Y-30356127D01*
X49183242Y-30356130D01*
X49248904Y-30558217D01*
X49345375Y-30747550D01*
X49384728Y-30801716D01*
X50017037Y-30169408D01*
X50034075Y-30232993D01*
X50099901Y-30347007D01*
X50192993Y-30440099D01*
X50307007Y-30505925D01*
X50370590Y-30522962D01*
X49738282Y-31155269D01*
X49738282Y-31155270D01*
X49792452Y-31194626D01*
X49792451Y-31194626D01*
X49801495Y-31199234D01*
X49852292Y-31247208D01*
X49869087Y-31315029D01*
X49846550Y-31381164D01*
X49801499Y-31420202D01*
X49792182Y-31424949D01*
X49620213Y-31549890D01*
X49469890Y-31700213D01*
X49344951Y-31872179D01*
X49248444Y-32061585D01*
X49248443Y-32061587D01*
X49248443Y-32061588D01*
X49223279Y-32139036D01*
X49182753Y-32263760D01*
X49149500Y-32473713D01*
X49149500Y-32686286D01*
X49174647Y-32845061D01*
X49182754Y-32896243D01*
X49237943Y-33066097D01*
X49248444Y-33098414D01*
X49344951Y-33287820D01*
X49469890Y-33459786D01*
X49620213Y-33610109D01*
X49792179Y-33735048D01*
X49792181Y-33735049D01*
X49792184Y-33735051D01*
X49981588Y-33831557D01*
X50183757Y-33897246D01*
X50393713Y-33930500D01*
X50393714Y-33930500D01*
X50606286Y-33930500D01*
X50606287Y-33930500D01*
X50816243Y-33897246D01*
X51018412Y-33831557D01*
X51207816Y-33735051D01*
X51258119Y-33698504D01*
X51379786Y-33610109D01*
X51379788Y-33610106D01*
X51379792Y-33610104D01*
X51530104Y-33459792D01*
X51530106Y-33459788D01*
X51530109Y-33459786D01*
X51655048Y-33287820D01*
X51655047Y-33287820D01*
X51655051Y-33287816D01*
X51751557Y-33098412D01*
X51817246Y-32896243D01*
X51850500Y-32686287D01*
X51850500Y-32473713D01*
X51817246Y-32263757D01*
X51751557Y-32061588D01*
X51655051Y-31872184D01*
X51655049Y-31872181D01*
X51655048Y-31872179D01*
X51530109Y-31700213D01*
X51379786Y-31549890D01*
X51207817Y-31424949D01*
X51198504Y-31420204D01*
X51147707Y-31372230D01*
X51130912Y-31304409D01*
X51153449Y-31238274D01*
X51198507Y-31199232D01*
X51207555Y-31194622D01*
X51261716Y-31155270D01*
X51261717Y-31155270D01*
X50629408Y-30522962D01*
X50692993Y-30505925D01*
X50807007Y-30440099D01*
X50900099Y-30347007D01*
X50965925Y-30232993D01*
X50982962Y-30169408D01*
X51615270Y-30801717D01*
X51615270Y-30801716D01*
X51654622Y-30747554D01*
X51751095Y-30558217D01*
X51816757Y-30356130D01*
X51816757Y-30356127D01*
X51850000Y-30146246D01*
X51850000Y-29933753D01*
X51816757Y-29723872D01*
X51816757Y-29723869D01*
X51751095Y-29521782D01*
X51654624Y-29332449D01*
X51615270Y-29278282D01*
X51615269Y-29278282D01*
X50982962Y-29910590D01*
X50965925Y-29847007D01*
X50900099Y-29732993D01*
X50807007Y-29639901D01*
X50692993Y-29574075D01*
X50629408Y-29557037D01*
X51299627Y-28886818D01*
X51360950Y-28853333D01*
X51387308Y-28850499D01*
X51397871Y-28850499D01*
X51397872Y-28850499D01*
X51457483Y-28844091D01*
X51592331Y-28793796D01*
X51707546Y-28707546D01*
X51793796Y-28592331D01*
X51844091Y-28457483D01*
X51850500Y-28397873D01*
X51850499Y-26602128D01*
X51844091Y-26542517D01*
X51793796Y-26407669D01*
X51793795Y-26407668D01*
X51793793Y-26407664D01*
X51707547Y-26292455D01*
X51707544Y-26292452D01*
X51592335Y-26206206D01*
X51592328Y-26206202D01*
X51457482Y-26155908D01*
X51457483Y-26155908D01*
X51397883Y-26149501D01*
X51397881Y-26149500D01*
X51397873Y-26149500D01*
X51397864Y-26149500D01*
X49602129Y-26149500D01*
X49602123Y-26149501D01*
X49542516Y-26155908D01*
X49407671Y-26206202D01*
X49407664Y-26206206D01*
X49292455Y-26292452D01*
X49292452Y-26292455D01*
X49206206Y-26407664D01*
X49206202Y-26407671D01*
X49155908Y-26542517D01*
X49149501Y-26602116D01*
X49149501Y-26602123D01*
X49149500Y-26602135D01*
X49149500Y-27949902D01*
X49129815Y-28016941D01*
X49113181Y-28037583D01*
X48056181Y-29094583D01*
X47994858Y-29128068D01*
X47925166Y-29123084D01*
X47869233Y-29081212D01*
X47844816Y-29015748D01*
X47844500Y-29006902D01*
X47844500Y-21556096D01*
X47864185Y-21489057D01*
X47880814Y-21468420D01*
X48938322Y-20410912D01*
X48999642Y-20377429D01*
X49069334Y-20382413D01*
X49125267Y-20424285D01*
X49149684Y-20489749D01*
X49150000Y-20498595D01*
X49150000Y-20646246D01*
X49183242Y-20856127D01*
X49183242Y-20856130D01*
X49248904Y-21058217D01*
X49345375Y-21247550D01*
X49384728Y-21301716D01*
X50017037Y-20669408D01*
X50034075Y-20732993D01*
X50099901Y-20847007D01*
X50192993Y-20940099D01*
X50307007Y-21005925D01*
X50370590Y-21022962D01*
X49738282Y-21655269D01*
X49738282Y-21655270D01*
X49792452Y-21694626D01*
X49792451Y-21694626D01*
X49801495Y-21699234D01*
X49852292Y-21747208D01*
X49869087Y-21815029D01*
X49846550Y-21881164D01*
X49801499Y-21920202D01*
X49792182Y-21924949D01*
X49620213Y-22049890D01*
X49469890Y-22200213D01*
X49344951Y-22372179D01*
X49248444Y-22561585D01*
X49182753Y-22763760D01*
X49149500Y-22973713D01*
X49149500Y-23186286D01*
X49182753Y-23396239D01*
X49248444Y-23598414D01*
X49344951Y-23787820D01*
X49469890Y-23959786D01*
X49620213Y-24110109D01*
X49792179Y-24235048D01*
X49792181Y-24235049D01*
X49792184Y-24235051D01*
X49981588Y-24331557D01*
X50183757Y-24397246D01*
X50393713Y-24430500D01*
X50393714Y-24430500D01*
X50606286Y-24430500D01*
X50606287Y-24430500D01*
X50816243Y-24397246D01*
X51018412Y-24331557D01*
X51207816Y-24235051D01*
X51229789Y-24219086D01*
X51379786Y-24110109D01*
X51379788Y-24110106D01*
X51379792Y-24110104D01*
X51530104Y-23959792D01*
X51530106Y-23959788D01*
X51530109Y-23959786D01*
X51655048Y-23787820D01*
X51655047Y-23787820D01*
X51655051Y-23787816D01*
X51751557Y-23598412D01*
X51817246Y-23396243D01*
X51850500Y-23186287D01*
X51850500Y-22973713D01*
X51817246Y-22763757D01*
X51751557Y-22561588D01*
X51655051Y-22372184D01*
X51655049Y-22372181D01*
X51655048Y-22372179D01*
X51530109Y-22200213D01*
X51379786Y-22049890D01*
X51207817Y-21924949D01*
X51198504Y-21920204D01*
X51147707Y-21872230D01*
X51130912Y-21804409D01*
X51153449Y-21738274D01*
X51198507Y-21699232D01*
X51207555Y-21694622D01*
X51261716Y-21655270D01*
X51261717Y-21655270D01*
X50629408Y-21022962D01*
X50692993Y-21005925D01*
X50807007Y-20940099D01*
X50900099Y-20847007D01*
X50965925Y-20732993D01*
X50982962Y-20669408D01*
X51615270Y-21301717D01*
X51615270Y-21301716D01*
X51654622Y-21247554D01*
X51751095Y-21058217D01*
X51816757Y-20856130D01*
X51816757Y-20856127D01*
X51850000Y-20646246D01*
X51850000Y-20433753D01*
X51816757Y-20223872D01*
X51816757Y-20223869D01*
X51751095Y-20021782D01*
X51654624Y-19832449D01*
X51615270Y-19778282D01*
X51615269Y-19778282D01*
X50982962Y-20410590D01*
X50965925Y-20347007D01*
X50900099Y-20232993D01*
X50807007Y-20139901D01*
X50692993Y-20074075D01*
X50629408Y-20057037D01*
X51299627Y-19386818D01*
X51360950Y-19353333D01*
X51387308Y-19350499D01*
X51397871Y-19350499D01*
X51397872Y-19350499D01*
X51457483Y-19344091D01*
X51592331Y-19293796D01*
X51707546Y-19207546D01*
X51793796Y-19092331D01*
X51844091Y-18957483D01*
X51850500Y-18897873D01*
X51850499Y-17102128D01*
X51844091Y-17042517D01*
X51793796Y-16907669D01*
X51793795Y-16907668D01*
X51793793Y-16907664D01*
X51707547Y-16792455D01*
X51707544Y-16792452D01*
X51592335Y-16706206D01*
X51592328Y-16706202D01*
X51457482Y-16655908D01*
X51457483Y-16655908D01*
X51397883Y-16649501D01*
X51397881Y-16649500D01*
X51397873Y-16649500D01*
X51397864Y-16649500D01*
X49602129Y-16649500D01*
X49602123Y-16649501D01*
X49542516Y-16655908D01*
X49407671Y-16706202D01*
X49407664Y-16706206D01*
X49292455Y-16792452D01*
X49292452Y-16792455D01*
X49206206Y-16907664D01*
X49206202Y-16907671D01*
X49155908Y-17042517D01*
X49149501Y-17102116D01*
X49149501Y-17102123D01*
X49149500Y-17102135D01*
X49149500Y-18449902D01*
X49129815Y-18516941D01*
X49113181Y-18537583D01*
X46763481Y-20887282D01*
X46763480Y-20887284D01*
X46732988Y-20940099D01*
X46713361Y-20974094D01*
X46713359Y-20974096D01*
X46684425Y-21024209D01*
X46684424Y-21024210D01*
X46684423Y-21024215D01*
X46643499Y-21176943D01*
X46643499Y-21176945D01*
X46643499Y-21345046D01*
X46643500Y-21345059D01*
X46643500Y-70887330D01*
X46643499Y-70887348D01*
X46643499Y-71053054D01*
X46643498Y-71053054D01*
X46684423Y-71205785D01*
X46713358Y-71255900D01*
X46713359Y-71255904D01*
X46713360Y-71255904D01*
X46763479Y-71342714D01*
X46763481Y-71342717D01*
X46882349Y-71461585D01*
X46882355Y-71461590D01*
X46998584Y-71577819D01*
X47032069Y-71639142D01*
X47027085Y-71708834D01*
X46985213Y-71764767D01*
X46919749Y-71789184D01*
X46910903Y-71789500D01*
X38908097Y-71789500D01*
X38841058Y-71769815D01*
X38820416Y-71753181D01*
X21718819Y-54651584D01*
X21685334Y-54590261D01*
X21682500Y-54563903D01*
X21682500Y-40940096D01*
X21702185Y-40873057D01*
X21718814Y-40852420D01*
X28184416Y-34386817D01*
X28245739Y-34353333D01*
X28272097Y-34350499D01*
X29897871Y-34350499D01*
X29897872Y-34350499D01*
X29957483Y-34344091D01*
X30092331Y-34293796D01*
X30207546Y-34207546D01*
X30293796Y-34092331D01*
X30344091Y-33957483D01*
X30350500Y-33897873D01*
X30350499Y-33873979D01*
X30353330Y-33860963D01*
X30363940Y-33841525D01*
X30370179Y-33820275D01*
X30386803Y-33799643D01*
X30386808Y-33799636D01*
X30386811Y-33799634D01*
X30386818Y-33799626D01*
X31057037Y-33129408D01*
X31074075Y-33192993D01*
X31139901Y-33307007D01*
X31232993Y-33400099D01*
X31347007Y-33465925D01*
X31410590Y-33482962D01*
X30778282Y-34115269D01*
X30778282Y-34115270D01*
X30832449Y-34154624D01*
X31021782Y-34251095D01*
X31223870Y-34316757D01*
X31433754Y-34350000D01*
X31646246Y-34350000D01*
X31856127Y-34316757D01*
X31856130Y-34316757D01*
X32058217Y-34251095D01*
X32247554Y-34154622D01*
X32301716Y-34115270D01*
X32301717Y-34115270D01*
X31669408Y-33482962D01*
X31732993Y-33465925D01*
X31847007Y-33400099D01*
X31940099Y-33307007D01*
X32005925Y-33192993D01*
X32022962Y-33129408D01*
X32655270Y-33761717D01*
X32655270Y-33761716D01*
X32694622Y-33707555D01*
X32699232Y-33698507D01*
X32747205Y-33647709D01*
X32815025Y-33630912D01*
X32881161Y-33653447D01*
X32920204Y-33698504D01*
X32924949Y-33707817D01*
X33049890Y-33879786D01*
X33200213Y-34030109D01*
X33372179Y-34155048D01*
X33372181Y-34155049D01*
X33372184Y-34155051D01*
X33561588Y-34251557D01*
X33763757Y-34317246D01*
X33973713Y-34350500D01*
X33973714Y-34350500D01*
X34186286Y-34350500D01*
X34186287Y-34350500D01*
X34396243Y-34317246D01*
X34598412Y-34251557D01*
X34787816Y-34155051D01*
X34874138Y-34092335D01*
X34959786Y-34030109D01*
X34959788Y-34030106D01*
X34959792Y-34030104D01*
X35110104Y-33879792D01*
X35110106Y-33879788D01*
X35110109Y-33879786D01*
X35235048Y-33707820D01*
X35235050Y-33707817D01*
X35235051Y-33707816D01*
X35331557Y-33518412D01*
X35397246Y-33316243D01*
X35430500Y-33106287D01*
X35430500Y-32893713D01*
X35397246Y-32683757D01*
X35331557Y-32481588D01*
X35235051Y-32292184D01*
X35235049Y-32292181D01*
X35235048Y-32292179D01*
X35110109Y-32120213D01*
X34959786Y-31969890D01*
X34787820Y-31844951D01*
X34598414Y-31748444D01*
X34598413Y-31748443D01*
X34598412Y-31748443D01*
X34396243Y-31682754D01*
X34396241Y-31682753D01*
X34396240Y-31682753D01*
X34234957Y-31657208D01*
X34186287Y-31649500D01*
X33973713Y-31649500D01*
X33925042Y-31657208D01*
X33763760Y-31682753D01*
X33561585Y-31748444D01*
X33372179Y-31844951D01*
X33200213Y-31969890D01*
X33049890Y-32120213D01*
X32924949Y-32292182D01*
X32920202Y-32301499D01*
X32872227Y-32352293D01*
X32804405Y-32369087D01*
X32738271Y-32346548D01*
X32699234Y-32301495D01*
X32694626Y-32292452D01*
X32655270Y-32238282D01*
X32655269Y-32238282D01*
X32022962Y-32870590D01*
X32005925Y-32807007D01*
X31940099Y-32692993D01*
X31847007Y-32599901D01*
X31732993Y-32534075D01*
X31669409Y-32517037D01*
X32301716Y-31884728D01*
X32247550Y-31845375D01*
X32058217Y-31748904D01*
X31856129Y-31683242D01*
X31646246Y-31650000D01*
X31433754Y-31650000D01*
X31223872Y-31683242D01*
X31223869Y-31683242D01*
X31021782Y-31748904D01*
X30832439Y-31845380D01*
X30778282Y-31884727D01*
X30778282Y-31884728D01*
X31410591Y-32517037D01*
X31347007Y-32534075D01*
X31232993Y-32599901D01*
X31139901Y-32692993D01*
X31074075Y-32807007D01*
X31057037Y-32870591D01*
X30386818Y-32200372D01*
X30353333Y-32139049D01*
X30353330Y-32139036D01*
X30350499Y-32126015D01*
X30350499Y-32102128D01*
X30344091Y-32042517D01*
X30315926Y-31967002D01*
X30293798Y-31907673D01*
X30293793Y-31907664D01*
X30207547Y-31792455D01*
X30207544Y-31792452D01*
X30092335Y-31706206D01*
X30092328Y-31706202D01*
X29957482Y-31655908D01*
X29957483Y-31655908D01*
X29897883Y-31649501D01*
X29897881Y-31649500D01*
X29897873Y-31649500D01*
X29897864Y-31649500D01*
X28102129Y-31649500D01*
X28102123Y-31649501D01*
X28042516Y-31655908D01*
X27907671Y-31706202D01*
X27907664Y-31706206D01*
X27792455Y-31792452D01*
X27792452Y-31792455D01*
X27706206Y-31907664D01*
X27706202Y-31907671D01*
X27655908Y-32042517D01*
X27649501Y-32102116D01*
X27649500Y-32102135D01*
X27649500Y-33171901D01*
X27629815Y-33238940D01*
X27613181Y-33259582D01*
X20713286Y-40159478D01*
X20601481Y-40271282D01*
X20601479Y-40271285D01*
X20551361Y-40358094D01*
X20551359Y-40358096D01*
X20522425Y-40408209D01*
X20522424Y-40408210D01*
X20522423Y-40408215D01*
X20481499Y-40560943D01*
X20481499Y-40560945D01*
X20481499Y-40729046D01*
X20481500Y-40729059D01*
X20481500Y-54777330D01*
X20481499Y-54777348D01*
X20481499Y-54943054D01*
X20481498Y-54943054D01*
X20522423Y-55095785D01*
X20551358Y-55145900D01*
X20551359Y-55145904D01*
X20551360Y-55145904D01*
X20601479Y-55232714D01*
X20601481Y-55232717D01*
X20720349Y-55351585D01*
X20720355Y-55351590D01*
X38127478Y-72758713D01*
X38127480Y-72758716D01*
X38239284Y-72870520D01*
X38248401Y-72875784D01*
X38259423Y-72886468D01*
X38269384Y-72904055D01*
X38283332Y-72918685D01*
X38286251Y-72933836D01*
X38293856Y-72947263D01*
X38292727Y-72967444D01*
X38296552Y-72987292D01*
X38290816Y-73001616D01*
X38289955Y-73017024D01*
X38278093Y-73033392D01*
X38270581Y-73052156D01*
X38258011Y-73061106D01*
X38248957Y-73073601D01*
X38230131Y-73080957D01*
X38213666Y-73092682D01*
X38189907Y-73096676D01*
X38183880Y-73099032D01*
X38180247Y-73098300D01*
X38173114Y-73099500D01*
X36662097Y-73099500D01*
X36595058Y-73079815D01*
X36574416Y-73063181D01*
X19940819Y-56429584D01*
X19907334Y-56368261D01*
X19904500Y-56341903D01*
X19904500Y-30654945D01*
X19904500Y-30654943D01*
X19863577Y-30502216D01*
X19800842Y-30393554D01*
X19784524Y-30365290D01*
X19784521Y-30365286D01*
X19784520Y-30365284D01*
X19672716Y-30253480D01*
X19672715Y-30253479D01*
X19668385Y-30249149D01*
X19668374Y-30249139D01*
X14352819Y-24933584D01*
X14319334Y-24872261D01*
X14316500Y-24845903D01*
X14316500Y-21305059D01*
X14316501Y-21305046D01*
X14316501Y-21136945D01*
X14316501Y-21136943D01*
X14275577Y-20984215D01*
X14246639Y-20934095D01*
X14196520Y-20847284D01*
X14084716Y-20735480D01*
X14084715Y-20735479D01*
X14080385Y-20731149D01*
X14080374Y-20731139D01*
X11886818Y-18537583D01*
X11853333Y-18476260D01*
X11850499Y-18449902D01*
X11850499Y-17102129D01*
X11850498Y-17102123D01*
X11850497Y-17102116D01*
X11844091Y-17042517D01*
X11793796Y-16907669D01*
X11793795Y-16907668D01*
X11793793Y-16907664D01*
X11707547Y-16792455D01*
X11707544Y-16792452D01*
X11592335Y-16706206D01*
X11592328Y-16706202D01*
X11457482Y-16655908D01*
X11457483Y-16655908D01*
X11397883Y-16649501D01*
X11397881Y-16649500D01*
X11397873Y-16649500D01*
X11397864Y-16649500D01*
X9602129Y-16649500D01*
X9602123Y-16649501D01*
X9542516Y-16655908D01*
X9407671Y-16706202D01*
X9407664Y-16706206D01*
X9292455Y-16792452D01*
X9292452Y-16792455D01*
X9206206Y-16907664D01*
X9206202Y-16907671D01*
X9155908Y-17042517D01*
X9149501Y-17102116D01*
X9149501Y-17102123D01*
X9149500Y-17102135D01*
X9149500Y-18897870D01*
X9149501Y-18897876D01*
X9155908Y-18957483D01*
X9206202Y-19092328D01*
X9206206Y-19092335D01*
X9292452Y-19207544D01*
X9292455Y-19207547D01*
X9407664Y-19293793D01*
X9407671Y-19293797D01*
X9452618Y-19310561D01*
X9542517Y-19344091D01*
X9602127Y-19350500D01*
X9612685Y-19350499D01*
X9679723Y-19370179D01*
X9700372Y-19386818D01*
X10370591Y-20057037D01*
X10307007Y-20074075D01*
X10192993Y-20139901D01*
X10099901Y-20232993D01*
X10034075Y-20347007D01*
X10017037Y-20410591D01*
X9384728Y-19778282D01*
X9384727Y-19778282D01*
X9345380Y-19832439D01*
X9248904Y-20021782D01*
X9183242Y-20223869D01*
X9183242Y-20223872D01*
X9150000Y-20433753D01*
X9150000Y-20646246D01*
X9183242Y-20856127D01*
X9183242Y-20856130D01*
X9248904Y-21058217D01*
X9345375Y-21247550D01*
X9384728Y-21301716D01*
X10017037Y-20669408D01*
X10034075Y-20732993D01*
X10099901Y-20847007D01*
X10192993Y-20940099D01*
X10307007Y-21005925D01*
X10370590Y-21022962D01*
X9738282Y-21655269D01*
X9738282Y-21655270D01*
X9792452Y-21694626D01*
X9792451Y-21694626D01*
X9801495Y-21699234D01*
X9852292Y-21747208D01*
X9869087Y-21815029D01*
X9846550Y-21881164D01*
X9801499Y-21920202D01*
X9792182Y-21924949D01*
X9620213Y-22049890D01*
X9469890Y-22200213D01*
X9344951Y-22372179D01*
X9248444Y-22561585D01*
X9182753Y-22763760D01*
X9149500Y-22973713D01*
X9149500Y-23186286D01*
X9182753Y-23396239D01*
X9248444Y-23598414D01*
X9344951Y-23787820D01*
X9469890Y-23959786D01*
X9620213Y-24110109D01*
X9792179Y-24235048D01*
X9792181Y-24235049D01*
X9792184Y-24235051D01*
X9981588Y-24331557D01*
X10183757Y-24397246D01*
X10393713Y-24430500D01*
X10393714Y-24430500D01*
X10606286Y-24430500D01*
X10606287Y-24430500D01*
X10816243Y-24397246D01*
X11018412Y-24331557D01*
X11207816Y-24235051D01*
X11229789Y-24219086D01*
X11379786Y-24110109D01*
X11379788Y-24110106D01*
X11379792Y-24110104D01*
X11530104Y-23959792D01*
X11530106Y-23959788D01*
X11530109Y-23959786D01*
X11655048Y-23787820D01*
X11655047Y-23787820D01*
X11655051Y-23787816D01*
X11751557Y-23598412D01*
X11817246Y-23396243D01*
X11850500Y-23186287D01*
X11850500Y-22973713D01*
X11817246Y-22763757D01*
X11751557Y-22561588D01*
X11655051Y-22372184D01*
X11655049Y-22372181D01*
X11655048Y-22372179D01*
X11530109Y-22200213D01*
X11379786Y-22049890D01*
X11207817Y-21924949D01*
X11198504Y-21920204D01*
X11147707Y-21872230D01*
X11130912Y-21804409D01*
X11153449Y-21738274D01*
X11198507Y-21699232D01*
X11207555Y-21694622D01*
X11261716Y-21655270D01*
X11261717Y-21655270D01*
X10629408Y-21022962D01*
X10692993Y-21005925D01*
X10807007Y-20940099D01*
X10900099Y-20847007D01*
X10965925Y-20732993D01*
X10982962Y-20669408D01*
X11615270Y-21301717D01*
X11615270Y-21301716D01*
X11654622Y-21247554D01*
X11751095Y-21058217D01*
X11816757Y-20856130D01*
X11816757Y-20856127D01*
X11850000Y-20646246D01*
X11850000Y-20498597D01*
X11869685Y-20431558D01*
X11922489Y-20385803D01*
X11991647Y-20375859D01*
X12055203Y-20404884D01*
X12061681Y-20410916D01*
X13079181Y-21428416D01*
X13112666Y-21489739D01*
X13115500Y-21516097D01*
X13115500Y-25059330D01*
X13115499Y-25059348D01*
X13115499Y-25225054D01*
X13115498Y-25225054D01*
X13156423Y-25377785D01*
X13185358Y-25427900D01*
X13185359Y-25427904D01*
X13185360Y-25427904D01*
X13235479Y-25514714D01*
X13235481Y-25514717D01*
X13354349Y-25633585D01*
X13354355Y-25633590D01*
X18667181Y-30946416D01*
X18700666Y-31007739D01*
X18703500Y-31034097D01*
X18703500Y-56555330D01*
X18703499Y-56555348D01*
X18703499Y-56721054D01*
X18703498Y-56721054D01*
X18744423Y-56873785D01*
X18773358Y-56923900D01*
X18773359Y-56923904D01*
X18773360Y-56923904D01*
X18823479Y-57010714D01*
X18823481Y-57010717D01*
X18942349Y-57129585D01*
X18942355Y-57129590D01*
X35877139Y-74064374D01*
X35877149Y-74064385D01*
X35881479Y-74068715D01*
X35881480Y-74068716D01*
X35993284Y-74180520D01*
X36058917Y-74218412D01*
X36080095Y-74230639D01*
X36080097Y-74230641D01*
X36118151Y-74252611D01*
X36130215Y-74259577D01*
X36282943Y-74300501D01*
X36282946Y-74300501D01*
X36448653Y-74300501D01*
X36448669Y-74300500D01*
X56264000Y-74300500D01*
X56331039Y-74320185D01*
X56376794Y-74372989D01*
X56388000Y-74424500D01*
X56388000Y-76491500D01*
X56368315Y-76558539D01*
X56315511Y-76604294D01*
X56264000Y-76615500D01*
X36368098Y-76615500D01*
X36301059Y-76595815D01*
X36280417Y-76579181D01*
X17400819Y-57699583D01*
X17367334Y-57638260D01*
X17364500Y-57611902D01*
X17364500Y-32855060D01*
X17364501Y-32855047D01*
X17364501Y-32686944D01*
X17363647Y-32683757D01*
X17323577Y-32534216D01*
X17303823Y-32500000D01*
X17244524Y-32397290D01*
X17244518Y-32397282D01*
X11985590Y-27138355D01*
X11978521Y-27131286D01*
X11978520Y-27131284D01*
X11886815Y-27039579D01*
X11865159Y-26999916D01*
X11853333Y-26978259D01*
X11850499Y-26951901D01*
X11850499Y-26602129D01*
X11850498Y-26602123D01*
X11850497Y-26602116D01*
X11844091Y-26542517D01*
X11793796Y-26407669D01*
X11793795Y-26407668D01*
X11793793Y-26407664D01*
X11707547Y-26292455D01*
X11707544Y-26292452D01*
X11592335Y-26206206D01*
X11592328Y-26206202D01*
X11457482Y-26155908D01*
X11457483Y-26155908D01*
X11397883Y-26149501D01*
X11397881Y-26149500D01*
X11397873Y-26149500D01*
X11397864Y-26149500D01*
X9602129Y-26149500D01*
X9602123Y-26149501D01*
X9542516Y-26155908D01*
X9407671Y-26206202D01*
X9407664Y-26206206D01*
X9292455Y-26292452D01*
X9292452Y-26292455D01*
X9206206Y-26407664D01*
X9206202Y-26407671D01*
X9155908Y-26542517D01*
X9149501Y-26602116D01*
X9149501Y-26602123D01*
X9149500Y-26602135D01*
X9149500Y-28397870D01*
X9149501Y-28397876D01*
X9155908Y-28457483D01*
X9206202Y-28592328D01*
X9206206Y-28592335D01*
X9292452Y-28707544D01*
X9292455Y-28707547D01*
X9407664Y-28793793D01*
X9407671Y-28793797D01*
X9452618Y-28810561D01*
X9542517Y-28844091D01*
X9602127Y-28850500D01*
X9612685Y-28850499D01*
X9679723Y-28870179D01*
X9700372Y-28886818D01*
X10370591Y-29557037D01*
X10307007Y-29574075D01*
X10192993Y-29639901D01*
X10099901Y-29732993D01*
X10034075Y-29847007D01*
X10017037Y-29910591D01*
X9384728Y-29278282D01*
X9384727Y-29278282D01*
X9345380Y-29332439D01*
X9248904Y-29521782D01*
X9183242Y-29723869D01*
X9183242Y-29723872D01*
X9150000Y-29933753D01*
X9150000Y-30146246D01*
X9183242Y-30356127D01*
X9183242Y-30356130D01*
X9248904Y-30558217D01*
X9345375Y-30747550D01*
X9384728Y-30801716D01*
X10017037Y-30169408D01*
X10034075Y-30232993D01*
X10099901Y-30347007D01*
X10192993Y-30440099D01*
X10307007Y-30505925D01*
X10370590Y-30522962D01*
X9738282Y-31155269D01*
X9738282Y-31155270D01*
X9792452Y-31194626D01*
X9792451Y-31194626D01*
X9801495Y-31199234D01*
X9852292Y-31247208D01*
X9869087Y-31315029D01*
X9846550Y-31381164D01*
X9801499Y-31420202D01*
X9792182Y-31424949D01*
X9620213Y-31549890D01*
X9469890Y-31700213D01*
X9344951Y-31872179D01*
X9248444Y-32061585D01*
X9248443Y-32061587D01*
X9248443Y-32061588D01*
X9223279Y-32139036D01*
X9182753Y-32263760D01*
X9149500Y-32473713D01*
X9149500Y-32686286D01*
X9174647Y-32845061D01*
X9182754Y-32896243D01*
X9237943Y-33066097D01*
X9248444Y-33098414D01*
X9344951Y-33287820D01*
X9469890Y-33459786D01*
X9620213Y-33610109D01*
X9792179Y-33735048D01*
X9792181Y-33735049D01*
X9792184Y-33735051D01*
X9981588Y-33831557D01*
X10183757Y-33897246D01*
X10393713Y-33930500D01*
X10393714Y-33930500D01*
X10606286Y-33930500D01*
X10606287Y-33930500D01*
X10816243Y-33897246D01*
X11018412Y-33831557D01*
X11207816Y-33735051D01*
X11258119Y-33698504D01*
X11379786Y-33610109D01*
X11379788Y-33610106D01*
X11379792Y-33610104D01*
X11530104Y-33459792D01*
X11530106Y-33459788D01*
X11530109Y-33459786D01*
X11655048Y-33287820D01*
X11655047Y-33287820D01*
X11655051Y-33287816D01*
X11751557Y-33098412D01*
X11817246Y-32896243D01*
X11850500Y-32686287D01*
X11850500Y-32473713D01*
X11817246Y-32263757D01*
X11751557Y-32061588D01*
X11655051Y-31872184D01*
X11655049Y-31872181D01*
X11655048Y-31872179D01*
X11530109Y-31700213D01*
X11379786Y-31549890D01*
X11207817Y-31424949D01*
X11198504Y-31420204D01*
X11147707Y-31372230D01*
X11130912Y-31304409D01*
X11153449Y-31238274D01*
X11198507Y-31199232D01*
X11207555Y-31194622D01*
X11261716Y-31155270D01*
X11261717Y-31155270D01*
X10629408Y-30522962D01*
X10692993Y-30505925D01*
X10807007Y-30440099D01*
X10900099Y-30347007D01*
X10965925Y-30232993D01*
X10982962Y-30169408D01*
X11615270Y-30801717D01*
X11615270Y-30801716D01*
X11654622Y-30747554D01*
X11751095Y-30558217D01*
X11816757Y-30356130D01*
X11816757Y-30356127D01*
X11850000Y-30146246D01*
X11850000Y-29933753D01*
X11816757Y-29723872D01*
X11816757Y-29723869D01*
X11751095Y-29521782D01*
X11654624Y-29332449D01*
X11615270Y-29278282D01*
X11615269Y-29278282D01*
X10982962Y-29910590D01*
X10965925Y-29847007D01*
X10900099Y-29732993D01*
X10807007Y-29639901D01*
X10692993Y-29574075D01*
X10629409Y-29557037D01*
X11299627Y-28886818D01*
X11360950Y-28853333D01*
X11387307Y-28850499D01*
X11397872Y-28850499D01*
X11457483Y-28844091D01*
X11592331Y-28793796D01*
X11706607Y-28708248D01*
X11772071Y-28683831D01*
X11840344Y-28698682D01*
X11868599Y-28719834D01*
X16127181Y-32978416D01*
X16160666Y-33039739D01*
X16163500Y-33066097D01*
X16163500Y-42288681D01*
X16143815Y-42355720D01*
X16091011Y-42401475D01*
X16036477Y-42412644D01*
X5964113Y-42166978D01*
X5897573Y-42145665D01*
X5853119Y-42091761D01*
X5843141Y-42041858D01*
X5919423Y-33879786D01*
X5932620Y-32467682D01*
X5956358Y-29927722D01*
X6021405Y-22967682D01*
X6045143Y-20427722D01*
X6094852Y-15108841D01*
X6115163Y-15041989D01*
X6168392Y-14996729D01*
X6218847Y-14986000D01*
X54994000Y-14986000D01*
X55061039Y-15005685D01*
G37*
%TD.AperFunction*%
M02*
